<svg id="Layer_1" data-name="Layer 1" xmlns="http://www.w3.org/2000/svg" viewBox="0 0 30 30"><defs><style>.cls-1{fill:#e8e8e8;}.cls-2{fill:#13274f;}.cls-3{fill:#ce1141;}.cls-4{fill:#eaaa00;}</style></defs><title>atlanta-braves</title><circle class="cls-1" cx="15" cy="15" r="15"/><path class="cls-2" d="M27.95,17.5s0,0,0-.05a1.2,1.2,0,0,0,0-.26,1.58,1.58,0,0,0-.31-0.62l-0.08-.12,0-.09-0.06-.14a1.05,1.05,0,0,0,.36-0.54,0.88,0.88,0,0,0-.23-0.85,1.17,1.17,0,0,0-.93-0.3,1.34,1.34,0,0,0-.36-0.9s0,0,0,0a1.65,1.65,0,0,0-.43-1.23,0.47,0.47,0,0,1-.14-0.21L25.65,12a0.81,0.81,0,0,0-.29-0.34l-0.48-.36-0.32.51a1.48,1.48,0,0,0-.22.73v0.1l0,0-0.15.17,0,0a1.44,1.44,0,0,0-.26,1.06V14l0,0a1.18,1.18,0,0,0-.2.73v0.17L12.34,16.55a1,1,0,0,0-.94,1.08,1,1,0,0,0,1.13,1c0.31,0,7.95-1.17,10.66-1.57a1.71,1.71,0,0,0,0,.34,1.44,1.44,0,0,0,.08.47,1.18,1.18,0,0,0-.09.33,1.68,1.68,0,0,0,0,.21,1,1,0,0,0,.35.81,1.07,1.07,0,0,0,1.05.07,2.6,2.6,0,0,0,1.38-.13,1.59,1.59,0,0,0,1-.29h0.36A0.87,0.87,0,0,0,28,18.35,0.74,0.74,0,0,0,28.11,18a1.12,1.12,0,0,0-.17-0.54"/><path class="cls-3" d="M27.73,17.62l0,0,0,0h0s0-.07,0-0.12a0.94,0.94,0,0,0,0-.2,1.38,1.38,0,0,0-.27-0.52l-0.1-.15-0.06-.13a1.2,1.2,0,0,0-.15-0.31,0.87,0.87,0,0,0,.45-0.53,0.62,0.62,0,0,0-.17-0.6,1,1,0,0,0-.88-0.21l0-.07-0.08-.12s0,0,0-.05a1.09,1.09,0,0,0-.31-0.78l0-.06V13.58a1.4,1.4,0,0,0-.35-1.05,0.69,0.69,0,0,1-.19-0.3l-0.06-.13a0.62,0.62,0,0,0-.19-0.22L25,11.65l-0.19.3a1.24,1.24,0,0,0-.18.61l0,0.16a0.3,0.3,0,0,1-.11.14L24.33,13l0,0a1.18,1.18,0,0,0-.2.9,0.57,0.57,0,0,1,0,.16l0,0,0,0.06a0.94,0.94,0,0,0-.14.58V15a0.63,0.63,0,0,1-.05.19L12.37,16.8a0.76,0.76,0,0,0-.72.8,0.75,0.75,0,0,0,.87.75c0.32,0,8.89-1.31,11-1.63a2,2,0,0,0-.13.65,1.16,1.16,0,0,0,.11.49,1,1,0,0,0-.12.34,1.42,1.42,0,0,0,0,.17,0.71,0.71,0,0,0,.25.61,0.92,0.92,0,0,0,.9,0,2.34,2.34,0,0,0,1.34-.14,1.23,1.23,0,0,0,1-.25l0,0a0.19,0.19,0,0,1,.12,0h0.28a0.63,0.63,0,0,0,.53-0.32,0.48,0.48,0,0,0,0-.2,0.88,0.88,0,0,0-.13-0.42"/><path class="cls-2" d="M23.36,12.11a1.35,1.35,0,0,1,0-1.31,0.38,0.38,0,0,0,.05-0.4,0.37,0.37,0,0,0-.36-0.22h0c-0.74.07-1.15,0.94-1.59,1.86l-0.15.29H21.27a0.93,0.93,0,0,0-.21,0s0,0,0,0A0.38,0.38,0,0,0,21,12.18l0.14,0a0.47,0.47,0,0,0,.3-0.35,0.74,0.74,0,0,0,0-.18,0.69,0.69,0,0,0-.11-0.38,0.77,0.77,0,0,0-.55-0.33,1.16,1.16,0,0,0-1.1.81,1.66,1.66,0,0,1-.51.39,0.73,0.73,0,0,0-.59-0.67,0.8,0.8,0,0,0-.86.46v0a0.61,0.61,0,0,0-.29-0.27c-0.93-.37-1.65.76-2.27,1.75a8.53,8.53,0,0,1-.71,1l0,0a0.71,0.71,0,0,1,.07-0.24l0.86-2-1.18.12,0,0.06a1.09,1.09,0,0,0-.36-0.12,2,2,0,0,0-2,1.72,3.55,3.55,0,0,1-.19.38,1.39,1.39,0,0,1-.75.79,0.39,0.39,0,0,1,0-.12,4.83,4.83,0,0,1,.33-1.41,0.59,0.59,0,0,0,0-.2,0.38,0.38,0,0,0-.12-0.28,0.37,0.37,0,0,0-.43,0,2.07,2.07,0,0,1-.59.23s0-.06,0-0.09A0.63,0.63,0,0,0,10,13a0.77,0.77,0,0,0-1.37-.23,0.87,0.87,0,0,0-.18.54,1,1,0,0,0,.07.38,1.1,1.1,0,0,0,.22.33c-0.11.22-.23,0.46-0.35,0.67A7.49,7.49,0,0,1,7.3,16.25l0,0.06,0-.1a2.71,2.71,0,0,0,.14-0.86,2.54,2.54,0,0,0-.59-1.62,2.39,2.39,0,0,0,.95-1.85,2.16,2.16,0,0,0,0-.42L8,11.37a0.37,0.37,0,0,0-.1-0.73l-0.51,0a2.19,2.19,0,0,0-1.86-.83,2.32,2.32,0,0,0-1.88,1,2.23,2.23,0,0,0-.48,1.64l0,0.19,0.2,0.07a0.35,0.35,0,0,0,.35-0.08,1.36,1.36,0,0,1,.51-0.3h0a8.89,8.89,0,0,0-1.08,2.31,5.48,5.48,0,0,1-1,2.07l-0.14.13,0,0.2a6.41,6.41,0,0,1,0,1.16,0.39,0.39,0,0,0,.2.37,0.36,0.36,0,0,0,.39,0C3.5,18,4,16.37,4.48,15c0.19-.58.38-1.13,0.54-1.51a0.72,0.72,0,0,0,0,.31,0.71,0.71,0,0,0,.86.55l0.08,0a1.44,1.44,0,0,1,.19.77,2.22,2.22,0,0,1-.12.73,1.36,1.36,0,0,1-1.28,1,1.11,1.11,0,0,1-.4-0.1,0.35,0.35,0,0,0-.49.11,0.37,0.37,0,0,0,.11.5H4a1.88,1.88,0,0,0,1.45.51,2.11,2.11,0,0,0,1.72-1.27v0a0.37,0.37,0,0,0,.08.22,0.38,0.38,0,0,0,.53.06,3.33,3.33,0,0,0,.52-0.39,6.27,6.27,0,0,0,1-1.33s0.21-.34.39-0.72H9.83a3,3,0,0,0-.19.92,0.85,0.85,0,0,0,.51.85A1.7,1.7,0,0,0,12,15.49a0.9,0.9,0,0,0,.65.37,1.35,1.35,0,0,0,.78-0.28,1,1,0,0,0,.67.19,2,2,0,0,0,1.31-1l0.26-.41a10.42,10.42,0,0,1,1-1.36,1.18,1.18,0,0,1-.1.21A2.85,2.85,0,0,0,16,14.49a0.76,0.76,0,0,0,0,.26,0.65,0.65,0,0,0,.42.4c0.83,0.28,1.71-.44,2.38-1.9l0.25-.09a1.42,1.42,0,0,0-.16.57,0.93,0.93,0,0,0,.28.68,1.34,1.34,0,0,0,1.68,0,1.67,1.67,0,0,0,.79.22,1.74,1.74,0,0,0,1.51-.78,1.87,1.87,0,0,0,.16-1.73h0ZM4.6,12a1.09,1.09,0,0,1,.23-0.76A0.93,0.93,0,0,1,5.58,11a1,1,0,0,1,.33.09A4,4,0,0,0,4.6,12v0h0Zm0.61,1.15v0L5.3,13a3,3,0,0,1,1.21-1,1.63,1.63,0,0,1-.37,1h0l0,0a0.74,0.74,0,0,0-.82.06l-0.06.06h0Zm17.23-.52a0.81,0.81,0,0,1-.69.84c0.22-.33.4-0.67,0.56-1l0.1-.18a1.28,1.28,0,0,1,0,.22s0,0.06,0,.1h0Zm-2.16,1.1a0.21,0.21,0,0,1-.19,0,0.12,0.12,0,0,1,0-.1,0.51,0.51,0,0,1,.07-0.22,0.78,0.78,0,0,1,.13-0.18,1.08,1.08,0,0,0,0,.16,1.1,1.1,0,0,0,.06.34h0ZM20.77,12l0,0a0.39,0.39,0,0,0-.25,0h0a0.28,0.28,0,0,1,.1-0.2l0,0a0.39,0.39,0,0,0,.09.22h0Zm-3.12,1a1.61,1.61,0,0,0,.05-0.15l0,0.06a0.79,0.79,0,0,0,.17.19,2.71,2.71,0,0,1-.66.88,5.18,5.18,0,0,1,.3-0.7L17.64,13h0Zm-4.7,1.7a0.06,0.06,0,0,1-.06,0,0.57,0.57,0,0,1,0-.42,1.29,1.29,0,0,1,.63-1h0a0.25,0.25,0,0,1,0,.12,1.24,1.24,0,0,1-.1.43,1.51,1.51,0,0,1-.51.85h0Z"/><path class="cls-3" d="M23,12.24a1.7,1.7,0,0,1,.09-1.66s0-.05,0-0.05c-0.54.05-.89,0.77-1.31,1.66q-0.14.29-.3,0.58a0.55,0.55,0,0,0-.85.27,0.76,0.76,0,0,0,.09.77l-0.13.12c-0.5.4-1.15,0-.78-0.72a1.82,1.82,0,0,1,.8-0.69c0.08,0,.17-0.15,0-0.1a0.36,0.36,0,0,1-.44-0.2,0.62,0.62,0,0,1,.2-0.63c0.41-.34.65,0,0.61,0.19s0,0,0-.06a0.37,0.37,0,0,0-.35-0.45,0.86,0.86,0,0,0-.78.67,2,2,0,0,1-1.22.67,1.3,1.3,0,0,0,.09-0.43A0.41,0.41,0,0,0,18,12a0.61,0.61,0,0,0,.33.92c-0.32.67-.87,1.51-1.28,1.42s0-.89.26-1.52,0.14-.79-0.05-0.86c-1-.39-1.8,1.78-2.61,2.69-0.52.58-.83,0-0.54-0.6l0.62-1.47-0.38,0L14.24,13a0.69,0.69,0,0,0-.54-0.36,1.65,1.65,0,0,0-1.58,1.46,3.67,3.67,0,0,1-.22.46c-0.44.78-.91,1.09-1.24,0.93s0-1.61.19-2c0-.08,0-0.1,0-0.08a2.25,2.25,0,0,1-1.19.33,1.07,1.07,0,0,0,.1-0.59c-0.24-.64-1.09-0.24-0.83.42a0.77,0.77,0,0,0,.33.38c-0.14.31-.33,0.67-0.48,0.95A7.79,7.79,0,0,1,7.55,16.5c-0.1.11,0,.08,0,0A3.09,3.09,0,0,0,8,16.2a6,6,0,0,0,1-1.26A7.89,7.89,0,0,0,9.49,14,1.17,1.17,0,0,0,10,14a2.07,2.07,0,0,0,.36-0.13s0,0,0,0c0,0.36-.76,1.61-0.06,1.92,0.39,0.18,1.12-.09,1.77-1a0.68,0.68,0,0,0,.58.68,1.13,1.13,0,0,0,.74-0.38c0.21,0.19.73,0.81,1.71-.57a15.54,15.54,0,0,1,1.3-1.84c0.49-.49.85-0.06,0.42,0.68-0.32.54-.71,1.26-0.23,1.42,0.8,0.26,1.57-.8,2-1.87a3,3,0,0,0,1.33-.74,0.46,0.46,0,0,0,.19.35,3.25,3.25,0,0,0-.59.52c-0.8,1.14.48,1.66,1.25,1l0.1-.09a1.28,1.28,0,0,0,.81.29,1.44,1.44,0,0,0,1.35-2h0Zm-14,1.23c-0.25-.41.41-0.66,0.4-0.2a1.71,1.71,0,0,1-.14.4,0.49,0.49,0,0,1-.26-0.2h0Zm4.7,0.5c-0.29.77-.62,1.22-1,1-0.63-.28,0-2.09.75-2.09,0.31,0,.55.32,0.27,1h0Zm4.72-2c0.16,0.06.16,0.23,0,.59l-0.17,0c-0.27-.11-0.11-0.65.15-0.55h0Zm2.3,1.1a0.27,0.27,0,0,1,.52,0,5,5,0,0,1-.39.55,0.41,0.41,0,0,1-.13-0.51h0Zm2-.48a1.23,1.23,0,0,1-1.69,1.11c0.69-.81,1.11-2,1.45-2.29a4.68,4.68,0,0,1,.23,1.18h0ZM7.32,11.23L7.91,11s0.09,0,0,0a5.54,5.54,0,0,0-.68.05,1.8,1.8,0,0,0-1.69-.85,2.09,2.09,0,0,0-2,2.17,0,0,0,0,0,0,0A1.58,1.58,0,0,1,4.26,12a1.2,1.2,0,0,1,1.33-1.36,1.41,1.41,0,0,1,1,.56,3.68,3.68,0,0,0-2,1.3C3.62,13.81,3.43,16,2.43,17a6.75,6.75,0,0,1,.05,1.24c0,0.05,0,0,0,0C3.65,17.4,4.3,13.76,5,12.88a3.57,3.57,0,0,1,1.81-1.43,1.44,1.44,0,0,1,.09.35,2,2,0,0,1-.45,1.38,0.59,0.59,0,0,1-.32.22L6,13.32a0.37,0.37,0,0,0-.59.37,0.37,0.37,0,0,0,.46.28,2.17,2.17,0,0,1,.24-0.11c0.9,0.74.44,3.32-1.31,3.28A1.42,1.42,0,0,1,4.19,17s0,0,0,0a1.57,1.57,0,0,0,1.24.46c1.42-.06,2.44-2.43.89-3.78a2,2,0,0,0,1-2.45"/><path class="cls-2" d="M27.5,17.76a0.23,0.23,0,0,1-.07-0.23,0.74,0.74,0,0,0,0-.23,1.1,1.1,0,0,0-.22-0.41l-0.12-.18L27,16.54a0.86,0.86,0,0,0-.21-0.35l0,0L26.66,16a0.84,0.84,0,0,0,.64-0.49,0.33,0.33,0,0,0-.09-0.33,0.83,0.83,0,0,0-.82-0.1h0a1.39,1.39,0,0,0-.13-0.21l0,0-0.09-.15a0.18,0.18,0,0,1,0-.09A0.82,0.82,0,0,0,25.87,14a0.45,0.45,0,0,1-.11-0.16,1,1,0,0,1,0-.23,1.12,1.12,0,0,0-.27-0.85,1,1,0,0,1-.26-0.39l-0.05-.12a0.41,0.41,0,0,0-.12-0.12l0,0,0,0a1,1,0,0,0-.13.48l0,0.21a0.55,0.55,0,0,1-.18.28l-0.11.11,0,0a0.93,0.93,0,0,0-.14.72,0.46,0.46,0,0,1-.11.38l0,0a0.71,0.71,0,0,0-.08.41l0,0.24v0.09l0,0.11h0a0.41,0.41,0,0,1-.12.2h0l-0.84.12H23l-1.13.16h0l-0.23,0-8,1.16h0l-0.25,0-1,.14a0.5,0.5,0,1,0,.09,1L13.33,18h0l0.26,0,7.25-1.07h0l0.13,0,2.37-.35h0l0.37-.06h0l0.14,0a1.8,1.8,0,0,1-.1.39,1.85,1.85,0,0,0-.13.59,0.92,0.92,0,0,0,.14.49v0a0.84,0.84,0,0,0-.14.35,1.2,1.2,0,0,0,0,.14,0.45,0.45,0,0,0,.15.38,0.72,0.72,0,0,0,.71-0.05,2.07,2.07,0,0,0,1.39-.15,0.86,0.86,0,0,0,.81-0.19l0.05,0a0.43,0.43,0,0,1,.28,0h0.21a0.41,0.41,0,0,0,.33-0.16,0.42,0.42,0,0,0-.08-0.36h0Zm-14.19.09L12.49,18A0.39,0.39,0,0,1,12,17.56v0a0.39,0.39,0,0,1,.4-0.36l0.8-.11a0.53,0.53,0,0,1,.15.32,0.73,0.73,0,0,1-.06.47h0Zm7.14-1.05-6.62,1a1,1,0,0,0,0-.48A0.75,0.75,0,0,0,13.74,17l6.62-1a2.91,2.91,0,0,1,.09.77h0Zm0.46-.4A3.32,3.32,0,0,0,20.83,16l0.43-.06-0.36.5h0Zm0.38,0.28,0.29-.41a2.87,2.87,0,0,1,0,.36l-0.31,0h0Zm0.78-.12a2.89,2.89,0,0,0,0-.36l0.33,0.31-0.32,0h0Zm0.59-.47-0.36-.34,0.66-.09-0.29.43h0Zm0.68,0.28-0.38.06L23.3,16a2.59,2.59,0,0,1,0,.42h0Zm3.81-1.09a0.23,0.23,0,0,1,.07.17,0.25,0.25,0,0,1,0,.06,0.79,0.79,0,0,1-.6.42,0.71,0.71,0,0,1-.08-0.15l0-.07h0l0-.14a1.29,1.29,0,0,1,0-.16s0-.08,0-0.12V15.22h0a0.74,0.74,0,0,1,.72.07h0Zm-0.8.19a0.86,0.86,0,0,0,0,.1h0l0,0.1a0.47,0.47,0,0,1-.18,0l0.13-.17h0ZM26.21,15a4.23,4.23,0,0,1-.36.45,2.35,2.35,0,0,1-.41-0.32l0.12,0L26.21,15h0ZM26,16H25.87l0,0L26,16h0Zm-1.49-.39a0.72,0.72,0,0,0-.06-0.24l0,0,0.44-.12a4.73,4.73,0,0,0,.63.52l-0.15.11-0.13,0a3.61,3.61,0,0,0-.71-0.19h0Zm0.31,0.52a2.46,2.46,0,0,1-.48.13A1.21,1.21,0,0,0,24.49,16a1.1,1.1,0,0,1,.25.08l0.1,0h0Zm-0.6-1.4a0.66,0.66,0,0,1,.06-0.35l0,0a0.55,0.55,0,0,0,.13-0.45,0.84,0.84,0,0,1,.12-0.66l0,0,0.1-.1a0.66,0.66,0,0,0,.21-0.33l0-.22A1,1,0,0,1,25,12.21l0,0,0,0.12a1.06,1.06,0,0,0,.28.43,1,1,0,0,1,.24.78,1.15,1.15,0,0,0,0,.26,0.5,0.5,0,0,0,.13.2,0.71,0.71,0,0,1,.22.53s0,0,0,.07h0l-0.46.08a1.09,1.09,0,0,0-.08-0.85,0,0,0,0,0-.06,0h0a0.05,0.05,0,0,0,0,.07,0.93,0.93,0,0,1,0,.83H25.36a7,7,0,0,0-1.13.23V14.77h0Zm-0.37,1.53H23.8a2.84,2.84,0,0,0-.09-0.75l0.22,0h0a0.12,0.12,0,0,1,.12.08,0.85,0.85,0,0,1-.18.69h0Zm3.61,1.79a0.38,0.38,0,0,1-.26.11H27a0.52,0.52,0,0,0-.34.06l-0.05,0a0.78,0.78,0,0,1-.72.18l0,0h0a2,2,0,0,1-1.37.15h0a0.67,0.67,0,0,1-.63.07,0.45,0.45,0,0,1-.1-0.43,0.75,0.75,0,0,1,.13-0.31l0-.11h0a1.07,1.07,0,0,1,0-1,2.9,2.9,0,0,0,1.58-.46,2.49,2.49,0,0,0,1.3,0,0.81,0.81,0,0,1,.14.26L27,16.76,27.12,17a1,1,0,0,1,.2.37,0.58,0.58,0,0,1,0,.12s0,0.06,0,.08,0,0,0,.07a0.29,0.29,0,0,0,.1.22,0.5,0.5,0,0,1,.07.22,0.12,0.12,0,0,1,0,0h0Z"/><path class="cls-2" d="M24.88,14a0.05,0.05,0,0,1,0,.07,0.43,0.43,0,0,0-.21.3,0.39,0.39,0,0,0,.09.34,0.05,0.05,0,0,1,0,.07,0,0,0,0,1-.07,0h0a0.5,0.5,0,0,1-.11-0.43,0.53,0.53,0,0,1,.27-0.37,0.05,0.05,0,0,1,.07,0m1.57,2.53a0.05,0.05,0,0,1,0,.05,0.35,0.35,0,0,0,.17.2,0.58,0.58,0,0,1,.29.64,0,0,0,0,1-.06,0,0.05,0.05,0,0,1,0-.06,0.48,0.48,0,0,0-.26-0.53,0.4,0.4,0,0,1-.21-0.29,0,0,0,0,1,.05,0M27,17.59a0.09,0.09,0,0,1-.05.09H26.7a0.38,0.38,0,0,0-.19.08l-0.17.14,0,0a0.37,0.37,0,0,1-.22,0,0,0,0,0,0-.06,0A0.05,0.05,0,0,0,26,18a0.45,0.45,0,0,0,.27,0l0.08,0,0.17-.14a0.29,0.29,0,0,1,.14-0.06h0.23a0.2,0.2,0,0,0,.12-0.16,0.05,0.05,0,0,0,0-.06,0,0,0,0,0-.06,0h0Zm-1.4-.91a0.66,0.66,0,0,1,0,.61,0.16,0.16,0,0,0,.07.17,0.06,0.06,0,0,1,0,0s0,0,0,0a0.07,0.07,0,0,1-.06,0,0.27,0.27,0,0,1-.09-0.28,0.55,0.55,0,0,0,0-.52,0.05,0.05,0,0,1,0-.07,0,0,0,0,1,.07,0m-1,.16a0.24,0.24,0,0,1,0,.33l-0.12.1a0.22,0.22,0,0,0-.15.24,0.05,0.05,0,0,1,0,.06,0,0,0,0,1-.06,0h0a0.32,0.32,0,0,1,.18-0.35l0.11-.09a0.15,0.15,0,0,0,0-.19,0.05,0.05,0,0,1,0-.07,0,0,0,0,1,.07,0h0M24.31,18a0.24,0.24,0,0,0,.27.16l0.14-.06L24.87,18A0.24,0.24,0,0,1,25,18a0.16,0.16,0,0,0,.1,0h0a0.12,0.12,0,0,1,.09,0,0,0,0,0,1,0,.06l-0.08,0h0a0.23,0.23,0,0,1-.16,0,0.17,0.17,0,0,0-.1,0l-0.13.06-0.16.07A0.33,0.33,0,0,1,24.22,18a0.05,0.05,0,0,1,0-.07h0a0,0,0,0,1,.06,0h0m0.9-5.17a0.05,0.05,0,0,1,0,.07,0.52,0.52,0,0,0,0,.39,0.34,0.34,0,0,0,.17.2,0.05,0.05,0,0,1,0,.07,0,0,0,0,1-.06,0h0a0.44,0.44,0,0,1-.23-0.25,0.63,0.63,0,0,1,0-.47,0,0,0,0,1,.06,0"/><path class="cls-4" d="M25.48,14.84h0l0.56-.1h0a1,1,0,0,0,.1.17l-0.61.1-0.35.05-0.29.06a4.1,4.1,0,0,0-.51.13,0.34,0.34,0,0,0-.19-0.1l0-.07a6.59,6.59,0,0,1,1.16-.24l0.11,0m1.22,1.39a2.39,2.39,0,0,1-1.11,0l0,0,0,0,0.12-.11a1.85,1.85,0,0,0,.78-0.06l0.14,0.18m-3.57-.6h0.1l0,0.15v0l-0.47.63-0.31,0L22,16q0-.12,0-0.24l0.18,0,0.47,0.43h0l0,0,0.38-.55m-1.2.17,0,0.22a2.61,2.61,0,0,1,0,.47v0.06l-0.27,0v0a2.64,2.64,0,0,0,0-.43l0-.09,0-.08,0-.11h0.1M20.46,16l0.27,0a2.94,2.94,0,0,1,.09.66v0.11l-0.28,0V16.73A3,3,0,0,0,20.46,16m0.46,0.71s0-.09,0-0.13v0l0.48-.67h0.1l0.05,0.25-0.4.57-0.14,0H20.92m2.51-.37v0a2.53,2.53,0,0,0,0-.48,0,0,0,0,0,0,0c0-.11,0-0.17,0-0.21l0.27,0a2.75,2.75,0,0,1,.09.69s0,0,0,.06l-0.27,0m2.6-.49,0,0,0.1-.12a0.57,0.57,0,0,0,.27.06l0,0.09,0,0.07h0A0.87,0.87,0,0,1,26,15.9l0,0m-1,.23A1,1,0,0,1,24.78,16a1.2,1.2,0,0,0-.26-0.08,1,1,0,0,0,0-.2,3.64,3.64,0,0,1,.67.18l0.05,0L25,16.1h0m0.61-.4A4.7,4.7,0,0,1,25,15.22l0.16,0,0.14,0a2.43,2.43,0,0,0,.46.37l-0.14.13,0,0h0m-1.44-.42a0.26,0.26,0,0,1,.18.1h0l0,0.07a0.63,0.63,0,0,1,.06.27h0a0.84,0.84,0,0,1,0,.13v0a1.13,1.13,0,0,1-.19.45H24V16.27h0a1.1,1.1,0,0,0,.17-0.54,0.44,0.44,0,0,0,0-.18,0.24,0.24,0,0,0-.08-0.1,0.52,0.52,0,0,0,.11-0.18"/><path class="cls-4" d="M24,16.61a1.19,1.19,0,0,0,0-.17h0l0.28,0h0A2.51,2.51,0,0,0,25,16.2a2,2,0,0,0,.4-0.23h0l0.22-.17h0l0.06-.05h0a3.93,3.93,0,0,0,.56-0.64,0.34,0.34,0,0,1,0,.08,0.14,0.14,0,0,1,0,0v0.1h0a2.74,2.74,0,0,1-2.38,1.37l0-.1M13.61,17a0.52,0.52,0,0,1,.15.32,1.1,1.1,0,0,1,0,.17,0.57,0.57,0,0,1-.07.31l-0.28,0a0.77,0.77,0,0,0,.06-0.29,1.14,1.14,0,0,0,0-.18A0.67,0.67,0,0,0,13.33,17l0.29,0"/></svg>