<svg id="Layer_1" data-name="Layer 1" xmlns="http://www.w3.org/2000/svg" viewBox="0 0 30 30"><defs><style>.cls-1{fill:#e8e8e8;}.cls-2{fill:#fdfdfd;}.cls-3{fill:#df4601;}</style></defs><title>baltimore-orioles</title><circle class="cls-1" cx="15" cy="15" r="15"/><path d="M16.52,6.06a1.31,1.31,0,0,1,.59,0,1.28,1.28,0,0,1,.48.34,2.65,2.65,0,0,1,1,.23,6.44,6.44,0,0,0-.94.42,1.78,1.78,0,0,1-.48.79,0.58,0.58,0,0,0-.08.34,5.05,5.05,0,0,1,0,.73,3,3,0,0,1-.16.62,2.24,2.24,0,0,1-.61,1,3.52,3.52,0,0,1-1.71.74c-0.3.06-.59,0.09-0.89,0.12a0.49,0.49,0,0,0-.39.24,0.17,0.17,0,0,0,.13.17,6.19,6.19,0,0,1,1,.64,0.39,0.39,0,0,1,.16.23c0,0.07,0,.14,0,0.2a0.66,0.66,0,0,1-.34.35c-0.06.11-.11,0.22-0.16,0.34l0.08,0c-0.27.69-.51,1.39-0.75,2.09-0.15.44-.29,0.88-0.42,1.32a0.47,0.47,0,0,0,0,.28,0.28,0.28,0,0,0,.33-0.05,1.77,1.77,0,0,0,.41-0.45,3.23,3.23,0,0,1,.26-1.65c0.08-.16.13-0.33,0.21-0.49a0.92,0.92,0,0,0,.12-0.29,1.86,1.86,0,0,1,.21-0.58,1.32,1.32,0,0,1,1.75-.67,1.18,1.18,0,0,1,.59.67,2.41,2.41,0,0,1,.18.67,0.32,0.32,0,0,0,.18-0.18,8,8,0,0,1,.44-1.32,6.92,6.92,0,0,1,1-1.8,1.88,1.88,0,0,1,.89-0.68,0.69,0.69,0,0,1,.54.08,0.85,0.85,0,0,1,.27.71A4.49,4.49,0,0,1,20,12.79a4.87,4.87,0,0,1-1,1.46c-0.19.2-.4,0.38-0.61,0.56a1.75,1.75,0,0,0,0,.61,0.14,0.14,0,0,0,.17.14,1.34,1.34,0,0,0,.59-0.43,3.9,3.9,0,0,0,.33-0.41,3.13,3.13,0,0,1,.14-0.81c0.07-.23.18-0.44,0.26-0.66a2.42,2.42,0,0,1,1-1.23,1,1,0,0,1,.67-0.14,0.87,0.87,0,0,1,.64.58,1.49,1.49,0,0,1,0,.61,2.82,2.82,0,0,1-.6,1.29,3.48,3.48,0,0,1-.56.5,0.74,0.74,0,0,0,.59-0.35,5.81,5.81,0,0,0,.55-0.94c0.15-.3.31-0.61,0.45-0.91a6.7,6.7,0,0,1,.48-1,0.36,0.36,0,0,1,.21-0.19c0.34-.07.68-0.18,1-0.24a1.06,1.06,0,0,0-.05.69,5.74,5.74,0,0,1,.6,1.43,1.1,1.1,0,0,1,.75,1.45,2.06,2.06,0,0,1-.91,1.24,3.74,3.74,0,0,1-.77.4l-3.61,1.46q-3.51,1.43-7,2.89c-0.49.2-1,.42-1.46,0.65a8.4,8.4,0,0,0-2.68,1.72,3.35,3.35,0,0,0-.78-0.44,6.39,6.39,0,0,0-1.84-.31,0.27,0.27,0,0,1-.26-0.08A3,3,0,0,1,6.17,22c0-.11.09-0.22,0.13-0.32a0.18,0.18,0,0,1,.14-0.09c5.4-1.94,10.81-3.85,16.21-5.8,0.43-.16.87-0.31,1.29-0.48a2.82,2.82,0,0,0,.86-0.53c0.13-.11,0-0.27-0.1-0.35a1.42,1.42,0,0,1-1,.88,1,1,0,0,1-.87-0.18,0.91,0.91,0,0,1-.26-0.45,3.74,3.74,0,0,1-.87,1.12,1.45,1.45,0,0,1-1,.36,1.18,1.18,0,0,1-.92-0.42,4.12,4.12,0,0,1-1.12,1.1,1.48,1.48,0,0,1-.87.29,0.8,0.8,0,0,1-.68-0.51,2.62,2.62,0,0,1-.06-1,3.91,3.91,0,0,1-.26.79,3.71,3.71,0,0,1-.39.78,1.85,1.85,0,0,1-1.23.87,1.14,1.14,0,0,1-.66-0.08,1.16,1.16,0,0,1-.36-0.29A3.2,3.2,0,0,1,13,18.71a1.16,1.16,0,0,1-.94.09,0.69,0.69,0,0,1-.28-0.24,3.88,3.88,0,0,1-.77.71,1.09,1.09,0,0,1-.61.23A0.82,0.82,0,0,1,10,19.44a0.76,0.76,0,0,1-.38-0.52,2,2,0,0,1,0-1,5.77,5.77,0,0,1,.35-1A6.22,6.22,0,0,1,10.44,16l-0.2,0a2.11,2.11,0,0,1-.8.69,0.09,0.09,0,0,0-.07.07,6.44,6.44,0,0,1-.48,1.61A4.84,4.84,0,0,1,7.72,20.2a2,2,0,0,1-1.37.58A1.69,1.69,0,0,1,5,20.07a3.2,3.2,0,0,1-.54-1.54,5.18,5.18,0,0,1,.3-2.36c0.05-.15.12-0.29,0.18-0.43a4.86,4.86,0,0,1,.88-1.45C5.85,14.15,5.89,14,6,13.86a1.84,1.84,0,0,1,.72-1,1.66,1.66,0,0,1,1.48-.17,1.59,1.59,0,0,1,.91.84,4.5,4.5,0,0,1,.36,2,0.45,0.45,0,0,0,.21-0.17c0.07-.25.14-0.49,0.24-0.73a0.31,0.31,0,0,1,.29-0.19,4.13,4.13,0,0,1,.52.07,1,1,0,0,0,.74-0.19,0.36,0.36,0,0,1,.31-0.1,0.58,0.58,0,0,1,.27.26,2.27,2.27,0,0,1,.29.36,0.82,0.82,0,0,1-.21.72,5.41,5.41,0,0,0-.87,1.26,2.34,2.34,0,0,0-.21.63,1.13,1.13,0,0,0,0,.47,0.68,0.68,0,0,0,.36-0.21,2.52,2.52,0,0,0,.49-0.56c0.32-.9.6-1.81,0.95-2.7,0.06-.16.14-0.32,0.19-0.48a0.87,0.87,0,0,1-.07-0.4,3,3,0,0,1,.2-0.55,1,1,0,0,1,.45-0.54,0.73,0.73,0,0,0,.15-0.11,0.2,0.2,0,0,0-.08-0.1c-0.28-.16-0.58-0.31-0.86-0.48a0.37,0.37,0,0,1-.18-0.22,0.6,0.6,0,0,1,0-.29c-0.46-.05-0.93-0.12-1.39-0.2s-0.78,0-1.17,0A0.66,0.66,0,0,1,9.74,11,0.7,0.7,0,0,1,10,10.68a1.78,1.78,0,0,1,.69-0.34c-0.19-.09-0.39-0.15-0.58-0.23A0.59,0.59,0,0,0,9.86,10c-0.56,0-1.11.09-1.66,0.13a4.94,4.94,0,0,1-.76,0A1.17,1.17,0,0,1,6.78,10,1.29,1.29,0,0,1,6.48,9.9a1.33,1.33,0,0,1-.34-0.12,2.91,2.91,0,0,1-.38-0.22V9.51a1.07,1.07,0,0,1,.47-0.09s0-.08,0-0.12l0.17,0a1.3,1.3,0,0,1,.19-0.13A0.57,0.57,0,0,1,6.88,9c0.76,0.06,1.51.21,2.27,0.27A2,2,0,0,0,10,9.21,6.53,6.53,0,0,0,10.72,9c0.21-.08.4-0.21,0.6-0.31a8.28,8.28,0,0,1,.81-0.35,12.91,12.91,0,0,1,1.66-.65,1.49,1.49,0,0,0,.57-0.21c0.19-.16.4-0.29,0.58-0.47a4.19,4.19,0,0,1,.75-0.68,2.33,2.33,0,0,1,.83-0.27h0Z"/><path class="cls-2" d="M17.38,6.39a0.77,0.77,0,0,0,.31.11,4.56,4.56,0,0,1,.77.09,6.1,6.1,0,0,0-1.18.28c0.05-.09.12-0.17,0.17-0.25a0.77,0.77,0,0,0-.08-0.22h0Zm-0.95.29a0.26,0.26,0,0,1,.24-0.18,0.48,0.48,0,0,1,.35.16h-0.1a0.28,0.28,0,0,0-.3-0.13,0.21,0.21,0,0,0-.05.37,0.33,0.33,0,0,0,.29,0,0.29,0.29,0,0,1-.25.09,0.25,0.25,0,0,1-.17-0.26h0Z"/><path d="M17.47,6.58a0.59,0.59,0,0,1,.31,0,0.69,0.69,0,0,1-.31.11V6.58h0Z"/><path class="cls-2" d="M16.71,6.63s0.11,0.07.05,0.1A0.07,0.07,0,0,1,16.71,6.63ZM17.34,7c0.32-.08.64-0.18,1-0.27a3.18,3.18,0,0,0-.81.39V6.95H17.34Z"/><path class="cls-3" d="M15.6,8.13a0.29,0.29,0,0,1,0-.31,1,1,0,0,0,.17.26,2.08,2.08,0,0,0,.61.28l-0.19,0a4.56,4.56,0,0,1,.56.42H16.49a0.43,0.43,0,0,0,.23.11A0.7,0.7,0,0,0,17,8.42a1.32,1.32,0,0,1,0,.76,2.78,2.78,0,0,1-.37.85,2.39,2.39,0,0,1-1.27.95,7.81,7.81,0,0,1-1.4.28,1.83,1.83,0,0,0-.82.21,0.37,0.37,0,0,0-.14.26,0.24,0.24,0,0,1-.35-0.22,0.94,0.94,0,0,1,.07-0.27,5.32,5.32,0,0,1-.58-0.1l0,0c0.3-.08.6-0.13,0.9-0.2a9.53,9.53,0,0,0,1.58-.44A1.16,1.16,0,0,0,15,10.24c0.12-.11.28-0.16,0.39-0.28a2,2,0,0,1,.3-0.36,1.45,1.45,0,0,0,.43-0.48,1.93,1.93,0,0,1-.58.46,0.54,0.54,0,0,1-.25,0,3.71,3.71,0,0,0,.44-0.5,1.25,1.25,0,0,1-.81.44,0.78,0.78,0,0,0-.24-0.06,0.41,0.41,0,0,0,.25,0A2.15,2.15,0,0,0,15.4,9a2,2,0,0,1-.59.35,0.34,0.34,0,0,1-.23,0A2.41,2.41,0,0,0,15,9a1.71,1.71,0,0,1-.53.3,0.32,0.32,0,0,1-.18,0,2.6,2.6,0,0,0,.42-0.32,1.66,1.66,0,0,1-.41.22,0.58,0.58,0,0,1-.27,0,0.52,0.52,0,0,1,.34-0.31c0.21,0,.4-0.12.61-0.14V8.74a1.32,1.32,0,0,1,.88.06,1.2,1.2,0,0,0-.47-0.26,2.39,2.39,0,0,0-.28,0,0.66,0.66,0,0,0-.25,0,3.25,3.25,0,0,1-.33,0l-0.15.06a1.5,1.5,0,0,1-.33,0,1.4,1.4,0,0,1,.82-0.16V8.26a4.43,4.43,0,0,1,.5.11l-0.09-.1a2.69,2.69,0,0,1,.65.21,1.69,1.69,0,0,0-.34-0.35h0Zm-4.28.66a3.6,3.6,0,0,1,1.3-.42l0,0.2a1,1,0,0,1,.49.14,4,4,0,0,0-1.4.61c-0.11.08-.19,0.2-0.31,0.27a1,1,0,0,0-.27.23,4,4,0,0,1-.39.4L10.2,10l0.38-.05C10.4,9.84,10.19,9.85,10,9.79l0.2,0C10,9.67,9.77,9.69,9.56,9.62l0.19,0v0H9.47l0.16,0a1.86,1.86,0,0,0-.25-0.1,5.36,5.36,0,0,0,.69-0.11,6.9,6.9,0,0,0,.73-0.23,4.9,4.9,0,0,0,.51-0.28h0Z"/><path class="cls-2" d="M14.34,9.14a1.66,1.66,0,0,0,.41-0.22,2.61,2.61,0,0,1-.42.32,0.31,0.31,0,0,0,.18,0A1.71,1.71,0,0,0,15,9a2.4,2.4,0,0,1-.46.39,0.34,0.34,0,0,0,.23,0A2,2,0,0,0,15.4,9a2.15,2.15,0,0,1-.48.4,0.41,0.41,0,0,1-.25,0,0.55,0.55,0,0,1-.11-0.11l-0.16,0a0.45,0.45,0,0,1-.09-0.11,0.23,0.23,0,0,1-.23-0.12,0.58,0.58,0,0,0,.27,0h0Zm0.57,0.41a1.25,1.25,0,0,0,.81-0.44,3.72,3.72,0,0,1-.44.5,0.54,0.54,0,0,0,.25,0,1.93,1.93,0,0,0,.58-0.46,1.45,1.45,0,0,1-.43.48,2,2,0,0,0-.3.36c-0.11.12-.27,0.17-0.39,0.28a1.15,1.15,0,0,1-.37.22,9.56,9.56,0,0,1-1.58.44,8.19,8.19,0,0,0,1.41-.47,1.21,1.21,0,0,0,.45-0.31,0.33,0.33,0,0,1,.17-0.1,0.68,0.68,0,0,0,.37-0.34,0.46,0.46,0,0,0-.29-0.07,0.19,0.19,0,0,1-.24-0.07h0Zm-2.28-.16a1,1,0,0,1,.5-0.24,1.54,1.54,0,0,0-.33.19,0.61,0.61,0,0,0,.33,0,0.81,0.81,0,0,0,.37-0.05,0.06,0.06,0,0,1,.09,0,4,4,0,0,0-.41.08,1.74,1.74,0,0,1-.55,0h0Z"/><path class="cls-3" d="M6.5,9.34a2.86,2.86,0,0,1,.69,0c0.39,0,.79,0,1.18.11a3.62,3.62,0,0,0-.5,0c-0.22,0-.45,0-0.67,0s-0.47,0-.71,0h0Zm6.1,0h0a1.74,1.74,0,0,0,.55,0,1.15,1.15,0,0,1-.57,0h0Z"/><path class="cls-2" d="M11.94,9.63a0.7,0.7,0,0,1,.33-0.22l-0.12.14a1.18,1.18,0,0,0,.52.06c0.14,0,.29,0,0.43,0a1.15,1.15,0,0,0-.17.16,3.12,3.12,0,0,0,1.11-.13,2.47,2.47,0,0,1-1.29.19l0.16-.14-0.47,0c-0.17,0-.34,0-0.51,0h0Z"/><path class="cls-3" d="M6,9.55L8.14,9.72a5.63,5.63,0,0,0,.63,0v0c-0.22,0-.44,0-0.66,0L6.91,9.68a3,3,0,0,1-1-.13H6Z"/><path class="cls-2" d="M13.65,10a1.83,1.83,0,0,0,.67-0.29A0.85,0.85,0,0,1,13.65,10Z"/><path class="cls-3" d="M6.5,9.79c0.56,0,1.12.07,1.67,0.09,0.34,0,.69,0,1,0a14.9,14.9,0,0,1-1.57,0,5.75,5.75,0,0,1-1.14-.1h0Z"/><path class="cls-2" d="M11.47,10a0.82,0.82,0,0,1,.19-0.16s0,0.07,0,.1a4,4,0,0,0,1.16,0,3,3,0,0,1-1.35.07h0Zm2.88,0.18a2.25,2.25,0,0,0,.48-0.3,1.17,1.17,0,0,1-.21.21,0.92,0.92,0,0,1-.27.1h0Z"/><path class="cls-3" d="M7.08,10c0.18,0,.35,0,0.53,0,0.37,0,.74,0,1.11,0-0.42,0-.84,0-1.25,0A0.84,0.84,0,0,1,7.08,10h0Z"/><path class="cls-2" d="M11.41,10.24a8.68,8.68,0,0,0,1.68-.14,12.53,12.53,0,0,1-1.42.23,1.59,1.59,0,0,1-.56,0,1,1,0,0,1,.17-0.17,0.2,0.2,0,0,0,.13.09h0Zm-0.4.35a8.09,8.09,0,0,0,2.47-.38,2.89,2.89,0,0,1-.51.18,12.33,12.33,0,0,1-1.33.26,2.47,2.47,0,0,1-.8,0L11,10.51v0.08h0Z"/><path class="cls-3" d="M19.51,10.68A0.7,0.7,0,0,1,20,10.6a0.48,0.48,0,0,1,.3.37,1.84,1.84,0,0,1,0,.74A4.45,4.45,0,0,1,18.79,14c-0.13.12-.26,0.23-0.4,0.33a0.27,0.27,0,0,0-.08.18,2.85,2.85,0,0,0-.08.88,0.36,0.36,0,0,0,.18.28,0.33,0.33,0,0,0,.28,0,1.28,1.28,0,0,0,.44-0.29,5.44,5.44,0,0,0,.68-0.81,0.55,0.55,0,0,0,0-.31,3.06,3.06,0,0,1,.47-1.48,1.81,1.81,0,0,1,.83-0.74,0.64,0.64,0,0,1,.6,0,0.74,0.74,0,0,1,.32.63A1.61,1.61,0,0,1,21.56,14a2.94,2.94,0,0,1-1,.63A0.68,0.68,0,0,0,21,15a0.7,0.7,0,0,0,.62-0.17,3,3,0,0,0,.6-0.83q0.44-.84.83-1.71a2.24,2.24,0,0,1,.36-0.6c0.24-.08.49-0.13,0.74-0.19a0.89,0.89,0,0,0,0,.52c0.1,0.22.22,0.42,0.32,0.64a2.33,2.33,0,0,1,.27.84,1.29,1.29,0,0,1,.7.49,1,1,0,0,1,.05.79,1.42,1.42,0,0,1-.62.75,5.77,5.77,0,0,1-1,.46L20.45,17.4Q17,18.79,13.64,20.2c-0.46.19-.92,0.39-1.38,0.6a17.31,17.31,0,0,0-1.86,1,5.26,5.26,0,0,0-1,.79,5.64,5.64,0,0,0-.5-0.28,6.2,6.2,0,0,0-2.18-.41,0.2,0.2,0,0,1-.14-0.14c2.36-.86,4.73-1.7,7.1-2.54l8.67-3.1,1.45-.53a3.13,3.13,0,0,0,1.12-.66,0.82,0.82,0,0,0,.26-0.58,0.75,0.75,0,0,0-.45-0.55,1.29,1.29,0,0,1-.46.76,1.24,1.24,0,0,1-.68.26A0.7,0.7,0,0,1,23,14.5a0.62,0.62,0,0,1,0-.61,0.94,0.94,0,0,1,.58-0.47,1.71,1.71,0,0,1,.56-0.06,3.56,3.56,0,0,1-.49-1.16,1.94,1.94,0,0,0-.3.46c-0.31.59-.54,1.22-0.88,1.8a3.19,3.19,0,0,1-.76.87,1.25,1.25,0,0,1-.79.26,1,1,0,0,1-.67-0.26A1.49,1.49,0,0,1,20,15a4.08,4.08,0,0,1-.67.84,3,3,0,0,1-.9.62,0.81,0.81,0,0,1-.57,0,0.7,0.7,0,0,1-.42-0.57,4.12,4.12,0,0,1,.09-1.11c-0.14.09-.27,0.19-0.42,0.28a0.2,0.2,0,0,0-.12.13,3.44,3.44,0,0,1-.34,1.12,2.44,2.44,0,0,1-.48.68,1.48,1.48,0,0,1-1,.43,0.77,0.77,0,0,1-.54-0.21,1.24,1.24,0,0,1-.23-0.34l-0.11.16a3.24,3.24,0,0,1-.79.87,1.48,1.48,0,0,1-.93.35,0.44,0.44,0,0,1-.33-0.13A0.82,0.82,0,0,1,12,17.8a4,4,0,0,1-1,1,1.08,1.08,0,0,1-.52.16A0.52,0.52,0,0,1,10,18.69,1.28,1.28,0,0,1,9.9,18a4.17,4.17,0,0,1,.25-1,5.14,5.14,0,0,1,.74-1.35l0.23-.28a1.4,1.4,0,0,1-.82,0,1.15,1.15,0,0,1-.24.35,2.07,2.07,0,0,1-.73.49,0.11,0.11,0,0,0-.1.09,6,6,0,0,1-.52,2,4.14,4.14,0,0,1-1.05,1.48,1.82,1.82,0,0,1-1.14.45,1.51,1.51,0,0,1-1.31-.69,3.34,3.34,0,0,1-.48-1.83,4.83,4.83,0,0,1,1.31-3.43,0.36,0.36,0,0,0,.06-0.19,1.54,1.54,0,0,1,1.3-1.3,1.47,1.47,0,0,1,1.19.39,2.15,2.15,0,0,1,.51,1,6.19,6.19,0,0,1,.15,1.7,1.42,1.42,0,0,0,.61-0.45,2.37,2.37,0,0,0,.18-0.69,0.13,0.13,0,0,1,.12-0.09,2.55,2.55,0,0,1,.44.06,1.22,1.22,0,0,0,.9-0.2,0.29,0.29,0,0,1,.2-0.09c0.09,0.09.15,0.2,0.24,0.29a1.34,1.34,0,0,1,.18.21,0.19,0.19,0,0,1-.06.21,5.43,5.43,0,0,0-.8,1.15,3.77,3.77,0,0,0-.47,1.44,0.42,0.42,0,0,0,.12.39A0.33,0.33,0,0,0,11.27,18a2.84,2.84,0,0,0,.64-0.61,1.15,1.15,0,0,0,.19-0.31c0.35-1,.66-2,1-2.94A0.25,0.25,0,0,1,13.33,14c0.23-.06.44-0.15,0.67-0.2-0.36,1-.73,2-1,3.05a0.59,0.59,0,0,0,0,.49,0.32,0.32,0,0,0,.35.09,1,1,0,0,0,.45-0.31,3.21,3.21,0,0,0,.4-0.53,0.47,0.47,0,0,0,0-.3,3.41,3.41,0,0,1,.06-1,2.93,2.93,0,0,1,.48-1.07,0.31,0.31,0,0,0,0-.18,0.88,0.88,0,0,1,.31-0.66,1.2,1.2,0,0,1,.93-0.3,1,1,0,0,1,.69.43,2.19,2.19,0,0,1,.3,1.15,1.94,1.94,0,0,0,.45-0.28,0.29,0.29,0,0,0,.15-0.17,8.94,8.94,0,0,1,.53-1.68,6.33,6.33,0,0,1,.76-1.31,2.23,2.23,0,0,1,.64-0.59h0Z"/><path d="M19.67,11.11a0.14,0.14,0,0,1,.22,0,0.87,0.87,0,0,1-.07.59,5.94,5.94,0,0,1-.93,1.67,2.41,2.41,0,0,1-.45.44,9.15,9.15,0,0,1,.48-1.46,8,8,0,0,1,.45-1,0.87,0.87,0,0,1,.3-0.34h0Z"/><path class="cls-3" d="M13.14,11.71a0.34,0.34,0,0,1,.24-0.28,1.87,1.87,0,0,0-.11.25A0.47,0.47,0,0,1,13.14,11.71Z"/><path class="cls-2" d="M19.34,12a0.92,0.92,0,0,1,.24-0.31,1.46,1.46,0,0,1-.2.65,5,5,0,0,1-.56.89A6.62,6.62,0,0,1,19.34,12h0Z"/><path class="cls-3" d="M13.22,11.8a0.68,0.68,0,0,1,.19.07,6.19,6.19,0,0,1,.81.47,1.33,1.33,0,0,1,.25.22,0.3,0.3,0,0,1,0,.43c0-.11,0-0.22,0-0.32a0.54,0.54,0,0,0-.19-0.23,5.52,5.52,0,0,0-.85-0.51,0.42,0.42,0,0,1-.14-0.12h0Zm0.58,0.81a0.35,0.35,0,0,1,.35.09,0.49,0.49,0,0,1,0,.52,0.67,0.67,0,0,1-.65.43,0.34,0.34,0,0,1-.27-0.36,0.76,0.76,0,0,1,.54-0.69h0Z"/><path d="M21,12.86a0.59,0.59,0,0,1,.47-0.28,0.3,0.3,0,0,1,.19.37,1.24,1.24,0,0,1-.38.77,2.26,2.26,0,0,1-.75.45A2.33,2.33,0,0,1,21,12.86h0Z"/><path class="cls-2" d="M23.37,13l0.1,0.25-0.3.13L23.37,13h0Zm-2.27.25a0.43,0.43,0,0,1,.24-0.14,0.35,0.35,0,0,1-.06.38,1.56,1.56,0,0,1-.49.37,1.12,1.12,0,0,1,.31-0.61h0Z"/><path d="M7.4,13.54a0.63,0.63,0,0,1,.77.19,2,2,0,0,1,.27.91,8,8,0,0,1,0,1.32,1.21,1.21,0,0,1-.92-0.26A1.52,1.52,0,0,1,7,14a0.88,0.88,0,0,1,.43-0.48h0Zm8.15,0.11A0.44,0.44,0,0,1,16,13.58a0.52,0.52,0,0,1,.28.37,2,2,0,0,1,0,1,0.66,0.66,0,0,1-.52,0,0.87,0.87,0,0,1-.41-0.49,0.77,0.77,0,0,1,.23-0.78h0Zm7.8,0.17a1,1,0,0,1,.78-0.17,0.79,0.79,0,0,1-.18.69,0.46,0.46,0,0,1-.66,0,0.39,0.39,0,0,1,.05-0.54h0Z"/><path class="cls-2" d="M7.08,14.28a0.5,0.5,0,0,1,.57-0.21A0.6,0.6,0,0,1,8,14.5a4,4,0,0,1,.12,1.29,1.14,1.14,0,0,1-.77-0.48,1.32,1.32,0,0,1-.26-1h0Zm8.38-.08a0.29,0.29,0,0,1,.27-0.09,0.33,0.33,0,0,1,.22.27,1.45,1.45,0,0,1,0,.43,0.63,0.63,0,0,1-.52-0.62h0Zm8,0a0.87,0.87,0,0,1,.37,0A0.25,0.25,0,0,1,23.45,14.24Z"/><path d="M15,15a2.2,2.2,0,0,0,.59.28,1.62,1.62,0,0,0,.56,0,3.21,3.21,0,0,1-.13.53,2.53,2.53,0,0,1-.41.81,0.48,0.48,0,0,1-.39.21,0.45,0.45,0,0,1-.34-0.32,1.73,1.73,0,0,1,0-.91A2.52,2.52,0,0,1,15,15h0ZM5.9,16.25a2.65,2.65,0,0,1,.45-0.74,2.14,2.14,0,0,0,.73.65,2.26,2.26,0,0,0,1.28.19,6.7,6.7,0,0,1-.28,1.32A4.77,4.77,0,0,1,7.45,19a1.25,1.25,0,0,1-.75.54,0.8,0.8,0,0,1-.7-0.3,2.09,2.09,0,0,1-.37-1.05,3.77,3.77,0,0,1,.25-1.91h0Z"/><path class="cls-2" d="M15,15.73c0.11,0,.2.08,0.31,0.11a1.79,1.79,0,0,0,.48.09,1.65,1.65,0,0,1-.27.61,0.38,0.38,0,0,1-.3.2A0.54,0.54,0,0,1,15,16.29a1.88,1.88,0,0,1,0-.55h0Zm-8.81.44a2.22,2.22,0,0,0,.78.58,2.38,2.38,0,0,0,1,.16,5.42,5.42,0,0,1-.21,1,2.82,2.82,0,0,1-.26.64,1.9,1.9,0,0,1-.61.73,0.57,0.57,0,0,1-.58,0A0.91,0.91,0,0,1,6,18.78a3.13,3.13,0,0,1-.17-1.14,3.26,3.26,0,0,1,.13-1,2,2,0,0,1,.25-0.49h0Z"/></svg>