<svg id="Layer_1" data-name="Layer 1" xmlns="http://www.w3.org/2000/svg" viewBox="0 0 30 30"><defs><style>.cls-1{fill:#e8e8e8;}.cls-2{fill:#fff;}.cls-3{fill:#bd3039;}</style></defs><title>boston-red-sox</title><circle class="cls-1" cx="15" cy="15" r="15"/><path class="cls-2" d="M22.65,16.3a4.89,4.89,0,0,0-2.26-.69c-1.49-.2-2.67-0.35-2.84-2.79-0.25-3.55-.33-4.37-1.23-5L16.11,6.14a0.88,0.88,0,0,0-1-.76l-2.73.34a0.88,0.88,0,0,0-.59.33,0.85,0.85,0,0,0-.17.42,0.88,0.88,0,0,0-.88.58L10.2,8.63c-0.54.24-1,1-1.47,2.56l-0.27.9a10.57,10.57,0,0,1-1.76,4,3.45,3.45,0,0,0-1.06,2.27,2,2,0,0,0,.1.64c0.21,0.61.82,1.41,2.59,1.73a10.33,10.33,0,0,1,3.19,1.54,17.31,17.31,0,0,0,2.27,1.26c0.46,0.2,1.26.54,3.48,0A0.59,0.59,0,0,0,17.72,23a1.42,1.42,0,0,0,0-.27,4.85,4.85,0,0,0-1.94-3.26,13.94,13.94,0,0,1,3,.63c1.38,0.49,4,.82,5.47-0.26a0.69,0.69,0,0,0,.27-0.59,4.24,4.24,0,0,0-1.88-3"/><path class="cls-3" d="M22.46,16.57c-1.79-1.27-5,.36-5.24-3.73C17,9.13,16.86,8.56,16,8L15.77,6.18a0.54,0.54,0,0,0-.61-0.47L12.44,6a0.54,0.54,0,0,0-.48.5l0.48,0.17,0-.17a0.09,0.09,0,0,1,.17,0l0,0.26L13,6.91l-0.05-.41A0.11,0.11,0,0,1,13,6.39a0.11,0.11,0,0,1,.12.1L13.22,7l0.32,0.12-0.08-.64a0.13,0.13,0,0,1,.12-0.15,0.14,0.14,0,0,1,.15.12l0.1,0.78,0.29,0.11L14,6.41a0.13,0.13,0,0,1,.26,0L14.4,7.43l0.06,0a0.87,0.87,0,0,1,.26.15L14.57,6.32a0.11,0.11,0,1,1,.22,0L15,8a0.84,0.84,0,0,1,0,.28,0.85,0.85,0,0,1-.05.3l-0.56,1.58a1.43,1.43,0,0,1,.15.65,4.73,4.73,0,0,1-.76,2.06c-0.15.28-.3,0.55-0.41,0.8a8.63,8.63,0,0,0-.83,2.79,1.11,1.11,0,0,0,.23.73,3.15,3.15,0,0,1,.11-0.78c0.36,0.12,1.43.45,2,.56A11.33,11.33,0,0,0,15,18.85L15.11,19l0.21,0.15a14.52,14.52,0,0,1,3.56.69c1.44,0.5,3.86.74,5.18-.23,0.39-.24-0.08-1.94-1.6-3m-7-8.37a0.08,0.08,0,0,1-.1-0.07L15.14,6.21a0.09,0.09,0,0,1,.17,0L15.55,8.1a0.09,0.09,0,0,1-.07.1m8.24,11a3.63,3.63,0,0,1-1.73.51,0.23,0.23,0,0,1-.26-0.16L21.24,18.3a0.18,0.18,0,0,1,.1-0.28l1.08-.48a0.28,0.28,0,0,1,.37,0,3.16,3.16,0,0,1,.92,1.73s0,0,0,0"/><path class="cls-3" d="M15,19.26a24.66,24.66,0,0,0-2-1.51c-1.09-.74-0.84-1.84.14-4.24,0.48-1.08,1.58-2.43,1-3.35l0.61-1.73a0.54,0.54,0,0,0-.33-0.7l-2.59-.92a0.54,0.54,0,0,0-.7.33L10.46,8.89C10,9,9.55,9.69,9.05,11.29c-0.68,2.18-1.12,4-2.11,5-1.41,1.51-1.57,3.55,1.45,4.09,1.73,0.3,3.77,2.09,5.5,2.81,0.42,0.17,1.09.53,3.3,0,0.48-.1.3-2.2-2.23-3.95m-6.76.63a2.12,2.12,0,0,1-1.7-1.13,2.16,2.16,0,0,1,.64-1.95,8.09,8.09,0,0,1,1.63.84,6.59,6.59,0,0,0-.56,2.24m6-11.75a0.09,0.09,0,0,1,.05.11l-0.65,1.81A0.09,0.09,0,0,1,13.46,10l0.65-1.81a0.08,0.08,0,0,1,.11-0.05M13.7,8a0.11,0.11,0,0,1,.07.14L13.14,9.86a0.11,0.11,0,0,1-.14.07,0.12,0.12,0,0,1-.07-0.14L13.56,8A0.11,0.11,0,0,1,13.7,8m-0.52-.18a0.13,0.13,0,0,1,.08.17L12.64,9.66a0.14,0.14,0,0,1-.17.08,0.13,0.13,0,0,1-.08-0.17L13,7.85a0.14,0.14,0,0,1,.18-0.08M10.93,9.19a0.09,0.09,0,0,1-.05-0.11l0.64-1.81a0.09,0.09,0,0,1,.16.06L11,9.14a0.08,0.08,0,0,1-.11.05m0.52,0.18a0.11,0.11,0,0,1-.07-0.14L12,7.47a0.11,0.11,0,0,1,.14-0.07,0.12,0.12,0,0,1,.07.14L11.59,9.31a0.11,0.11,0,0,1-.14.06M12,9.56a0.13,0.13,0,0,1-.08-0.17L12.5,7.66a0.14,0.14,0,0,1,.25.1L12.14,9.48a0.13,0.13,0,0,1-.17.08m5,13.21a7.47,7.47,0,0,1-1.81.25,0.24,0.24,0,0,1-.3-0.23l-0.15-1.35a0.22,0.22,0,0,1,.22-0.26,4.71,4.71,0,0,0,1-.08c0.22-.07.28,0,0.31,0a3.12,3.12,0,0,1,.71,1.64s0,0,0,0"/></svg>