<svg id="Layer_1" data-name="Layer 1" xmlns="http://www.w3.org/2000/svg" viewBox="0 0 30 30"><defs><style>.cls-1{fill:#e8e8e8;}.cls-2{fill:#fff;}.cls-3{fill:#cc3433;}.cls-4{fill:#0e3386;}</style></defs><title>chicago-cubs</title><circle class="cls-1" cx="15" cy="15" r="15"/><path class="cls-2" d="M6.22,14.6a8.87,8.87,0,1,1,8.87,8.87A8.87,8.87,0,0,1,6.22,14.6h0Z"/><path class="cls-2" d="M6.19,14.6a8.89,8.89,0,1,1,8.89,8.89A8.89,8.89,0,0,1,6.19,14.6Zm0,0A8.85,8.85,0,1,0,8.83,8.35,8.82,8.82,0,0,0,6.24,14.6h0Z"/><path class="cls-3" d="M15.45,16V13.19H17a0.66,0.66,0,0,1,.82.8,0.6,0.6,0,0,1-.27.63,0.68,0.68,0,0,1,.27.68c0,0.63-.28.73-0.82,0.73H15.45Z"/><path class="cls-4" d="M6.81,14.6a8.28,8.28,0,1,1,8.28,8.28A8.28,8.28,0,0,1,6.81,14.6h0Zm8.28,6.11A6.11,6.11,0,1,0,9,14.6a6.11,6.11,0,0,0,6.11,6.11h0Z"/><path class="cls-3" d="M17.77,16.33A3.2,3.2,0,1,1,17.83,13l1.57-1.53a5.36,5.36,0,1,0,0,6.4l-1.59-1.49h0Z"/><path class="cls-3" d="M14.14,15.13V13.19h1v2c0,0.71-.17.87-0.73,0.87h-1c-0.46,0-.61-0.3-0.61-0.92V13.19h1v1.94a0.21,0.21,0,0,0,.42,0"/><path class="cls-2" d="M16.87,14c0-.12-0.11-0.11-0.41-0.11v0.4c0.17,0,.41,0,0.41-0.13V14Zm0,1.16C16.81,15,16.78,15,16.46,15v0.4c0.21,0,.4,0,0.4-0.13A0.72,0.72,0,0,0,16.86,15.12Z"/><path class="cls-3" d="M19.71,16c0.52,0,.79-0.14.79-0.6,0-.06,0-0.58,0-0.64a0.53,0.53,0,0,0-.57-0.55H19.23c-0.19,0-.15-0.27-0.15-0.36s0.39-.17.39,0v0.13h1c0-.66-0.12-0.87-0.79-0.87h-0.9a0.59,0.59,0,0,0-.68.66,3.43,3.43,0,0,0,0,.46,0.48,0.48,0,0,0,.53.59h0.71a0.18,0.18,0,0,1,.16.23v0.15c0,0.17-.34.17-0.41,0a0.43,0.43,0,0,1,0-.24h-1c0,0.2-.11.94,0.47,0.94h1.1Z"/><path class="cls-4" d="M19.27,16.56H19.11V17H19V16.56H18.83v-0.1h0.44v0.1h0ZM20,17H19.91V16.57h0L19.75,17H19.64l-0.15-.43h0V17H19.37V16.46h0.19l0.13,0.36h0l0.13-.36H20V17h0Z"/></svg>