<svg id="Layer_1" data-name="Layer 1" xmlns="http://www.w3.org/2000/svg" viewBox="0 0 30 30"><defs><style>.cls-1{fill:#e8e8e8;}.cls-2{fill:#fff;}.cls-3{fill:#c4ced4;}.cls-4{fill:#231f20;}</style></defs><title>chicago-white-sox</title><circle class="cls-1" cx="15" cy="15" r="15"/><path class="cls-2" d="M10.17,6.33A4.77,4.77,0,0,0,9.09,8.69c0,0.24,0,.45,0,0.66a3.4,3.4,0,0,0,.48,1.85,4.25,4.25,0,0,0,1.89,1.64l2,0.92,0.17,0.08-0.53.38a4.8,4.8,0,0,0-1.77,0,5,5,0,0,0-2.12,1,3.75,3.75,0,0,0-1.12,1.5,0.9,0.9,0,0,0,.15,1.06,0.93,0.93,0,0,0,1-.11A4.41,4.41,0,0,1,11,17a3.37,3.37,0,0,1,2,.26V18l-0.2.19a0.55,0.55,0,0,0-.16.39,0.59,0.59,0,0,0,0,.21,0.52,0.52,0,0,0,.23.27l2.22,1.35h0a0.7,0.7,0,0,0-.39.7v1.94l1.16,1.1a0.85,0.85,0,0,0,.67.29A0.7,0.7,0,0,0,17,24.17l1.25-1.6L19.13,24v0a0.83,0.83,0,0,0,.51.51,0.72,0.72,0,0,0,.62-0.15c0.35-.25,1.15-0.88,1.29-1l0,0a0.65,0.65,0,0,0,.24-0.47V21a0.59,0.59,0,0,0-.35-0.55,0.58,0.58,0,0,0-.63.13L20.27,21l-0.36-.58L21,19l0.12,0.1h0a0.63,0.63,0,0,0,.7.07,0.77,0.77,0,0,0,.33-0.71V17l-1-1a0.65,0.65,0,0,0-.54-0.23,0.68,0.68,0,0,0-.51.32l-1,1.27v-2l0.12-.12a0.9,0.9,0,0,0,.29-0.61,0.6,0.6,0,0,0,0-.21A0.64,0.64,0,0,0,19,13.92,4,4,0,0,0,19.13,13s0,0,0-.07a2.9,2.9,0,0,0-1.51-2.67l-0.1-.06c-0.46-.29-2.87-1.56-3-1.61l-0.92-.46A0.83,0.83,0,0,1,13,7.48v0a0.54,0.54,0,0,1,.52-0.32,2.85,2.85,0,0,1,1.07.17c0.74,0.25.76,0.55,0.76,0.66l0,0.34,1.53,1,2.3-3L17.26,5.14,17,5.39l-0.17.15-0.13,0-0.41-.16a7.83,7.83,0,0,0-2.72-.7,4.29,4.29,0,0,0-3.41,1.66"/><path class="cls-3" d="M10.4,6.55a4.46,4.46,0,0,0-1,2.17c0,0.22,0,.43,0,0.62A3.09,3.09,0,0,0,9.81,11a3.92,3.92,0,0,0,1.74,1.51l2,0.91a2.63,2.63,0,0,1,.65.37l-1.06.77a4.16,4.16,0,0,0-1.77,0,4.7,4.7,0,0,0-2,1,3.48,3.48,0,0,0-1,1.35,0.63,0.63,0,0,0,0,.69,0.59,0.59,0,0,0,.65-0.13,4.81,4.81,0,0,1,1.84-.75,4.56,4.56,0,0,1,1.72.1,2.84,2.84,0,0,1,.65.3v1.08l-0.3.28a0.21,0.21,0,0,0-.06.15,0.25,0.25,0,0,0,0,.09,0.2,0.2,0,0,0,.08.09l3.17,1.93L17.06,20l0.15,0.25-1,1.2-0.71-.63a0.34,0.34,0,0,0-.38-0.11,0.39,0.39,0,0,0-.19.39v1.8l1.06,1a0.53,0.53,0,0,0,.41.19A0.37,0.37,0,0,0,16.7,24l1.54-2,1.17,1.81,0,0.07a0.52,0.52,0,0,0,.29.32,0.4,0.4,0,0,0,.33-0.09c0.34-.25,1.14-0.87,1.25-1l0,0a0.34,0.34,0,0,0,.14-0.23V21a0.26,0.26,0,0,0-.15-0.24,0.27,0.27,0,0,0-.3.09l-0.86.65L19.5,20.43,21,18.59l0.37,0.29a0.33,0.33,0,0,0,.35.06,0.47,0.47,0,0,0,.15-0.4V17.1l-0.9-.93a0.31,0.31,0,0,0-.26-0.11,0.34,0.34,0,0,0-.26.16c0,0.08-.74.94-1.23,1.55a1.42,1.42,0,0,0-.4-0.21V15.13L19,14.89a0.57,0.57,0,0,0,.17-0.35,0.27,0.27,0,0,0,0-.1,0.45,0.45,0,0,0-.48-0.21l-0.17,0A3.31,3.31,0,0,0,18.79,13s0,0,0-.07a2.58,2.58,0,0,0-1.36-2.39l-0.1-.07c-0.45-.29-2.85-1.55-3-1.6l-0.92-.45a1.11,1.11,0,0,1-.84-0.95s0,0,0,0a0.85,0.85,0,0,1,.86-0.64A3.18,3.18,0,0,1,14.66,7a1.14,1.14,0,0,1,1,1V8.12l1.11,0.76,1.88-2.42L17.3,5.57l-0.05.05a0.47,0.47,0,0,1-.61.22,4.06,4.06,0,0,1-.47-0.17A7.55,7.55,0,0,0,13.57,5,4,4,0,0,0,10.4,6.55h0Zm2.83,8.2,1.2-.87v0a1.57,1.57,0,0,0-.79-0.55l-2-.91A3.75,3.75,0,0,1,10,10.94a3.26,3.26,0,0,1-.38-2.2,4.31,4.31,0,0,1,.95-2.07,3.8,3.8,0,0,1,3-1.5,7.42,7.42,0,0,1,2.53.66,3.77,3.77,0,0,0,.5.18,0.6,0.6,0,0,0,.71-0.22l1.06,0.71L16.72,8.64,15.82,8V8A1.31,1.31,0,0,0,14.71,6.8a3.36,3.36,0,0,0-1.23-.19,1,1,0,0,0-1,.81,1.29,1.29,0,0,0,.93,1.15L14.29,9s2.5,1.31,2.94,1.59l0.1,0.07A2.41,2.41,0,0,1,18.61,13a3,3,0,0,1-.3,1.31l-0.08.14,0.47,0a0.33,0.33,0,0,1,.3.09,0.34,0.34,0,0,1-.11.26l-0.3.31v2.63l0.06,0a1.11,1.11,0,0,1,.46.24L19.19,18l0.07-.09c0.13-.16,1.23-1.52,1.3-1.64a0.17,0.17,0,0,1,.12-0.08,0.14,0.14,0,0,1,.12.06l0.85,0.88v1.39a0.31,0.31,0,0,1-.06.22,0.19,0.19,0,0,1-.16,0l-0.51-.4-1.65,2.08,0.85,1.36,1-.77a0.15,0.15,0,0,1,.12-0.07,0.1,0.1,0,0,1,0,.08v1.86a0.3,0.3,0,0,1-.09.11l0,0c-0.1.1-.87,0.7-1.23,1a0.24,0.24,0,0,1-.19.06,0.4,0.4,0,0,1-.18-0.23l0-.09-1.31-2-1.69,2.17a0.2,0.2,0,0,1-.14.08,0.38,0.38,0,0,1-.27-0.14l-1-1V21.13a0.24,0.24,0,0,1,.08-0.23,0.21,0.21,0,0,1,.19.08l0.85,0.75,1.17-1.43-0.32-.53-0.94.72L13.1,18.62v0a0,0,0,0,1,0,0l0.36-.32V17l0,0a2.35,2.35,0,0,0-.78-0.35,4.73,4.73,0,0,0-1.75-.1A5.12,5.12,0,0,0,9,17.29a0.46,0.46,0,0,1-.45.14,0.56,0.56,0,0,1,0-.5,3.36,3.36,0,0,1,1-1.27,4.52,4.52,0,0,1,1.91-.93,3.89,3.89,0,0,1,1.72,0l0,0,0,0h0Z"/><path class="cls-4" d="M21.53,24H21.39v0.36H21.3V24H21.17V23.88h0.35V24h0Zm0.6,0.36H22V24h0l-0.13.35H21.82L21.7,24h0v0.35H21.61V23.88h0.16l0.1,0.29h0L22,23.88h0.15v0.44h0Z"/><path d="M21.51,18.57V17.25l-0.83-.74L18.4,19.35l-0.32-.51,0.68-.5a1,1,0,0,1,.31-0.13c0.07,0-.12-0.33-0.66-0.33V15l0.31-.35a1.76,1.76,0,0,1-.56,0L18,14.54A2.47,2.47,0,0,0,18.24,14,2.54,2.54,0,0,0,17.49,11c-0.62-.47-3.19-1.77-3.19-1.77a18.6,18.6,0,0,1-1.72-.93,1,1,0,0,1-.36-0.89,1.16,1.16,0,0,1,.56-0.81,1.59,1.59,0,0,1,.9-0.2,3.07,3.07,0,0,1,.63.07,2.53,2.53,0,0,1,1.55.86A1.29,1.29,0,0,1,16,8l0.64,0.41,1.4-1.83L17.34,6a0.78,0.78,0,0,1-.79.17c-0.17-.08-1.58-0.6-1.78-0.66a4.8,4.8,0,0,0-1.65-.15,2.87,2.87,0,0,0-1.75.81,2.1,2.1,0,0,0-.68,1.58,2.27,2.27,0,0,0,.66,1.65,8.54,8.54,0,0,0,2.21,1.4c0.47,0.26,1.95,1,2.16,1.16a1.77,1.77,0,0,1,1.16,1.8s0,0.07,0,.1a7.57,7.57,0,0,1-1.18-.81l-0.22.23-0.66.49a3.9,3.9,0,0,0,.07-0.92A1.39,1.39,0,0,0,14.33,12,14,14,0,0,0,12.71,11a11,11,0,0,1-1.5-1,3.54,3.54,0,0,1-.8-1,3,3,0,0,1-.11-1.63,2.55,2.55,0,0,0-.45.89,3.57,3.57,0,0,0-.15.92A3.08,3.08,0,0,0,10.26,11a3.68,3.68,0,0,0,.88.83,6.47,6.47,0,0,0,.87.46c0.12,0.08,1.21.54,1.3,0.59L14,13.23a1.18,1.18,0,0,1,.69.65l-1.13.85a0.52,0.52,0,0,1,0,.23v0.11a3.25,3.25,0,0,0-.46-0.12,3.91,3.91,0,0,0-1.78,0A4,4,0,0,0,9.4,16a2,2,0,0,0-.72,1.21l0.73-.43a4.44,4.44,0,0,1,2-.55,3.24,3.24,0,0,1,2.24.61v1.31a0.33,0.33,0,0,1-.14.34l-0.12.07a0.55,0.55,0,0,1,.12.06l2.64,1.6,1-.73,0.49,0.78L16.25,22l-0.94-.86v1.6l1.07,1,1.89-2.38,1.56,2.48,1.26-1V21.26l-1,.76-1-1.63,1.85-2.32,0.61,0.5h0ZM15.1,15l0.59-.43a3.83,3.83,0,0,0,.53.36l0,0a3.2,3.2,0,0,1-1.1.64V15h0Zm1,3.76-1-.63V16.59a5,5,0,0,0,2-1.12c0,0.1,0,1.14,0,1.85l-0.63-1-1,.68v1.22l0.53-.35,0.4,0.63-0.34.27h0Z"/></svg>