<svg id="Layer_1" data-name="Layer 1" xmlns="http://www.w3.org/2000/svg" viewBox="0 0 30 30"><defs><style>.cls-1{fill:#e8e8e8;}.cls-2{fill:#c6011f;}.cls-3{fill:#fff;}</style></defs><title>cincinnati-reds</title><circle class="cls-1" cx="15" cy="15" r="15"/><path class="cls-2" d="M16.35,21.54c5.68,0,8.92-3.69,8.92-7,0-4-4.5-6.84-9.3-6.84h0a10.53,10.53,0,0,0-8,4c-2,2.36-3.1,2.66-3.1,2.66a36.76,36.76,0,0,1,3,2.81c2,2.18,3.7,4.41,8.47,4.41h0Z"/><path d="M16.25,20.59c-4.12,0-5.74-1.76-7.65-3.78A15.85,15.85,0,0,0,6.06,14.3l0.26,0.6a21.74,21.74,0,0,1,2.51,2.54c1.91,2,3.5,3.61,7.62,3.61a8.88,8.88,0,0,0,7.72-4L24,16.63a8.88,8.88,0,0,1-7.72,4h0Z"/><path d="M16.35,10.31c-4,0-5.62,2.67-5.62,3.95a3.46,3.46,0,0,0,.59,1.95,3.67,3.67,0,0,1-.3-1.57c0-1.28,1.52-3.85,5.46-3.85a5.83,5.83,0,0,1,4.76,2h3c-0.05-.11-0.19-0.47-0.19-0.47H21.2a6,6,0,0,0-4.84-2h0Z"/><path class="cls-3" d="M8.6,16.81c1.91,2,3.53,3.78,7.65,3.78a8.88,8.88,0,0,0,7.72-4H21.15a8.1,8.1,0,0,1-5,1.8,5.86,5.86,0,0,1-4.83-2.23,3.46,3.46,0,0,1-.59-1.95c0-1.28,1.58-3.95,5.62-3.95a6,6,0,0,1,4.84,2H24c-1.32-2.6-4.74-4.17-8.15-4.17a9.86,9.86,0,0,0-7.38,3.66c-1.95,2.3-2.46,2.46-2.46,2.46A15.86,15.86,0,0,1,8.6,16.81h0Z"/><path d="M18,14H17.4v-0.3H16.45v0.62h0.31V14h0.63l0.32,0.3h0.63V13.47L18,13.15V14h0ZM15.4,16l0.31,0.31h2.64V15.46L18,15.15V16H15.4Zm1.05-1.13v0.61h0.31v-0.3h0.78V14.62l-0.31-.31v0.53H16.45ZM15.4,13.69L15.71,14h0.11V13.69H15.4Zm-3.63,0L12.09,14H12.2V13.69H11.77Zm0,2.28,0.31,0.31h1.48V15.76l-0.31-.31V16H11.77ZM14,14.69l0.33,0.76h0.18L14.36,15l0.47-.38V14l-0.31-.31v0.62L14,14.69h0Zm-1.21.14v0.62h0.31V15.14h0.42l-0.13-.31h-0.6ZM14.73,16H13.92l0.31,0.31H15V15.76l-0.31-.31V16h0Zm-0.85-2V13.82l-0.16-.13H12.83v0.62h0.31V14h0.74Z"/><path class="cls-3" d="M16.45,13.69H17.4V14H18V13.15H15.4v0.54h0.42v1.76H15.4V16H18V15.15H17.4v0.3H16.45V14.83h0.78V14.31H16.45V13.69h0Zm-1.73,1.76H14.37L14,14.69l0.47-.38V13.69l-0.64-.53h-2.1v0.54H12.2v1.76H11.77V16h1.48V15.45H12.83V14.83h0.6l0.13,0.31L13.92,16h0.81V15.45h0Zm-1.58-1.14H12.83V13.69h0.89l0.16,0.13v0.36l-0.15.13H13.14Z"/><path d="M18.7,13.69L19,14h0.11V13.69H18.7Zm2,0.31V13.82l-0.16-.13H19.76v1.76h0.31V14H20.7Z"/><path d="M21.34,15.45L20.7,16h-2L19,16.28h1.8l0.84-.68V14l-0.31-.31v1.76Zm2.09-.61h-0.8L22,14.31l1,0.84h0.59V15l-0.16-.13h0Zm1.1,0.31-0.31-.31v0.6L23.58,16H22.79l-0.17-.14V16H22l0.31,0.31h0.63V16.14l0.17,0.14h0.61l0.82-.67V15.14h0ZM23.58,14V13.82l-0.16-.13H22.8l-0.16.14v0.35l0.16,0.13h0.15V14.14L23.11,14h0.47l0.32,0.3h0.63V13.47l-0.31-.31V14H23.58Zm-0.81,1.45h0.17l-0.32-.31v0.18l0.15,0.13h0Z"/><path class="cls-3" d="M21.34,15.45V13.69l-0.64-.53h-2v0.54h0.42v1.76H18.7V16h2Zm-1.27,0H19.76V13.69h0.79l0.16,0.13v1.5l-0.15.13H20.07Zm2.55,0.38L22.79,16h0.79l0.64-.53v-0.6l-0.63-.53H22.79l-0.16-.13V13.83l0.16-.14h0.62l0.16,0.13V14h0.63V13.15H23.58v0.14l-0.16-.14H22.64L22,13.69v0.62l0.63,0.53h0.8L23.58,15v0.35l-0.15.13H22.78l-0.15-.13V15.14H22V16h0.63V15.83h0Z"/><path d="M23.59,19.69h-0.2v0.55H23.25V19.69H23V19.57h0.54v0.12h0Zm0.92,0.55H24.37V19.71h0l-0.19.53H24l-0.19-.53h0v0.53H23.71V19.57h0.24L24.11,20h0l0.16-.44h0.24v0.67h0Z"/></svg>