<svg id="Layer_1" data-name="Layer 1" xmlns="http://www.w3.org/2000/svg" viewBox="0 0 30 30"><defs><style>.cls-1{fill:#e8e8e8;}.cls-2{fill:#e31937;}</style></defs><title>cleveland-indians</title><circle class="cls-1" cx="15" cy="15" r="15"/><path class="cls-2" d="M12,6.47h5.47c0.21,0.21.41,0.42,0.63,0.63,0-.21,0-0.42,0-0.63h2.69q0,2.9,0,5.8H18.14c0-.65,0-1.3,0-1.94L17,9.18H13.2l-1.14,1.13q0,4.28,0,8.56l1.18,1.17H17l1.18-1.17c0-.64,0-1.27,0-1.91h2.69c0,1,0,2.09,0,3.14l-1.06,1.05a1.76,1.76,0,0,0-.15.11l-1.46,1.46H12L9.33,20.08q0-5.46,0-10.92L12,6.47h0Z"/></svg>