<svg id="Layer_1" data-name="Layer 1" xmlns="http://www.w3.org/2000/svg" viewBox="0 0 30 30"><defs><style>.cls-1{fill:#e8e8e8;}.cls-2{fill:#336;}.cls-3{fill:#fff;}.cls-4{fill:#231f20;}.cls-5{fill:#c4ced4;}</style></defs><title>colorado-rockies</title><circle class="cls-1" cx="15" cy="15" r="15"/><path class="cls-2" d="M9.32,15L8.56,16.54h1.77l4.95-3.76-4.15,3.75h0.31l3.93-2.81L12.2,16.54h0.35l3.23-2.16-2.47,2.14h0.35l2.9-1.71-2.16,1.7,0.33,0L17.57,15l-2.08,1.49h6.36l-1.39-1.85-0.56.08-0.54-.93-2.79-2.51L15,9.9l-1.88,2.4-1-.32-1.74,2.77-0.47-.08L9.66,15,9.32,15h0Z"/><path class="cls-3" d="M11,14.41l1.21-2,1,0.28L15,10.44l1.25,1.45L16.2,12l-0.28-.18-0.32.29-0.17-.72-0.4.49-0.21-.31L13.14,13l-0.33-.28L11.92,13.8l-0.15-.14L11,14.41h0Zm8.45,0.35-0.37-.68-0.26.15a3.79,3.79,0,0,0,.33.33l0.29,0.21h0Z"/><path class="cls-4" d="M21.36,15.88h4.08V15.57s-0.73,0-.73,0a9.54,9.54,0,0,0-3.78-6.14,9.78,9.78,0,0,0-5.86-2.06A9.55,9.55,0,0,0,9.27,9.23a9.79,9.79,0,0,0-3.92,6.31H4.67v0.32H8.89L9,15.55H8.15a6.93,6.93,0,0,1,6.45-5.45L15,9.61l0.5,0.5a8.64,8.64,0,0,1,1.27.24,10,10,0,0,1,1,.36,1.94,1.94,0,0,0-1.73,1.92,1.87,1.87,0,0,0,1.8,1.81,1.83,1.83,0,0,0,2-1.81,2,2,0,0,0-.1-0.65,5.8,5.8,0,0,1,1.35,1.56,6.1,6.1,0,0,1,.79,2H21.11l0.25,0.33h0Zm-3.12,1.2V16.83h1.47v0.29a0.31,0.31,0,0,0-.34.13,7,7,0,0,0-.06,1.2s0,1,0,1.08a0.36,0.36,0,0,0,.22.29,0.32,0.32,0,0,1,.17,0v0.22H18.25V19.84a0.42,0.42,0,0,0,.29-0.13,0.41,0.41,0,0,0,.06-0.24V17.39a0.24,0.24,0,0,0,0-.19,0.41,0.41,0,0,0-.29-0.13h0Zm-8.07-.36a1.54,1.54,0,0,1,1.57,1.72,1.6,1.6,0,0,1-1.65,1.74,1.53,1.53,0,0,1-1.52-1.75,1.6,1.6,0,0,1,1.6-1.71h0Zm-0.84,1.8c0.13,1.34.67,1.37,0.94,1.37s0.85-.4.68-1.62S10.27,17,10,17,9.21,17.18,9.33,18.53Z"/><path class="cls-4" d="M7,19.8v0.28H5.2V19.8a0.61,0.61,0,0,0,.43-0.19,0.41,0.41,0,0,0,0-.21V16.93a0.3,0.3,0,0,0-.26-0.26,0.89,0.89,0,0,0-.22,0V16.33a3.75,3.75,0,0,0,.43,0c0.23,0,.64-0.06,1-0.06s1.67,0,1.67,1a1,1,0,0,1-.74,1,0.12,0.12,0,0,0,.06.13,0.23,0.23,0,0,1,.1.08L8.1,19.12a2.59,2.59,0,0,0,.33.56,1.24,1.24,0,0,0,.37.13v0.28H7.71L6.77,18.54a0.65,0.65,0,0,0-.15,0l-0.11,0v0.86a0.43,0.43,0,0,0,.09.32A0.89,0.89,0,0,0,7,19.8ZM6.84,18.17a0.71,0.71,0,0,0,.59-0.84,0.68,0.68,0,0,0-.72-0.77,0.26,0.26,0,0,0-.2,0v1.6H6.84Z"/><path class="cls-3" d="M10.39,15.05L10,15l-0.29.45Zm9.47,0.11,0.4-.1,0.28,0.38-0.68-.28h0ZM18,11a1.82,1.82,0,0,1,.93.31,1.13,1.13,0,0,1,.61,1.09h-0.1a0.42,0.42,0,0,0-.13-0.21,0.06,0.06,0,0,0-.06,0l0,0.13H19.17A0.26,0.26,0,0,0,19,12.15a0.05,0.05,0,0,0,0,.08v0.13h-0.1s-0.09-.22-0.16-0.16,0,0.09,0,.09,0.07,0.11,0,.11a0.23,0.23,0,0,1-.15-0.09s0-.1-0.08-0.07a0.1,0.1,0,0,0,0,.08l0.06,0.11-0.08,0a0.88,0.88,0,0,0-.19-0.13s-0.11.06-.06,0.08a0.16,0.16,0,0,1,.1.09,0.07,0.07,0,0,1,0,0l-0.07,0S18,12.43,18,12.48a0.08,0.08,0,0,0,0,.11l0,0.07-0.06,0a0.44,0.44,0,0,1-.13,0s-0.09-.06-0.11,0a0.08,0.08,0,0,0,0,.08l0.1,0.07-0.11.07a0.3,0.3,0,0,0-.17-0.06,0.26,0.26,0,0,0,0,.1L17.64,13l0,0.06-0.07,0a0.34,0.34,0,0,0-.14,0,0.14,0.14,0,0,0,0,.1,0.18,0.18,0,0,0,.08.06s0.1,0,.06,0a0.14,0.14,0,0,1-.07,0,0.21,0.21,0,0,0-.2,0c0,0.08.08,0.09,0.08,0.09s0.1,0,.1,0a0.2,0.2,0,0,1,0,.07H17.26a0.12,0.12,0,0,0-.1.08c0,0.06.08,0.07,0.08,0.07s0.12,0,.1,0a0.16,0.16,0,0,1-.13.08s-0.09,0-.09.06a0.1,0.1,0,0,0,0,.08s0.16,0,.15,0a0.07,0.07,0,0,1-.08.06,1.53,1.53,0,0,1-.93-1.34,3.44,3.44,0,0,1,0-.36s0-.08.07,0,0.06,0.08.1,0.08,0-.1,0-0.1V12.23a0.13,0.13,0,0,1,.07,0s0.1,0.17.14,0.17a0.21,0.21,0,0,0,.1,0,0.34,0.34,0,0,0,0-.08l0-.07,0.1,0,0.08,0.1a0.12,0.12,0,0,0,.1,0,0.07,0.07,0,0,0,0-.07l-0.07-.12,0.1,0a0.54,0.54,0,0,0,.15.12,0.09,0.09,0,0,0,.06,0,0.13,0.13,0,0,0,0-.08s-0.08-.06,0-0.1a0.07,0.07,0,0,1,.1,0,0.27,0.27,0,0,0,.1.08,0.08,0.08,0,0,0,.06-0.11,0.11,0.11,0,0,0-.08,0l0-.08a0.17,0.17,0,0,1,.12,0c0.06,0,.17.06,0.17,0a0.09,0.09,0,0,0,0-.08l-0.06,0s0-.08,0-0.08a0.23,0.23,0,0,1,.12,0,0.1,0.1,0,0,0,.1,0s0-.08,0-0.11-0.1,0-.09-0.07,0.1,0,.1,0H18l0-.08a0.1,0.1,0,0,0-.06,0,0.09,0.09,0,0,1-.1-0.06s0.06,0,.1,0a0.23,0.23,0,0,0,.15,0,0.54,0.54,0,0,0,0-.09A0.42,0.42,0,0,1,18,11,0.09,0.09,0,0,1,18,11h0Z"/><path class="cls-5" d="M5.89,16.59h0.4v3.2H5.89v-3.2Zm1.5,0a0.79,0.79,0,0,1,.71.76,0.85,0.85,0,0,1-.7.81,1.12,1.12,0,0,0,.22-0.81,0.84,0.84,0,0,0-.23-0.75h0ZM7,18.53a1.69,1.69,0,0,1,.29-0.08H7.44a1.77,1.77,0,0,1,.25.31c0,0.1.59,1,.59,1H7.69L7,18.53H7Zm2.43-1.39a2.11,2.11,0,0,0-.25,1.26,2.28,2.28,0,0,0,.4,1.37s-0.81,0-.81-1.28a1.38,1.38,0,0,1,.66-1.35h0Zm1.35-.07a1.2,1.2,0,0,1,.82,1.27,1.5,1.5,0,0,1-.61,1.4,2.69,2.69,0,0,0,.2-1.37,2.39,2.39,0,0,0-.4-1.3h0Z"/><path class="cls-4" d="M4.59,20.44H25.45v0.35H24.57v0.53H5.48V20.76H4.59V20.44ZM12,18.49a1.64,1.64,0,0,1,1.75-1.75,1.49,1.49,0,0,1,.7.16,0.89,0.89,0,0,1,.2-0.1,0.05,0.05,0,0,1,0,.06l0,1.07h-0.2a1,1,0,0,0-.84-0.87,1.2,1.2,0,0,0-1,1.43,1.24,1.24,0,0,0,1,1.39,1.26,1.26,0,0,0,.92-0.77,0.08,0.08,0,0,1,.07,0l0.11,0v0.07l-0.25,1-0.36,0-0.82.07A1.54,1.54,0,0,1,12,18.49h0Z"/><path class="cls-5" d="M12.54,18.49a2.18,2.18,0,0,0,.4,1.26,1.1,1.1,0,0,1-.81-1.23,1.33,1.33,0,0,1,.71-1.35s0,0,0,.07a2.39,2.39,0,0,0-.31,1.25h0Zm6.25-1.4h0.37v2.7H18.79V17.1h0Z"/><path class="cls-4" d="M14.86,17.08V16.83h1.47v0.26s-0.33,0-.35.17,0,1,0,1l0.9-1a0.12,0.12,0,0,0,0-.1,0.17,0.17,0,0,0-.15-0.11V16.82h1.2v0.27a0.94,0.94,0,0,0-.49.1,6.53,6.53,0,0,0-.84.88s0.28,0.35.44,0.58,0.56,0.9.63,0.95a0.55,0.55,0,0,0,.26.2,0.31,0.31,0,0,0,.19,0v0.26H16.55V19.82s0.25,0,.25-0.09a1.06,1.06,0,0,0-.27-0.56A2.17,2.17,0,0,0,16,18.62c0,0.13,0,1,0,1a0.31,0.31,0,0,0,.12.21,0.39,0.39,0,0,0,.24,0v0.26H14.87V19.84a0.35,0.35,0,0,0,.34-0.19,2.2,2.2,0,0,0,0-.23V17.35a0.24,0.24,0,0,0-.13-0.22,1,1,0,0,0-.24-0.06h0Zm5.09,0V16.84h2.44l0,0.79H22.21s0.06-.44-0.25-0.44H21.08v1.09l0.33,0a0.44,0.44,0,0,0,.38-0.15,1.3,1.3,0,0,1,.06-0.25H22V19H21.84a0.41,0.41,0,0,0-.21-0.36l-0.29,0a2.2,2.2,0,0,0-.26,0v1a0.18,0.18,0,0,0,.18.13h0.66a0.45,0.45,0,0,0,.28-0.12,4.28,4.28,0,0,0,.17-0.42h0.2l-0.08.88H19.9V19.82a0.74,0.74,0,0,0,.36,0l0.11-.1V17.44a0.31,0.31,0,0,0-.13-0.29,0.42,0.42,0,0,0-.28,0h0Z"/><path class="cls-5" d="M20.54,17.08h0.37v2.74H20.54V17.08Z"/><path class="cls-4" d="M23.67,16.28a2.24,2.24,0,0,1,.77.12,0.09,0.09,0,0,0,.08,0l0.09-.08h0.14l0.06,1.1-0.24,0a0.9,0.9,0,0,0-.82-0.79,0.38,0.38,0,0,0-.24.68c0.38,0.4,1.46.77,1.46,1.77a1.13,1.13,0,0,1-1.11,1.16A7.89,7.89,0,0,1,23,20.06a0.2,0.2,0,0,0-.14.1H22.77L22.64,19h0.2a2.33,2.33,0,0,0,.28.54,0.76,0.76,0,0,0,.6.35,0.5,0.5,0,0,0,.49-0.56,1.36,1.36,0,0,0-.61-0.73,1.47,1.47,0,0,1-.92-1.25,0.91,0.91,0,0,1,1-1h0Z"/><path class="cls-5" d="M23.07,16.84a0.76,0.76,0,0,0,.21.52c0.35,0.47,1.47.76,1.47,1.62a0.88,0.88,0,0,1-.36.78,2.18,2.18,0,0,0,0-.48,1.36,1.36,0,0,0-.7-0.86,1.64,1.64,0,0,1-.84-1c0-.47.18-0.53,0.18-0.53h0Z"/><path class="cls-3" d="M17.35,14.11v0a0.31,0.31,0,0,0,.16,0,0.29,0.29,0,0,0,0-.1l-0.09-.06s-0.1,0-.08-0.08,0.08,0,.08,0l0.09,0V13.74a0.18,0.18,0,0,1-.11-0.1c0-.06,0-0.06,0-0.06l0.11,0.08a0.07,0.07,0,0,0,.06,0,0.29,0.29,0,0,0,0-.06l-0.11-.1s0-.08,0-0.08a0.16,0.16,0,0,1,.1.09,0.09,0.09,0,0,0,.06-0.08,0.21,0.21,0,0,0,0-.09,0.15,0.15,0,0,1,0-.1,0.06,0.06,0,0,1,.06,0,0.19,0.19,0,0,0,.08.1,0.08,0.08,0,0,0,.07-0.1L17.74,13a0.06,0.06,0,0,1,0-.06,0.31,0.31,0,0,1,.1.11s0.08,0,.08,0a0.54,0.54,0,0,0,0-.13s0-.06,0-0.09,0.06,0,.07.06,0,0.1.08,0.07a0.39,0.39,0,0,0,0-.1,0.23,0.23,0,0,1,0-.1,0.09,0.09,0,0,1,0-.07s0.06-.07.06,0,0,0.11,0,.13a0.07,0.07,0,0,0,.1,0V12.72a0.13,0.13,0,0,1,0-.1s0-.06,0-0.06a0.13,0.13,0,0,1,.07.09s0,0.08,0,.08a0.14,0.14,0,0,0,.08-0.13,0.11,0.11,0,0,1,.07-0.13s0,0.13,0,.13,0,0.06.06,0l0.06,0,0.06-.16h0.08a0.23,0.23,0,0,0,0,.15,0.18,0.18,0,0,0,.08,0,0.48,0.48,0,0,1,0-.12,0.16,0.16,0,0,1,.09,0s0,0,0,0-0.06.11,0,.13a0.22,0.22,0,0,0,.1,0,0.22,0.22,0,0,1,.11-0.17c0.08,0,0,.13,0,0.13a0.09,0.09,0,0,0,.06.08,0.16,0.16,0,0,0,.11-0.08,0.09,0.09,0,0,1,.08-0.06s0,0.13,0,.13a0.54,0.54,0,0,1,.08.15,1.67,1.67,0,0,1-.72,1.16,1.66,1.66,0,0,1-1.53.19h0Zm-0.92-2a0.08,0.08,0,0,1-.07,0l0,0A1.87,1.87,0,0,1,17,11.26,1.82,1.82,0,0,1,17.73,11l0,0.1,0,0.06s0.12,0.07.07,0.12-0.12,0-.12,0,0-.08-0.06,0a0.12,0.12,0,0,0,0,.13s0.1,0.09.06,0.14-0.09,0-.09,0,0-.08-0.08,0a0.12,0.12,0,0,0,0,.11s0.1,0.15,0,.16a0.17,0.17,0,0,1-.11-0.14,0.3,0.3,0,0,0-.08.11s0.09,0.13,0,.17-0.09-.08-0.09-0.08,0-.1-0.08,0a0.14,0.14,0,0,0,0,.13s0,0.13,0,.13a0.07,0.07,0,0,1-.08,0s0-.15,0-0.12a0.15,0.15,0,0,0-.06.1s0,0.17,0,.17,0-.11,0-0.11,0-.11-0.06-0.09a0.1,0.1,0,0,0,0,.08l0,0.15-0.1,0a0.32,0.32,0,0,0,0-.13,0.07,0.07,0,0,0-.07,0,0.13,0.13,0,0,0-.07.06,0.16,0.16,0,0,1,0,.11h0Z"/><path class="cls-4" d="M17.79,11s0.13,0.06.09,0.1a0,0,0,0,1-.08,0l0-.06,0,0h0Z"/><path class="cls-5" d="M23.31,12.94a0.9,0.9,0,0,1-.15,1.31,0.89,0.89,0,0,1-1.26-.37,0.85,0.85,0,1,1,1.42-.94h0Z"/><path class="cls-4" d="M23.24,13c0.06,0.1.26,0.44-.28,0.84a0.63,0.63,0,0,1-1-.06A0.77,0.77,0,0,1,23.24,13h0Z"/><path class="cls-5" d="M21,10.09s0.41,0.36.53,0.48A1,1,0,0,1,21.77,12c-0.62.62-1.39-.2-1.47-0.29L20,11.4l-0.24-.22,0.06-.08a0.84,0.84,0,0,0,.13.09h0.1s0.79-.72.84-0.77a0.28,0.28,0,0,0,0-.19,0.32,0.32,0,0,0-.06-0.11l0.07,0h0Z"/><path class="cls-4" d="M20.37,11.43l0.84-.78s0.06-.1.14,0a0.79,0.79,0,0,1,.35.65,0.75,0.75,0,0,1-.77.65,0.81,0.81,0,0,1-.56-0.32,0.11,0.11,0,0,1,0-.17h0Z"/><path class="cls-5" d="M18.91,8.79L19.21,9s-0.14,1.48-.13,1.51a0.26,0.26,0,0,0,.06.13,0.11,0.11,0,0,0,.06,0v0l-0.74-.33,0-.09,0.13,0.07a0.1,0.1,0,0,0,.13-0.08c0-.11,0-0.4,0-0.4l-0.48-.26L18,9.89A0.13,0.13,0,0,0,18,10a0.64,0.64,0,0,0,.15.1l0,0.08-0.61-.28,0.06-.08a0.19,0.19,0,0,0,.26,0c0.15-.13,1.1-1,1.1-1h0Z"/><path class="cls-4" d="M18.8,9.16l0,0.55-0.38-.18,0.4-.37h0Z"/><path class="cls-5" d="M15.8,8.93l0.16,0A0.24,0.24,0,0,1,16,9l0.26,0.54a0.42,0.42,0,0,0,.24.15l0.42,0a0.09,0.09,0,0,0-.06-0.09,0.67,0.67,0,0,1-.29-0.38l-0.2-.36a0.51,0.51,0,0,0,.43-0.36A0.5,0.5,0,0,0,16.31,8a3.23,3.23,0,0,0-.59-0.08l-0.42,0,0,0.08,0.22,0.1s-0.12,1.23-.13,1.27a0.31,0.31,0,0,1-.18.08h-0.1V9.5L16,9.61V9.54l-0.14,0s-0.11,0-.1-0.16,0.06-.41.06-0.41h0Z"/><path class="cls-4" d="M15.82,8.8l0.09-.7a0.6,0.6,0,0,1,.21,0,0.36,0.36,0,0,1,.31.37,0.34,0.34,0,0,1-.38.36,0.34,0.34,0,0,1-.24,0h0Z"/><path class="cls-5" d="M12.93,8.15a1,1,0,0,1,1.28.29,0.84,0.84,0,0,1-.45,1.18,1,1,0,0,1-1.3-.4,0.9,0.9,0,0,1,.48-1.07h0Z"/><path class="cls-4" d="M13.13,8.19a0.64,0.64,0,0,1,.73.47,0.65,0.65,0,0,1-.22.91A0.64,0.64,0,0,1,12.79,9a0.57,0.57,0,0,1,.33-0.8h0Z"/><path class="cls-5" d="M10,9.41L10.71,9l0,0.06a0.3,0.3,0,0,0-.13.1l0,0.08,0.61,1.14,0.46-.26A0.32,0.32,0,0,0,11.75,10c0-.06,0-0.3,0-0.3h0.06l0.07,0.41-1.22.69,0-.09a0.19,0.19,0,0,0,.13-0.21c0-.13-0.54-1-0.54-1a0.14,0.14,0,0,0-.1-0.09,0.32,0.32,0,0,0-.14,0L10,9.41h0ZM8.22,10.8a0.88,0.88,0,0,1,1.25-.25,0.84,0.84,0,0,1,.12,1.25,0.91,0.91,0,0,1-1.26.26A0.89,0.89,0,0,1,8.22,10.8Z"/><path class="cls-4" d="M8.32,10.87a0.6,0.6,0,0,1,.86-0.06,0.64,0.64,0,0,1,.31.95,0.65,0.65,0,0,1-.92,0,0.62,0.62,0,0,1-.24-0.86h0Z"/><path class="cls-5" d="M7,14.28a0.89,0.89,0,0,1-.36-1.22A1,1,0,0,1,7,12.64a0.48,0.48,0,0,1,0-.11,1.76,1.76,0,0,1,.41.17l0,0H7.28a0.48,0.48,0,0,0-.5.34,0.64,0.64,0,0,0,.37.82,0.67,0.67,0,0,0,1-.29,0.53,0.53,0,0,0,0-.5L8,13l0-.09,0.32,0.3a0.89,0.89,0,0,0-.08.17,3.5,3.5,0,0,1-.13.42A0.92,0.92,0,0,1,7,14.28H7Z"/><path class="cls-4" d="M24.86,21.48a0.35,0.35,0,1,1,.36.36,0.35,0.35,0,0,1-.36-0.36h0Zm0.67,0a0.31,0.31,0,0,0-.31-0.31h0a0.31,0.31,0,0,0,0,.62h0a0.31,0.31,0,0,0,.31-0.31h0Zm-0.13.2H25.34l-0.11-.18H25.14v0.18h0v-0.4h0.17a0.18,0.18,0,0,1,.1,0,0.1,0.1,0,0,1,0,.09,0.11,0.11,0,0,1-.13.11l0.12,0.18h0Zm-0.19-.22c0.06,0,.14,0,0.14-0.07s-0.05-.07-0.1-0.07H25.14v0.14h0.07Z"/><path class="cls-5" d="M15.41,17.08h0.37v2.72H15.41V17.08h0Zm0.79,1.44,0.26-.28a3.5,3.5,0,0,1,.51.63l0.59,0.92H17a0.82,0.82,0,0,0-.24-0.54,7.28,7.28,0,0,0-.58-0.73h0Z"/></svg>