<svg id="Layer_1" data-name="Layer 1" xmlns="http://www.w3.org/2000/svg" viewBox="0 0 30 30"><defs><style>.cls-1{fill:#e8e8e8;}.cls-2{fill:#0c2c56;}</style></defs><title>detroit-tigers</title><circle class="cls-1" cx="15" cy="15" r="15"/><path class="cls-2" d="M18.6,9.73a2.34,2.34,0,0,0-2.1-.07v2.23a2.09,2.09,0,0,1,2.1.07V9.73h0Zm-2.1,5.76a2.08,2.08,0,0,0,2.1-.07V13A2.08,2.08,0,0,0,16.5,13v2.53h0Zm0,4,0.83,0.4a6.61,6.61,0,0,1,1.27-.58V16.52a2.08,2.08,0,0,1-2.1.07v2.93h0Zm-2-9.29V19l0.69,0.11V9.46a0.74,0.74,0,0,0-.69.78h0ZM11,7.29h7A2.69,2.69,0,0,1,20.81,10c0,1.52-.44,7.53.15,10a5,5,0,0,0-4.28,2,5.49,5.49,0,0,0-3.12-.69,11.22,11.22,0,0,0-3.59.76c-0.43.17-.29-0.05,0-0.42a8.09,8.09,0,0,1,3.34-2.63V9.75a2.56,2.56,0,0,0-.73,2.06v5.54a2.69,2.69,0,0,1-.91,2.14,3.42,3.42,0,0,1-1.6.69c-0.36.07-.51,0-0.22-0.36a2.43,2.43,0,0,0,.58-2V15.22a2,2,0,0,0-.83.69c-0.19.28-.36,0.2-0.36-0.11a2.36,2.36,0,0,1,1.2-2V13.12a2.13,2.13,0,0,0-.83.69c-0.2.27-.36,0.21-0.36-0.11a2.36,2.36,0,0,1,1.2-2,2.22,2.22,0,0,1,1.41-2.28A3.69,3.69,0,0,1,9.31,7,4.29,4.29,0,0,0,11,7.29h0Z"/></svg>