<svg id="Layer_1" data-name="Layer 1" xmlns="http://www.w3.org/2000/svg" viewBox="0 0 30 30"><defs><style>.cls-1{fill:#e8e8e8;}.cls-2{fill:#002d62;}.cls-3{fill:#0e2b58;}.cls-4{fill:#eb6e1f;}.cls-5{fill:#f4911e;}.cls-6{fill:#ec6e1c;}.cls-7{fill:#fff;}.cls-8{fill:#c4ced4;}</style></defs><title>houston-astros</title><circle class="cls-1" cx="15" cy="15" r="15"/><path class="cls-2" d="M23.94,14.6a8.86,8.86,0,1,1-8.86-8.84,8.85,8.85,0,0,1,8.86,8.84h0Z"/><path class="cls-3" d="M22.43,22.09H22.31V21.62l-0.17.47H22l-0.17-.47v0.47H21.73V21.49h0.21l0.14,0.39,0.14-.39h0.21v0.59h0Zm-0.81-.49H21.44v0.49H21.32V21.6H21.14V21.49h0.48V21.6h0Z"/><path class="cls-4" d="M15,6.21a8.43,8.43,0,1,0,8.44,8.43A8.43,8.43,0,0,0,15,6.21h0Zm0,0.33a8.09,8.09,0,1,1-8.1,8.09A8.1,8.1,0,0,1,15,6.54h0Z"/><path class="cls-4" d="M15.07,9.23a5.39,5.39,0,1,0,5.39,5.38A5.39,5.39,0,0,0,15.07,9.23Zm0,0.33A5.05,5.05,0,1,1,10,14.61a5.05,5.05,0,0,1,5.06-5.05h0Z"/><path class="cls-5" d="M15.08,9.3L13.88,13H10.05l3.13,2.27L12,18.87l3.11-2.27,3.11,2.27L17,15.23,20.17,13H16.25L15.08,9.3h0Z"/><path class="cls-4" d="M19.33,13.22H16.17L16.25,13,15.08,9.3v5.3L12,18.87l3.11-2.27,3.11,2.27L17,15.23,20.17,13l-0.84.27h0Z"/><path class="cls-6" d="M13.18,15.22l0.33-.11-2.6-1.86L10.05,13Z"/><path class="cls-2" d="M17.41,16.45L17.25,16v0.44l0.16,0.06h0Zm-4.65.05L12.91,16v0.44l-0.16.06h0Z"/><path class="cls-7" d="M12.22,16.63V17.5h2.49V16.63L14,16.39V15.33h2.12v1.05l-0.69.25V17.5h2.49V16.63l-0.69-.25V13.17l0.69-.25V12.05H15.46v0.87l0.69,0.25v1.05H14V13.17l0.69-.25V12.05H12.22v0.87l0.69,0.24v3.22l-0.68.24h0Z"/><path class="cls-8" d="M17.95,12.92V12.05l-0.22.22v0.49L17,13v3.53l0.22-.16V13.16l0.69-.25h0Zm0,3.71-0.22.16v0.49h-2l-0.22.22h2.49V16.63h0ZM14,15.33h2.12l0.22-.22H13.8v1.43L14,16.39V15.33h0Zm0.69,1.51V16.63l-0.22.15v0.49h-2l-0.22.22h2.49V16.85h0ZM13.13,13l-0.69-.25-0.22.16,0.69,0.25Zm2.55-.25-0.22.16,0.69,0.25L16.37,13l-0.69-.25h0Zm-1,.16V12.05l-0.22.22v0.49L13.8,13v1.43L14,14.22V13.16l0.69-.25h0Z"/><path class="cls-7" d="M18.55,21.05l-0.31.16-0.06,0-0.49-1,0-.06L18,20l0.06,0,0.49,1,0,0.06h0ZM18,19.72L17.49,20l-0.09.27L18,21.42l0.27,0.09,0.52-.26L18.86,21l-0.59-1.17L18,19.72h0Zm-4.47,1.07,0.2,0,0.09-.19,0.17,0-0.18,1.15-0.12,0,0,0.21,0.5,0.08,0-.21-0.11-.07,0.18-1.16,0.17,0,0,0.21,0.2,0,0.07-.47-1.14-.18-0.07.47h0Zm-1.63-1-0.26.52,0.09,0.27,0.4,0.2,0,0.06L12,21.2l-0.06,0L11.59,21l0-.17-0.19-.09-0.19.39,0.69,0.35,0.27-.09,0.26-.52-0.09-.27L12,20.42l0-.06L12.1,20l0.06,0,0.35,0.17,0,0.17,0.19,0.09,0.19-.39-0.69-.35-0.27.09h0Zm8-.72-0.32.32H19.55l-0.25-.26V19.1l0.28-.27,0.15,0.07,0.15-.15-0.3-.31L19,19v0.29l0.41,0.42h0.29L20,19.37h0.06l0.25,0.26v0.06L20.09,20l-0.16-.07L19.78,20l0.3,0.31,0.55-.54V19.51l-0.41-.42H19.94Zm-3.64,2-0.38.06-0.07-.44,0.38-.06,0,0L16.33,21l0,0h0Zm0.38,0.64-0.2-.42,0.14-.2-0.09-.58-0.23-.17-0.88.14,0,0.21,0.12,0,0.18,1.16L15.65,22l0,0.21,0.5-.08,0-.21-0.12,0L16,21.42l0.25,0,0.19,0.4-0.09.06,0,0.21,0.5-.08,0-.21-0.13,0h0Zm-6.54-2.36,0.58-.42L10.79,19l-0.41.59-0.25-.24h0Zm0.61-.78-1.18.86-0.12,0-0.15.15,0.36,0.35,0.15-.15,0-.12,0.15-.11,0.31,0.31L10.11,20,10,20l-0.15.15,0.36,0.35,0.15-.15,0-.12L11.15,19l-0.41-.4h0ZM9.88,11.31L10,11.44l0.31-.4-0.17-.13L10.08,11l-0.36-.28L10,10.35l0.36,0.28,0,0.12,0.17,0.13,0.31-.4-0.17-.13-0.11.06L9.58,9.69l0-.12L9.44,9.44l-0.31.4L9.3,10l0.11-.06,0.36,0.28-0.26.34-0.36-.28,0-.12L9,10l-0.31.4,0.17,0.13L9,10.46l0.93,0.72,0,0.12h0Zm9.18-2.84h0.06l0.29,0.2V8.71l-0.61.89H18.75l-0.29-.2V9.35l0.61-.89h0ZM18.68,9.9L19,9.85l0.74-1.07-0.05-.28-0.48-.33-0.28.05L18.16,9.29l0.05,0.28L18.68,9.9h0ZM10.75,8.66L11,8.46H11.1l0.61,0.89V9.41l-0.29.2H11.35l-0.61-.88V8.66h0ZM11.48,9.9L12,9.57,12,9.29,11.26,8.22,11,8.17l-0.48.33-0.05.28,0.75,1.07L11.48,9.9h0Zm0.94-2.17,0.37,1.18L13,9l0.55-.17,0.13-.26L13.36,7.43l0.09-.08-0.06-.21-0.48.15L13,7.5l0.13,0,0.34,1.07,0,0.05-0.33.1L13,8.72,12.68,7.64l0.09-.09-0.06-.21-0.48.15,0.06,0.2,0.13,0h0Zm4.25,0.95-0.06.21L17.08,9l0.06-.21L17,8.74,17.4,7.62l0.16,0V7.88l0.19,0.06,0.14-.45-1.1-.34-0.14.45,0.19,0.06L17,7.49l0.16,0.05L16.79,8.66l-0.13,0h0Zm-1.09-.19V7.9l-0.2-.2H14.91l0,0V7.29l0,0H15.3l0.06,0.16h0.21V7H14.8l-0.2.2V7.76L14.8,8h0.45l0,0V8.37l0,0H14.86L14.8,8.25H14.6V8.68h0.77l0.2-.2h0ZM21.17,10L21,10.13l0,0.12-0.63.49,0.59-1-0.27-.34-0.17.13,0,0.12-0.93.72-0.11-.06-0.17.13,0.31,0.4,0.17-.13,0-.12,0.63-.49-0.59,1,0.2,0.25,1.14-.89,0.11,0.06,0.17-.13L21.16,10h0Z"/></svg>