<svg id="Layer_1" data-name="Layer 1" xmlns="http://www.w3.org/2000/svg" viewBox="0 0 30 30"><defs><style>.cls-1{fill:#e8e8e8;}.cls-2{fill:#004687;}.cls-3{fill:#c09a5b;}.cls-4{fill:#231f20;}.cls-5{fill:#fff;}</style></defs><title>kansas-city-royals</title><circle class="cls-1" cx="15" cy="15" r="15"/><path class="cls-2" d="M11.23,22.51a0.86,0.86,0,0,0,.49-0.67c0-.1,0-0.1-0.1,0a1,1,0,0,1-1.54-.5,3.23,3.23,0,0,0-.76-1.07,1.68,1.68,0,0,0,1.21-1.58,1.68,1.68,0,0,0-2-1.36c-2.24.15-2.88,2.17-2.16,2.34a0.76,0.76,0,0,0,.88-0.77c-0.14.13-.45,0.23-0.39-0.22a1.8,1.8,0,0,1,1.67-1,1.15,1.15,0,0,1,1.18,1.13A1.34,1.34,0,0,1,8.9,20a1.46,1.46,0,0,0-.78,0,3.11,3.11,0,0,1,.46-2.17,1.37,1.37,0,0,0-.61.41c-0.66.79-.43,3.07-0.59,3.84-0.07.41-.53,0.63-0.74,0.27a0.67,0.67,0,0,0,.93.94,1.47,1.47,0,0,0,.64-1.56c0-.56-0.07-1-0.09-1.46a0.62,0.62,0,0,1,.72.39c0.25,0.48.89,2.57,2.39,1.82"/><path class="cls-2" d="M22.66,18a1.62,1.62,0,0,0,0-.79c-0.25-.92-0.06-1.23.11-1.39-2-.27-2.05,2.83-3,3.15a0.27,0.27,0,0,1-.33-0.29c1.33-1.59,1.1-3.79-.06-3.9a0.62,0.62,0,0,0-.57.75s0,2.62,0,2.87,0,0.34,0,.4,0,0.07,0,.1L18.64,19c-0.41.35-.48,0.22-0.52-0.09V17l-0.67.17s0,0.06,0,.15a0.59,0.59,0,0,0-.39-0.1c-0.79,0-1.39,1.34-1.18,2.34a6.93,6.93,0,0,1-.55.53V17.76l-0.68.19V19.7s0,0.1,0,.19a0.6,0.6,0,0,1-.5.49A0.38,0.38,0,0,1,14,20V18.13l-0.64.16a1.08,1.08,0,0,1-.62,1.2,1,1,0,0,0-.77-0.83,0.6,0.6,0,0,0-.49.12c-0.89.29-1.06,1.75-.68,2.36a0.87,0.87,0,0,0,.67.47,1.43,1.43,0,0,0,1.33-1.74,1,1,0,0,0,.54-0.39V20c0,0.37.05,0.92,0.47,0.92a1.3,1.3,0,0,0,.89-0.53c0,0.09,0,.18,0,0.27a3.9,3.9,0,0,0-1,1.4l0,0.1c-0.75.2-1.37,0.36-1.76,0.45-2.32.52-3,1.16-3.1,2a1.6,1.6,0,0,1,2-.39A2.24,2.24,0,0,1,12,23.27c0.49-.19,1-0.38,1.54-0.56,0,0.67.3,1.37,0.94,1.26s0.86-.41.85-1.73V22.17c2.76-.89,5.51-1.66,7.42-2.32a1,1,0,0,0-.1-1.87M11.94,19.06a0.73,0.73,0,0,1,.36.5,1.26,1.26,0,0,1-.5-0.1c-0.35-.2-0.12-0.5.14-0.4M11.82,21c-0.64,0-.63-1.09-0.44-1.46a0.77,0.77,0,0,0,.24.2,1.46,1.46,0,0,0,.75.2A0.85,0.85,0,0,1,11.82,21m9.83-2.91H22a0.55,0.55,0,0,1-.44.46c-0.58.12-.56-0.38-0.11-0.44l0.23,0M22,16.25c-0.25.24,0,.93,0,1.49,0,0,0,0,0,.05a2.5,2.5,0,0,0-.69,0,0.87,0.87,0,0,0-.5.21c0.27-.68.69-1.68,1.16-1.75m-2-.47a3.05,3.05,0,0,1-.51,2.36c0-.76,0-2.39,0-2.59,0-.36.36-0.3,0.51,0.23m-3.18,2.05c0.23-.45.67-0.31,0.73-0.05,0,0.47,0,.9,0,1a0.8,0.8,0,0,1-.58.83c-0.45,0-.47-1.19-0.14-1.83m-2.1,3.3c0,0.26,0,.52,0,0.73L14,22v0a3.27,3.27,0,0,1,.62-0.88M14.4,23.52c-0.29.08-.46-0.4-0.47-0.88l0.73-.25c0,0.82,0,1.07-.26,1.13m8.26-4c-1.39.42-4.57,1.34-7.32,2.1V20.49l0.7-.61a0.83,0.83,0,0,0,1.45-.29c0.24,0.76,1.1-.15,1.3-0.3l0.14-.12a0.83,0.83,0,0,0,1.24,0,2.57,2.57,0,0,0,.49-0.75,0.74,0.74,0,0,0,.94.5,1.18,1.18,0,0,0,1-.59l0.1,0a0.64,0.64,0,0,1,0,1.23m0.69-3.39H23.19V16.6h-0.1V16.18H22.93V16.09h0.41v0.09h0ZM24,16.6h-0.1V16.2h0l-0.15.41h-0.1l-0.14-.41h0V16.6h-0.1V16.09h0.18l0.12,0.33h0l0.12-.33H24V16.6h0Z"/><path class="cls-2" d="M23.34,16.18H23.19V16.6h-0.1V16.18H22.93V16.09h0.41v0.09h0ZM24,16.6h-0.1V16.2h0l-0.15.41h-0.1l-0.14-.41h0V16.6h-0.1V16.09h0.18l0.12,0.33h0l0.12-.33H24V16.6h0Z"/><path class="cls-2" d="M23.34,16.18H23.19V16.6h-0.1V16.18H22.93V16.09h0.41v0.09h0ZM24,16.6h-0.1V16.2h0l-0.15.41h-0.1l-0.14-.41h0V16.6h-0.1V16.09h0.18l0.12,0.33h0l0.12-.33H24V16.6h0ZM10.71,8v6.93L14.37,17,18,14.91V8H10.71Z"/><path class="cls-3" d="M17.89,5.47A0.43,0.43,0,1,0,17.45,5a0.43,0.43,0,0,0,.43.43m0,0.28H17.75a1,1,0,1,1-2.06,0H15.41a1,1,0,1,1-2.06,0H13.07a1,1,0,1,1-2.07,0h-0.3v2H18v-2H17.75m-6.89-.28A0.43,0.43,0,1,0,10.43,5a0.43,0.43,0,0,0,.43.43m2.36,0a0.43,0.43,0,0,0,0-.87h0a0.43,0.43,0,0,0,0,.87m2.33,0A0.43,0.43,0,1,0,15.12,5a0.43,0.43,0,0,0,.43.44"/><path class="cls-4" d="M12.06,10a0.47,0.47,0,0,0-.51-0.52H11.48V9.26H13V9.47a0.47,0.47,0,0,0-.45.52v1.23l0.11-.06c0.22-.32.81-1.16,0.94-1.4s-0.08-.3-0.3-0.3V9.26h1.38V9.46h-0.1a0.65,0.65,0,0,0-.58.31c-0.32.39-.95,1.34-0.95,1.34,1,0.07,1.33,1.4,1.58,1.58a1.78,1.78,0,0,1,1.58-2.08,1.94,1.94,0,0,1,.58.08c0.33,0.09.36-.07,0.4-0.25h0.24V12H17.26a1.14,1.14,0,0,0-1-1.19c-0.88,0-1,1-1.06,1.69,0,2.57,1.74,2.49,2.07,1.66,0-.12,0-0.15,0-0.18-0.39-.19.06-0.69,0.31-0.25a1,1,0,0,1-1.16,1.16c-1.66,0-2.15-2.33-2.77-3.08-0.48-.59-0.88-0.32-1-0.18v1.13a0.47,0.47,0,0,0,.51.52h0.08v0.21H11.48V13.27h0.08a0.47,0.47,0,0,0,.51-0.52V10"/><path class="cls-5" d="M11.92,9.84a0.47,0.47,0,0,0-.5-0.52H11.33V9.11h1.56V9.32a0.47,0.47,0,0,0-.45.52v1.23L12.55,11c0.22-.32.81-1.16,0.94-1.4s-0.08-.3-0.3-0.3V9.11h1.38V9.32h-0.1a0.65,0.65,0,0,0-.58.31C13.56,10,12.93,11,12.93,11c1,0.07,1.33,1.4,1.57,1.58a1.78,1.78,0,0,1,1.58-2.08,2,2,0,0,1,.58.08c0.33,0.09.36-.07,0.4-0.25h0.24v1.56H17.11a1.14,1.14,0,0,0-1-1.19c-0.88,0-1,1-1.06,1.69,0,2.57,1.74,2.49,2.07,1.66,0-.12,0-0.15,0-0.18-0.39-.19.06-0.69,0.31-0.25a1,1,0,0,1-1.16,1.16c-1.66,0-2.15-2.33-2.77-3.08-0.48-.59-0.88-0.32-1-0.18V12.6a0.47,0.47,0,0,0,.51.52H13v0.21H11.33V13.12h0.08a0.47,0.47,0,0,0,.5-0.52V9.84"/></svg>