<svg id="Layer_1" data-name="Layer 1" xmlns="http://www.w3.org/2000/svg" viewBox="0 0 30 30"><defs><style>.cls-1{fill:#e8e8e8;}.cls-2{fill:#005a9c;}.cls-3{fill:#ef3e42;}</style></defs><title>los-angeles-dodgers</title><circle class="cls-1" cx="15" cy="15" r="15"/><path class="cls-2" d="M22.44,9.7a1.42,1.42,0,0,0-.2.71A1.9,1.9,0,0,1,23,11.84a0.78,0.78,0,0,1,1.16.28c0.5,1.42-1.71,2.53-3.26,3.19S17.66,16.64,16.77,17c-0.14.65-.43,2.32-1.47,2.4-0.58,0-.65-1-0.31-1.68a4.4,4.4,0,0,0-2.48,1.72,2.37,2.37,0,0,1-1.44,0c1-1.42,3.26-2.28,4.45-2.7,0,0,.58-0.86.92-1.27L16.5,15c-0.13.35-.7,0.85-1.07,0.25a0.92,0.92,0,0,1-.64.79,0.52,0.52,0,0,1-.4-0.27,0.94,0.94,0,0,1-.85.77A1.11,1.11,0,0,1,13,15.32a0.84,0.84,0,0,1-.24.29c0,1.48-.82,2.29-1.66,1.73l-0.7.64a0.23,0.23,0,0,1-.24-0.11l0.69-1c-0.24-1.27.5-2.62,1.42-2.34a0.73,0.73,0,0,1,.46.6A1.35,1.35,0,0,0,13,14.91c0-.44.67-1.65,1.41-1.16,0,0,.44-2.07.44-2.07a1.45,1.45,0,0,1,.56-0.18,25.76,25.76,0,0,0-.6,3.86c0,0.16.35,0,.42-0.57,0-2.11,1.29-2.51,1.58-2.08l0.07-.28a1.34,1.34,0,0,1,.54-0.2c-0.06.46-.19,1.37-0.3,2l0.47-.76c0.05-1.63,1-2.25,1.49-1.9s-0.18,1.65-.86,1.74c0,0.79.82,0.42,1.14-.46a6.71,6.71,0,0,0,.44-1.55A0.74,0.74,0,0,1,20,10.49c0.3-.17.17,0.33,0.35,0.32a1.06,1.06,0,0,1,.77.07c0.29,0.3-.18.9-0.27,1.23s-0.08.61,0.09,0.58,0.87-1.7,1-2.23c-0.25-1.16.64-1.32,0.57-.76m-6.1,6.7s0.06-.28.08-0.4l-0.31.49,0.23-.09m5.76-5.54c-0.15.5-.67,2.81-1.5,2.57s-0.21-1.68-.13-1.95a1.32,1.32,0,0,1-.28,0c-0.18.83-.67,2.95-1.81,3A0.71,0.71,0,0,1,17.76,14c-0.24.35-.45,0.76-0.7,1.1-0.06.34-.12,0.81-0.17,1.12C21.47,14.56,23,14,23.61,13.09a0.75,0.75,0,0,0,0-.95,0.6,0.6,0,0,0-.64.15,1.16,1.16,0,0,1-1,.52,0.36,0.36,0,0,1-.23-0.61,0.85,0.85,0,0,1,.43,0,0.92,0.92,0,0,0-.12-1.34m-3.33,1.2a1,1,0,0,0-.5.94,0.85,0.85,0,0,0,.5-0.94m-2.28,1c-0.69.08-.84,1.88-0.37,1.79a0.9,0.9,0,0,0,.48-0.67,4.53,4.53,0,0,0,.11-0.71c0-.26-0.08-0.43-0.21-0.42M14.22,14.1c-0.69-.07-0.88,1.71-0.46,1.72a0.62,0.62,0,0,0,.51-0.59c0-.07.1-0.76,0.11-0.84a0.29,0.29,0,0,0-.16-0.3m-2.43,1c0.1,0.18.56,0.22,0.52,0.12,0-.49-0.54-0.55-0.52-0.12m-0.26.31c-0.29.39-.25,1.32,0.09,1.39s0.73-.66.7-1.07a0.87,0.87,0,0,1-.79-0.32m4.69,1.76s-0.26.12-.57,0.24c-0.24.37-.37,1.21-0.09,1.08a1.67,1.67,0,0,0,.66-1.32"/><path class="cls-2" d="M10.09,17.67A2.53,2.53,0,0,1,7.28,18.9a2.34,2.34,0,0,1-1.92,1.26c-0.27-.17.17-1.4,1.53-1.6C7.33,18,6.75,14.8,8.61,13.85c0,0,.11,0,0.08.08-1,.89-0.62,2.27-0.89,3.53a6.47,6.47,0,0,1-.3,1.07,2.62,2.62,0,0,0,.74,0,2.05,2.05,0,0,0,1.42-1.8c0.24-1.07.21-2.45-.62-2.91-1.54-.87-4.22,1.52-3.38,2.53,0.17,0.21,1,.06,1.39-1.16a0.58,0.58,0,0,1,0,.48C6.6,17,5.77,17.14,5.4,16.95a1.09,1.09,0,0,1-.31-1.15c0.36-1.87,3.43-3.46,4.83-2.09,1,0.95.78,2.86,0.17,4M6,19.5A0.91,0.91,0,0,0,6.72,19,0.79,0.79,0,0,0,6,19.5"/><path class="cls-3" d="M16.1,6.24a1.83,1.83,0,1,1,1.83,1.83A1.83,1.83,0,0,1,16.1,6.24m1.24-.16a1.41,1.41,0,0,0-.22-1.33A1.7,1.7,0,0,0,16.43,7a1.39,1.39,0,0,0,.9-1m1.18,0.36a1.39,1.39,0,0,0,.2,1.31,1.69,1.69,0,0,0,.73-2.28,1.41,1.41,0,0,0-.93,1m-0.13,0a1.67,1.67,0,0,1,1-1.1,1.7,1.7,0,0,0-2.06-.63,1.67,1.67,0,0,1,.17,1.45,1.66,1.66,0,0,1-.93,1.09,1.7,1.7,0,0,0,2,.61,1.66,1.66,0,0,1-.15-1.42M9.16,19l-1,1.93a0.07,0.07,0,0,0,0,.09h0a0.07,0.07,0,0,0,.09,0h0l1-1.93A0.07,0.07,0,0,0,9.16,19m2.29,0.69-0.74,1.64a0.07,0.07,0,0,0,.12.05l0.74-1.64a0.07,0.07,0,0,0-.12-0.05h0m2.66-1-0.27.86a0.07,0.07,0,1,0,.13,0l0.27-.85a0.07,0.07,0,0,0,0-.08h0a0.07,0.07,0,0,0-.08,0h0m-0.46,1.49-1.45,4.58a0.07,0.07,0,1,0,.13,0l1.45-4.58a0.07,0.07,0,0,0,0-.08h0a0.07,0.07,0,0,0-.08,0m2-.52-0.36,1.68a0.07,0.07,0,0,0,.13,0h0l0.36-1.68a0.07,0.07,0,0,0-.05-0.08,0.07,0.07,0,0,0-.08.05h0M14,10.23l-1.83,3.26a0.07,0.07,0,0,0,.12.06l1.83-3.26A0.07,0.07,0,0,0,14,10.23h0M19.09,8l-0.61,2.83a0.07,0.07,0,0,0,.14,0l0.61-2.83a0.07,0.07,0,1,0-.14,0M18,8.66L17.34,11.4a0.07,0.07,0,0,0,.14,0l0.65-2.74a0.07,0.07,0,0,0-.14,0h0m-0.67-.07-1.09,3.36a0.07,0.07,0,0,0,0,.09h0a0.07,0.07,0,0,0,.09,0h0l1.09-3.36a0.07,0.07,0,0,0-.14,0h0M15.78,7.06L14.36,9.53a0.07,0.07,0,0,0,.13.07l1.42-2.48a0.07,0.07,0,0,0-.13-0.07m0.83,1.17-1,2.22a0.07,0.07,0,0,0,0,.1h0a0.07,0.07,0,0,0,.1,0l1-2.22a0.07,0.07,0,1,0-.13-0.06m0.53,10.13L16.8,20.18a0.07,0.07,0,0,0,.05.08h0a0.07,0.07,0,0,0,.08-0.05l0.34-1.82a0.07,0.07,0,0,0-.05-0.08h0a0.07,0.07,0,0,0-.08.05"/><path class="cls-2" d="M24.69,13.41H24.6v0.25H24.54V13.41H24.44V13.36h0.25v0.05h0Zm0.42,0.25H25V13.42h0L25,13.66H24.9l-0.09-.24h0v0.24H24.75v-0.3h0.11l0.07,0.2h0l0.07-.2h0.11v0.3h0Z"/></svg>