<svg id="Layer_1" data-name="Layer 1" xmlns="http://www.w3.org/2000/svg" viewBox="0 0 30 30"><defs><style>.cls-1{fill:#e8e8e8;}.cls-2{fill:#fff;}.cls-3{fill:#003263;}.cls-4{fill:#ba0021;}.cls-5{fill:#862633;}.cls-6{fill:#c4ced4;}</style></defs><title>los-angeles-angels</title><circle class="cls-1" cx="15" cy="15" r="15"/><path class="cls-2" d="M15.84,24.19h5.46a3,3,0,0,1-1.15-1.63l-1.52-5.24a1.49,1.49,0,0,1,.53-1.51,1.9,1.9,0,0,1-1.32-1.2L17,11.68c1.21-.41,2-1.13,2-2,0-1.09-1.35-2-3.23-2.25L15,5h-0.8L13.53,7.46c-1.88.26-3.23,1.15-3.23,2.25,0,0.84.79,1.56,2,2l-0.85,2.94a1.9,1.9,0,0,1-1.32,1.2,1.5,1.5,0,0,1,.53,1.51L9.14,22.56A3.06,3.06,0,0,1,8,24.19h5.45A1.48,1.48,0,0,1,13,22.56l0.13-.46h3.1l0.13,0.46a1.48,1.48,0,0,1-.49,1.63h0Zm-1.67-5.8,0.47-1.62,0.47,1.62H14.17Z"/><path class="cls-3" d="M20.38,23.82a3.56,3.56,0,0,1-.59-1.15l-1.52-5.21A1.76,1.76,0,0,1,18.54,16a2.1,2.1,0,0,1-1.06-1.24l-0.92-3.17c1.3-.35,2.19-1,2.19-1.84,0-1-1.42-1.85-3.31-2L14.76,5.38H14.52L13.86,7.67c-1.89.19-3.31,1-3.31,2,0,0.8.89,1.49,2.19,1.84l-0.92,3.17A2.11,2.11,0,0,1,10.75,16,1.75,1.75,0,0,1,11,17.46L9.5,22.67a3.55,3.55,0,0,1-.59,1.15h3.78a2.08,2.08,0,0,1,0-1.63l0.13-.46h3.66l0.13,0.46a2.09,2.09,0,0,1,0,1.63h3.78Zm-6.7-5.06,1-3.33,1,3.33H13.67Z"/><path class="cls-4" d="M15.65,10.53h0L15.16,8.85l0.1,0.33-0.61,0v1.09l2.91,10,0.67,2.29,1.15,0.69a4.07,4.07,0,0,1-.21-0.54l-1.45-5a2.1,2.1,0,0,1,.06-1.58,2.42,2.42,0,0,1-.87-1.26l-1.1-3.78h0M15,8.24L14.64,7.07V8.23H15M11,22.6L12,23.23a2.5,2.5,0,0,1,.09-1l0.31-1.07-0.64-.9"/><path class="cls-4" d="M12.89,19.35l1.75-6V10.25l-2.91,10h5.82l-1.16-.9"/><path class="cls-5" d="M14.64,13.33l1.75,6,1.16,0.9-2.91-10"/><path class="cls-5" d="M19.37,23.23l-1.15-.69-0.67-2.29H11.73l2.91-10V9.17l0.61,0-0.1-.33H14.64l-0.52,0-0.49,1.67-0.17.58h0l-1.1,3.78a2.4,2.4,0,0,1-.87,1.26,2.11,2.11,0,0,1,.06,1.58l-1.45,5a3.56,3.56,0,0,1-.21.54H12L11,22.6l0.69-2.35,0.64,0.9h4.54l0.31,1.07a2.66,2.66,0,0,1,.08,1M14.64,7.07L14.3,8.24h0.34"/><path class="cls-6" d="M13.64,10.53c-1.05-.13-1.8-0.45-1.8-0.82s1-.78,2.29-0.86l0.52,0h0.52c1.3,0.08,2.29.43,2.29,0.86s-0.75.69-1.8,0.82h0l0.17,0.58h0c1.36-.2,2.33-0.75,2.33-1.39S16.76,8.31,15,8.24H14.3c-1.78.07-3.16,0.7-3.16,1.47s1,1.19,2.33,1.39h0"/><path class="cls-3" d="M21.44,23.36H21.28V23.8H21.17V23.36H21v-0.1h0.43v0.1h0Zm0.73,0.44H22.06V23.37h0l-0.16.43H21.8l-0.15-.43h0V23.8H21.54V23.26h0.19l0.12,0.35h0L22,23.26h0.19V23.8h0Z"/></svg>