<svg id="Layer_1" data-name="Layer 1" xmlns="http://www.w3.org/2000/svg" viewBox="0 0 30 30"><defs><style>.cls-1{fill:#e8e8e8;}.cls-2{fill:#c4ced4;}.cls-3{fill:#0077c8;}.cls-4{fill:#f60;}.cls-5{fill:#ffd100;}</style></defs><title>miami-marlins</title><circle class="cls-1" cx="15" cy="15" r="15"/><path class="cls-2" d="M17.9,15.93l1.63,4.19h3.2L18.29,9l-2.84,5.22L13.06,9.81l-0.31-.57L12.61,9l-0.2.5-0.31.77a10.26,10.26,0,0,0-.93.78c-1.22,1.17-1.33,2-1,2.66a1.75,1.75,0,0,0,.17.24,2.77,2.77,0,0,0,.89.67h0l0.05,0,0.09,0h0l-0.11-.05h0l-0.07,0,0,0h0l-0.06,0,0,0h0l0,0-0.2-.16,0,0,1.55-4,0.13-.34,0.1-.25h0l0.07,0.13L12.78,10l2.67,4.95,2.84-5.26,3.94,10.09H19.77L18,15.12l-2.51,4.64-2.51-4.64h0l0,0.06h0l-1.8,4.6H8.66l2-5.15h0l-0.26-.06H10.37L8.15,20.12h3.19L13,15.93l2.46,4.51,2.46-4.51h0ZM10.59,14a2.35,2.35,0,0,1-.23-0.33,1.56,1.56,0,0,1-.09-0.19,1.77,1.77,0,0,1-.06-0.27c-0.12-.86.68-1.79,1.74-2.62L10.59,14h0Z"/><path class="cls-2" d="M15,7.66c2.33-1.1,3.91-1.92,3.91-1.92L18.35,6l-1.5.68c-1.27.56-3,1.32-3.69,1.68l-0.63.35c-2.42,1.52-4.19,3.23-3.29,5.19-1-1.2-.13-3,1-4.18a11.94,11.94,0,0,0,1.45-1.76,2.68,2.68,0,0,0,.46-1.47l-0.39-.2a3.33,3.33,0,0,1-.69,2c-0.69.94-3.06,3-2.34,5a2.12,2.12,0,0,0,1.68,1.34h0.06c-2.23-1.15-1.65-4,4.59-6.9h0Z"/><path class="cls-2" d="M13.06,9.81A26.54,26.54,0,0,1,15.9,8.23l-0.22-.11c-1,.5-1.78.93-2.43,1.34L13,9.63l0.1,0.18h0Z"/><path class="cls-3" d="M13.24,9.46c0.65-.4,1.44-0.84,2.43-1.34L15.33,8l-0.16-.08c-0.66.33-1.59,0.84-2.42,1.35L13,9.63ZM11.4,14.65l-0.09,0-0.05,0h0a2.78,2.78,0,0,1-.89-0.67,1.75,1.75,0,0,1-.17-0.24c-0.33-.61-0.22-1.48,1-2.66a10.18,10.18,0,0,1,.92-0.78l0.31-.77-0.32.21C9,11.81,9.22,13.25,10.1,14a2.44,2.44,0,0,0,.51.34,5.28,5.28,0,0,0,.72.31l0.08,0h0Z"/><path class="cls-4" d="M10.2,9.68c-1.09,1.22-2,3-1,4.18-0.9-2,.87-3.66,3.29-5.19l0.63-.35c0.71-.36,2.42-1.12,3.69-1.68L18.35,6h0L15.24,7.15h0a3.45,3.45,0,0,1-.84.11,2.59,2.59,0,0,1-.91-0.21c-0.11,0-.77-0.32-1.33-0.58l-0.06,0a2.68,2.68,0,0,1-.46,1.47A12,12,0,0,1,10.2,9.68h0Z"/><path class="cls-5" d="M12.63,10.1l0.06,1v0.16h0l2.64,4.86,0.1,0.19,0.1-.19,2.63-4.85h0l0.1-1.56-2.84,5.26L12.78,10l-0.1-.18-0.07-.13V10.1h0Z"/><path class="cls-3" d="M9.64,19.08h0ZM15.56,18l-0.11.2L15.34,18l0.11,0.2,0.11-.2h0Z"/><path class="cls-3" d="M21.32,19.25h-1.2L18,13.9l-2.58,4.78L12.87,13.9l-2.1,5.36H9.57l0-.06,0,0.06-0.9.51h2.46l1.8-4.6,0-.06h0l2.51,4.64L18,15.12l1.82,4.66h2.46l-0.9-.51h0Z"/><path class="cls-3" d="M19.52,14.66L21.2,19l0,0.1,0.08,0.18-1.8-4.59h0Z"/><path class="cls-2" d="M10.77,19.27l2.1-5.36,2.58,4.78L18,13.9l2.09,5.36h1.2l-0.08-.18h-1l-2.22-5.71L15.56,18l-0.11.2L15.34,18l-2.49-4.61-2.23,5.71h-1l0,0.12,0,0.06h1.2Z"/><path class="cls-4" d="M12.69,11.08l-0.06-1V9.69l-0.1.25-0.13.34-1.55,4,0,0,0.2,0.16,0,0h0l0.06,0,0.06,0h0l0,0h0l0.06,0,1.37-3.37V11.08h0Zm-4,8.7,0.9-.51,0-.06,0-.12h0l1.66-4.4H11.22a3.49,3.49,0,0,1-.53-0.05h0l-2,5.15h0Zm10.86-5.11,1.8,4.59h0l0.9,0.51L18.29,9.69l-0.1,1.56,1.34,3.41h0Z"/><path d="M9.64,19.08h1l2.23-5.71L15.34,18l0.11,0.2,0.11-.2,2.5-4.63,2.22,5.71h1l0-.1-1.68-4.3-1.34-3.41h0L15.56,16.1l-0.1.19-0.1-.19L12.7,11.24h0l-1.37,3.37h0l0.11,0.05H11.3l-1.66,4.4h0ZM12,21.2H12.4v2.24H12V21.2Zm7.5,1.15-0.05.1-0.06-.1L18.7,21.17l-0.9,2.29h0.48l0.44-1.12,0-.12,0.06,0.12,0.57,1.05L20,22.34,20,22.22l0,0.12,0.44,1.12H21l-0.9-2.29-0.64,1.19h0ZM15.11,21.2l-0.9,2.24h0.48l0.21-.52h0.88L16,23.44h0.48l-0.9-2.24H15.11Zm0,1.27,0.27-.63,0.25,0.63H15.08Zm7.62-1.32h0.45v2.29H22.7V21.15Zm-14,1.2-0.05.1-0.06-.1L7.91,21.17,7,23.46H7.49l0.44-1.12,0-.12L8,22.34l0.57,1.05,0.57-1.05,0.06-.12,0,0.12,0.44,1.12H10.2L9.3,21.17,8.66,22.35h0Z"/></svg>