<svg id="Layer_1" data-name="Layer 1" xmlns="http://www.w3.org/2000/svg" viewBox="0 0 30 30"><defs><style>.cls-1{fill:#e8e8e8;}.cls-2{fill:#0a2351;}.cls-3{fill:#fff;}.cls-4{fill:#7c2529;}.cls-5{fill:#8f3326;}.cls-6{fill:#b6922e;}</style></defs><title>milwaukee-brewers</title><circle class="cls-1" cx="15" cy="15" r="15"/><path class="cls-2" d="M7.84,14.6a7.27,7.27,0,0,1,12.4-5.11,7.17,7.17,0,0,1,2.13,5.11,7.26,7.26,0,0,1-7.27,7.23A7.25,7.25,0,0,1,7.84,14.6h0Z"/><path class="cls-3" d="M8,14.6a6.93,6.93,0,0,1,2.07-5,7,7,0,1,1,0,10A6.93,6.93,0,0,1,8,14.6H8Z"/><path class="cls-4" d="M15.1,9.76A4.84,4.84,0,1,0,18.53,18a4.84,4.84,0,0,0,0-6.85A4.83,4.83,0,0,0,15.1,9.76h0Z"/><path class="cls-3" d="M15.1,9.94a4.66,4.66,0,1,0,4.69,4.66A4.66,4.66,0,0,0,15.1,9.94h0Z"/><path class="cls-4" d="M12.15,11l0.13,0.14-0.22.54L12,11.54Z"/><path class="cls-4" d="M11.51,11.62l0.54-.1-0.13-.14-0.23,0-0.18.2h0Zm1-.23,0.09,0.16-0.25.53-0.11-.16,0.27-.53h0Z"/><path class="cls-4" d="M11.64,11.83L11.75,12l0.58-.05-0.11-.14-0.58.05h0Zm1.18,0L12.92,12l-0.31.49-0.09-.16,0.31-.51h0Z"/><path class="cls-4" d="M11.92,12.17L12,12.34l0.58,0-0.11-.16-0.58,0h0Zm1.16,0.16,0.07,0.18L12.79,13l-0.05-.18,0.35-.45h0Z"/><path class="cls-4" d="M12.15,12.57l0.07,0.16,0.6,0.07-0.09-.18-0.58-.05h0Z"/><path class="cls-5" d="M13.3,12.84L13.35,13l-0.4.42-0.05-.18,0.4-.42h0Z"/><path class="cls-4" d="M12.35,13l0.05,0.18L13,13.28l-0.07-.18L12.35,13h0Z"/><path class="cls-5" d="M13.46,13.37l0,0.18L13,13.93l0-.2,0.45-.36h0Z"/><path class="cls-5" d="M12.5,13.41l0,0.18,0.56,0.18,0-.18-0.56-.18h0Zm1.07,0.49v0.2l-0.47.33,0-.2,0.49-.33h0Z"/><path class="cls-5" d="M12.61,13.84l0,0.18,0.53,0.24,0-.18-0.53-.24h0Zm1,0.6v0.2l-0.53.27,0-.18,0.51-.29h0Z"/><path class="cls-5" d="M12.66,14.28v0.2l0.51,0.29V14.58l-0.51-.31h0ZM13.61,15l0,0.18L13,15.4l0-.18L13.61,15h0Z"/><path class="cls-5" d="M12.68,14.73l0,0.2,0.47,0.34,0-.2-0.47-.34h0Zm0.85,0.82-0.05.18-0.56.16L13,15.71l0.56-.16h0Z"/><path class="cls-5" d="M12.64,15.18l0,0.18L13,15.76l0-.18-0.44-.4h0Zm0.76,0.89-0.05.18-0.58.11,0.07-.18,0.56-.11h0Z"/><path class="cls-5" d="M12.55,15.63l-0.05.18,0.4,0.43L13,16.07Z"/><path class="cls-4" d="M13.24,16.59l-0.09.16-0.58.05,0.07-.18,0.6,0h0Z"/><path class="cls-4" d="M12.44,16.05l-0.09.18L12.7,16.7l0.07-.16-0.33-.49h0Zm0.56,1-0.11.16-0.58,0,0.11-.16,0.58,0h0Z"/><path class="cls-4" d="M12.26,16.47l-0.09.18,0.29,0.51L12.55,17l-0.29-.51h0Zm0.45,1.09-0.11.14L12,17.63l0.11-.14,0.58,0.07h0Z"/><path class="cls-4" d="M12,16.87L11.93,17l0.24,0.53,0.11-.14L12,16.87h0ZM12.39,18l-0.13.14L12,18.06l-0.17-.16,0,0L12.39,18h0Z"/><path class="cls-4" d="M11.79,17.25l-0.13.14,0.18,0.55h0L12,17.81l-0.18-.56h0Zm6.26,1-0.12-.14,0.2-.56,0.13,0.14-0.19.54h0Z"/><path class="cls-4" d="M18.7,17.58l-0.53.1,0.13,0.14,0.22,0,0.18-.2h0Zm-1,.23-0.11-.16,0.25-.53L18,17.28l-0.25.53h0Z"/><path class="cls-4" d="M18.57,17.39l-0.13-.16-0.58.05L18,17.45l0.6-.05h0Z"/><path class="cls-5" d="M17.39,17.36l-0.09-.16,0.31-.51,0.09,0.18-0.31.49h0Z"/><path class="cls-5" d="M18.3,17l-0.11-.16-0.58,0L17.7,17h0.6Zm-1.18-.16L17,16.7l0.36-.47,0.07,0.18-0.36.45h0Z"/><path class="cls-5" d="M18.06,16.65L18,16.47l-0.58-.07,0.09,0.18,0.58,0.07h0Zm-1.15-.27-0.05-.2,0.4-.42,0.05,0.18-0.4.43h0Z"/><path class="cls-5" d="M17.86,16.23l-0.05-.18-0.58-.13,0.05,0.18,0.58,0.13h0Zm-1.11-.38,0-.2,0.45-.38,0,0.2-0.44.38h0Z"/><path class="cls-5" d="M17.72,15.82l-0.05-.2-0.55-.18,0,0.2,0.56,0.18h0Zm-1.07-.51,0-.2,0.49-.33,0,0.2-0.49.33h0Z"/><path class="cls-5" d="M17.61,15.38l0-.2L17,14.95l0,0.18,0.55,0.25h0Zm-1-.62,0-.2,0.51-.27v0.2l-0.53.27h0Z"/><path class="cls-5" d="M17.55,14.93l0-.2L17,14.44v0.2l0.51,0.29h0Zm-0.95-.71,0-.2,0.53-.22,0,0.18-0.55.24h0Z"/><path class="cls-5" d="M17.53,14.47l0-.2-0.47-.34,0,0.2,0.47,0.34h0Zm-0.85-.8,0-.2,0.56-.16,0,0.2-0.56.16h0Z"/><path class="cls-5" d="M17.57,14l0-.18-0.44-.4,0,0.18L17.57,14h0Zm-0.78-.89L16.86,13l0.58-.11L17.37,13l-0.58.11h0Z"/><path class="cls-5" d="M17.64,13.59l0.05-.18L17.32,13l-0.05.18,0.38,0.44h0Zm-0.67-1,0.09-.18,0.58,0-0.09.16Z"/><path class="cls-5" d="M17.77,13.15L17.84,13,17.5,12.5l-0.07.18,0.35,0.47h0Z"/><path class="cls-4" d="M17.21,12.12L17.32,12l0.58,0-0.11.16-0.58,0h0Z"/><path class="cls-4" d="M18,12.74L18,12.57l-0.29-.51-0.09.16L18,12.74h0Zm-0.47-1.09,0.13-.15,0.58,0.07-0.13.15-0.58-.07h0Z"/><path class="cls-4" d="M18.15,12.34l0.11-.16L18,11.65l-0.11.14,0.24,0.54h0Zm-0.35-1.12L18,11.07l0.28,0.07,0.18,0.17,0,0-0.58-.13h0Z"/><path class="cls-4" d="M18.41,12l0.13-.14-0.18-.54-0.13.14L18.41,12h0Z"/><path class="cls-2" d="M8.21,14.6a6.9,6.9,0,1,1,6.89,6.89A6.89,6.89,0,0,1,8.21,14.6h0Zm6.89-5a5,5,0,1,0,5,5A5,5,0,0,0,15.1,9.58Z"/><path class="cls-6" d="M10.68,17.77a5.46,5.46,0,0,1-1-2.36,5.59,5.59,0,0,0,1,2.5l0-.14h0ZM10,18.41a6.58,6.58,0,0,1-1.25-2.84,6.62,6.62,0,0,0,1.13,2.83Zm-0.11-.89L10,17.57a6,6,0,0,1-.87-2.77,6,6,0,0,0,.8,2.84l0-.13h0ZM10,17.66l0.09,0.74,0.49,0.05L10,17.66h0Zm0.58,0.8L10.66,18,10,17.66l0.58,0.8h0Zm1.11,1.59c0.18,0.13.38,0.22,0.56,0.33l0.58-.24a4.62,4.62,0,0,1-.53-0.24ZM13,20.2l-0.58.24c0.2,0.09.4,0.16,0.6,0.24l0.55-.29-0.07,0c-0.16-.05-0.33-0.09-0.49-0.16h0ZM10.5,19.08a5.57,5.57,0,0,0,.47.45l0.6-.09c-0.15-.11-0.29-0.24-0.44-0.36H10.5Zm0.58,0.53a3.52,3.52,0,0,0,.53.38l0.58-.14c-0.16-.09-0.33-0.2-0.49-0.31l-0.62.07h0Zm2.05,1.12,0.64,0.16,0.49-.36a2.81,2.81,0,0,1-.56-0.11l-0.56.31h0ZM10,18.5l0.09,0.11c0.11,0.14.22,0.25,0.33,0.38H11c-0.15-.14-0.29-0.27-0.42-0.42L10,18.5h0Zm3.91,2.41a3.83,3.83,0,0,0,.64.09L15,20.6a3.15,3.15,0,0,1-.58-0.05l-0.51.36h0Zm-1.22-1.43-0.45-.25,0.16,0.6a4.75,4.75,0,0,0,.53.25l-0.24-.6h0Zm0.91,0.82-0.31-.56-0.47-.2L13,20.11l0.45,0.16,0.09,0h0Zm-2-1.56a3.27,3.27,0,0,1-.36-0.34V19a4.43,4.43,0,0,0,.45.36l-0.09-.63h0Zm0.53,0.4C12,19,11.82,19,11.68,18.84l0.09,0.62,0.49,0.31-0.16-.63h0Zm1.82,0.78a4.88,4.88,0,0,1-.49-0.13l0.31,0.54a5.28,5.28,0,0,0,.56.11l-0.38-.53h0ZM11.1,18.28A1.84,1.84,0,0,1,10.86,18a0.48,0.48,0,0,1-.09-0.11l-0.07.62a4.34,4.34,0,0,0,.4.42V18.28h0ZM14.57,20c-0.16,0-.33,0-0.51-0.07l0.36,0.51c0.2,0,.4,0,0.58,0Zm5-2.25a5.42,5.42,0,0,0,1-2.36,5.36,5.36,0,0,1-1,2.5Zm0.62,0.63a6.18,6.18,0,0,0,1.25-2.84,6.37,6.37,0,0,1-1.11,2.83l-0.15,0h0Zm0.13-.89-0.11.05A5.79,5.79,0,0,0,21,14.8a6,6,0,0,1-.78,2.84l0-.13h0Zm-0.11.14-0.07.74-0.49.05,0.56-.8h0Z"/><path class="cls-6" d="M19.61,18.46L19.55,18l0.62-.31-0.56.8h0Zm-1.13,1.59a5.75,5.75,0,0,1-.56.33l-0.56-.24a4.61,4.61,0,0,0,.53-0.24l0.6,0.14h0Zm-1.27.15,0.6,0.24c-0.2.09-.4,0.16-0.6,0.24l-0.55-.29,0.07,0a3.63,3.63,0,0,0,.47-0.16h0Zm2.49-1.12c-0.15.16-.31,0.31-0.45,0.45l-0.62-.09a4.44,4.44,0,0,0,.45-0.36H19.7Zm-0.56.53a4.77,4.77,0,0,1-.53.38L18,19.84a3.22,3.22,0,0,0,.49-0.31l0.64,0.07h0Zm-2.07,1.12-0.62.16L16,20.53a3.08,3.08,0,0,0,.56-0.11Zm3.16-2.23-0.11.11a3.14,3.14,0,0,1-.31.38H19.19c0.15-.14.27-0.27,0.4-0.42l0.64-.07h0Zm-3.91,2.41a4.05,4.05,0,0,1-.65.09l-0.44-.4a3,3,0,0,0,.56-0.05l0.53,0.36h0Zm1.22-1.43L18,19.22l-0.15.6c-0.18.09-.35,0.18-0.53,0.25l0.24-.6h0Zm-0.93.82,0.31-.56a3.72,3.72,0,0,0,.47-0.2l-0.22.58-0.45.16-0.11,0h0Zm2-1.56A3.42,3.42,0,0,0,19,18.39V19c-0.15.13-.31,0.25-0.45,0.36l0.07-.63h0Zm-0.53.4a3.47,3.47,0,0,0,.42-0.29l-0.07.62-0.51.31,0.16-.63h0Zm-1.82.78a4.87,4.87,0,0,0,.49-0.13l-0.29.54c-0.18,0-.38.09-0.56,0.11l0.36-.53h0Zm2.84-1.63c0.07-.09.16-0.18,0.24-0.29l0.09-.11,0.07,0.62a4.51,4.51,0,0,1-.42.42l0-.63h0ZM15.62,20a4.36,4.36,0,0,0,.51-0.07l-0.36.51c-0.18,0-.38,0-0.58,0L15.62,20h0Z"/><path class="cls-2" d="M13.66,16.34a6.41,6.41,0,0,0-.91.51l-0.13.07,0.18,0.44,0.35,0.36,0.11,0A6.65,6.65,0,0,1,15,17.5a7.72,7.72,0,0,1,2.07.27l0.2,0.05,0.15-.13c1.56-1.34,4.71-.78,7.78-0.07,1.2,0.27,2.6.47,2.87-.51a0.94,0.94,0,0,0-.11-0.69,1,1,0,0,0-.22-0.25l-0.27-.27a1.74,1.74,0,0,0-.58-0.4,0.48,0.48,0,0,1-.09,0l0,0a6.77,6.77,0,0,0-.31-0.63,0.58,0.58,0,0,0,.31-0.16,0.6,0.6,0,0,0,.22-0.45,0.74,0.74,0,0,0-.24-0.6l-0.22-.22A1.33,1.33,0,0,0,25.72,13l-0.24,0a1.25,1.25,0,0,0-.75.24,0,0,0,0,1,0,0l-0.27-.25,0,0a0.1,0.1,0,0,0-.05,0,1.61,1.61,0,0,0-1.13-.22,0.29,0.29,0,0,0-.09-0.11,0.59,0.59,0,0,0-.47-0.22H22.52l-0.13,0s0,0,0,0-0.05,0-.05,0a0.77,0.77,0,0,0-.36.27,0.07,0.07,0,0,0,0,0,1.46,1.46,0,0,0-.91-0.4,2.12,2.12,0,0,0-1.31.38,0.14,0.14,0,0,0-.05,0,1.88,1.88,0,0,0-.31.22c-0.05-.09-0.11-0.18-0.16-0.25l-0.27-.27,0,0a0.58,0.58,0,0,0-.31-0.16H18.48l-0.29,0c-1.22,0-2.18.15-3.51,0.27l-0.11,0-0.07.2s0,0.05,0,.07A1.2,1.2,0,0,0,14,12.63a2.78,2.78,0,0,0-1.87.89l-0.18-.2a0.07,0.07,0,0,1,0,0l0,0a1.06,1.06,0,0,0-1,0,3.52,3.52,0,0,0-.4.18,0.57,0.57,0,0,0-.38-0.13,0.56,0.56,0,0,0-.24.05,1.68,1.68,0,0,0-.45-0.71l-0.25-.25A2.79,2.79,0,0,0,8,11.74l-0.09,0A4.5,4.5,0,0,0,7,11.54H6.82c-2.51-.11-3.47,1-3.55,2V13.8a1.44,1.44,0,0,0,.31.74s0.05,0.05.07,0.09l0.25,0.25A1.63,1.63,0,0,0,4.1,15a0.22,0.22,0,0,0-.09,0,0.2,0.2,0,0,1-.09,0,2.86,2.86,0,0,0-1,.56,2,2,0,0,0-.76,1.52,2.23,2.23,0,0,0,.69,1.63l0.25,0.27a3.33,3.33,0,0,0,2.42.85c2.75,0,4.24-1.43,4.29-2.84V16.78a0.6,0.6,0,0,1,.11.11,0.81,0.81,0,0,0,.55.2,1.64,1.64,0,0,0,1.18-.6,1.14,1.14,0,0,0,.64.18,3.31,3.31,0,0,0,1.42-.33h0ZM5,17.27a1.08,1.08,0,0,0-.35.8,1.06,1.06,0,0,0,.09.4,0.8,0.8,0,0,0-.18,0,1.31,1.31,0,0,1-.42-0.22A1.11,1.11,0,0,1,4,17.52a1.18,1.18,0,0,1,1.18-1.18,1.23,1.23,0,0,1,.64.16,0.64,0.64,0,0,1,.07.31v0.11a1.16,1.16,0,0,0-.82.34H5ZM7.9,13.35a0.72,0.72,0,0,1-.62.54l0.29-.67L7.3,13h0a1.41,1.41,0,0,1,.55.2,0,0,0,0,0,0,0,0.5,0.5,0,0,1,0,.16h0ZM7.72,16.76a0.88,0.88,0,0,1,0,.22,2.53,2.53,0,0,0-.58-1l-0.24-.24-0.05-.05a1.83,1.83,0,0,1,.62.33,1.17,1.17,0,0,1,.27.74h0Z"/><path class="cls-6" d="M10.59,11.56h0a0.07,0.07,0,0,0,0-.07L10,11.12l0.45,0.67L9.59,11.7h0l0.64,0.38a0.1,0.1,0,0,0,.05,0l0,0-0.18.29,0,0s0-.05,0-0.05L9.3,11.81s0,0-.05,0h0l0.27-.43,0,0a0,0,0,0,0,0,.05s0.4,0,.45.05l-0.25-.38s0,0-.05,0l0,0,0.27-.43h0c0,0.05,0,.05,0,0.07l0.78,0.47a0.1,0.1,0,0,0,.05,0l0,0-0.2.33h0Zm0.47-.6,0,0s0-.05,0-0.05l-0.65-.63s0,0-.05,0l0,0L10.61,10l0,0s0,0.05,0,.05l0.65,0.63s0,0,.05,0l0,0L11.06,11h0Zm0.73-1,0.55-.38s0,0,0-.05l0,0,0.2,0.29h0s0,0-.05,0l-0.85.58v0s0-.05,0-0.07l-0.51-.74s0,0-.07,0v0l0.33-.22,0,0a0.05,0.05,0,0,0,0,.05L11.79,10h0Zm1-.34v0s0,0,0,0-0.56-.74-0.58-0.78l0,0v0l0.35-.11v0a0.07,0.07,0,0,0,0,0L12.9,9.22c0-.14,0-0.6,0-0.62s0,0-.05,0v0l0.44-.14v0a0.06,0.06,0,0,0,0,0s0.29,0.4.35,0.51h0c0-.09,0-0.6,0-0.62s0,0-.05,0v0l0.31-.11v0s0,0,0,0v1s0,0,.05,0v0l-0.38.14v0s0,0,0,0S13.28,9,13.13,8.77h0c0,0.24,0,.67,0,0.71s0,0,0,0l0,0-0.4.14h0ZM14.64,9a0.54,0.54,0,0,0-.05.18s0,0,0,0v0l-0.35,0v0a0.15,0.15,0,0,0,.05-0.05s0.31-.91.31-0.92,0,0,0,0v0l0.51,0v0a0,0,0,0,0,0,0s0.25,0.58.38,0.87c0,0.05,0,.05.05,0.05v0l-0.38,0v0s0,0,0,0a0.76,0.76,0,0,0-.07-0.18L14.64,9h0Zm0-.16H15l-0.2-.45-0.16.45h0Zm2.09-.38s0,0-.05,0l0,0,0.38,0.09v0c-0.05,0-.05,0-0.05,0L16.93,9a0.45,0.45,0,0,1-.62.33,0.44,0.44,0,0,1-.42-0.56L16,8.26s0,0-.05-0.05l0,0,0.38,0.09v0c-0.05,0-.05,0-0.05,0l-0.13.51c0,0.14,0,.22.2,0.25s0.25,0,.27-0.14l0.13-.51h0ZM17.9,9.94l0,0s0,0,0,0,0-.43,0-0.49l-0.24.07-0.13.2s0,0,0,.05v0l-0.36-.2,0,0s0.05,0,.05,0l0.44-.8s0,0,0-.05v0l0.36,0.2,0,0c-0.05,0-.05,0-0.07,0l-0.16.31h0c0.2-.05.49-0.11,0.51-0.13s0,0,0,0V9l0.44,0.24v0a0.16,0.16,0,0,0-.13,0l-0.44.09,0.05,0.71s0,0.05,0,.05v0l-0.4-.2h0Zm1.42,0.63,0,0a0.06,0.06,0,0,0,0-.07L19,10.23l-0.11.14,0.45,0.42s0,0,.05,0l0,0-0.24.25v0s0,0,0-.05l-0.71-.67,0,0s0.05,0,.05,0l0.62-.65s0,0,0-.07l0,0,0.71,0.67s0,0,.07,0l0,0-0.24.24,0,0s0,0,0-.05L19.28,10l-0.11.13,0.25,0.25a0.05,0.05,0,0,0,.07,0l0,0-0.2.22h0Zm0.85,1.14,0,0a0.05,0.05,0,0,0,0-.07L20,11.32l-0.16.11L20.15,12s0,0,.07,0v0L20,12.16l0,0s0,0,0-.05l-0.53-.82,0,0a0.1,0.1,0,0,0,.05,0l0.76-.49a0,0,0,0,0,0-.07l0,0,0.51,0.82a0.05,0.05,0,0,0,.07,0l0,0-0.29.18,0,0a0.05,0.05,0,0,0,0-.05l-0.35-.53-0.13.09,0.18,0.31s0.05,0,.07,0l0,0-0.25.16h0Z"/><path class="cls-6" d="M27.75,16.52a0.64,0.64,0,0,0-.18-0.22A1.93,1.93,0,0,0,27.3,16a1.69,1.69,0,0,0-.71-0.43,6.52,6.52,0,0,0-.4-0.8,1.6,1.6,0,0,1-.11-0.18,0.53,0.53,0,0,0,.16,0,0.56,0.56,0,0,0,.36-0.13,0.5,0.5,0,0,0,.15-0.34,0.54,0.54,0,0,0-.18-0.45,3.29,3.29,0,0,0-.25-0.25,1.22,1.22,0,0,0-.84-0.31,1,1,0,0,0-.78.33,0.65,0.65,0,0,0-.13-0.18,3.3,3.3,0,0,0-.25-0.25L24.26,13a1.57,1.57,0,0,0-1.09-.11l-0.11-.05a0.43,0.43,0,0,0,0-.16,0.45,0.45,0,0,0-.35-0.16,0.74,0.74,0,0,0-.67.34,1.47,1.47,0,0,0-.07.27L21.81,13A1.09,1.09,0,0,0,21,12.5a2.41,2.41,0,0,0-1.75.76,0,0,0,0,1,0,0v0A0.69,0.69,0,0,0,19,12.82l-0.27-.27a0.53,0.53,0,0,0-.35-0.14h0a0.31,0.31,0,0,0-.18.05l0-.05c-1.2.05-2.31,0.14-3.51,0.27l0,0.11a0.31,0.31,0,0,0,.15.45l0,0.07c0-.05-0.24-0.24-0.29-0.29a0.84,0.84,0,0,0-.55-0.22,2.64,2.64,0,0,0-1.85,1l0-.05-0.27-.27a0.1,0.1,0,0,0-.05,0,0.85,0.85,0,0,0-.78,0c-0.13.05-.33,0.14-0.49,0.24a0.46,0.46,0,0,0-.36-0.16,0.67,0.67,0,0,0-.36.14,1.41,1.41,0,0,0-.45-0.85A1.69,1.69,0,0,0,9,12.53a3.2,3.2,0,0,0-2.2-.83c-2.36-.07-3.29.94-3.35,1.85a1.18,1.18,0,0,0,.33,1,3.39,3.39,0,0,1,.25.25,0.89,0.89,0,0,0,.51.24h0l-0.05.13A3,3,0,0,0,3,15.76a1.8,1.8,0,0,0-.69,1.4,2,2,0,0,0,.64,1.5,3.49,3.49,0,0,0,.25.27,3.13,3.13,0,0,0,2.29.8c2.64,0,4.07-1.34,4.11-2.68a2.59,2.59,0,0,0-.07-0.76l0.07-.11c0,0.07,0,.13.05,0.18a0.32,0.32,0,0,0,.09.13c0.05,0,.22.24,0.27,0.27a0.64,0.64,0,0,0,.42.14,1.68,1.68,0,0,0,1.18-.67,0.82,0.82,0,0,0,.65.25,3.19,3.19,0,0,0,2.13-.85l0.24,0.24a0.72,0.72,0,0,0,.31.16l-0.62.22a8,8,0,0,0-1.47.74L13,17.27l0.25,0.25a8.33,8.33,0,0,1,1.75-.2,8,8,0,0,1,2.13.27l0.09,0,0.07-.07c1.64-1.4,4.84-.82,8-0.09,1.65,0.38,2.47.25,2.65-.4a0.76,0.76,0,0,0-.11-0.54h0Zm-8.89-1a1.37,1.37,0,0,1,.2.14c-0.25,0-.71-0.05-1-0.05a1.93,1.93,0,0,0,.22-0.18,2.75,2.75,0,0,0,.2-0.24,0.85,0.85,0,0,0,.35.33h0Zm-0.67-2.14a0.81,0.81,0,0,1-.07.31,2.6,2.6,0,0,1-.49.92l0.55-1.25a0,0,0,0,0,0,0h0Zm4,2.14a0.66,0.66,0,0,0,.15.27,3.5,3.5,0,0,1,.27.25,0.07,0.07,0,0,0,0,0c-0.47-.09-1-0.18-1.51-0.25a4,4,0,0,0,1-.6,0.79,0.79,0,0,0,0,.29h0ZM24.28,16a0.55,0.55,0,0,0,.15.43,0.28,0.28,0,0,1,.07.07l-1-.25a2.55,2.55,0,0,0,1.35-1.09l0,0.05a1.27,1.27,0,0,1,.15.18,0.75,0.75,0,0,0-.73.6h0ZM7,16.11a3.34,3.34,0,0,1-.25-0.25,3,3,0,0,0-.36-0.31l0-.11a2.11,2.11,0,0,1,1.16.45,1.33,1.33,0,0,1,.33.87,1.53,1.53,0,0,1-.31.85V17.52A2,2,0,0,0,7,16.11H7Zm1.09-2.75A1,1,0,0,1,7,14.11l0.36-.85L7.1,13l-2,.2A3.17,3.17,0,0,1,7,12.75,1.82,1.82,0,0,1,8,13a0.47,0.47,0,0,1,.09.31h0ZM3.79,17.52a1.37,1.37,0,0,1,1.36-1.36,1.45,1.45,0,0,1,.76.22,0.87,0.87,0,0,1,.13.43,0.69,0.69,0,0,1-.07.31,0.31,0.31,0,0,0-.13,0,0.95,0.95,0,0,0-.73,1.58A1.69,1.69,0,0,1,4,18.33a1.36,1.36,0,0,1-.25-0.82h0ZM9.3,14.76a7,7,0,0,1-.38.6l-0.13-.13a0.77,0.77,0,0,1-.07-0.13,2.3,2.3,0,0,0,.58-0.38v0h0Z"/><path class="cls-3" d="M14.7,12.68l0,0.11a0.31,0.31,0,0,0,.15.45l-0.13.29V13.42a0.72,0.72,0,0,0-.75-0.62,3,3,0,0,0-2.13,1.27,0.78,0.78,0,0,0,.07-0.34,0.33,0.33,0,0,0-.16-0.33,0.85,0.85,0,0,0-.78,0c-0.13.05-.33,0.14-0.49,0.24a0.46,0.46,0,0,0-.36-0.16,0.74,0.74,0,0,0-.47.24,1.13,1.13,0,0,0-.35.78,1.07,1.07,0,0,0,0,.25,3.78,3.78,0,0,1-.4.56,2.14,2.14,0,0,0-.45-0.45,1.62,1.62,0,0,0,1-1.38c0-.82-1-1.72-2.65-1.79-2.36-.07-3.29.94-3.35,1.85a1,1,0,0,0,.82,1.2,0.66,0.66,0,0,0,.49-0.14l-0.24.53A3,3,0,0,0,3,15.76a1.8,1.8,0,0,0-.69,1.4,2,2,0,0,0,.64,1.5,3.05,3.05,0,0,0,2.29.82c2.64,0,4.05-1.34,4.11-2.68A2.58,2.58,0,0,0,9.26,16a8.13,8.13,0,0,0,.65-1,0.48,0.48,0,0,0,.2-0.05l-0.27.42a1.08,1.08,0,0,0-.2,1,0.56,0.56,0,0,0,.53.29A1.63,1.63,0,0,0,11.33,16a0.81,0.81,0,0,0,.65.27,3.34,3.34,0,0,0,2.2-.91,1,1,0,0,0,.13.24,0.92,0.92,0,0,0,.67.27,1.51,1.51,0,0,0,1.07-.42,1.13,1.13,0,0,0,.55.29,9.39,9.39,0,0,0-2.29.54,8,8,0,0,0-1.47.74L13,17.27a7.28,7.28,0,0,1,1.75-.2,8,8,0,0,1,2.13.27l0.09,0L17,17.3c1.64-1.4,4.82-.82,7.95-0.09,1.65,0.36,2.47.25,2.65-.4a0.67,0.67,0,0,0-.09-0.54,1.8,1.8,0,0,0-1.11-.74,4.8,4.8,0,0,0-.45-1l-0.11-.18a0.54,0.54,0,0,0,.16,0,0.48,0.48,0,0,0,.35-0.13,0.45,0.45,0,0,0,.16-0.34,0.88,0.88,0,0,0-1-.76,1.08,1.08,0,0,0-1,.71,4.69,4.69,0,0,1-.91,1c0-.07.11-0.16,0.2-0.31L24,14.31a1.43,1.43,0,0,0,.53-0.91,0.59,0.59,0,0,0-.22-0.4,1.75,1.75,0,0,0-1.13-.16A0.48,0.48,0,0,0,23,12.66a0.5,0.5,0,0,0-.35-0.14,0.74,0.74,0,0,0-.67.34,1.94,1.94,0,0,0-.11.2A1,1,0,0,0,21,12.5a2.41,2.41,0,0,0-1.75.76c-0.13.14-.25,0.29-0.36,0.43A2.39,2.39,0,0,0,18.94,13a0.58,0.58,0,0,0-.53-0.6h0a0.31,0.31,0,0,0-.18.05l0-.05c-1.2.05-2.31,0.14-3.51,0.27h0ZM5.17,17.39a0.92,0.92,0,0,0-.29.67,0.93,0.93,0,0,0,.24.62A1.77,1.77,0,0,1,4,18.26a1.32,1.32,0,0,1-.42-1A1.36,1.36,0,0,1,4.9,15.91,1,1,0,0,1,6,16.81a0.64,0.64,0,0,1-.07.31,0.31,0.31,0,0,0-.13,0,0.92,0.92,0,0,0-.67.29h0Zm2,0.69a2.05,2.05,0,0,0,.18-0.82,2.12,2.12,0,0,0-1.27-1.88l0.09-.2A1.74,1.74,0,0,1,7.9,16.76a1.88,1.88,0,0,1-.75,1.32h0Zm-0.4-4H6.61L7.1,13l-2.16.22,0,0.09a0.48,0.48,0,0,0,0,.31,0.8,0.8,0,0,0-.27-0.18A0.67,0.67,0,0,1,4.77,13a3,3,0,0,1,2-.51,1.16,1.16,0,0,1,1.29.85,1.14,1.14,0,0,1-1.33.76h0Zm6.89-.62a0.81,0.81,0,0,1-.16.36,1.39,1.39,0,0,1-.6.56c0.13-.2.25-0.4,0.38-0.56a1.52,1.52,0,0,1,.38-0.36h0Zm-1.11,2h0a0.78,0.78,0,0,1,0-.27,3.24,3.24,0,0,0,1.62-.72A2.42,2.42,0,0,1,12.53,15.45Zm10-1.21a1.54,1.54,0,0,0-.42,1.27,0.67,0.67,0,0,0,.6.49,2,2,0,0,0,1.85-1.14,4.38,4.38,0,0,0,.25.36,1.27,1.27,0,0,1,.15.18,0.75,0.75,0,0,0-.73.6,0.55,0.55,0,0,0,.15.43,0.28,0.28,0,0,1,.07.07,31.79,31.79,0,0,0-4.2-.8,3.82,3.82,0,0,0,2.27-1.47h0ZM21.72,14a1.06,1.06,0,0,0,.18-0.31,0,0,0,0,0,0,0,0.55,0.55,0,0,0,.07.14A3.26,3.26,0,0,1,20,15a0.91,0.91,0,0,1-.2,0,0.11,0.11,0,0,1,0-.07,1.57,1.57,0,0,1,.05-0.25A2.06,2.06,0,0,0,21.72,14h0Zm-0.78-.87h0a0.41,0.41,0,0,1-.07.31,1.12,1.12,0,0,1-.78.56,1.54,1.54,0,0,1,.84-0.87h0Zm-3.65,1.41,0.64-1.49a0.53,0.53,0,0,0,.27.29,0.81,0.81,0,0,1-.07.31,1.65,1.65,0,0,1-.85,1.18h0a0.39,0.39,0,0,1,.05-0.29h0ZM15.42,15a1.3,1.3,0,0,1,.13-0.42l0.85-2a0.32,0.32,0,0,0,.16.42L16.1,14.15a1.33,1.33,0,0,1-.67.89h0Zm1.95,0.6A1.82,1.82,0,0,0,18,15.16a2.53,2.53,0,0,0,.38-0.49v0.16a0.89,0.89,0,0,0,.55.78,15.65,15.65,0,0,0-1.6,0h0Zm9.24,0.87a0.2,0.2,0,0,1-.09.18,1.23,1.23,0,0,1-.82.07,0.94,0.94,0,0,0,.49-0.27,0.58,0.58,0,0,0,.16-0.29,0.36,0.36,0,0,1,.25.31h0Z"/><path class="cls-2" d="M15,15.65a1.46,1.46,0,0,0,1.11-.49,0.82,0.82,0,0,0,.75.38c1.09,0.05,2-1.59,1.91-2.54a0.38,0.38,0,0,0-.35-0.42h0a0.35,0.35,0,0,0-.31.31,0.34,0.34,0,0,0,.31.34,1.08,1.08,0,0,1-.07.49A1.8,1.8,0,0,1,17.24,15C17,15,17,14.67,17.12,14.47l0.82-1.87-1.35.07c-0.13.31,0.27,0.2,0.15,0.45l-0.47,1.09a1.46,1.46,0,0,1-.85,1c-0.22,0-.2-0.25,0-0.67l0.8-1.83-1.36.13C14.7,13.17,15.1,13,15,13.28L14.5,14.35a3.5,3.5,0,0,1-2,1.29c-0.22,0-.24-0.27-0.11-0.62,0.71,0,2.16-.71,2.09-1.58A0.53,0.53,0,0,0,13.93,13c-1.07,0-2.2,1.27-2.51,2a1.56,1.56,0,0,1-.64.56c-0.11,0-.07-0.16.05-0.36l0.64-.94a0.9,0.9,0,0,0,.22-0.56c0-.31-0.44-0.27-0.69-0.14a7,7,0,0,0-.64.31,0.29,0.29,0,0,0-.29-0.22,0.88,0.88,0,0,0-.64.83,0.35,0.35,0,0,0,.07.25,6.63,6.63,0,0,1-.62.85,2.68,2.68,0,0,0-.84-0.8A1.52,1.52,0,0,0,9.28,13.5c0-.71-0.95-1.56-2.47-1.61C3,11.76,3.24,14.46,4.3,14.57a0.48,0.48,0,0,0,.55-0.45,0.49,0.49,0,0,0-.44-0.54c-0.09-1,1.31-1.29,2.4-1.25a1.32,1.32,0,0,1,1.45,1,1.29,1.29,0,0,1-1.51.94l-0.4,0,0.45-1.05-1.75.16c-0.16.4,0.33,0.24,0.18,0.56L4.66,15.31a2.14,2.14,0,0,0-2.2,1.85c0,1.12.95,2.14,2.76,2.14,2.58,0,3.89-1.29,3.93-2.5A2.14,2.14,0,0,0,9.06,16a6.6,6.6,0,0,0,.73-1.16,2.05,2.05,0,0,0,.87-0.38c-0.2.27-.56,0.83-0.67,1-0.24.36-.42,1,0.18,1a1.88,1.88,0,0,0,1.2-.82,0.57,0.57,0,0,0,.64.4,3.23,3.23,0,0,0,2.35-1.12,0.57,0.57,0,0,0,.64.73h0Zm-1.27-2.37c0.35,0-.15,1.29-1.18,1.43A2.74,2.74,0,0,1,13.72,13.28Zm-7.66,4a0.91,0.91,0,0,0-.22,0,0.77,0.77,0,0,0-.09,1.54,4.81,4.81,0,0,1-.53,0,1.64,1.64,0,0,1-1.87-1.59A1.54,1.54,0,0,1,4.9,15.72a1.23,1.23,0,0,1,1.33,1.09,0.89,0.89,0,0,1-.16.51h0Zm0.33,1.36a1.61,1.61,0,0,0,.76-1.41,2,2,0,0,0-1.33-1.79L6,15a1.94,1.94,0,0,1,2,1.76A2.25,2.25,0,0,1,6.39,18.68Z"/><path class="cls-2" d="M26.23,15.94a0.68,0.68,0,0,1,.56.58c0,0.16-.11.69-1.76,0.29C23.15,16.36,17,14.6,13.1,17a8.06,8.06,0,0,1,3.78.13c1.69-1.47,5-.87,8.11-0.14,2.07,0.47,2.35,0,2.44-.27s-0.15-.82-1.2-1.09a2.89,2.89,0,0,0-.4-1A1.54,1.54,0,0,1,25.53,14a0.24,0.24,0,0,1,.16-0.2v0.05a0.31,0.31,0,0,0,.62,0,0.72,0.72,0,0,0-.84-0.58,0.9,0.9,0,0,0-.87.62c-0.89,1.16-1.2,1.12-1.27,1.11s0-.27.25-0.63a2.13,2.13,0,0,0,.71-1c0-.47-0.82-0.43-1.18-0.38A0.36,0.36,0,0,1,23,13v0a0.35,0.35,0,0,0-.31-0.34,0.7,0.7,0,0,0-.6,1,0.32,0.32,0,0,0,.16.18A3.4,3.4,0,0,1,20,15.2c-0.35,0-.36-0.11-0.38-0.25a1.15,1.15,0,0,1,.13-0.45c2,0.33,2.89-1.63,1.25-1.81a2.56,2.56,0,0,0-2.35,2.16,1,1,0,0,0,1.05.76,3.61,3.61,0,0,0,2.91-1.69,2,2,0,0,0,.62-0.11c-0.67.65-1.4,1.79-.4,2,0.71,0.14,1.42-.69,1.84-1.32a10.51,10.51,0,0,0,.69,1.05c-0.51,0-.84.16-0.85,0.45a0.79,0.79,0,0,0,.89.6,0.76,0.76,0,0,0,.87-0.67h0Zm-5.29-3c0.55,0-.09,1.36-1.13,1.25A2.1,2.1,0,0,1,20.93,13Zm4.45,3.15c-0.05.27-.56,0.16-0.53-0.07a0.52,0.52,0,0,1,.53-0.24,0.87,0.87,0,0,1,0,.31h0ZM22.5,17.74H22.37V18.1H22.26V17.74H22.13V17.65H22.5v0.09h0Zm0.64,0.36H23V17.74l-0.15.36H22.81l-0.13-.36V18.1H22.59V17.65h0.16L22.86,18,23,17.65h0.16V18.1h0Z"/></svg>