<svg id="Layer_1" data-name="Layer 1" xmlns="http://www.w3.org/2000/svg" viewBox="0 0 30 30"><defs><style>.cls-1{fill:#e8e8e8;}.cls-2{fill:#002b5c;}.cls-3{fill:#fff;}.cls-4{fill:#d31145;}.cls-5{fill:#a2aaad;}</style></defs><title>minnesota-twins</title><circle class="cls-1" cx="15" cy="15" r="15"/><path class="cls-2" d="M15.11,5.75A8.89,8.89,0,1,0,24,14.64a8.89,8.89,0,0,0-8.89-8.89m0,17.51a8.62,8.62,0,1,1,8.62-8.62,8.62,8.62,0,0,1-8.62,8.62"/><path class="cls-2" d="M9.61,19a0.09,0.09,0,0,0,0-.07,0.19,0.19,0,0,0-.05-0.12l-0.06-.06-0.16.12,0,0a0.27,0.27,0,0,0,.17.12l0,0m0.68,1,0.08-.26-0.25.1L10.29,20m2.78,1.59-0.08,0-0.07.26,0.1,0,0.11,0a0.13,0.13,0,0,0,.14-0.09,0.11,0.11,0,0,0,0,0,0.23,0.23,0,0,0-.2-0.18M18.41,8.72a0.47,0.47,0,0,0,.22.06,0.31,0.31,0,0,0,.28-0.17,0.38,0.38,0,0,0,0-.18,0.38,0.38,0,0,0-.21-0.34A0.48,0.48,0,0,0,18.52,8a0.31,0.31,0,0,0-.29.17,0.35,0.35,0,0,0,0,.16,0.4,0.4,0,0,0,.22.35M9.28,18.95l-0.21.16L9.13,19.2h0a0.23,0.23,0,0,0,.17.12l0.07,0a0.12,0.12,0,0,0,0-.1A0.32,0.32,0,0,0,9.34,19l-0.05-.07m12-8.52-0.27,0,0.14,0.19,0.14-.24m-7,11.4,0.23,0-0.09-.26-0.14.23m-1-.52-0.08,0-0.06.2h0l0.12,0a0.11,0.11,0,0,0,.12-0.06v0a0.15,0.15,0,0,0-.13-0.12m7.69-2.66h0a0.17,0.17,0,0,0-.13.09l0,0.07,0.17,0.12,0,0a0.33,0.33,0,0,0,.07-0.17,0.08,0.08,0,0,0,0-.07l0,0m0.33,0.13h0a0.27,0.27,0,0,0-.19.14l0,0.07,0.22,0.15,0.07-.08a0.27,0.27,0,0,0,.07-0.16,0.11,0.11,0,0,0,0-.1l-0.07,0m-8.24,1a5.54,5.54,0,0,1-2.42-2l-0.23.09a5.77,5.77,0,0,0,.74.91h0l0.14,0.13,0,0,0.13,0.12,0.22,0.18a5.78,5.78,0,0,0,3.62,1.27h0a5.79,5.79,0,0,0,4.36-2h0a5.78,5.78,0,0,0,1.38-3h0l-0.22,0a5.58,5.58,0,0,1-7.73,4.24"/><path class="cls-2" d="M21,8.72a8.38,8.38,0,1,0,2.45,5.92A8.35,8.35,0,0,0,21,8.72h0Zm0.67,3.14h0.22c0,0.13,0,1.2,0,1.5a1,1,0,0,1-.73-0.42,1.19,1.19,0,0,0,.52.2c0-.23,0-0.9,0-1.27h0Zm-0.21,1A0.79,0.79,0,0,1,21,12.12a0.44,0.44,0,0,0-.51.53,0.76,0.76,0,0,0,.42.6,1.27,1.27,0,0,1,.83,1,0.75,0.75,0,0,1-.6.82l-1.23.12c0-.09,0-1,0-1a0.78,0.78,0,0,1,.51.74A0.56,0.56,0,0,0,21,14.37a1.23,1.23,0,0,0-.76-0.79,1,1,0,0,1-.49-0.85,0.74,0.74,0,0,1,.61-0.81l1.08-.08c0,0.1,0,1,0,1h0Zm-0.6,0v0l0,0.11,0,0a0.52,0.52,0,0,1-.28-0.4,0.29,0.29,0,0,1,.13-0.29,1,1,0,0,0,.12.31,0.43,0.43,0,0,0,0,.2h0Zm0.3-2.6h0.06V10.18h0l0,0,0.18,0.26-0.39.72a0.38,0.38,0,0,0-.07.18,0.19,0.19,0,0,0,0,0v0h0l0,0-0.23-.33,0,0,0,0h0l0,0h0l0-.06,0.1-.17-0.22-.32-0.19,0c-0.07,0-.08,0-0.08,0a0.1,0.1,0,0,0,0,0v0h0l0,0-0.21-.3,0,0h0a0.2,0.2,0,0,0,.11,0l0.12,0,0.64-.1h0Zm-1.67-.63,0,0h0a0.22,0.22,0,0,0,.12-0.09l0.4-.44L20,9a0.3,0.3,0,0,0-.17-0.09h0l0,0L20,8.77h0l0,0,0.5,0.45,0.05,0h0l0,0-0.21.12,0,0,0,0v0h0a0.16,0.16,0,0,0-.06-0.09l-0.09-.08-0.41.45a0.16,0.16,0,0,0-.06.1,0.15,0.15,0,0,0,0,.05v0h0l0,0-0.29-.27,0,0h0Zm0.86,2.1h0a0.81,0.81,0,0,0-.22.05,5.81,5.81,0,0,0-10.28.5l-0.24,0h0a6,6,0,0,1,10.77-.58h0ZM18,8.1a0.5,0.5,0,0,1,.45-0.24,0.78,0.78,0,0,1,.38.1,0.64,0.64,0,0,1,.37.54,0.43,0.43,0,0,1-.05.2A0.5,0.5,0,0,1,18.7,9h0a0.78,0.78,0,0,1-.37-0.1,0.67,0.67,0,0,1-.38-0.55A0.44,0.44,0,0,1,18,8.1h0Zm-1.55-.2a0.62,0.62,0,0,0,.32.19h0.08A0.14,0.14,0,0,0,17,8V8a0.4,0.4,0,0,0-.22-0.22,0.44,0.44,0,0,1-.24-0.31,0.22,0.22,0,0,1,0-.06,0.28,0.28,0,0,1,.31-0.18l0.2,0a1,1,0,0,1,.24.09h0l0,0.18,0,0.06,0-.05A0.4,0.4,0,0,0,17,7.43H16.91a0.1,0.1,0,0,0-.11.06v0A0.44,0.44,0,0,0,17,7.7a0.44,0.44,0,0,1,.24.3,0.17,0.17,0,0,1,0,0,0.36,0.36,0,0,1-.37.22l-0.17,0a1.07,1.07,0,0,1-.29-0.12h0V7.83L16.45,7.9h0ZM15,8V8h0A0.14,0.14,0,0,0,15,7.8l0-.53s0,0,0-.06A0.1,0.1,0,0,0,15,7.11h0V7l0.57,0h0.11V7.29H15.61a0.24,0.24,0,0,0-.18-0.05H15.29v0.2h0.28V7.64H15.5a0.17,0.17,0,0,0-.12,0H15.28V7.86l0.19,0h0.05a0.45,0.45,0,0,0,.24-0.07h0.07l-0.11.24L15,8V8h0Zm-1.69-.72v0l0,0,0,0L14,7.81l-0.09-.44c0-.08,0-0.11-0.1-0.13h0V7.17l0.35-.07V7.15h0a0.1,0.1,0,0,0,0,.09,0.35,0.35,0,0,0,0,.08l0.17,0.81h0A0.49,0.49,0,0,1,13.93,8L13.3,7.59,13.4,8a0.12,0.12,0,0,0,.1.13h0V8.23l-0.35.07V8.25h0a0.1,0.1,0,0,0,.05-0.09,0.39,0.39,0,0,0,0-.07L13.1,7.53A0.12,0.12,0,0,0,13,7.4h0V7.34l0.3-.06h0ZM11.36,8v0h0.06l0.78,0.26L12,8a0.12,0.12,0,0,0-.12-0.1h0v0l0,0,0.32-.17,0,0v0a0.12,0.12,0,0,0,0,.07,0.22,0.22,0,0,0,0,.1L12.54,8.6H12.39a0.56,0.56,0,0,1-.2,0l-0.72-.25,0.21,0.41a0.13,0.13,0,0,0,.12.1h0v0l0,0-0.32.17V9h0a0.12,0.12,0,0,0,0-.07,0.22,0.22,0,0,0,0-.1l-0.26-.5a0.12,0.12,0,0,0-.12-0.1h0v0l0,0L11.36,8h0Zm-0.93.63,0,0,0,0v0a0.07,0.07,0,0,0,0,0,0.25,0.25,0,0,0,.08.13L10.85,9.3a0.2,0.2,0,0,0,.12.1h0v0l0,0-0.29.24,0,0,0,0v0a0.06,0.06,0,0,0,0,0,0.25,0.25,0,0,0-.07-0.12L10.33,9a0.2,0.2,0,0,0-.12-0.1h0v0l0,0,0.3-.24h0ZM8.87,10.31l0,0H8.94l0.62,0.11L9.29,9.92a0.17,0.17,0,0,0,0-.06l0,0,0.21-.28,0,0,0,0v0h0a0.06,0.06,0,0,0,0,0L10.11,10l0.08,0h0.09l0,0-0.23.31,0,0,0,0v0a0.07,0.07,0,0,0,0-.05L9.5,9.93l0.38,0.73h0l-0.14,0H9.6L9,10.57l0.36,0.37a0.18,0.18,0,0,0,.1.07H9.53l0,0-0.2.27,0,0h0v0a0.25,0.25,0,0,0-.09-0.17l-0.41-.43a0.09,0.09,0,0,0-.06,0H8.68l0,0,0.22-.28h0ZM7.69,13.85c0-1.39,2.42-1.41,3.19-1.41,1.11,0,1.88-.27,2-0.73-0.17,1.35-2.37,1.46-2.83,1.47V17a0.35,0.35,0,0,0,.3.37c-0.47.17-.88,0.33-1.24,0.48A0.84,0.84,0,0,0,9.4,17.3s0-4,0-4C9,13.31,8,13.46,8,14H8a0.54,0.54,0,0,0,.19.41,0.53,0.53,0,0,1-.53-0.58h0Zm0.82,0.51A0.35,0.35,0,0,1,8.23,14h0a1,1,0,0,1,1-.52v0.23c-0.44.07-.74,0.2-0.74,0.44h0a0.32,0.32,0,0,0,.06.19h0Zm0.24,0.37a1,1,0,0,1-.31.06,0.7,0.7,0,0,1-.51-0.2,0.78,0.78,0,0,0,.29.06,1,1,0,0,0,.31-0.06V14.39a0.4,0.4,0,0,0,.22.13v0.21h0Zm0.63,4.76a0.33,0.33,0,0,1-.17-0.05A0.87,0.87,0,0,1,9,19.2L8.82,19H8.89A0.23,0.23,0,0,0,9,18.93l0.37-.28a0.18,0.18,0,0,0,.09-0.11v0h0L9.7,18.77a0.43,0.43,0,0,1,.1.24,0.16,0.16,0,0,1-.06.13,0.15,0.15,0,0,1-.09,0l-0.09,0a0.35,0.35,0,0,1,0,.12,0.2,0.2,0,0,1-.08.17,0.21,0.21,0,0,1-.13,0h0Zm1,0.9a0.47,0.47,0,0,0,0,.13,0.18,0.18,0,0,0,0,.08h0v0l-0.25-.23h0.07s0,0,0-.08l0.05-.17L10,19.92,9.83,20a0.08,0.08,0,0,0-.07.05v0h0v0L9.54,19.9h0.1a0.39,0.39,0,0,0,.14,0l0.52-.2a0.08,0.08,0,0,0,.06,0v0h0v0l0.19,0.18-0.2.68h0Zm1.16,0.24,0,0v0a0.36,0.36,0,0,0-.14-0.18,0.26,0.26,0,0,0-.13,0,0.07,0.07,0,0,0-.06,0,0.06,0.06,0,0,0,0,0,4.7,4.7,0,0,1,.24.48,0.15,0.15,0,0,1,0,.09,0.24,0.24,0,0,1-.21.09A0.53,0.53,0,0,1,10.87,21a0.93,0.93,0,0,1-.2-0.18h0l0.07-.21,0,0a0.56,0.56,0,0,0,.21.25,0.29,0.29,0,0,0,.15,0,0.08,0.08,0,0,0,.07,0,0.07,0.07,0,0,0,0,0,4.61,4.61,0,0,1-.24-0.48,0.18,0.18,0,0,1,0-.1,0.19,0.19,0,0,1,.16-0.08,0.56,0.56,0,0,1,.28.1,0.93,0.93,0,0,1,.17.15h0l-0.08.13h0Zm0.89,0.47h0A0.22,0.22,0,0,0,12.26,21l-0.12,0-0.08.17,0.14,0.07,0.05,0h0l-0.07.15h0a0.15,0.15,0,0,0-.09-0.07l-0.08,0-0.11.23L12,21.53a0.42,0.42,0,0,0,.2.05h0.1l-0.16.14-0.58-.27v0h0a0.15,0.15,0,0,0,.1-0.11l0.19-.42a0.3,0.3,0,0,0,0-.11,0.06,0.06,0,0,0,0,0h0v0l0.44,0.21,0.06,0h0l-0.08.16h0Zm1.07,0.38a0.17,0.17,0,0,1-.14.12,0.26,0.26,0,0,1,.14.21,0.2,0.2,0,0,1,0,.06,0.27,0.27,0,0,1-.24.17h0A1.05,1.05,0,0,1,12.89,22l-0.25-.07v0h0a0.13,0.13,0,0,0,.09-0.13l0.13-.44a0.39,0.39,0,0,0,0-.1,0.07,0.07,0,0,0,0-.06h0v0l0.35,0.1a0.3,0.3,0,0,1,.26.23,0.13,0.13,0,0,1,0,0h0Zm1.36,0.82v0l-0.34,0v0h0s0,0,0,0a0.35,0.35,0,0,0,0-.08L14.49,22l-0.34,0-0.09.15a0.18,0.18,0,0,0,0,.07s0,0,0,0h0v0l-0.3,0v0h0A0.26,0.26,0,0,0,13.93,22l0.3-.48a0.16,0.16,0,0,0,0-.06s0,0,0,0h0v0l0.26,0,0.24,0.66a0.28,0.28,0,0,0,.12.18h0Zm1,0-0.63,0v0h0a0.08,0.08,0,0,0,0-.09s0,0,0-.06l0-.46a0.13,0.13,0,0,0-.06-0.15h0v0l0.32,0v0h0a0.08,0.08,0,0,0,0,.09s0,0,0,.06l0,0.51h0.18a0.39,0.39,0,0,0,.24-0.09h0l-0.08.2h0ZM17,22.09l-0.62.13v0h0a0.07,0.07,0,0,0,0-.07,0.47,0.47,0,0,0,0-.09l-0.09-.45a0.13,0.13,0,0,0-.08-0.14h0v0l0.31-.06v0h0a0.07,0.07,0,0,0,0,.07,0.45,0.45,0,0,0,0,.09L16.58,22l0.18,0A0.39,0.39,0,0,0,17,21.89h0L17,22.09h0Zm1.91-.78h0a0.62,0.62,0,0,1-.19.14,0.78,0.78,0,0,1-.34.09h0A0.4,0.4,0,0,1,18,21.32a0.41,0.41,0,0,1,0-.19,0.52,0.52,0,0,1,.32-0.44,1.33,1.33,0,0,1,.26-0.09h0l0.07,0.14v0h0a0.56,0.56,0,0,0-.25.06,0.31,0.31,0,0,0-.19.27,0.27,0.27,0,0,0,0,.12,0.31,0.31,0,0,0,.28.17,0.4,0.4,0,0,0,.18,0,0.73,0.73,0,0,0,.24-0.2h0l0,0v0.2h0Zm0.41-.23h0a0.07,0.07,0,0,0,0,0,0.23,0.23,0,0,0-.06-0.11L19,20.52a0.18,0.18,0,0,0-.11-0.1h0v0l0.26-.18v0h0a0.06,0.06,0,0,0,0,0,0.24,0.24,0,0,0,.06.11l0.3,0.42,0.15-.1a0.39,0.39,0,0,0,.16-0.2h0l0,0,0,0.22-0.51.37h0Zm1.37-1.15h0l0,0a0.47,0.47,0,0,1-.14.25,0.42,0.42,0,0,1-.26.13h0A0.31,0.31,0,0,1,20,20.15l-0.23-.23a0.19,0.19,0,0,0-.11-0.08H19.58l0.22-.22h0a0.06,0.06,0,0,0,0,0,0.2,0.2,0,0,0,.08.11L20.12,20a0.23,0.23,0,0,0,.16.08A0.22,0.22,0,0,0,20.43,20a0.27,0.27,0,0,0,.09-0.18h0a0.12,0.12,0,0,0-.05-0.09l-0.26-.26a0.2,0.2,0,0,0-.11-0.08H20l0,0,0.22-.22h0v0a0.06,0.06,0,0,0,0,0,0.2,0.2,0,0,0,.08.11l0.32,0.32a0.2,0.2,0,0,0,.11.08h0.05l0,0-0.18.18h0Zm0.77-1a0.89,0.89,0,0,1-.16.3l-0.15.21h0v0a0.18,0.18,0,0,0-.1-0.11L20.63,19a0.23,0.23,0,0,0-.11-0.06H20.44l0.21-.3a0.35,0.35,0,0,1,.26-0.18,0.16,0.16,0,0,1,.09,0,0.16,0.16,0,0,1,.07.14,0.27,0.27,0,0,1,0,0,0.3,0.3,0,0,1,.18-0.07,0.2,0.2,0,0,1,.11,0,0.24,0.24,0,0,1,.09.2,0.36,0.36,0,0,1,0,.09h0Zm-0.22-3.39H21.13a6,6,0,0,1-6,5.2h0a6,6,0,0,1-4-1.5L10.92,19a6,6,0,0,1-.85-1l-0.95.38V18.09c0.43-.19,1.08-0.43,1.46-0.57V17.27l-0.08,0A0.28,0.28,0,0,1,10.27,17V13.38c0.72,0,2.78-.27,2.83-1.78,0,0,0-.07,0-0.1l-0.32-.1c0,0.56-.77.84-1.91,0.84l-0.71,0a5.57,5.57,0,0,1,9.8-.36,1,1,0,0,0-.38.81v0a1.24,1.24,0,0,0,.49,1l0.08,0.06L20.48,14a1.57,1.57,0,0,1,.31.28,0.23,0.23,0,0,1,.05.12,0.27,0.27,0,0,1-.14.27l-0.12,0a1,1,0,0,0-.89-0.77v1.51H19.9l1.22-.11a1,1,0,0,0,.57-1.64,1.06,1.06,0,0,1,.42.9,1,1,0,0,1-.9,1h0Z"/><path class="cls-3" d="M15.11,6a8.62,8.62,0,1,0,8.62,8.62A8.62,8.62,0,0,0,15.11,6M21,20.57a8.38,8.38,0,1,1,2.45-5.92A8.35,8.35,0,0,1,21,20.57"/><path class="cls-3" d="M8.69,10.62H8.75a0.09,0.09,0,0,1,.06,0l0.41,0.43a0.24,0.24,0,0,1,.09.17v0h0l0,0L9.55,11l0,0H9.45a0.18,0.18,0,0,1-.1-0.07L9,10.57l0.6,0.11h0.1l0.14,0h0L9.5,9.93,10,10.21a0.07,0.07,0,0,1,0,.05v0l0,0,0,0L10.31,10l0,0H10.19l-0.08,0L9.49,9.67a0.06,0.06,0,0,1,0,0h0v0l0,0,0,0-0.21.28,0,0a0.18,0.18,0,0,1,0,.06l0.27,0.53-0.62-.11H8.89l0,0-0.22.28,0,0h0M10.17,9h0a0.2,0.2,0,0,1,.12.1l0.34,0.41a0.25,0.25,0,0,1,.07.12,0.06,0.06,0,0,1,0,0v0l0,0,0,0,0.29-.24,0,0v0h0a0.2,0.2,0,0,1-.12-0.1L10.51,8.9a0.26,0.26,0,0,1-.07-0.13,0.07,0.07,0,0,1,0,0v0l0,0,0,0-0.3.24,0,0V9m0.95-.72h0a0.12,0.12,0,0,1,.12.1l0.26,0.5a0.22,0.22,0,0,1,0,.1,0.12,0.12,0,0,1,0,.07V9.06l0.32-.17,0,0v0h0a0.13,0.13,0,0,1-.12-0.1l-0.22-.41,0.72,0.25a0.56,0.56,0,0,0,.2,0h0.15l-0.38-.73a0.22,0.22,0,0,1,0-.1,0.11,0.11,0,0,1,0-.07V7.64l-0.32.17,0,0v0h0A0.12,0.12,0,0,1,12,8l0.21,0.4-0.78-.26H11.37V8l-0.27.14,0,0v0M13,7.4h0a0.12,0.12,0,0,1,.1.13l0.12,0.55a0.38,0.38,0,0,1,0,.07,0.1,0.1,0,0,1-.05.09h0V8.31l0.35-.07V8.18h0A0.12,0.12,0,0,1,13.4,8l-0.1-.46L13.93,8a0.5,0.5,0,0,0,.29.11h0l-0.17-.81a0.39,0.39,0,0,1,0-.08,0.1,0.1,0,0,1,0-.09h0V7.1l-0.35.07V7.23h0c0.08,0,.08.05,0.1,0.13L14,7.81l-0.68-.46,0,0,0,0v0L13,7.35V7.4m2.84,0.41H15.75a0.44,0.44,0,0,1-.24.07H15.46l-0.19,0V7.59h0.09a0.17,0.17,0,0,1,.12,0h0.06V7.43H15.29V7.23h0.14a0.24,0.24,0,0,1,.18.05h0.06V7.06H15.56L15,7V7.1h0a0.09,0.09,0,0,1,.05.11s0,0,0,.06L15,7.8A0.14,0.14,0,0,1,15,8h0V8l0.76,0,0.11-.24m0.6,0.31a1.06,1.06,0,0,0,.29.12l0.17,0A0.36,0.36,0,0,0,17.25,8a0.17,0.17,0,0,0,0,0A0.44,0.44,0,0,0,17,7.7a0.44,0.44,0,0,1-.22-0.21h0a0.1,0.1,0,0,1,.11-0.06H17a0.4,0.4,0,0,1,.22.14l0,0.05,0-.06,0-.18h0a1,1,0,0,0-.24-0.09l-0.2,0a0.28,0.28,0,0,0-.31.18,0.22,0.22,0,0,0,0,.06,0.43,0.43,0,0,0,.24.31A0.4,0.4,0,0,1,17,8V8a0.14,0.14,0,0,1-.15.07H16.77a0.63,0.63,0,0,1-.31-0.19l-0.06-.07V8.12h0m1.91,0.74a0.79,0.79,0,0,0,.37.1h0a0.5,0.5,0,0,0,.45-0.25,0.42,0.42,0,0,0,.05-0.2A0.64,0.64,0,0,0,18.83,8a0.77,0.77,0,0,0-.38-0.1A0.49,0.49,0,0,0,18,8.1a0.44,0.44,0,0,0-.05.21,0.66,0.66,0,0,0,.38.55m-0.09-.65A0.31,0.31,0,0,1,18.52,8a0.47,0.47,0,0,1,.23.06,0.38,0.38,0,0,1,.21.34,0.37,0.37,0,0,1,0,.18,0.31,0.31,0,0,1-.28.17,0.47,0.47,0,0,1-.22-0.06,0.4,0.4,0,0,1-.22-0.35,0.34,0.34,0,0,1,0-.16m1.59,1.68h0v0a0.16,0.16,0,0,1,0-.06,0.16,0.16,0,0,1,.06-0.1l0.41-.45,0.09,0.08a0.16,0.16,0,0,1,.06.09h0v0l0,0h0l0.21-.12,0,0h0l-0.05,0-0.5-.45,0,0h0l-0.21.11,0,0h0A0.31,0.31,0,0,1,20,9l0.09,0.08-0.4.44a0.22,0.22,0,0,1-.12.09h0l0,0,0,0L19.8,9.91l0,0m0.61,0.49a0.2,0.2,0,0,1-.11,0h0l0,0,0.21,0.3,0,0h0v0a0.09,0.09,0,0,1,0,0s0,0,.08,0l0.19,0L21,10.82l-0.1.17,0,0.06h0l0,0h0l0,0L21,11.4l0,0h0v0a0.17,0.17,0,0,1,0,0,0.38,0.38,0,0,1,.07-0.18l0.39-.72-0.18-.26,0,0h0v0l0,0H21.2l-0.64.11-0.12,0m0.8,0-0.14.24L21,10.47l0.27,0M9.56,19.16l0.09,0a0.15,0.15,0,0,0,.09,0A0.16,0.16,0,0,0,9.81,19a0.43,0.43,0,0,0-.1-0.24l-0.22-.29h0v0a0.17,0.17,0,0,1-.09.11L9,18.93a0.22,0.22,0,0,1-.11.06H8.82L9,19.2a0.87,0.87,0,0,0,.23.24,0.33,0.33,0,0,0,.17.05,0.21,0.21,0,0,0,.13,0,0.2,0.2,0,0,0,.08-0.17,0.34,0.34,0,0,0,0-.12m-0.18.14-0.07,0a0.23,0.23,0,0,1-.17-0.12h0l-0.06-.09,0.21-.16L9.34,19a0.31,0.31,0,0,1,.08.19,0.12,0.12,0,0,1,0,.1m0-.4,0,0,0.16-.12,0.05,0.06a0.19,0.19,0,0,1,.05.12,0.09,0.09,0,0,1,0,.07l0,0A0.27,0.27,0,0,1,9.4,18.9m1,0.65h0v0a0.08,0.08,0,0,1-.06,0l-0.52.2a0.38,0.38,0,0,1-.14,0H9.54l0.23,0.21v0h0a0.08,0.08,0,0,1,0,0A0.08,0.08,0,0,1,9.83,20L10,19.92l0.25,0.23-0.05.17c0,0.07,0,.08,0,0.08H10.11l0,0,0.25,0.23v0h0a0.18,0.18,0,0,1,0-.08,0.45,0.45,0,0,1,0-.13l0.2-.68-0.19-.18,0,0h0ZM10.29,20l-0.17-.16,0.25-.1L10.29,20h0Zm1.13,0.33a0.56,0.56,0,0,0-.28-0.1,0.19,0.19,0,0,0-.16.08,0.18,0.18,0,0,0,0,.1,4.51,4.51,0,0,0,.24.48,0.07,0.07,0,0,1,0,0,0.08,0.08,0,0,1-.07,0,0.29,0.29,0,0,1-.15,0,0.56,0.56,0,0,1-.21-0.25l0,0-0.07.21h0a0.93,0.93,0,0,0,.2.18,0.53,0.53,0,0,0,.29.09A0.24,0.24,0,0,0,11.36,21a0.16,0.16,0,0,0,0-.09,4.75,4.75,0,0,0-.24-0.48,0.06,0.06,0,0,1,0,0,0.07,0.07,0,0,1,.06,0,0.25,0.25,0,0,1,.13,0,0.35,0.35,0,0,1,.14.18v0l0,0,0.08-.13h0a0.9,0.9,0,0,0-.17-0.15m1,0.58h0l-0.06,0L12,20.7v0h0a0.06,0.06,0,0,1,0,0,0.3,0.3,0,0,1,0,.11l-0.19.42a0.15,0.15,0,0,1-.1.11h0v0l0.58,0.27,0.16-.14h-0.1a0.42,0.42,0,0,1-.2-0.05l-0.15-.08L12,21.22l0.08,0a0.15,0.15,0,0,1,.09.07h0l0.07-.15h0l-0.05,0-0.14-.07,0.08-.17L12.26,21a0.21,0.21,0,0,1,.13.11h0l0.08-.16h0m0.76,0.27-0.35-.1v0h0a0.06,0.06,0,0,1,0,.06,0.35,0.35,0,0,1,0,.1l-0.13.44a0.13,0.13,0,0,1-.09.13h0v0L12.89,22a1.06,1.06,0,0,0,.29.06h0a0.27,0.27,0,0,0,.24-0.17,0.21,0.21,0,0,0,0-.06,0.26,0.26,0,0,0-.14-0.21,0.16,0.16,0,0,0,.15-0.16,0.3,0.3,0,0,0-.26-0.23m0,0.62a0.13,0.13,0,0,1-.14.09l-0.11,0-0.1,0L13,21.6l0.08,0a0.23,0.23,0,0,1,.2.17,0.11,0.11,0,0,1,0,0m0-.38a0.11,0.11,0,0,1-.12.06l-0.12,0h0l0.06-.2,0.08,0a0.15,0.15,0,0,1,.13.12v0m1.43,0.66-0.24-.66-0.26,0v0h0s0,0,0,0a0.16,0.16,0,0,1,0,.06l-0.3.48a0.26,0.26,0,0,1-.15.15h0v0l0.3,0v0h0s0,0,0,0a0.17,0.17,0,0,1,0-.07l0.09-.15,0.34,0,0.06,0.17a0.36,0.36,0,0,1,0,.08s0,0,0,0h0v0l0.34,0v0h0a0.27,0.27,0,0,1-.12-0.18m-0.51-.28,0.14-.23,0.09,0.26-0.23,0m1.7,0.25h0a0.39,0.39,0,0,1-.24.09H15.48l0-.51s0,0,0-.06a0.08,0.08,0,0,1,0-.09h0v0l-0.32,0v0h0a0.13,0.13,0,0,1,.06.15l0,0.46s0,0,0,.06a0.09,0.09,0,0,1,0,.09h0v0l0.63,0,0.08-.2h0m1.09-.2h0a0.39,0.39,0,0,1-.23.12l-0.18,0-0.1-.5a0.45,0.45,0,0,1,0-.09,0.07,0.07,0,0,1,0-.07h0v0l-0.31.06v0h0a0.13,0.13,0,0,1,.08.14L16.39,22a0.48,0.48,0,0,1,0,.09,0.07,0.07,0,0,1,0,.07h0v0L17,22.09,17,21.88h0m1.86-.75h0a0.72,0.72,0,0,1-.24.2,0.4,0.4,0,0,1-.18,0,0.31,0.31,0,0,1-.28-0.17,0.27,0.27,0,0,1,0-.12,0.32,0.32,0,0,1,.19-0.27,0.57,0.57,0,0,1,.25-0.06h0v0l-0.07-.14h0a1.36,1.36,0,0,0-.25.09,0.52,0.52,0,0,0-.32.45,0.41,0.41,0,0,0,0,.18,0.4,0.4,0,0,0,.37.23h0a0.78,0.78,0,0,0,.34-0.09,0.63,0.63,0,0,0,.19-0.14h0v-0.2l0,0h0m0.88-.61h0a0.39,0.39,0,0,1-.16.2l-0.15.1-0.3-.42a0.24,0.24,0,0,1-.06-0.11,0.06,0.06,0,0,1,0,0h0v0l-0.26.18v0h0a0.18,0.18,0,0,1,.11.1l0.27,0.37a0.23,0.23,0,0,1,.06.11,0.07,0.07,0,0,1,0,0h0l0.51-.37,0-.22,0,0m1.08-.78h0a0.19,0.19,0,0,1-.11-0.08l-0.32-.32a0.2,0.2,0,0,1-.08-0.11,0.06,0.06,0,0,1,0,0v0h0L20,19.39l0,0h0.05a0.19,0.19,0,0,1,.11.08l0.26,0.26a0.12,0.12,0,0,1,.05.09h0a0.27,0.27,0,0,1-.09.18,0.22,0.22,0,0,1-.15.08A0.23,0.23,0,0,1,20.12,20l-0.23-.23a0.2,0.2,0,0,1-.08-0.11,0.06,0.06,0,0,1,0,0h0l-0.22.22,0,0h0.05a0.19,0.19,0,0,1,.11.08L20,20.15a0.31,0.31,0,0,0,.22.12h0a0.42,0.42,0,0,0,.26-0.13,0.47,0.47,0,0,0,.14-0.25l0,0h0l0.18-.18,0,0h0m0.54-1.11a0.19,0.19,0,0,0-.12,0,0.3,0.3,0,0,0-.18.07,0.29,0.29,0,0,0,0,0A0.16,0.16,0,0,0,21,18.48a0.15,0.15,0,0,0-.09,0,0.35,0.35,0,0,0-.26.18l-0.21.3h0.08a0.23,0.23,0,0,1,.11.06L21,19.26a0.17,0.17,0,0,1,.1.11v0h0l0.15-.21a0.9,0.9,0,0,0,.16-0.3,0.37,0.37,0,0,0,0-.09,0.24,0.24,0,0,0-.09-0.2m-0.49.27,0,0-0.17-.12,0-.07a0.17,0.17,0,0,1,.13-0.09h0l0,0a0.08,0.08,0,0,1,0,.07,0.33,0.33,0,0,1-.07.17m0.37,0.16-0.07.08L20.94,19l0-.07a0.27,0.27,0,0,1,.19-0.14h0l0.07,0a0.11,0.11,0,0,1,.05.1,0.27,0.27,0,0,1-.07.16M15.16,8.68A6,6,0,0,0,9.63,12.3h0l0.24,0a5.81,5.81,0,0,1,10.28-.5,0.83,0.83,0,0,1,.22-0.05h0a6,6,0,0,0-5.24-3M20.94,13h0l0-.11h0l0,0.11"/><path class="cls-3" d="M10.49,13.57v0.27l1.32-.41v0.23l0.13,0V13.39L13.3,13v0.23l0.13,0V13l1.37-.34v0.23l0.13,0V12.61l0.16,0,1-.21,0.25-.05v0.23l0.13,0V12.29l1.17-.21,0.6-.1a1,1,0,0,1,.78.21,0.81,0.81,0,0,1,.14.15l0.08,0.06a1,1,0,0,1,.33.82V15a0.43,0.43,0,0,0,0,.12l0,0v0.05a0.37,0.37,0,0,0,.12.1V13.93a1,1,0,0,1,.73.39l0.07,0.06a1,1,0,0,1,.22.27,0.27,0.27,0,0,0,.14-0.27,0.23,0.23,0,0,0-.05-0.12A1.57,1.57,0,0,0,20.48,14l-0.31-.22-0.08-.06a1.24,1.24,0,0,1-.49-1v0A1,1,0,0,1,20,11.89a5.57,5.57,0,0,0-9.8.36l0.71,0c1.14,0,1.9-.29,1.91-0.84l0.32,0.1s0,0.07,0,.1l0.17,0.06c0,1.57-2,1.89-2.78,1.93m8.24-3.06h0l0.15,0.13h0v0H19a0.8,0.8,0,0,1,.33.55,0.46,0.46,0,0,1,0,.12h0l-0.16,0h0a0,0,0,0,1,0,0,0.4,0.4,0,0,0,0-.1,0.68,0.68,0,0,0-.27-0.5l-0.08,0h0a0,0,0,0,1,0,0,0.18,0.18,0,0,0,0-.05,0.33,0.33,0,0,0,0-.13,0,0,0,0,1,0,0m-0.45-.24h0l0.11,0h0a1.93,1.93,0,0,1,0,.35v0h0l0.1,0h0a0.63,0.63,0,0,1,.17.44,0.76,0.76,0,0,1,0,.18l0,0h0l-0.2,0h0a0,0,0,0,1,0,0,0.85,0.85,0,0,0,0-.22,0.52,0.52,0,0,0-.17-0.39h0a0,0,0,0,1,0,0h0l-0.07,0a0,0,0,0,1,0,0,2.4,2.4,0,0,0,0-.35m-0.49-.13h0l0.13,0h0a0.24,0.24,0,0,1,0,0c0,0.1,0,.22,0,0.33h0l0.14,0h0a1.4,1.4,0,0,1,.11.5,0.78,0.78,0,0,1,0,.18l0,0h0l-0.17,0,0,0a1.49,1.49,0,0,0-.11-0.66,0,0,0,0,1,0,0l-0.14,0a0,0,0,0,1,0,0,1.33,1.33,0,0,0,.11-0.35m-0.26.32a1.5,1.5,0,0,1,.07.46,1.13,1.13,0,0,1,0,.2l0,0h0l-0.19,0a0,0,0,0,1,0,0s0,0,0-.12a2,2,0,0,0-.06-0.52,0,0,0,0,1,0,0h0l0.19,0h0m-0.46-.09A1.5,1.5,0,0,1,17.28,10h0l0.14,0h0a0,0,0,0,1,0,0,2,2,0,0,1-.14.35h0l-0.2,0h0a0,0,0,0,1,0,0m-0.35-.46h0l0.17,0h0a0,0,0,0,1,0,0,0.64,0.64,0,0,0-.23.32h0l0.16,0h0a2.07,2.07,0,0,1,.09.54,0.87,0.87,0,0,1,0,.14h0l-0.18,0,0,0a4.32,4.32,0,0,0-.1-0.68h0l-0.17,0h0a0,0,0,0,1,0,0,0.86,0.86,0,0,1,.28-0.33m-0.59-.11h0.16a0,0,0,0,1,0,0,0.58,0.58,0,0,0-.23.32h0l0.16,0,0,0,0.06,0.63h0l-0.14,0h0A3.07,3.07,0,0,1,16,10.18H15.83a0,0,0,0,1,0,0,0.57,0.57,0,0,1,.3-0.34m-0.62,0h0.16a0,0,0,0,1,0,0,0.58,0.58,0,0,0-.23.3h0.13l0,0,0.08,0.67v0h0l-0.14,0h0a3.13,3.13,0,0,1-.14-0.65H15.21a0,0,0,0,1,0,0,0.57,0.57,0,0,1,.3-0.34M15.7,11.1a0.52,0.52,0,0,1,.38.16,0.53,0.53,0,0,1,.33.49,0.52,0.52,0,0,1-.9.36,0.52,0.52,0,0,1,.19-1m-0.8-1.35H15a0,0,0,0,1,0,0,0.74,0.74,0,0,0-.21.32h0.11l0,0a2.65,2.65,0,0,0,.09.63,0,0,0,0,1,0,0H14.87a1.61,1.61,0,0,1-.16-0.62h-0.1a0,0,0,0,1,0,0,0.56,0.56,0,0,1,.28-0.35m-0.63,0h0.15a0,0,0,0,1,0,0,0.53,0.53,0,0,0-.18.31h0.11a0,0,0,0,1,0,0,0.81,0.81,0,0,0,0,.18,1.56,1.56,0,0,0,.05.38,0,0,0,0,1,0,0H14.21l0,0a0.89,0.89,0,0,1-.09-0.39,0.57,0.57,0,0,1,0-.12H14a0.52,0.52,0,0,1,.25-0.37m-0.64.07h0l0.16,0h0a0,0,0,0,1,0,0,0.42,0.42,0,0,0-.17.3l0.09,0h0a0,0,0,0,1,0,0,0.61,0.61,0,0,0-.05.25,0.79,0.79,0,0,0,0,.24,0,0,0,0,1,0,0H13.59a0.77,0.77,0,0,1-.1-0.35,0.29,0.29,0,0,1,0-.09H13.43a0,0,0,0,1,0,0,0.58,0.58,0,0,1,.21-0.35m-2.95,2a0,0,0,0,1,0,0l-0.07.1h0a0.1,0.1,0,0,1-.05-0.11,0.41,0.41,0,0,1,0-.14l0.11-.19h0a0,0,0,0,1,0,0,0.61,0.61,0,0,0,0,.2,0.22,0.22,0,0,0,0,.1m0.3-.26a0,0,0,0,1,0,0l-0.08.07h0a0.29,0.29,0,0,1-.07-0.18V11.39l0,0h0l0,0A1.6,1.6,0,0,1,11,11l0,0h0a0,0,0,0,1,0,0,0.66,0.66,0,0,0-.09.25h0a0.39,0.39,0,0,0,0,.09,0.5,0.5,0,0,0,0,.17m0.36-.27a0,0,0,0,1,0,0l-0.1.07h0a0.3,0.3,0,0,1-.07-0.19V11.11l0,0h0l0,0a2,2,0,0,1,.15-0.3l0,0h0a0,0,0,0,1,0,0,0.67,0.67,0,0,0-.1.27h0l0,0a0.42,0.42,0,0,0,0,.09,0.58,0.58,0,0,0,.06.18m0.35-.57h0a0,0,0,0,1,0,0,0.64,0.64,0,0,0,0,.09,0.4,0.4,0,0,0,0,.23,0,0,0,0,1,0,0h0l-0.11.06h0a0.39,0.39,0,0,1-.09-0.22,0.22,0.22,0,0,1,0,0h0a0,0,0,0,1,0,0,1.17,1.17,0,0,1,.25-0.43h0l0,0h0a0,0,0,0,1,0,0,0.82,0.82,0,0,0-.17.33l0.05,0m0.59-.51a0.59,0.59,0,0,0-.16.29l0.06,0h0a0,0,0,0,1,0,0,0.41,0.41,0,0,0,0,.18,0.51,0.51,0,0,0,0,.21,0,0,0,0,1,0,0h0l-0.12,0h0A0.44,0.44,0,0,1,12,10.66a0.37,0.37,0,0,1,0-.05h0a0,0,0,0,1,0,0,0.88,0.88,0,0,1,.2-0.36h0l0.1,0h0a0,0,0,0,1,0,0M12.74,10a0.47,0.47,0,0,0-.12.28l0.08,0h0a0,0,0,0,1,0,0,0.72,0.72,0,0,0,0,.23,0.37,0.37,0,0,0,0,.18,0,0,0,0,1,0,0h0l-0.12,0h0a0.44,0.44,0,0,1-.1-0.27,0.4,0.4,0,0,1,0-.11h0v0a0.55,0.55,0,0,1,.16-0.34h0l0.13,0h0a0,0,0,0,1,0,0m0.37,0.16,0.09,0h0a0,0,0,0,1,0,0,0.57,0.57,0,0,0,0,.23,0.7,0.7,0,0,0,0,.22,0,0,0,0,1,0,0H13.06A0.75,0.75,0,0,1,13,10.36a0.25,0.25,0,0,1,0-.1H12.92a0.54,0.54,0,0,1,.19-0.32h0l0.15,0h0a0,0,0,0,1,0,0,0.39,0.39,0,0,0-.17.29"/><path class="cls-3" d="M10.8,17.68l-0.28.11a5.57,5.57,0,0,0,10.15-2.21l-0.77.07V15.41H19.78v0.23c-0.33,0-1,.12-1.32.17V15.6l-0.22,0V13.27a0.91,0.91,0,0,0-.06-0.36l-0.12,0c0,0.33,0,3,0,3L17,16.07V15.84l-0.17,0V16.1l-0.37.07A0.79,0.79,0,0,1,15.78,16a0.74,0.74,0,0,1-.13-0.13l-0.09-.06A1.07,1.07,0,0,1,15.23,15V13.25A0.32,0.32,0,0,0,15,12.91v2.81a0.77,0.77,0,0,0,0,.19l0.07,0V16a0.47,0.47,0,0,0,.22.08v0.3c-1,.23-2.09.51-3.08,0.81a1.06,1.06,0,0,1-.89-0.13L11.23,17l-0.11-.06A1.06,1.06,0,0,1,10.73,16v-1.6c0-.08,0-0.18-0.25-0.27v3a0.21,0.21,0,0,0,0,.09l0.08,0v0.08a0.54,0.54,0,0,0,.22.08v0.25h0Zm1,1.41h0A0.71,0.71,0,0,1,11.66,19h0a1.05,1.05,0,0,1,0-.14h0l0.14,0.1h0a0.5,0.5,0,0,0,.06.15,0,0,0,0,1,0,0h0Zm0.43,0.31h0Zm0,0h0l-0.23-.16A0.7,0.7,0,0,1,12,19.08a0,0,0,0,1,0,0h0l0.16,0.09h0a0.37,0.37,0,0,0,.09.18,0,0,0,0,1,0,0h0Zm0.45,0.2h0a0.6,0.6,0,0,1-.21-0.15h0a0.81,0.81,0,0,1-.06-0.16h0v0h0l0.16,0.09h0a0.36,0.36,0,0,0,.09.18,0,0,0,0,1,0,0h0Zm0.55,0.17h0l-0.19-.08a0.51,0.51,0,0,1-.16-0.22,0,0,0,0,1,0,0h0l0.17,0.07h0a0.37,0.37,0,0,0,.16.21,0,0,0,0,1,0,0h0Zm0.53,0.06h-0.1l0,0a0,0,0,0,1,0,0h0l-0.1,0h0a0.26,0.26,0,0,1,0-.06,0,0,0,0,1,0,0h0a1.2,1.2,0,0,1-.17-0.18,0,0,0,0,1,0,0h0l0.17,0h0a0.81,0.81,0,0,0,.22.23,0,0,0,0,1,0,0h0Zm0.71,0H14.37v0l0.05,0a0,0,0,0,1,0,0h0l-0.13,0h0a0.51,0.51,0,0,1-.11-0.09,0,0,0,0,1,0,0h0.07A1,1,0,0,1,14,19.59a0,0,0,0,1,0,0h0.22a0.81,0.81,0,0,0,.37.24v0l0,0h0ZM15.08,20H14.91a0.29,0.29,0,0,1-.16-0.16h0.09a1.13,1.13,0,0,1-.37-0.22,0,0,0,0,1,0,0h0l0.19,0h0a1,1,0,0,0,.38.24,0,0,0,0,1,0,0l0,0H15v0a0.16,0.16,0,0,0,.11.11,0,0,0,0,1,0,0h0Zm0.57-.08H15.48a0.27,0.27,0,0,1-.18-0.18,0,0,0,0,1,0,0h0.11A1.2,1.2,0,0,1,15,19.46a0,0,0,0,1,0,0h0l0.18,0h0a1,1,0,0,0,.4.26v0l0,0H15.55s0,0,0,0a0.2,0.2,0,0,0,.12.11,0,0,0,0,1,0,0h0Zm0.66-.12-0.18,0h0a0.4,0.4,0,0,1-.26-0.21,0,0,0,0,1,0,0h0.06a1.4,1.4,0,0,1-.41-0.24,0,0,0,0,1,0,0h0l0.17-.05h0a0.92,0.92,0,0,0,.47.27v0l0,0-0.11,0a0.38,0.38,0,0,0,.25.17,0,0,0,0,1,0,0l0,0h0Zm0.7-.19-0.15,0h0a0.44,0.44,0,0,1-.36-0.24,0,0,0,0,1,0,0h0A1.22,1.22,0,0,1,16,19.11v0h0L16.22,19h0a1.07,1.07,0,0,0,.58.23,0,0,0,0,1,0,0h0l-0.13.06a0.33,0.33,0,0,0,.31.21v0h0Zm0.65-.29-0.18.07h0A0.6,0.6,0,0,1,17,19.1a0,0,0,0,1,0,0h0a1.13,1.13,0,0,1-.45-0.23v0h0l0.18-.09h0a0.87,0.87,0,0,0,.53.24l0,0v0l-0.11,0a0.66,0.66,0,0,0,.4.2v0h0ZM18.16,19h0a0.72,0.72,0,0,1-.43-0.25l-0.07,0h0a0.88,0.88,0,0,1-.49-0.22h0l0.19-.11h0a0.8,0.8,0,0,0,.45.22l0.12-.07h0v0a0.49,0.49,0,0,0,.4.25h0a0,0,0,0,1,0,0l-0.2.13h0Zm0.73-.51h0l-0.16.11h0a0.8,0.8,0,0,1-.38-0.24l-0.06,0h0a0.75,0.75,0,0,1-.48-0.21v0h0L17.95,18h0a0.86,0.86,0,0,0,.47.21l0.1-.07h0c0,0.08,0,.17.32,0.27h0a0,0,0,0,1,0,0h0ZM19.4,18l-0.14.14h0A0.57,0.57,0,0,1,18.85,18L18.8,18h0a1,1,0,0,1-.43-0.22h0v0l0.17-.14h0a1,1,0,0,0,.41.23l0,0h0a0.46,0.46,0,0,0,.35.13h0a0,0,0,0,1,0,0h0Zm0.44-.44-0.13.15h0a0.44,0.44,0,0,1-.27-0.12l-0.08.05h0a1.39,1.39,0,0,1-.5-0.26h0L19,17.16h0a2.25,2.25,0,0,0,.46.25l0.06,0h0a0.73,0.73,0,0,0,.29.1h0v0h0Zm0.35-1.56,0.1-.12h0a0.44,0.44,0,0,0,.21,0h0L20.49,16h0A0.72,0.72,0,0,1,20.2,16h0Zm-0.28.47S20,16.34,20,16.3h0a1,1,0,0,0,.32.12h0a0,0,0,0,1,0,0l-0.07.16h0a1.23,1.23,0,0,1-.37-0.17h0v0h0Zm0,0.51L20,16.86h0a0.52,0.52,0,0,1,.17.08,0,0,0,0,1,0,0l-0.08.13h0L19.91,17l-0.09.07h0a1.44,1.44,0,0,1-.44-0.17h0v0l0.16-.13h0a1.8,1.8,0,0,0,.41.16h0Zm-8.74.83a40.73,40.73,0,0,1,8.38-1.91v0.2l0.22,0v0.57c-2.11.23-5,1.06-6.15,2.33l-0.2-.15A3.89,3.89,0,0,0,13,18.52a3.73,3.73,0,0,0-1.83-.5V17.76h0Z"/><path class="cls-4" d="M12.26,19.4h0"/><path class="cls-2" d="M15.51,12.11a0.52,0.52,0,0,0,.71-0.49,0.52,0.52,0,1,0-.71.49m0.19-.81a0.32,0.32,0,0,1,.32.32h0a0.32,0.32,0,0,1-.32.32h0a0.32,0.32,0,0,1,0-.64"/><path class="cls-3" d="M12.07,16.28h0.16c0-.3,0-2.3,0-2.31A0.29,0.29,0,0,0,12,13.7V16a0.71,0.71,0,0,0,.05.29m4.47-.67H16.6v0.09a0.33,0.33,0,0,0,.17.09V12.94a0.32,0.32,0,0,0-.25-0.34v2.81a0.69,0.69,0,0,0,0,.2m-3,.26h0.16V13.58a0.3,0.3,0,0,0-.21-0.29v2.29a0.74,0.74,0,0,0,0,.29"/><path class="cls-5" d="M14.92,12.84l-0.13,0v2.67c0,0.25,0,.33.24,0.37a0.75,0.75,0,0,1,0-.19V12.91l-0.09,0v0M12,17A1.08,1.08,0,0,1,11.23,17l0.11,0.1a1.06,1.06,0,0,0,.89.13c1-.29,2.08-0.58,3.08-0.81v-0.3A0.47,0.47,0,0,1,15.1,16v0.2c-1,.23-2.09.53-3.08,0.82m1.42-1.23a0.31,0.31,0,0,0,.13.05,0.75,0.75,0,0,1,0-.29V13.29l-0.09,0v0l-0.13,0V15.4a0.5,0.5,0,0,0,.14.41m-1.5.41a0.32,0.32,0,0,0,.13.06A0.71,0.71,0,0,1,12,16V13.7l-0.09,0v0l-0.13,0v2.17a0.49,0.49,0,0,0,.13.4m4.61-.61a0.69,0.69,0,0,1,0-.2V12.6l-0.09,0V12.52l-0.13,0v2.68a0.32,0.32,0,0,0,.24.39m0.23,0.19a0.33,0.33,0,0,1-.17-0.09v0.19L16.24,16a0.81,0.81,0,0,1-.58-0.08,0.74,0.74,0,0,0,.13.13,0.79,0.79,0,0,0,.67.14l0.37-.07V15.87H16.77V15.81m-6.24,2,0.28-.11V17.43a0.52,0.52,0,0,1-.22-0.08v0.17c-0.38.14-1,.38-1.46,0.57v0.25L10.08,18l0.22-.08,0.23-.09m11.17-4.13a1,1,0,0,1,.23.68,1,1,0,0,1-.81,1l-1.22.11c0,0.11,0,.2,0,0.23l0.78-.07,0.22,0,0.24,0h0.09a1,1,0,0,0,.9-1,1.06,1.06,0,0,0-.42-0.9m-0.51-.73a1.05,1.05,0,0,0,.73.42c0-.3,0-1.37,0-1.5H21.7c0,0.37,0,1,0,1.27a1.2,1.2,0,0,1-.52-0.2m-0.38-.59a0.28,0.28,0,0,0-.13.29A0.53,0.53,0,0,0,21,13l0,0h0l0-.11v0a0.44,0.44,0,0,1,0-.2,1,1,0,0,1-.12-0.31"/><path class="cls-5" d="M20.41,14.32a1,1,0,0,1,.17.37l0.12,0a1,1,0,0,0-.22-0.27l-0.07-.06m-9.92-.16-0.05,0V13.86l0.05,0V13.57c0.73,0,2.76-.35,2.78-1.93l-0.17-.06C13,13.11,11,13.34,10.27,13.37V17a0.28,0.28,0,0,0,.24.25,0.21,0.21,0,0,1,0-.09v-3m-1.29-.43c0-.08,0-0.15,0-0.23a1,1,0,0,0-1,.52h0a0.35,0.35,0,0,0,.28.34,0.32,0.32,0,0,1-.06-0.19h0c0-.24.3-0.37,0.74-0.44m-0.66.85a1,1,0,0,1-.31.06,0.78,0.78,0,0,1-.3-0.06,0.7,0.7,0,0,0,.51.2,1,1,0,0,0,.31-0.06V14.51a0.4,0.4,0,0,1-.22-0.13v0.19m7.17-2.43a0.53,0.53,0,0,1-.19,0,0.53,0.53,0,0,0,.38.16,0.52,0.52,0,0,0,.52-0.52,0.53,0.53,0,0,0-.33-0.49,0.52,0.52,0,0,1,.14.36,0.53,0.53,0,0,1-.52.52m-2.27,6.64,0.2,0.15c1.16-1.27,4-2.1,6.15-2.33V16l-0.22,0v0.37c-2.11.24-5,1.08-6.14,2.36m6.14-3.63v0.29l-1.11.15v0.23c0.35-.05,1-0.14,1.33-0.17V15.43h-0.1V15.26a0.36,0.36,0,0,1-.12-0.1m-0.26-.4a0.29,0.29,0,0,0,.21.31h0a0.43,0.43,0,0,1,0-.12V13.22a1,1,0,0,0-.33-0.82l-0.08-.06a1.14,1.14,0,0,1,.19.67v1.75M17.83,12.7c0,0.33,0,3,0,3L17,15.84v0.23L18,15.89s0-2.67,0-3l0.12,0a0.37,0.37,0,0,0-.1-0.14,0.39,0.39,0,0,0-.24-0.07"/><path class="cls-2" d="M14.79,15.54v-2.9L13.43,13v0.28l0.09,0a0.31,0.31,0,0,1,.21.29s0,2,0,2.29H13.56a0.32,0.32,0,0,1-.13-0.05,0.5,0.5,0,0,1-.14-0.41V13l-1.37.38v0.28l0.09,0a0.29,0.29,0,0,1,.21.28s0,2,0,2.31H12.07a0.31,0.31,0,0,1-.13-0.05,0.49,0.49,0,0,1-.13-0.4v-2.4l-1.32.41-0.05,0v0.29l0.05,0c0.24,0.08.25,0.18,0.25,0.27V16a1.06,1.06,0,0,0,.38.89L11.23,17A1.08,1.08,0,0,0,12,17c1-.3,2.08-0.59,3.08-0.82v-0.3l-0.07,0c-0.19,0-.24-0.13-0.24-0.37M12,16.85a0.83,0.83,0,0,1-.71-0.09,0.87,0.87,0,0,1-.3-0.73V14.49A0.42,0.42,0,0,0,10.62,14l1-.31v2.12a0.61,0.61,0,0,0,.84.64V14a0.44,0.44,0,0,0-.32-0.49l1-.27V15.4a0.61,0.61,0,0,0,.84.64V13.64a0.45,0.45,0,0,0-.32-0.51l1-.24v2.64a0.44,0.44,0,0,0,.31.52c-1.07.25-2.06,0.52-2.94,0.79M16.24,16l0.37-.08V15.62H16.54a0.32,0.32,0,0,1-.24-0.39V12.31l-0.25.05-1,.21-0.16,0v0.27l0.09,0a0.32,0.32,0,0,1,.23.33V15a1.07,1.07,0,0,0,.33.89l0.09,0.06a0.81,0.81,0,0,0,.58.08m-0.55-.3A0.85,0.85,0,0,1,15.44,15V13.28a0.46,0.46,0,0,0-.31-0.51l1-.21v2.66a0.45,0.45,0,0,0,.3.52l-0.19,0a0.59,0.59,0,0,1-.51-0.1m-2.27,3.11c1.16-1.28,4-2.12,6.14-2.36V15.85a40.69,40.69,0,0,0-8.38,1.91V18a3.72,3.72,0,0,1,1.83.5,3.88,3.88,0,0,1,.42.27m-1.88-1a42.25,42.25,0,0,1,7.81-1.75v0.16c-2.16.28-4.82,1.09-6,2.28a3.54,3.54,0,0,0-1.85-.68m8-2.68V15.1l0,0h0a0.29,0.29,0,0,1-.21-0.32V13a1.13,1.13,0,0,0-.19-0.67A0.82,0.82,0,0,0,19,12.19,1,1,0,0,0,18.19,12l-0.6.09-1.17.21v0.29l0.09,0a0.32,0.32,0,0,1,.25.34v2.93h0.05l0.17,0,0.85-.15s0-2.67,0-3a0.4,0.4,0,0,1,.24.07,0.36,0.36,0,0,1,.1.14,0.9,0.9,0,0,1,.06.36v2.36l0.22,0,1.11-.15V15.16h0Zm-1.12.23V13.27a0.64,0.64,0,0,0-.81-0.76v3L17,15.63V13a0.49,0.49,0,0,0-.32-0.53l1-.17,0.58-.09a0.74,0.74,0,0,1,.88.82c0,0.25,0,1.72,0,1.72a0.5,0.5,0,0,0,.32.53l-1,.13h0Z"/><path class="cls-4" d="M14.59,15.54V12.9l-1,.24a0.45,0.45,0,0,1,.32.51V16a0.61,0.61,0,0,1-.84-0.65V13.27l-1,.27a0.44,0.44,0,0,1,.32.49v2.42a0.61,0.61,0,0,1-.84-0.63V13.71l-1,.31a0.42,0.42,0,0,1,.32.48V16a0.87,0.87,0,0,0,.3.73,0.84,0.84,0,0,0,.71.09c0.88-.27,1.87-0.54,2.94-0.79a0.44,0.44,0,0,1-.31-0.52m1.81,0.2a0.45,0.45,0,0,1-.3-0.52V12.56l-1,.21a0.46,0.46,0,0,1,.31.51V15a0.85,0.85,0,0,0,.25.73,0.59,0.59,0,0,0,.51.1l0.19,0m3.41-3a1,1,0,0,0,.49.85,1.23,1.23,0,0,1,.76.79,0.56,0.56,0,0,1-.64.56,0.78,0.78,0,0,0-.51-0.74c0,0.06,0,.94,0,1l1.23-.12a0.75,0.75,0,0,0,.6-0.82,1.27,1.27,0,0,0-.83-1,0.76,0.76,0,0,1-.41-0.6A0.44,0.44,0,0,1,21,12.12a0.8,0.8,0,0,0,.51.75c0-.06,0-0.92,0-1l-1.08.08a0.74,0.74,0,0,0-.61.81"/><path class="cls-4" d="M8,14H8c0-.56,1-0.71,1.37-0.75,0,0,0,4,0,4a0.84,0.84,0,0,1-.27.56c0.36-.15.77-0.32,1.24-0.48a0.34,0.34,0,0,1-.3-0.37V13.18c0.46,0,2.66-.11,2.83-1.47-0.13.46-.9,0.73-2,0.73-0.77,0-3.19,0-3.19,1.41a0.53,0.53,0,0,0,.53.58A0.54,0.54,0,0,1,8,14m7.67-2.09A0.32,0.32,0,0,0,16,11.62h0a0.32,0.32,0,0,0-.32-0.32h0a0.32,0.32,0,0,0,0,.64m3.66,4.31V16.08a42.22,42.22,0,0,0-7.81,1.75,3.54,3.54,0,0,1,1.85.68c1.14-1.19,3.8-2,6-2.28m-0.26-1.52s0-1.47,0-1.72a0.74,0.74,0,0,0-.88-0.82l-0.58.09-1,.17A0.49,0.49,0,0,1,17,13v2.66l0.65-.11v-3a0.64,0.64,0,0,1,.81.76v2.12l1-.13a0.5,0.5,0,0,1-.32-0.53M10.7,11.49h0l-0.11.19a0.43,0.43,0,0,0,0,.14,0.1,0.1,0,0,0,.05.11h0l0.07-.1a0,0,0,0,0,0,0,0.21,0.21,0,0,1,0-.1,0.6,0.6,0,0,1,0-.2,0,0,0,0,0,0,0h0M11,11.29h0A0.65,0.65,0,0,1,11.06,11a0,0,0,0,0,0,0h0l0,0a1.56,1.56,0,0,0-.14.28l0,0h0l0,0v0.07a0.29,0.29,0,0,0,.07.18h0L11,11.58a0,0,0,0,0,0,0,0.49,0.49,0,0,1,0-.17,0.4,0.4,0,0,1,0-.09h0m5.49-1,0.17,0h0a4.33,4.33,0,0,1,.1.68l0,0,0.18,0h0a0.87,0.87,0,0,0,0-.14,2.07,2.07,0,0,0-.09-0.54h0l-0.16,0h0A0.64,0.64,0,0,1,16.91,10a0,0,0,0,0,0,0h0l-0.17,0h0a0.86,0.86,0,0,0-.28.33,0,0,0,0,0,0,0h0m-3-.05H13.5a0.29,0.29,0,0,0,0,.09,0.77,0.77,0,0,0,.1.35h0.15a0,0,0,0,0,0,0,0.8,0.8,0,0,1,0-.24,0.62,0.62,0,0,1,.05-0.25,0,0,0,0,0,0,0h0l-0.09,0a0.42,0.42,0,0,1,.17-0.3,0,0,0,0,0,0,0h0l-0.16,0h0a0.58,0.58,0,0,0-.21.35v0h0m4.4,0.33a0,0,0,0,0,0,0,1.5,1.5,0,0,1,.11.66l0,0,0.17,0h0l0,0a0.82,0.82,0,0,0,0-.18,1.4,1.4,0,0,0-.1-0.5h0l-0.14,0h0c0-.11,0-0.24,0-0.33a0.22,0.22,0,0,0,0,0h0l-0.13,0h0a1.35,1.35,0,0,1-.11.35,0,0,0,0,0,0,0l0.14,0m0.91,0.18a0,0,0,0,0,0,0h0l0.08,0a0.67,0.67,0,0,1,.27.5,0.4,0.4,0,0,1,0,.1,0,0,0,0,0,0,0h0l0.16,0h0a0.46,0.46,0,0,0,0-.12A0.8,0.8,0,0,0,19,10.72H18.91v0h0l-0.14-.13h0a0,0,0,0,0,0,0,0.33,0.33,0,0,1,0,.13,0.18,0.18,0,0,1,0,.05m-6.15-.66h0a0.55,0.55,0,0,0-.16.34,0,0,0,0,0,0,0h0a0.4,0.4,0,0,0,0,.11,0.43,0.43,0,0,0,.1.27h0l0.12,0h0a0,0,0,0,0,0,0,0.38,0.38,0,0,1,0-.18,0.71,0.71,0,0,1,0-.23,0,0,0,0,0,0,0h0l-0.08,0A0.46,0.46,0,0,1,12.74,10a0,0,0,0,0,0,0h0l-0.13,0m-0.42.16h0a0.87,0.87,0,0,0-.2.37,0,0,0,0,0,0,0h0a0.48,0.48,0,0,0,0,.05,0.44,0.44,0,0,0,.1.27h0l0.12,0h0a0,0,0,0,0,0,0,0.5,0.5,0,0,1,0-.21,0.41,0.41,0,0,1,0-.17,0,0,0,0,0,0,0h0l-0.06,0a0.61,0.61,0,0,1,.16-0.29,0,0,0,0,0,0,0h0l-0.1,0m-0.36.17h0l0,0h0a1.19,1.19,0,0,0-.25.43,0,0,0,0,0,0,0h0a0.27,0.27,0,0,0,0,0,0.39,0.39,0,0,0,.09.22h0l0.11-.06h0a0,0,0,0,0,0,0,0.4,0.4,0,0,1,0-.23,0.75,0.75,0,0,1,0-.09,0,0,0,0,0,0,0h0l-0.05,0a0.82,0.82,0,0,1,.17-0.33,0,0,0,0,0,0,0m-0.5.6h0a0.68,0.68,0,0,1,.1-0.27,0,0,0,0,0,0,0h0l0,0a1.88,1.88,0,0,0-.15.3l0,0h0l0,0v0.08a0.3,0.3,0,0,0,.07.19h0l0.1-.07a0,0,0,0,0,0,0,0.58,0.58,0,0,1-.06-0.18,0.42,0.42,0,0,1,0-.09l0,0m4.53-.83H16a3.07,3.07,0,0,0,.11.64h0l0.14,0h0l-0.06-.63,0,0-0.16,0h0a0.58,0.58,0,0,1,.23-0.32,0,0,0,0,0,0,0H16.13a0.56,0.56,0,0,0-.3.34,0,0,0,0,0,0,0h0m-0.62,0h0.12a3.13,3.13,0,0,0,.14.65h0l0.14,0h0l-0.08-.67,0,0H15.44a0.58,0.58,0,0,1,.23-0.3,0,0,0,0,0,0,0H15.51a0.57,0.57,0,0,0-.3.34,0,0,0,0,0,0,0h0m2.09,0.29a0,0,0,0,0,0,0,2,2,0,0,1,.06.52c0,0.07,0,.12,0,0.12a0,0,0,0,0,0,0l0.19,0h0l0,0a1.08,1.08,0,0,0,0-.2,1.5,1.5,0,0,0-.07-0.46h0l-0.19,0h0m0,0h0a2,2,0,0,0,.14-0.35,0,0,0,0,0,0,0h0L17.3,10h0a1.49,1.49,0,0,0-.21.35,0,0,0,0,0,0,0h0l0.2,0m1,0.23h0a0,0,0,0,0,0,0h0a0.52,0.52,0,0,1,.17.39,0.82,0.82,0,0,1,0,.22,0,0,0,0,0,0,0h0l0.2,0h0l0,0a0.79,0.79,0,0,0,0-.18,0.64,0.64,0,0,0-.17-0.44h0l-0.1,0h0v0a1.92,1.92,0,0,0,0-.35h0l-0.11,0h0a2.54,2.54,0,0,1,0,.35,0,0,0,0,0,0,0l0.07,0m-3.7-.54h0.08a1.59,1.59,0,0,0,.16.62H15a0,0,0,0,0,0,0,2.67,2.67,0,0,1-.09-0.63l0,0H14.82A0.73,0.73,0,0,1,15,9.78a0,0,0,0,0,0,0H14.89a0.56,0.56,0,0,0-.28.35,0,0,0,0,0,0,0h0m-0.59,0h0.08a0.61,0.61,0,0,0,0,.12,0.89,0.89,0,0,0,.09.39l0,0h0.16a0,0,0,0,0,0,0,1.54,1.54,0,0,1-.05-0.38,0.78,0.78,0,0,1,0-.18,0,0,0,0,0,0,0H14.23a0.53,0.53,0,0,1,.18-0.31,0,0,0,0,0,0,0H14.27a0.52,0.52,0,0,0-.25.37h0M13.28,9.9h0l-0.15,0h0a0.54,0.54,0,0,0-.19.32H13a0.25,0.25,0,0,0,0,.1,0.74,0.74,0,0,0,.08.33H13.2a0,0,0,0,0,0,0,0.71,0.71,0,0,1,0-.22,0.57,0.57,0,0,1,0-.23,0,0,0,0,0,0,0h0l-0.09,0a0.39,0.39,0,0,1,.17-0.29,0,0,0,0,0,0,0m-0.14,9.61h0L13,19.43h0a0,0,0,0,0,0,0,0.52,0.52,0,0,0,.16.22l0.19,0.08h0a0,0,0,0,0,0,0h0a0.37,0.37,0,0,1-.16-0.21m-0.47-.14h0l-0.16-.09h0a0.82,0.82,0,0,0,.06.16h0a0.62,0.62,0,0,0,.21.15h0a0,0,0,0,0,0,0,0.36,0.36,0,0,1-.09-0.18m-0.45-.2h0l-0.16-.09h0a0,0,0,0,0,0,0,0.72,0.72,0,0,0,.05.14l0.23,0.16h0a0,0,0,0,0,0,0,0.36,0.36,0,0,1-.09-0.18m6.13-.36h0a0.49,0.49,0,0,1-.4-0.25v0h0l-0.12.07a0.79,0.79,0,0,1-.45-0.22h0l-0.19.11h0a0.89,0.89,0,0,0,.49.23h0l0.07,0a0.72,0.72,0,0,0,.43.25h0l0.2-.13a0,0,0,0,0,0,0m0.53-.39c-0.29-.1-0.31-0.18-0.32-0.27h0l-0.1.07A0.86,0.86,0,0,1,18,18h0l-0.17.13h0v0a0.74,0.74,0,0,0,.48.21h0l0.06,0a0.8,0.8,0,0,0,.38.24h0l0.16-.11h0a0,0,0,0,0,0,0h0m-4.71,1.14H14a0,0,0,0,0,0,0,1,1,0,0,0,.27.19H14.15a0,0,0,0,0,0,0,0.51,0.51,0,0,0,.11.09h0l0.13,0h0a0,0,0,0,0,0,0l-0.05,0v0h0.16l0,0a0,0,0,0,0,0,0,0.82,0.82,0,0,1-.37-0.24M17.25,19l0.11,0a0,0,0,0,0,0,0l0,0a0.87,0.87,0,0,1-.53-0.24h0l-0.18.09h0v0a1.13,1.13,0,0,0,.45.23h0a0,0,0,0,0,0,0,0.6,0.6,0,0,0,.44.26h0l0.18-.07v0a0.66,0.66,0,0,1-.4-0.2m-0.56.28,0.13-.06v0l0,0A1.07,1.07,0,0,1,16.23,19h0L16,19.08h0v0a1.21,1.21,0,0,0,.49.23h0a0,0,0,0,0,0,0,0.44,0.44,0,0,0,.36.24h0l0.15,0v0a0.33,0.33,0,0,1-.31-0.21m-1.15.41s0,0,0,0h0.07a0,0,0,0,0,0,0h0a1,1,0,0,1-.4-0.26h0l-0.18,0h0a0,0,0,0,0,0,0,1.2,1.2,0,0,0,.41.23H15.31a0,0,0,0,0,0,0,0.27,0.27,0,0,0,.18.18h0.18a0,0,0,0,0,0,0,0.19,0.19,0,0,1-.12-0.11M15,19.82a0.06,0.06,0,0,1,0,0h0.08l0,0v0a1,1,0,0,1-.38-0.24h0l-0.19,0h0a0,0,0,0,0,0,0,1.11,1.11,0,0,0,.37.22H14.75a0.3,0.3,0,0,0,.16.16H15.1a0,0,0,0,0,0,0A0.16,0.16,0,0,1,15,19.82m1.08-.26,0.11,0v0a0.92,0.92,0,0,1-.47-0.27h0l-0.17.05h0a0,0,0,0,0,0,0,1.42,1.42,0,0,0,.41.24H15.85a0,0,0,0,0,0,0,0.4,0.4,0,0,0,.27.21h0l0.18,0,0,0a0,0,0,0,0,0,0,0.38,0.38,0,0,1-.25-0.17m3.43-2.79-0.16.13v0h0a1.44,1.44,0,0,0,.44.17h0L19.91,17l0.17,0.07h0L20.18,17a0,0,0,0,0,0,0A0.49,0.49,0,0,0,20,16.86h0l-0.07.07a1.77,1.77,0,0,1-.41-0.16h0m0.06,0.59h0l-0.06,0A2.2,2.2,0,0,1,19,17.16h0l-0.17.14h0a1.4,1.4,0,0,0,.5.26h0l0.07-.05a0.44,0.44,0,0,0,.28.12h0l0.13-.15v0h0a0.73,0.73,0,0,1-.28-0.1M19,17.79h0l0,0a0.94,0.94,0,0,1-.41-0.23h0l-0.17.14h0a1,1,0,0,0,.43.22h0l0.06,0a0.57,0.57,0,0,0,.38.14h0L19.4,18a0,0,0,0,0,0,0h0A0.46,0.46,0,0,1,19,17.79m-5.42,1.76h0l-0.17,0h0a0,0,0,0,0,0,0,1.16,1.16,0,0,0,.17.18h0a0,0,0,0,0,0,0,0.24,0.24,0,0,0,0,.06h0l0.1,0h0a0,0,0,0,0,0,0l0,0h0.12a0,0,0,0,0,0,0,0.83,0.83,0,0,1-.22-0.23m-1.84-.64h0l-0.14-.1h0a1,1,0,0,0,0,.14h0a0.72,0.72,0,0,0,.16.13h0a0,0,0,0,0,0,0h0a0.51,0.51,0,0,1-.06-0.15m8.5-2.3h0l0.07-.16a0,0,0,0,0,0,0h0A1,1,0,0,1,20,16.3h0c-0.05,0-.06.09-0.1,0.12v0h0a1.26,1.26,0,0,0,.37.17M20.47,16h0l0.05-.15h0a0.44,0.44,0,0,1-.21,0h0l-0.1.12h0a0.73,0.73,0,0,0,.27.08"/><path class="cls-3" d="M15.08,5.25a9.36,9.36,0,1,0,9.36,9.36,9.37,9.37,0,0,0-9.36-9.36m0,18.29A8.89,8.89,0,1,1,24,14.64a8.89,8.89,0,0,1-8.89,8.89"/><path class="cls-2" d="M22.43,20.73h0.11V21h0.07V20.73h0.11V20.67H22.43v0.06M23,20.9h0l-0.08-.23H22.78V21h0.07V20.74h0L23,21H23l0.1-.28h0V21h0.07V20.67H23.08L23,20.9"/><path class="cls-3" d="M19.69,18.69a6,6,0,0,0,1.44-3.15l-0.24,0h0a5.78,5.78,0,0,1-1.38,3h0a5.79,5.79,0,0,1-4.36,2h0a5.78,5.78,0,0,1-3.62-1.27l-0.22-.18-0.13-.12,0,0L11,18.8h0a5.77,5.77,0,0,1-.74-0.91L10.08,18a6,6,0,0,0,.85,1l0.25,0.24a6,6,0,0,0,4,1.5h0a6,6,0,0,0,4.53-2.05"/></svg>