<svg id="Layer_1" data-name="Layer 1" xmlns="http://www.w3.org/2000/svg" viewBox="0 0 30 30"><defs><style>.cls-1{fill:#e8e8e8;}.cls-2{fill:#fff;}.cls-3{fill:#e4002b;}.cls-4{fill:#003087;}</style></defs><title>new-york-yankees</title><circle class="cls-1" cx="15" cy="15" r="15"/><path class="cls-2" d="M15.08,4.49a9.14,9.14,0,0,0-4,17.32l0,0.08a4.84,4.84,0,0,1-.54.92l-0.17.05A0.62,0.62,0,0,0,10,23a0.77,0.77,0,0,0-.21.43v0a0.77,0.77,0,0,0,0,.15,1,1,0,0,0,.71.86l0.12,0.06c0.83,0.39,1.11.08,1.22,0l0,0A0.78,0.78,0,0,0,12.12,24h0a0.65,0.65,0,0,0-.06-0.25L12,23.6h0a6.47,6.47,0,0,1,.47-1l0.09-.17a9.13,9.13,0,1,0,2.52-17.9"/><path class="cls-3" d="M11.63,16.32a0.05,0.05,0,0,0,0,.07h0l0.13,0.1a0.05,0.05,0,0,0,.07-0.08l-0.13-.1a0.05,0.05,0,0,0-.07,0m0.55,0.47a0.05,0.05,0,0,0,.07,0h0a0.05,0.05,0,0,0,0-.07h0l-0.12-.07a0.05,0.05,0,1,0-.06.09l0.12,0.07m-0.2.59a0.05,0.05,0,0,0,0-.07l-0.24-.22a0.05,0.05,0,0,0-.07,0,0.05,0.05,0,0,0,0,.07l0.24,0.22a0.05,0.05,0,0,0,.07,0h0m6.77-.52a0.05,0.05,0,1,0,0,.1h0l0.23,0a0.05,0.05,0,0,0,0-.06h0a0.05,0.05,0,0,0-.06,0l-0.23,0"/><path class="cls-4" d="M18.15,14.41c0.27-.52-0.38-1.24-1.35-1.72s-1.89-.57-2.19,0c-0.16.31,0.19,0.73,0.77,1.12l0.06-.18a1,1,0,0,1,0-.13l0-.1a0.76,0.76,0,0,1,.07-0.12,0.77,0.77,0,0,1,.89,0,0.83,0.83,0,0,1,.53.86h0a0.75,0.75,0,0,1-.07.14l-0.19.25c0.68,0.23,1.23.23,1.39-.08m-1.63.43h0L16.42,15h0a4.29,4.29,0,0,1,1.2.79l0,0h0l0.16-.09,0.1,0h0a9,9,0,0,0-1.39-.79"/><path class="cls-4" d="M15.18,14.4l0.06-.16c-0.35-.18-1-0.4-1.28-0.52l-0.15-.07a1.91,1.91,0,0,1-.27-0.17,1.44,1.44,0,0,1-.65-1.28,1,1,0,0,1,1-.81l0.28,0a6.89,6.89,0,0,1,2.94.77,10.29,10.29,0,0,1,2.1,1.49l0.28,0.29,0.16,0.21a1.3,1.3,0,0,1,.21.73,2,2,0,0,1-.2.87h0L20,15.56h0a0.84,0.84,0,0,0,0-.09,2.72,2.72,0,0,0-.2-1.74,2.41,2.41,0,0,0-.17-0.29,1.74,1.74,0,0,0-.24-0.3C19,12.79,19.18,13,19.3,13.2a1.59,1.59,0,0,1,.16.24,0.9,0.9,0,0,1,.1.23v0a0.62,0.62,0,0,1-.24-0.2A8.88,8.88,0,0,0,17.17,12a7.74,7.74,0,0,0-2.89-.77H14a1.83,1.83,0,0,1,.33-0.12A3,3,0,0,1,14.82,11c0.27,0,.17-0.08,0-0.07l-0.36,0-0.32,0a1.47,1.47,0,0,0-1.42,1,1.7,1.7,0,0,0,.87,1.71l0.28,0.15,0.07,0c0.59,0.23,1.21.5,1.22,0.51h0v0m2.35-2.84a5.47,5.47,0,0,1,1.57,1.3l0.54-.31,0.1-.06a3.07,3.07,0,0,0-4.57-2.23l0,0.62a6.45,6.45,0,0,1,2.32.67h0ZM19,12.17l0.07-.2,0.12,0.18h0.21l-0.13.17,0.05,0.2-0.19-.08L19,12.58V12.36l-0.17-.13L19,12.17h0Zm-1.12-1.44,0.31,0.18,0.31-.14-0.07.35,0.23,0.27-0.35,0-0.19.31L18,11.37l-0.35-.07L18,11.07l0-.34h0Zm-1.19-.34,0.15-.25L17,10.42l0.29,0.08-0.23.18,0,0.31-0.26-.17-0.28.12,0.08-.3-0.19-.22,0.31,0h0Zm-1.13,0,0.06-.19,0.12,0.16H16l-0.12.15,0.06,0.19-0.19-.07-0.16.12v-0.2l-0.16-.12,0.19-.06h0Zm5.31,7.43V17.47H21V17.38H20.67v0.08h0.14v0.38H20.9m0.76,0V17.38H21.51l-0.11.3h0l-0.11-.3H21.13v0.46h0.09V17.48h0l0.13,0.36h0.09l0.13-.36h0v0.36h0.09"/><path class="cls-3" d="M15.8,17.2A1.27,1.27,0,0,0,17,16.73l0,0a0.44,0.44,0,0,0,0,.11c0.21,0.47,1.22.3,2-.25a0.46,0.46,0,0,0,0,.17c0.21,0.41,1.06.29,1.75-.12a0.67,0.67,0,0,0,.07.16,0.71,0.71,0,0,0,.45.28,0.79,0.79,0,0,0,.79-0.25,0.66,0.66,0,0,0,.1-0.21,6.43,6.43,0,0,0,1.36-1.83,3.59,3.59,0,0,0,.15-1.12h0A8.68,8.68,0,0,0,6.55,12.07l0.84-.89A8.1,8.1,0,0,1,9.29,8L9.36,8.08l-0.2.61a0.05,0.05,0,0,0,0,.07h0a0.05,0.05,0,0,0,.07,0l0.19-.57L9.68,8.37,9.43,9a0.05,0.05,0,1,0,.1,0l0.23-.55L10,8.67l-0.24.6a0.05,0.05,0,0,0,0,.07,0.05,0.05,0,0,0,.07,0h0L10,8.75l0.11,0.12h0a0,0,0,0,0,0,0v0l-0.31.59a0.05,0.05,0,0,0,0,.07h0a0.05,0.05,0,0,0,.07,0L10.28,9l0.14,0.17,0,0,0,0.05-0.36.54a0.05,0.05,0,0,0,.09.06h0l0.34-.51,0.23,0.32h0l-0.42.45a0.05,0.05,0,1,0,.08.07l0.41-.44C10.92,9.9,11,10,11.08,10.19l-0.46.49a0.05,0.05,0,0,0,0,.07h0a0.05,0.05,0,0,0,.07,0l0.44-.46q0.11,0.2.2,0.41l-0.49.48a0.05,0.05,0,1,0,.07.07l0.46-.45c0.07,0.17.14,0.34,0.21,0.52l-0.52.52a0.05,0.05,0,0,0,0,.07,0.05,0.05,0,0,0,.07,0h0l0.49-.49q0.09,0.25.15,0.51l-0.2.2a0.05,0.05,0,0,0,0,.07h0a0.05,0.05,0,0,0,.07,0h0l0.16-.16q0.07,0.29.12,0.59l-0.52.52a0.05,0.05,0,0,0,0,.07,0.05,0.05,0,0,0,.07,0h0l0.47-.47a7.47,7.47,0,0,1,.07.76L11.4,14a0.05,0.05,0,0,0,0,.07h0a0.05,0.05,0,0,0,.07,0h0L12,13.66c0,0.06,0,.12,0,0.18s0,0.34,0,.5l-0.58.39a0.05,0.05,0,0,0,.06.09L12,14.48c0,0.22,0,.43-0.08.65l-0.65.26a0.05,0.05,0,0,0,0,.07,0.05,0.05,0,0,0,.07,0h0l0.59-.24c0,0.13-.05.26-0.09,0.4h0v0h0L12.17,16a0.05,0.05,0,0,0,.07-0.08l-0.34-.28q0.05-.2.09-0.41l0.67,0.28a0.05,0.05,0,0,0,.07,0h0a0.05,0.05,0,0,0,0-.07L12,15.12q0.06-.33.08-0.67l0.65,0.26a0.05,0.05,0,0,0,0-.1l-0.67-.27c0-.17,0-0.33,0-0.51s0-.13,0-0.19l0.68,0.29a0.05,0.05,0,0,0,.07,0h0a0.05,0.05,0,0,0,0-.07l-0.73-.31q0-.37-0.07-0.74L12.67,13a0.05,0.05,0,1,0,0-.1h0L12,12.67h0a0,0,0,0,0,0,0q0-.29-0.11-0.58l0.67,0.18a0.05,0.05,0,0,0,.06,0h0a0.05,0.05,0,0,0,0-.06h0l-0.73-.19c0-.18-0.1-0.36-0.16-0.54l0.74,0.06a0.05,0.05,0,0,0,.06,0h0a0.05,0.05,0,0,0,0-.06h0l-0.78-.07c-0.06-.18-0.13-0.35-0.21-0.52l0.68,0a0.05,0.05,0,1,0,0-.1h0l-0.74,0-0.2-.41,0.73,0A0.05,0.05,0,0,0,12,10.18h0A0.05,0.05,0,0,0,12,10.13h0l-0.78,0q-0.12-.22-0.26-0.43l0.74-.06a0.05,0.05,0,0,0,0-.06h0a0.05,0.05,0,0,0-.06,0h0l-0.8.07L10.56,9.2l0.64-.09a0.05,0.05,0,0,0,0-.06h0a0.05,0.05,0,0,0-.06,0l-0.69.1L10.32,8.9,11,8.8a0.05,0.05,0,0,0,0-.06,0.05,0.05,0,0,0-.06,0l-0.7.11-0.18-.19,0.51-.16a0.05,0.05,0,0,0,0-.07,0.05,0.05,0,0,0-.07,0L10,8.53,9.86,8.4l0.5-.19a0.05,0.05,0,0,0,0-.07,0.05,0.05,0,0,0-.07,0h0l-0.55.21L9.53,8.09l0.54-.2a0.05,0.05,0,0,0,0,0v0a0.05,0.05,0,0,0-.07,0L9.43,8,9.36,7.94a8.05,8.05,0,0,1,11-.37l-0.14.16L20,7.32a0.05,0.05,0,1,0-.09.06L20.2,7.82,20,8l-0.4-.41a0.05,0.05,0,0,0-.07.07L20,8.13l-0.11.14a4.15,4.15,0,0,0-4.8,0s0.08,1.37.1,1.84a3.21,3.21,0,0,1,.39-0.18l0-1.67A2.17,2.17,0,0,1,16.09,8l0,1.83a3.19,3.19,0,0,1,.64-0.06h0.2l0.33-2a3.1,3.1,0,0,1,1.24.13l-0.78,2a3.19,3.19,0,0,1,1,.53L20,8.65a3.83,3.83,0,0,1,.77.88l-1.61,1.42a3.21,3.21,0,0,1,.42.7l1.66-1.15a2,2,0,0,1,.11.58l-1.61,1q0,0.16.07,0.32c0.4-.23,1.87-1.07,1.87-1.08a4.34,4.34,0,0,0-1.78-3L20,8.18,20.49,8.4a0.05,0.05,0,0,0,.07,0,0.05,0.05,0,0,0,0-.07h0l-0.42-.2,0.18-.22,0.56,0.19a0.05,0.05,0,0,0,.06,0,8.08,8.08,0,0,1,2.25,5.61h0c-0.05,1.5-.34,2.15-0.87,2.54a1.34,1.34,0,0,0-.11-0.36c-0.08-.17,0-0.18,0-0.23,0.3-.26.36-0.52,0.25-0.6a0.72,0.72,0,0,0-.68.61l0,0.17a1.89,1.89,0,0,1-.35.31,0.38,0.38,0,0,0-.56.34,1.84,1.84,0,0,1-.85.29c-0.3,0-.38-0.18-0.33-0.34h0c0.59,0,1.29-.39,1.17-0.78-0.07-.23-0.47-0.2-0.88,0l-0.31.16a1.37,1.37,0,0,0-.59.61,1.84,1.84,0,0,1-1.14.48c-0.3,0-.38-0.18-0.33-0.34h0c0.64,0,1.42-.38,1.26-0.8a0.3,0.3,0,0,0-.27-0.18,1.33,1.33,0,0,0-.62.12l-0.09,0-0.1,0-0.16.09a2,2,0,0,0-.38.3,1.06,1.06,0,0,0-.21.31,1.36,1.36,0,0,1-.72.53c-0.3,0,0-.37-0.31-0.42a1.31,1.31,0,0,0,.69-0.36,0.6,0.6,0,0,0,.14-0.23,0.38,0.38,0,0,0,0-.22c-0.08-.29-0.58-0.2-0.89,0h0L16.42,15l0.09-.12,0.25-.35h0l0.19-.25A0.78,0.78,0,0,0,17,14.1h0a0.83,0.83,0,0,0-.53-0.86,0.77,0.77,0,0,0-.89,0,0.74,0.74,0,0,0-.07.12l0,0.09,0,0.13-0.06.19-0.15.42-0.06.16v0h0q-0.16.42-.34,0.83l-0.09.21c-0.18.43-.38,0.85-0.56,1.25a0.43,0.43,0,0,1-.31.11c-0.16-.1.56-0.83,0.32-1.07a1.05,1.05,0,0,0-1.08.38A0.36,0.36,0,0,0,13,15.77c-0.4-.4-1.59,1.42-1.79,1.27a5.78,5.78,0,0,1,.57-1.23H11.31l-0.07.12a0.13,0.13,0,0,0-.05-0.11c-0.54-.5-1.88.94-1.39,1.37a0.87,0.87,0,0,0,1-.34c-0.15.32,0,.45,0,0.48,0.5,0.37,1.57-1.37,1.75-1.21a3.93,3.93,0,0,1-.5,1.11h0.5c0.21-.38.37-0.67,0.37-0.67a1,1,0,0,1,.7-0.48c0.14,0.16-.59.75-0.35,1.12A0.74,0.74,0,0,0,14,17c-0.44.92-.82,1.67-0.94,1.91-0.22.46-.67,1.3-1.12,2.13a8.25,8.25,0,0,1-2.1-1.32,0,0,0,0,0,0,0l-0.17-.27h0l0.23-.23,0.27,0.3a0.05,0.05,0,0,0,.07,0h0a0.05,0.05,0,0,0,0-.07h0L10,19.12l0.19-.2,0.3,0.32a0.05,0.05,0,0,0,.07,0h0a0.05,0.05,0,0,0,0-.07h0l-0.31-.33,0.27-.33,0.28,0.4a0.05,0.05,0,0,0,.07,0h0a0.05,0.05,0,0,0,0-.07h0l-0.3-.43,0.25-.35,0.34,0.43a0.05,0.05,0,0,0,.07,0h0a0.05,0.05,0,0,0,0-.07h0L10.93,18l0.22-.37L11.54,18a0.05,0.05,0,0,0,.07-0.08h0l-0.41-.38h0a0.05,0.05,0,0,0,0-.07,0.05,0.05,0,0,0-.07,0h0l0,0h0l0,0-0.49,0a0.05,0.05,0,0,0,0,.1l0.44,0-0.17.29-0.57-.07a0.05,0.05,0,0,0-.06,0h0a0.05,0.05,0,0,0,0,.05L10.78,18l-0.22.31h0l0,0L10,18.25a0.05,0.05,0,0,0-.06,0h0a0.05,0.05,0,0,0,0,.05l0.53,0.06v0l-0.28.34h0l-0.53-.16a0.05,0.05,0,0,0-.06,0h0a0.05,0.05,0,0,0,0,.05l0.52,0.16h0L10,19h0l0,0-0.48-.14a0.05,0.05,0,0,0-.06,0h0a0.05,0.05,0,0,0,0,.05l0.46,0.14h0l-0.22.22h0l0,0-0.3-.12h0a8.23,8.23,0,0,1-.82-1l3.12-5.91-0.72,0L9.62,14.7a1.4,1.4,0,0,1-1.46.48c-0.76-.53,2.21-3.37,1.12-4.3-0.87-.74-1.82.36-2.12,0.89a3.93,3.93,0,0,0-.72,1.89,8.7,8.7,0,0,0,5.24,8c-0.29.53-.56,1-0.76,1.35a0.45,0.45,0,0,1-.39.33H10.4a0.27,0.27,0,0,0-.11.24,0.73,0.73,0,0,0,.52.54,0.83,0.83,0,0,0,.74.1A0.27,0.27,0,0,0,11.67,24a0.41,0.41,0,0,0-.06-0.11,0.41,0.41,0,0,1,0-.49c0.15-.36.42-0.9,0.72-1.49a8.67,8.67,0,0,0,11.18-6.2l0.07-.31a6.43,6.43,0,0,1-.89,1A7.82,7.82,0,0,1,21.18,19l0.12-.24a0.05,0.05,0,1,0-.09,0L21.05,19l-0.24-.18,0.27-.33A0.05,0.05,0,0,0,21,18.42l-0.27.33-0.12-.11,0.33-.46a0.05,0.05,0,0,0,0-.07h0a0.05,0.05,0,0,0-.07,0h0l-0.33.45-0.2-.2,0.3-.37a0.05,0.05,0,0,0,0-.07h0a0.05,0.05,0,0,0-.07,0l-0.29.36-0.21-.23,0.31-.36a0.05,0.05,0,1,0-.08-0.07L20,18l-0.24-.29,0.32-.36a0.05,0.05,0,0,0,0-.07h0a0.05,0.05,0,0,0-.07,0h0l-0.31.35-0.26-.35,0.13-.14a0.05,0.05,0,0,0,0-.07,0.05,0.05,0,0,0-.07,0h0l-0.12.12-0.14-.23a0.05,0.05,0,0,0-.09,0h0l0.15,0.23-0.46.08a0.05,0.05,0,0,0,0,.05h0a0.05,0.05,0,0,0,.06,0h0l0.51-.09,0.29,0.39-0.6,0a0.05,0.05,0,0,0-.05.05h0a0.05,0.05,0,0,0,.05.05h0l0.68,0,0.21,0.25-0.54.16a0.05,0.05,0,0,0,0,.05h0a0.05,0.05,0,0,0,.06,0h0L20,18.15h0l0.2,0.22-0.56.25a0.05,0.05,0,0,0,0,.07h0a0.05,0.05,0,0,0,.07,0l0.59-.27,0.15,0.15h0l-0.51.3a0.05,0.05,0,0,0,0,.07h0A0.05,0.05,0,0,0,20,19h0l0.51-.3,0,0a0,0,0,0,0,0,0h0l0.12,0.11-0.46.31a0.05,0.05,0,0,0,0,.07,0.05,0.05,0,0,0,.07,0l0.48-.32L21,19.06l-0.34.23a0.05,0.05,0,0,0,0,0,0,0,0,0,0,0,0,0.05,0.05,0,0,0,.07,0L21,19.16a8.19,8.19,0,0,1-5.91,2.53,7.6,7.6,0,0,1-2.43-.38c0.42-.82.86-1.62,1.11-2.06s1-1.65,1.64-2.72h0a0.31,0.31,0,0,1,.22,0,1.28,1.28,0,0,0,.17.64m4.55-9.4,0.13-.15L20.81,8l-0.45-.16m0.76,8.72a0.29,0.29,0,0,0,.32-0.29A2.39,2.39,0,0,0,21.73,16a0.59,0.59,0,0,0,0,.08c0.06,0.21.06,0.79-.37,0.77a0.24,0.24,0,0,1-.25-0.32m-0.7-.83c0.11,0.16-.28.51-0.73,0.53,0-.28.58-0.73,0.72-0.53M18,15.87a0.6,0.6,0,0,1,.28-0.14,0.11,0.11,0,0,1,.12.06,0.77,0.77,0,0,1-.71.52A0.88,0.88,0,0,1,18,15.87m-7.81,1c-0.24-.26.69-1.18,0.9-0.9s-0.64,1.2-.9.9M7.05,13.68a3.22,3.22,0,0,1,.41-1.88A1.37,1.37,0,0,1,8.56,11c0.64,0.13.23,1-.31,1.91s-1.17,1.9-.66,2.46a1.31,1.31,0,0,0,1.8-.17L8.1,17.59a7.81,7.81,0,0,1-1-3.9m2.49,5.75-0.07-.06,0.09,0h0l0,0m0.08,0.08h0m1.07,3.84A1,1,0,0,0,11,23.07s0,0,0,0a0.6,0.6,0,0,1-.15.26,0.2,0.2,0,0,1-.08.07c-0.07,0-.09,0-0.1,0s0,0,0,0m0.47,0.05,0,0.11c0,0.09-.06.23-0.08,0.34S11,23.95,11,23.93l-0.07,0,0,0h0l0,0-0.06,0,0,0h0l-0.07,0,0,0a0,0,0,0,1,0,0l0.05,0,0.12,0,0.14,0.06a0.1,0.1,0,0,0,.09,0,0.06,0.06,0,0,0,0,0,0.11,0.11,0,0,0,0-.06l0,0-0.06,0s0-.07,0-0.07l0.06,0s0,0,0,0l0,0a0.09,0.09,0,0,1,0,0v0l0,0,0,0A12.15,12.15,0,0,0,11.78,22c-0.12.22-.23,0.43-0.28,0.54s-0.26.6-.34,0.82c0,0,0,0,0,0m0.75-1.11h0a0.11,0.11,0,0,1,0,0,0.25,0.25,0,0,0,0,.08h0a0.24,0.24,0,0,1,0,.07,1,1,0,0,1-.05.13h0a0.19,0.19,0,0,1,0,0,0,0,0,0,1,0,0l0,0a0.09,0.09,0,0,0,0,0l0,0a0.69,0.69,0,0,1-.05.16,0.07,0.07,0,0,0,0,0s0,0,0,0a0.1,0.1,0,0,1,0,0,0.68,0.68,0,0,0,0,.11v0s0,0.05,0,.08a0.18,0.18,0,0,1,0,.07l0,0-0.05.07s0,0,0,0h0s0,0,0,.05-0.07.09-.08,0.14,0,0,0,.05a0.83,0.83,0,0,0,0,.1h0v0a0,0,0,0,1,0,0,0.74,0.74,0,0,1,0-.12c0-.06,0-0.12,0-0.18v0h0a0.13,0.13,0,0,0,0-.05s0-.08.05-0.12l0,0s0-.08,0-0.12h0l0,0a0.06,0.06,0,0,1,0,0s0,0,0,0l0-.05a0.18,0.18,0,0,1,0-.07v0s0,0,0,0a0.24,0.24,0,0,1,0-.07l0,0,0,0h0a0,0,0,0,1,0,0,0.58,0.58,0,0,0,.07-0.12h0a0.13,0.13,0,0,1,0,0,0.69,0.69,0,0,0,.05-0.1,0.09,0.09,0,0,0,0,0l0,0a0.13,0.13,0,0,1,0,0l0,0,0-.09a0.31,0.31,0,0,1,0,.08M12,22.08v0h0a0,0,0,0,1,0,0v0h0v0l0,0,0-.08a0,0,0,0,0,0,0L12,22l0.09-.17h0L12,22.08m0.25-1,0,0h0l0,0c0.05-.09,0,0,0,0m2.62-5.55L15,15.37a19.43,19.43,0,0,0,.73-2h0.07c-0.21.62-.49,1.34-0.78,2l-0.09.21A17.05,17.05,0,0,1,14,17.45q0.48-.92.89-1.87m-0.41,1.67c0.06-.12.42-0.74,0.83-1.43l0.12-.19c0.51-.86,1.07-1.79,1.22-2a0.13,0.13,0,0,0-.07-0.11l-1.22,2.09-0.11.2c-0.94,1.61-2,3.48-2.09,3.6,0.13-.24,1-2,1.34-2.65,0.11-.21.29-0.62,0.49-1.09l0.09-.21c0.42-1,.88-2.13.9-2.21a1,1,0,0,1,.83.38l-0.07.11-1.21,2-0.12.19h0l-2.77,4.74c0.66-1.28,1.71-3.08,1.85-3.36m-2,4h0c0.66-1.19,2-3.53,3.05-5.33l0.12-.2,0.5-.82c0.33-.52.71-1.13,0.75-1.19a0.19,0.19,0,0,1,.05.13s-0.68,1.06-.73,1.13l-0.5.78-0.12.2c-1.1,1.78-2.41,4.09-3.09,5.31m3.07-4.9h0L15.74,16l0.07-.1h0l0.2-.06a0.38,0.38,0,0,1,.39.05h0a0.21,0.21,0,0,1-.1.22,1.17,1.17,0,0,1-.78.22"/></svg>