<svg id="Layer_1" data-name="Layer 1" xmlns="http://www.w3.org/2000/svg" viewBox="0 0 30 30"><defs><style>.cls-1{fill:#e8e8e8;}.cls-2{fill:#fff;}.cls-3{fill:#ff5910;}.cls-4{fill:#002d72;}</style></defs><title>new-york-mets</title><circle class="cls-1" cx="15" cy="15" r="15"/><path class="cls-2" d="M15.08,24A9.42,9.42,0,1,0,5.66,14.6,9.42,9.42,0,0,0,15.08,24"/><path class="cls-3" d="M22.22,10.4l-0.17-.28a0.51,0.51,0,0,1-.07.31,0.79,0.79,0,0,1-.09.46l0.17,0.2a1.26,1.26,0,0,0,.11-0.55,0.45,0.45,0,0,0,0-.14m-0.47-.7-0.17-.19a0.39,0.39,0,0,1-.18.19,1.82,1.82,0,0,1,.08.75l0.19,0.2a2.14,2.14,0,0,0,0-.81,0.61,0.61,0,0,0,.12-0.14m-0.64-.57L21,9a0.45,0.45,0,0,1-.21.19,1.7,1.7,0,0,1,.12.87l0.24,0.17A1.7,1.7,0,0,0,21,9.28a0.51,0.51,0,0,0,.15-0.15m-0.84-.31a1.15,1.15,0,0,0,.19-0.17l-0.21-.12a0.45,0.45,0,0,1-.22.17,1.48,1.48,0,0,1,.22.84L20.5,9.72a1.16,1.16,0,0,0-.23-0.9m-0.67-.67a1.4,1.4,0,0,1-.3.21,1.07,1.07,0,0,1,.22.72L19.8,9.23a0.89,0.89,0,0,0-.25-0.78,1.34,1.34,0,0,0,.29-0.22M18.61,8a1.19,1.19,0,0,1,.21.75L19.1,8.92a0.9,0.9,0,0,0-.25-0.77,1.16,1.16,0,0,0,.32-0.25L18.9,7.82a0.74,0.74,0,0,1-.3.21m-0.82-.27a1.06,1.06,0,0,1,.19.71l0.26,0.1C18.19,8,18.13,7.89,18,7.85a2.19,2.19,0,0,0,.35-0.27l-0.27-.07a0.86,0.86,0,0,1-.3.24m-0.47-.52a0.85,0.85,0,0,1-.3.24,1.28,1.28,0,0,1,.21.78L17.5,8.34a0.92,0.92,0,0,0-.25-0.79c0.1-.06.33-0.27,0.33-0.27M16.49,7a2.23,2.23,0,0,1-.38.28,1.23,1.23,0,0,1,.28.77l0.24,0c-0.07-.58-0.18-0.66-0.31-0.7,0.1-.06.45-0.34,0.45-0.34m-1-.2a2,2,0,0,1-.43.35,0.66,0.66,0,0,1,.22.66L15.81,8a0.63,0.63,0,0,0-.25-0.66C15.65,7.23,16,6.9,16,6.9m-1.85.24L14.28,7.2a0.8,0.8,0,0,1,.18.64l0.24,0a0.87,0.87,0,0,0-.17-0.64,0.27,0.27,0,0,0-.13,0,2,2,0,0,0,.47-0.38l-0.25,0a2,2,0,0,1-.45.37m-0.94-.36L13,6.8a0.72,0.72,0,0,1-.18.38,0.73,0.73,0,0,1-.05.67l0.26,0a0.66,0.66,0,0,0,0-.65,1.2,1.2,0,0,0,.21-0.41m0.84,0-0.31,0a1.46,1.46,0,0,1-.31.37c0.08,0,.15.11,0.13,0.68l0.28,0c0-.63-0.14-0.63-0.18-0.63a3.45,3.45,0,0,0,.38-0.45m-2,.52c0.08,0,0,.13,0,0.26s-0.11.21-.17,0.34l0.26,0c0.18-.3.31-0.59,0.18-0.62a1.16,1.16,0,0,0,.22-0.37l-0.29.08a0.55,0.55,0,0,1-.18.32m-0.66.1a0.8,0.8,0,0,1-.22.56l0.25,0a0.73,0.73,0,0,0,.22-0.56A1,1,0,0,0,11.86,7l-0.26,0a0.61,0.61,0,0,1-.2.29M7.91,12A1.43,1.43,0,0,1,8,11.24l-0.18,0a1.14,1.14,0,0,0-.05.79,1,1,0,0,0-.34.49l0.14,0.09A0.84,0.84,0,0,1,7.91,12m0.35-.72a1.64,1.64,0,0,0-.05.82,1.23,1.23,0,0,0-.43.5L8,12.73a0.85,0.85,0,0,1,.45-0.5,1.6,1.6,0,0,1,.06-0.83"/><path class="cls-4" d="M9.77,20.07H10.3v-1l-0.52-.22M9.11,20.07H9.63V18.78l-0.52-.28m13.12-.63h0v1.07q0.21-.35.39-0.72l-0.34-.33,0,0M16,20.51a2.07,2.07,0,0,1-.6.57L15.29,21a1.7,1.7,0,0,0,.54-0.5H9.14a8.34,8.34,0,0,0,8.08,2.22,1,1,0,0,0,.36-0.3l0.13,0.05-0.16.15,0.37-.12-0.16,0a1.53,1.53,0,0,0,.55-0.38l0.11,0a0.9,0.9,0,0,1-.32.26A8.38,8.38,0,0,0,21,20.47H16L16,20.51h0Zm-1.9.33L14,20.66a4.46,4.46,0,0,0,1.05,0l0.11,0.13a3.64,3.64,0,0,1-1,.09h0Zm0.27,0.33a2.46,2.46,0,0,0,1-.09l0.15,0.14a3.71,3.71,0,0,1-1,.12Zm0.7,0.64-0.23-.16a2.84,2.84,0,0,0,1-.13l0.18,0.12a3.62,3.62,0,0,1-1,.17h0Zm0.39,0.29a1.44,1.44,0,0,0,.84-0.31l0.11,0.06a0.85,0.85,0,0,1-.75.37ZM18,22l0.12,0a1.44,1.44,0,0,1-.46.38l-0.12-.05A1.08,1.08,0,0,0,18,22h0Zm-0.36-.18,0.12,0.07a1.47,1.47,0,0,1-.51.4l0,0c0.11,0-.22.33-0.52,0.37l-0.24-.05a1,1,0,0,0,.65-0.35h0l-0.1,0a1.13,1.13,0,0,0,.53-0.41h0Zm-0.4-.24,0.14,0.1a1.36,1.36,0,0,1-.52.42l0,0,0,0c0.12,0-.07.28-0.61,0.38L16,22.38A1,1,0,0,0,16.76,22l-0.08,0a1.26,1.26,0,0,0,.54-0.43h0Zm-0.42-.32,0.14,0.12a1.6,1.6,0,0,1-.56.47l-0.14-.09a1.43,1.43,0,0,0,.56-0.5h0Zm-0.42-.4L16.49,21a1.79,1.79,0,0,1-.56.56l-0.16-.11a2,2,0,0,0,.59-0.6h0Zm5.44-2.95a5.06,5.06,0,0,1-.56.41v1.79h0.12q0.24-.27.45-0.56V17.87h0m-5.49-2.09a0.2,0.2,0,0,0,.05-0.11,0.06,0.06,0,0,0,0,0,0.21,0.21,0,0,0-.24,0,1.12,1.12,0,0,0-.41.46,1.1,1.1,0,0,0,.61-0.32M9,18.42A5.2,5.2,0,0,1,8.39,18h0v1.54q0.2,0.27.41,0.51H9m11.61,0H21.1V18.38l-0.53.29m-0.66,1.42h0.53V18.73L19.91,19m-0.66,1.11h0.52V19l-0.52.2M7.61,18.31Q7.78,18.66,8,19V18a3.36,3.36,0,0,1-.37.3"/><path class="cls-4" d="M22.8,16V15.2H22.38v0.49H22V11.21H21v2.27H20.31V10.82l-0.13-.12V10.39l-0.29-.13V9.88H19.41v0.38l-0.29.13v0.31L19,10.82v0.52H18.28V9.81H17.69V9.08H17.3V8.69H16.43V9.08H16.11V10.3H15.64V8.87l-0.18-.12V8.14l-0.28-.21V7.08L15.08,7l0-.41H15L14.92,7l-0.11.12V7.93l-0.28.21V8.75l-0.18.12v1.24H13.56v-1H12.41v0.94l-0.25.11v1.71H11.32V10.47l-0.09-.09V9.63H11.15l-0.21-.79a0.77,0.77,0,0,0,0-.14c0-.12,0-0.17-0.05-0.17s0,0,0,.17a0.72,0.72,0,0,0,0,.15l-0.21.78H10.57v0.75l-0.09.09V12H9.56v-0.1a1.89,1.89,0,0,0-.12.85h0l0.07,0.05a1.09,1.09,0,0,0-.58.51l-0.18-.14a1.07,1.07,0,0,1,.57-0.49l-0.06,0a1.71,1.71,0,0,1,.13-0.84l0.18,0.11V10.88c0-.16-0.23-0.16-0.23-0.16V10.44l-0.19-.05,0-.12-0.05,0L9,10.26l0,0.12-0.19.05v0.28a0.2,0.2,0,0,0-.23.18v1.5l-0.37.24v0.89l-0.14.08V14.3l-0.13.08v1.27H7.68V14.38H7.61L7.46,13H7.38L7.21,14.38H7.12v1H6.91a0.35,0.35,0,0,0-.12.16q0,0.39.12,0.77v0l0,0.13a8.26,8.26,0,0,0,.59,1.69,3.5,3.5,0,0,0,.37-0.29l0,0h0.5l0,0c1.55,1.29,4.42,1.84,6.23,1.93l-0.13-.06A1.56,1.56,0,0,0,15,19.3l0.13,0.16a1.57,1.57,0,0,1-.33.37h0.32c2,0,5.18-.81,6.63-2.08l0,0h0.53l0.07,0.07,0.31,0.29a8.23,8.23,0,0,0,.61-1.86L23.18,16H22.8ZM8.49,13l-0.17-.14a1.26,1.26,0,0,1,.5-0.47l0,0a1.83,1.83,0,0,1,0-.87L9,11.63a1.81,1.81,0,0,0,0,.87l0.05,0a1,1,0,0,0-.56.49h0Zm2.31,1.22a1.72,1.72,0,0,1,.37-0.84l0.16,0.23a1.32,1.32,0,0,0-.35.8L11,14.5a1.47,1.47,0,0,0-.81.3l-0.16-.23a1.63,1.63,0,0,1,.79-0.26l0-.05h0ZM11,15.06l0,0.22a1.11,1.11,0,0,0-.43.16l-0.08-.18,0,0A2.75,2.75,0,0,1,11,15.06h0Zm-0.52-2.41,0.18,0.19a2.3,2.3,0,0,0-.19.92l0.05,0.06a1.32,1.32,0,0,0-.73.4L9.65,14a1.38,1.38,0,0,1,.69-0.41l0-.05a1.77,1.77,0,0,1,.18-0.92h0Zm-0.63.49L9.8,13.07A1.37,1.37,0,0,1,10,12.24l0.18,0.16a2.52,2.52,0,0,0-.22.84L10,13.31a1,1,0,0,0-.67.37l-0.17-.15a1.14,1.14,0,0,1,.69-0.4h0ZM13,17.94a0.51,0.51,0,0,1,.07-0.35l0.12,0.19a1.07,1.07,0,0,0-.05.33l0-.06,0.1,0.2a4.2,4.2,0,0,0-.8,0L12.56,18a2,2,0,0,1,.56,0L13,17.94h0Zm-0.4.89a4.38,4.38,0,0,1,.91,0l-0.06-.07a1.37,1.37,0,0,1,.36-0.55,0.83,0.83,0,0,0,.29,0c-0.15.17-.3,0.33-0.39,0.45a0.36,0.36,0,0,0-.07.32L13.75,19a6.15,6.15,0,0,0-1,0l-0.13-.2h0Zm1.53,0.62a0.26,0.26,0,0,0,.11.19h0a7.47,7.47,0,0,0-1.09,0L13,19.41a3.33,3.33,0,0,1,1.1.07c0.12,0.07,0,0,0,0l-0.12,0a1.57,1.57,0,0,1,.48-0.8l0.14,0.22a2.62,2.62,0,0,0-.46.59h0Zm6.58-4.77H20.13L20.67,15l-0.06.09a0.5,0.5,0,0,0-.11.31,1.32,1.32,0,0,0,.08.37,2.33,2.33,0,0,1,.13.73,2.1,2.1,0,0,1,0,.4,1.38,1.38,0,0,1-1.63,1,1.46,1.46,0,0,1-.53-0.26,1.21,1.21,0,0,1-1,.3,0.77,0.77,0,0,1-.56-0.48,1.76,1.76,0,0,1-1.91.4h0a1.07,1.07,0,0,1-.22-0.19,1.17,1.17,0,0,1-.89.36,0.73,0.73,0,0,1-.58-0.44A1.34,1.34,0,0,1,13.22,17a2.39,2.39,0,0,1,.15-0.77l-0.5.81c-0.24.39-.44,0.73-0.58,0.91l0,0H11.15l0.09-.14a7,7,0,0,0,.57-1.75A3.88,3.88,0,0,1,10.19,18a1,1,0,0,1-.81,0A0.63,0.63,0,0,1,9,17.5,2,2,0,0,1,9.54,16l0,0,1-.35-0.16.23a1.69,1.69,0,0,0-.37,1,0.06,0.06,0,0,0,0,0c0.4,0.11,1.05-1.4,1.53-2.51a10,10,0,0,1,1-1.9l0,0h1.31l-0.07.13a11.07,11.07,0,0,0-.6,2L13.09,15l0.22-.36a13.88,13.88,0,0,1,1.53-2.23l0,0h1.41l-0.07.13c-0.59,1.07-2.15,3.92-1.82,4.46h0A0.21,0.21,0,0,0,14.5,17s0-.08,0-0.12a2.15,2.15,0,0,1,1.41-1.89,1.06,1.06,0,0,1,1.22.25,0.68,0.68,0,0,1,.13.41,1,1,0,0,1-.23.62,2,2,0,0,1-1.41.64,0.22,0.22,0,0,0,.21.19,2,2,0,0,0,1.51-1.17l0.54-1.17-0.88,0,0.43-.88h0.87l0.45-1H20l-0.45.95,1.61,0-0.35.87h0Z"/><path class="cls-4" d="M18.15,16.7l0.51-.63a9.72,9.72,0,0,1,1.19-1.38H19.08L18.2,16.58l-0.05.12M19.09,17a0.17,0.17,0,0,0,0,0,0.12,0.12,0,0,0,.08.08,0.31,0.31,0,0,0,.25-0.05,0.58,0.58,0,0,0,.21-0.37,1.9,1.9,0,0,0,0-.24,3.2,3.2,0,0,0,0-.42V16a5.27,5.27,0,0,0-.43.59l0.11,0.12-0.06.06a0.42,0.42,0,0,0-.14.27m-7.33,3.07h0.52V19.65l-0.52-.12m-1.33.54H11V19.3l-0.52-.18m2,0.95H13v-0.3l-0.52-.1m-1.33.39h0.52V19.49l-0.52-.15m7.49,0.74h0.52V19.27l-0.52.16m-5.49.36v0.28h4v-0.3a11,11,0,0,1-2,.19,14.24,14.24,0,0,1-2-.18m4.83,0.28h0.53V19.47l-0.53.14m-0.66.47h0.52V19.64l-0.52.11"/><path class="cls-3" d="M9,12.51a1.81,1.81,0,0,1,0-.87l-0.2-.1a1.83,1.83,0,0,0,0,.87l0,0a1.26,1.26,0,0,0-.5.47L8.49,13A1,1,0,0,1,9,12.54"/><path class="cls-3" d="M9.24,12.66l0.06,0a1.07,1.07,0,0,0-.57.49l0.17,0.14a1.09,1.09,0,0,1,.58-0.51l-0.07-.05h0a1.89,1.89,0,0,1,.12-0.85l-0.18-.11a1.71,1.71,0,0,0-.13.84M10,13.31l-0.06-.07a2.52,2.52,0,0,1,.22-0.84L10,12.24a1.37,1.37,0,0,0-.18.83l0.05,0.06a1.14,1.14,0,0,0-.69.4l0.17,0.15A1,1,0,0,1,10,13.31m0.35,0.32a1.38,1.38,0,0,0-.69.41l0.14,0.19a1.32,1.32,0,0,1,.74-0.4l-0.05-.06a2.3,2.3,0,0,1,.19-0.92l-0.18-.19a1.78,1.78,0,0,0-.18.92m0.25,1.86A1.11,1.11,0,0,1,11,15.28l0-.22a2.76,2.76,0,0,0-.49.17l0,0m-0.25-.46A1.47,1.47,0,0,1,11,14.5L11,14.44a1.32,1.32,0,0,1,.35-0.8l-0.16-.23a1.72,1.72,0,0,0-.37.84l0,0.05a1.63,1.63,0,0,0-.79.26M12.56,18l-0.14.18a4.2,4.2,0,0,1,.8,0l-0.1-.2,0,0.06a1.07,1.07,0,0,1,.05-0.33l-0.12-.19a0.51,0.51,0,0,0-.07.35L13.12,18a2,2,0,0,0-.56,0m1.18,1L13.68,19a0.36,0.36,0,0,1,.07-0.32c0.09-.11.24-0.28,0.39-0.45a0.84,0.84,0,0,1-.29,0,1.37,1.37,0,0,0-.36.55l0.06,0.07a4.37,4.37,0,0,0-.91,0L12.77,19a6.2,6.2,0,0,1,1,0"/><path class="cls-3" d="M14,19.44l0.12,0s0.11,0.07,0,0a3.33,3.33,0,0,0-1.1-.07l0.17,0.24a7.46,7.46,0,0,1,1.09,0,0.26,0.26,0,0,1-.11-0.19,2.63,2.63,0,0,1,.46-0.59l-0.14-.22a1.57,1.57,0,0,0-.48.8m1.1,0L15,19.3a1.56,1.56,0,0,1-.42.46l0.13,0.06h0.09a1.57,1.57,0,0,0,.33-0.37M15,20.63a4.46,4.46,0,0,1-1.05,0l0.16,0.18a3.65,3.65,0,0,0,1-.09m0.29,0.33a2.46,2.46,0,0,1-1,.09l0.18,0.18a3.72,3.72,0,0,0,1-.12m0.35,0.3a2.84,2.84,0,0,1-1,.13l0.23,0.16a3.61,3.61,0,0,0,1-.17m0.35,0.21-0.11-.06a1.43,1.43,0,0,1-.84.31l0.2,0.12a0.85,0.85,0,0,0,.75-0.37M15.29,21l0.14,0.12a2.07,2.07,0,0,0,.6-0.57L16,20.46H15.83a1.7,1.7,0,0,1-.54.5m0.64,0.57A1.79,1.79,0,0,0,16.49,21l-0.12-.14a2,2,0,0,1-.59.6m0.6,0.4a1.61,1.61,0,0,0,.56-0.47l-0.14-.12a1.43,1.43,0,0,1-.56.5M16.76,22a1,1,0,0,1-.74.36l0.2,0.07c0.54-.1.74-0.37,0.61-0.38l0,0,0,0a1.37,1.37,0,0,0,.52-0.42l-0.14-.1a1.26,1.26,0,0,1-.54.43m0.5,0.26h0a1,1,0,0,1-.65.35l0.24,0.05c0.3,0,.62-0.33.52-0.36l0,0a1.47,1.47,0,0,0,.51-0.4l-0.12-.07a1.13,1.13,0,0,1-.53.41m0.56,0.19A1.43,1.43,0,0,0,18.09,22L18,22a1.08,1.08,0,0,1-.46.37"/><path class="cls-2" d="M22.29,17.73H21.76l0,0c-1.45,1.27-4.6,2.1-6.63,2.08H14.69c-1.81-.09-4.68-0.64-6.23-1.93l0,0H7.94l0,0a3.54,3.54,0,0,1-.37.29l0.06,0.13A3.37,3.37,0,0,0,8,18v1q0.18,0.29.38,0.57V18h0a5.2,5.2,0,0,0,.58.41v1.64H8.78l0.36,0.39H21l0.36-.38H21.24V18.29a5,5,0,0,0,.56-0.41h0v1.64q0.2-.28.39-0.57V17.87h0l0,0,0.34,0.33,0.06-.13-0.31-.29-0.07-.07h0ZM9.63,20.07H9.11V18.51l0.52,0.28v1.28h0Zm0.66,0H9.77V18.85l0.52,0.22v1h0Zm0.66,0H10.43V19.12L11,19.3v0.77h0Zm0.66,0H11.1V19.34l0.52,0.15v0.58h0Zm0.66,0H11.76V19.53l0.52,0.12v0.42Zm0.66,0H12.43v-0.4L13,19.77v0.3h0Zm4.16,0h-4V19.79a14.22,14.22,0,0,0,2,.18,11,11,0,0,0,2-.19v0.3h0Zm0.66,0H17.26V19.75l0.52-.11v0.43h0Zm0.66,0H17.92V19.61l0.53-.14v0.61h0Zm0.66,0H18.58V19.43l0.52-.16v0.81h0Zm0.66,0H19.25V19.22l0.52-.2v1.05h0Zm0.66,0H19.91V19l0.53-.23v1.35h0Zm0.66,0H20.58V18.66l0.53-.29v1.71h0Z"/><path class="cls-3" d="M15.08,5.76a8.84,8.84,0,1,0,8.84,8.84,8.85,8.85,0,0,0-8.84-8.84h0Zm7.57,12.33-0.06.13q-0.18.37-.39,0.72t-0.39.57q-0.21.29-.45,0.56L21,20.47a8.38,8.38,0,0,1-2.91,1.91,0.91,0.91,0,0,0,.32-0.26l-0.11,0a1.53,1.53,0,0,1-.55.38l0.16,0-0.37.12,0.16-.15-0.13-.05a1,1,0,0,1-.36.3,8.34,8.34,0,0,1-8.08-2.22l-0.36-.39q-0.22-.25-0.41-0.51T8,19q-0.2-.33-0.37-0.67l-0.06-.13A8.25,8.25,0,0,1,7,16.49l0-.13v0a8.34,8.34,0,0,1,.44-4.86,0.75,0.75,0,0,0,0,.35,1.11,1.11,0,0,0-.3.52L7.19,12.4a1.43,1.43,0,0,1,.31-0.56,1.05,1.05,0,0,1,.1-0.68l-0.09,0A8.39,8.39,0,0,1,10,8a1.69,1.69,0,0,0-.14.3l0.12-.08s0.14-.24.28-0.42a8.46,8.46,0,0,1,.84-0.53l-0.23.13a1.82,1.82,0,0,0-.34.63L10.76,8a1.88,1.88,0,0,1,.41-0.76,8.34,8.34,0,0,1,11.27,3.43,0.48,0.48,0,0,1,0,.32,0.81,0.81,0,0,1-.14.46l0.07,0.24a0.86,0.86,0,0,0,.18-0.5,0.26,0.26,0,0,0,0-.24c0.06,0.13.12,0.26,0.18,0.4a0.67,0.67,0,0,1-.1.25,0.63,0.63,0,0,1-.1.42l0.09,0.22a1,1,0,0,0,.15-0.48,0.38,0.38,0,0,0,.06-0.17c0.05,0.13.1,0.26,0.14,0.4a0.47,0.47,0,0,1-.08.24,0.51,0.51,0,0,1-.08.35l0.08,0.22a1.59,1.59,0,0,0,.13-0.4,0.58,0.58,0,0,0,0-.12q0.07,0.24.12,0.48a2.26,2.26,0,0,1-.17.41l0,0.13a1.94,1.94,0,0,0,.2-0.32c0,0.1,0,.2.05,0.3a1,1,0,0,1-.14.3l0,0.1s0.09-.12.15-0.21a8.35,8.35,0,0,1-.08,2.78,8.25,8.25,0,0,1-.61,1.86h0Z"/><path class="cls-3" d="M19.67,13.07H18.86l-0.45,1H17.54l-0.25.51,0.87,0L17.5,16a2.12,2.12,0,0,1-1.69,1.27,0.42,0.42,0,0,1-.41-0.43V16.71h0.09a1.83,1.83,0,0,0,1.39-.59A0.67,0.67,0,0,0,17,15.3a0.89,0.89,0,0,0-1-.18A2,2,0,0,0,14.69,17v0l0,0a0.41,0.41,0,0,1-.28.13,0.19,0.19,0,0,1-.15-0.09,0.57,0.57,0,0,1-.07-0.29c0-.77.85-2.46,1.81-4.21h-1a14.21,14.21,0,0,0-1.48,2.17l-0.41.67c-0.1.15-.13,0.2-0.21,0.17a0.08,0.08,0,0,1-.05-0.08,0.89,0.89,0,0,1,0-.19l0.2-.81a12.84,12.84,0,0,1,.56-1.93H12.65a10.59,10.59,0,0,0-.91,1.83C11,16.1,10.51,17.18,10,17a0.23,0.23,0,0,1-.16-0.15,0.39,0.39,0,0,1,0-.13A1.83,1.83,0,0,1,10.09,16l-0.43.15a2,2,0,0,0-.49,1.17,0.81,0.81,0,0,0,0,.16,0.45,0.45,0,0,0,.27.34,0.83,0.83,0,0,0,.67,0,4.36,4.36,0,0,0,1.66-2.14c0.1-.23.14-0.31,0.23-0.29a0.09,0.09,0,0,1,.07.11,1.07,1.07,0,0,1,0,.16v0.09a9.13,9.13,0,0,1-.59,2h0.71c0.13-.18.32-0.49,0.54-0.85s0.55-.91.81-1.27,0.27-.39.36-0.33,0.06,0.1-.13.48a2,2,0,0,0-.27,1.67,0.55,0.55,0,0,0,.44.33,1,1,0,0,0,.8-0.36l0.07-.09,0.07,0.09a0.91,0.91,0,0,0,.24.22,1.6,1.6,0,0,0,1.73-.4h0L17,17.19l0.05,0,0,0.1,0,0.07a0.61,0.61,0,0,0,.45.4,1,1,0,0,0,.92-0.29l0.05-.05,0.06,0a1.42,1.42,0,0,0,.51.26,1.2,1.2,0,0,0,1.42-.87,1.91,1.91,0,0,0,0-.36,2.16,2.16,0,0,0-.12-0.67,1.48,1.48,0,0,1-.09-0.43A0.67,0.67,0,0,1,20.41,15L20,14.82a10.46,10.46,0,0,0-1.19,1.37C18.12,17,18.11,17,18,17l-0.08-.09A0.65,0.65,0,0,1,18,16.5l0.88-1.87,0-.1,1.67,0,0.21-.5-1.62,0,0.45-1h0ZM15.49,16.2A1.25,1.25,0,0,1,16,15.5a0.37,0.37,0,0,1,.47,0,0.24,0.24,0,0,1,.06.16,0.37,0.37,0,0,1-.09.23,1.27,1.27,0,0,1-.89.41h-0.1l0-.1h0ZM19,16.57l0-.06a5.5,5.5,0,0,1,.5-0.68l0.12-.15,0.14-.16L19.81,16a2.79,2.79,0,0,1,0,.7,0.77,0.77,0,0,1-.29.49,0.5,0.5,0,0,1-.4.08,0.3,0.3,0,0,1-.22-0.21,0.37,0.37,0,0,1,0-.1,0.56,0.56,0,0,1,.15-0.32L19,16.57h0Z"/><path class="cls-2" d="M18.92,17.1a0.3,0.3,0,0,0,.22.21,0.49,0.49,0,0,0,.4-0.08,0.77,0.77,0,0,0,.29-0.49,2.78,2.78,0,0,0,0-.7l-0.05-.51-0.14.16-0.12.15a5.49,5.49,0,0,0-.5.68l0,0.06,0.1,0.11a0.56,0.56,0,0,0-.14.32,0.37,0.37,0,0,0,0,.1h0Zm0.26-.55A5.26,5.26,0,0,1,19.62,16V16a3.2,3.2,0,0,1,0,.42,1.91,1.91,0,0,1,0,.24,0.58,0.58,0,0,1-.21.37,0.31,0.31,0,0,1-.25.05A0.12,0.12,0,0,1,19.1,17a0.16,0.16,0,0,1,0,0,0.42,0.42,0,0,1,.15-0.27l0.06-.06-0.11-.12h0Z"/><path class="cls-2" d="M20,12.89H18.74l-0.45,1H17.43L17,14.75l0.88,0-0.54,1.17a2,2,0,0,1-1.51,1.17,0.22,0.22,0,0,1-.21-0.19A2,2,0,0,0,17,16.22a1,1,0,0,0,.23-0.62,0.68,0.68,0,0,0-.13-0.41,1.06,1.06,0,0,0-1.22-.25,2.15,2.15,0,0,0-1.41,1.89s0,0.08,0,.12a0.21,0.21,0,0,1-.11.06h0c-0.33-.54,1.23-3.39,1.82-4.46l0.07-.13H14.86l0,0a13.89,13.89,0,0,0-1.53,2.23L13.09,15l0.12-.47a11.07,11.07,0,0,1,.6-2l0.07-.13H12.56l0,0a10,10,0,0,0-1,1.9C11.1,15.46,10.44,17,10,16.86a0.06,0.06,0,0,1,0,0,1.69,1.69,0,0,1,.37-1l0.16-.23-1,.35,0,0A2,2,0,0,0,9,17.5a0.63,0.63,0,0,0,.37.47,1,1,0,0,0,.81,0,3.88,3.88,0,0,0,1.61-1.91,7,7,0,0,1-.57,1.75L11.15,18h1.12l0,0c0.14-.18.34-0.52,0.58-0.91l0.5-.81a2.4,2.4,0,0,0-.15.77,1.35,1.35,0,0,0,.11.56,0.73,0.73,0,0,0,.58.44,1.17,1.17,0,0,0,.89-0.36,1.08,1.08,0,0,0,.22.19h0a1.76,1.76,0,0,0,1.91-.4,0.77,0.77,0,0,0,.56.48,1.21,1.21,0,0,0,1-.3,1.46,1.46,0,0,0,.53.26,1.38,1.38,0,0,0,1.63-1,2.1,2.1,0,0,0,0-.4,2.33,2.33,0,0,0-.13-0.73,1.32,1.32,0,0,1-.08-0.37,0.5,0.5,0,0,1,.11-0.31L20.67,15l-0.54-.28h0.63l0.35-.87-1.61,0L20,12.89h0ZM20.83,14l-0.21.5-1.67,0,0,0.1L18,16.5a0.65,0.65,0,0,0-.09.41L18,17c0.09,0,.1,0,0.78-0.81A10.44,10.44,0,0,1,20,14.82L20.41,15a0.67,0.67,0,0,0-.09.32,1.48,1.48,0,0,0,.09.43,2.17,2.17,0,0,1,.12.67,1.9,1.9,0,0,1,0,.36,1.2,1.2,0,0,1-1.42.87,1.43,1.43,0,0,1-.51-0.26l-0.06,0-0.05.05a1,1,0,0,1-.92.29,0.61,0.61,0,0,1-.45-0.4l0-.07,0-.1-0.05,0-0.11.06h0a1.6,1.6,0,0,1-1.73.4,0.91,0.91,0,0,1-.24-0.22l-0.07-.09-0.07.09a1,1,0,0,1-.8.36,0.55,0.55,0,0,1-.44-0.33,2,2,0,0,1,.27-1.67c0.19-.38.21-0.42,0.13-0.48s-0.12,0-.36.33-0.55.85-.81,1.27-0.41.68-.54,0.86H11.46a9.14,9.14,0,0,0,.59-2V15.65a1.07,1.07,0,0,0,0-.16A0.09,0.09,0,0,0,12,15.39c-0.09,0-.13.06-0.23,0.29a4.35,4.35,0,0,1-1.66,2.13,0.83,0.83,0,0,1-.67,0,0.45,0.45,0,0,1-.27-0.34,0.81,0.81,0,0,1,0-.16,2,2,0,0,1,.49-1.17L10.09,16a1.83,1.83,0,0,0-.28.77,0.39,0.39,0,0,0,0,.13A0.23,0.23,0,0,0,10,17c0.51,0.15,1-.94,1.75-2.61a10.59,10.59,0,0,1,.91-1.83h0.94A12.84,12.84,0,0,0,13,14.52l-0.2.81a0.89,0.89,0,0,0,0,.19,0.08,0.08,0,0,0,.06.08c0.08,0,.11,0,0.21-0.17l0.41-.67a14.2,14.2,0,0,1,1.48-2.17h1c-1,1.76-1.81,3.44-1.81,4.21a0.57,0.57,0,0,0,.07.29,0.19,0.19,0,0,0,.15.09,0.41,0.41,0,0,0,.28-0.13l0,0v0A2,2,0,0,1,16,15.11a0.89,0.89,0,0,1,1,.18,0.67,0.67,0,0,1-.1.81,1.83,1.83,0,0,1-1.39.59H15.39V16.8a0.42,0.42,0,0,0,.41.43A2.12,2.12,0,0,0,17.5,16l0.66-1.44-0.87,0L17.54,14h0.87l0.45-1h0.81l-0.45,1,1.62,0h0Zm-1,.69a9.71,9.71,0,0,0-1.19,1.38l-0.51.63a1,1,0,0,1,.05-0.12l0.88-1.88h0.76Z"/><path class="cls-2" d="M16.46,15.9a0.37,0.37,0,0,0,.09-0.23,0.24,0.24,0,0,0-.06-0.16,0.37,0.37,0,0,0-.47,0,1.25,1.25,0,0,0-.54.7l0,0.1h0.1a1.27,1.27,0,0,0,.89-0.41h0Zm-0.34-.25a0.21,0.21,0,0,1,.24,0,0.06,0.06,0,0,1,0,0,0.2,0.2,0,0,1-.05.11,1.1,1.1,0,0,1-.61.32,1.12,1.12,0,0,1,.41-0.46h0Z"/><path class="cls-4" d="M22.91,14.48h0l-0.11-.29H22.65v0.45h0.09V14.28h0l0.12,0.36H23l0.13-.36h0v0.36h0.09V14.19H23m-0.82.08h0.14v0.37h0.09V14.27h0.14V14.19H22.2"/></svg>