<svg id="Layer_1" data-name="Layer 1" xmlns="http://www.w3.org/2000/svg" viewBox="0 0 30 30"><defs><style>.cls-1{fill:#e8e8e8;}.cls-2{fill:#fff;}.cls-3{fill:#003831;}.cls-4{fill:#efb21e;}</style></defs><title>oakland-athletics</title><circle class="cls-1" cx="15" cy="15" r="15"/><path class="cls-2" d="M15.08,23.85A9.25,9.25,0,1,0,5.83,14.6a9.25,9.25,0,0,0,9.25,9.25"/><path class="cls-3" d="M15.08,6a8.63,8.63,0,1,0,8.63,8.63A8.64,8.64,0,0,0,15.08,6h0Zm0,13.91a5.28,5.28,0,1,1,5.28-5.28,5.29,5.29,0,0,1-5.28,5.28h0Z"/><path class="cls-4" d="M15.08,5.71A8.89,8.89,0,1,0,24,14.6a8.9,8.9,0,0,0-8.89-8.89h0Zm0,17.52a8.63,8.63,0,1,1,8.63-8.63,8.64,8.64,0,0,1-8.63,8.63h0Z"/><path class="cls-2" d="M15.08,9.57a5,5,0,1,0,5,5,5,5,0,0,0-5-5"/><path class="cls-4" d="M15.08,9.32a5.28,5.28,0,1,0,5.28,5.28,5.29,5.29,0,0,0-5.28-5.28h0Zm0,10.32a5,5,0,1,1,5-5,5,5,0,0,1-5,5h0Z"/><path class="cls-3" d="M17.9,16.6a0.61,0.61,0,0,1-.46.14,0.52,0.52,0,0,1-.39-0.42l-1-4.24a1.34,1.34,0,0,0-.57-0.94A1.2,1.2,0,0,0,14.54,11a0.88,0.88,0,0,0-.71.55,0.55,0.55,0,0,1,.54,0,0.37,0.37,0,0,1,.15.52l-0.18.48-0.1,0a0.76,0.76,0,0,0-.34,0,0.58,0.58,0,0,0-.41.23,0.46,0.46,0,0,0-.07.23,0.43,0.43,0,0,1,.45,0,0.3,0.3,0,0,1,.16.28,0.67,0.67,0,0,1,0,.17L12.93,17l-0.05,0a1,1,0,0,0-.74.69A2,2,0,0,1,13,17.48a1.69,1.69,0,0,1,.53.08,1.79,1.79,0,0,0,.42.07,0.43,0.43,0,0,0,.32-0.12,0.41,0.41,0,0,0,.1-0.27L14,17.09a0.28,0.28,0,0,1-.09.09,0.36,0.36,0,0,1-.32,0l-0.09,0L14,15.65h1.66l0.28,1.11a1,1,0,0,0,1.17.88,1.17,1.17,0,0,0,.81-1h0ZM14.17,15L14.77,13l0.12-.41L15.46,15H14.17Z"/><path class="cls-4" d="M14.77,13L14.17,15h1.29l-0.57-2.5L14.77,13h0Zm-0.31,1.87,0.4-1.39,0.32,1.39H14.46Z"/><path class="cls-4" d="M17.94,16.27a0.57,0.57,0,0,1-.45.26,0.32,0.32,0,0,1-.21-0.26l-1-4.22A1.57,1.57,0,0,0,15.59,11a1.42,1.42,0,0,0-1.1-.22,1,1,0,0,0-.92,1l0,0.28,0.16-.23a0.33,0.33,0,0,1,.46-0.13,0.16,0.16,0,0,1,.11.14,0.37,0.37,0,0,1,0,.13l-0.11.3a1,1,0,0,0-.34,0,0.79,0.79,0,0,0-.57.33,0.8,0.8,0,0,0-.08.6l0.06,0.2,0.13-.16a0.24,0.24,0,0,1,.34-0.09c0.05,0,.08.05,0,0.2l-1.05,3.52a1.09,1.09,0,0,0-.85,1,0.64,0.64,0,0,0,0,.1l0,0.18L12.08,18A1.79,1.79,0,0,1,13,17.7a1.56,1.56,0,0,1,.46.07,1.86,1.86,0,0,0,.48.08,0.6,0.6,0,0,0,.63-0.68V17.11l-0.63-.35,0,0.15a0.1,0.1,0,0,1,0,.07h0l0.32-1.12h1.33l0.24,0.94a1.24,1.24,0,0,0,1.43,1,1.53,1.53,0,0,0,1.05-1.56V16.17H18.07a0.17,0.17,0,0,0-.13.1h0Zm-2,.48-0.28-1.11H14l-0.43,1.49,0.09,0a0.36,0.36,0,0,0,.32,0A0.28,0.28,0,0,0,14,17.09l0.28,0.15a0.41,0.41,0,0,1-.1.27,0.43,0.43,0,0,1-.32.12,1.79,1.79,0,0,1-.42-0.07A1.69,1.69,0,0,0,13,17.48a2,2,0,0,0-.82.26,1,1,0,0,1,.74-0.69l0.05,0L14,13.4a0.67,0.67,0,0,0,0-.17A0.31,0.31,0,0,0,13.88,13a0.43,0.43,0,0,0-.45,0,0.46,0.46,0,0,1,.07-0.23,0.58,0.58,0,0,1,.41-0.23,0.76,0.76,0,0,1,.34,0l0.1,0L14.52,12a0.37,0.37,0,0,0-.15-0.52,0.55,0.55,0,0,0-.54,0A0.88,0.88,0,0,1,14.54,11a1.2,1.2,0,0,1,.92.19,1.34,1.34,0,0,1,.57.94l1,4.24a0.52,0.52,0,0,0,.39.42,0.61,0.61,0,0,0,.46-0.14,1.17,1.17,0,0,1-.81,1,1,1,0,0,1-1.17-.88h0Z"/><path class="cls-3" d="M18.34,13.44l-0.13,0a0.33,0.33,0,0,1-.28-0.27,0.28,0.28,0,0,1,.3-0.25,0.6,0.6,0,0,1,.3.1l0.12-.23a1.24,1.24,0,0,0-.5-0.12,0.55,0.55,0,0,0-.59.57c0,0.31.14,0.38,0.49,0.48a0.39,0.39,0,0,1,.35.3,0.3,0.3,0,0,1-.33.28,0.73,0.73,0,0,1-.42-0.17l-0.13.25a1.12,1.12,0,0,0,.57.18,0.77,0.77,0,0,0,.5-0.16,0.58,0.58,0,0,0,.17-0.46,0.46,0.46,0,0,0-.42-0.45"/><path class="cls-4" d="M18.39,13.28l-0.13,0a0.22,0.22,0,0,1-.17-0.11,0.13,0.13,0,0,1,.13-0.08,0.45,0.45,0,0,1,.28.11l0.08,0.07,0.29-.56-0.07,0a1.43,1.43,0,0,0-.66-0.17,0.72,0.72,0,0,0-.76.74,0.62,0.62,0,0,0,.59.64,0.32,0.32,0,0,1,.25.14c0,0.11-.15.11-0.16,0.11a0.61,0.61,0,0,1-.4-0.18l-0.08-.07-0.3.57,0.06,0a1.3,1.3,0,0,0,.74.24,0.94,0.94,0,0,0,.61-0.2,0.74,0.74,0,0,0,.23-0.59,0.63,0.63,0,0,0-.54-0.62h0Zm0.2,1.08a0.77,0.77,0,0,1-.5.16,1.12,1.12,0,0,1-.57-0.18l0.13-.25a0.73,0.73,0,0,0,.42.17A0.3,0.3,0,0,0,18.4,14a0.39,0.39,0,0,0-.35-0.3c-0.35-.1-0.49-0.17-0.49-0.48a0.55,0.55,0,0,1,.59-0.57,1.24,1.24,0,0,1,.5.12L18.53,13a0.6,0.6,0,0,0-.3-0.1,0.28,0.28,0,0,0-.3.25,0.33,0.33,0,0,0,.28.27l0.13,0a0.46,0.46,0,0,1,.42.45,0.58,0.58,0,0,1-.17.46h0Z"/><path class="cls-3" d="M16.89,12.72a0.18,0.18,0,0,1,.17.05,0.14,0.14,0,0,1,0,.08,0.31,0.31,0,0,1,0,.11,0.52,0.52,0,0,1-.08.15l0.09-.06a0.45,0.45,0,0,0,.15-0.33,0.46,0.46,0,0,0,0-.18A0.2,0.2,0,0,0,17,12.44a0.22,0.22,0,0,0-.19.05,0.17,0.17,0,0,0,0,.18,0.08,0.08,0,0,0,.09,0"/><path class="cls-4" d="M16.89,12.89h0v0a0.2,0.2,0,0,1-.12.15l-0.09,0,0,0.09,0.11,0.16h0.06a0.93,0.93,0,0,0,.28-0.15,0.61,0.61,0,0,0,.16-0.7A0.36,0.36,0,0,0,17,12.27a0.38,0.38,0,0,0-.34.11,0.34,0.34,0,0,0-.06.37,0.25,0.25,0,0,0,.24.14h0Zm-0.06-.4A0.22,0.22,0,0,1,17,12.44a0.2,0.2,0,0,1,.15.11,0.46,0.46,0,0,1,0,.18,0.45,0.45,0,0,1-.15.33L17,13.11A0.52,0.52,0,0,0,17.06,13a0.31,0.31,0,0,0,0-.11,0.13,0.13,0,0,0,0-.08,0.18,0.18,0,0,0-.17-0.05,0.08,0.08,0,0,1-.09,0,0.17,0.17,0,0,1,0-.18h0Z"/><path class="cls-2" d="M10.4,18.26L9.15,19.77,8.9,19.42l0.21-.25-0.24-.34L8.56,19l-0.24-.33,1.82-.71,0.25,0.35h0Zm-0.73.3,0.2-.21h0l-0.26.13-0.46.22,0.17,0.24,0.35-.38h0Zm2,0.9-0.23.27-0.25-.21-1,1.17-0.31-.27,1-1.17L10.6,19l0.23-.27m1.59,1.13-0.31.67,0.38,0.17,0.31-.67,0.37,0.17L12.39,22,12,21.81l0.33-.73L12,20.91l-0.33.73-0.37-.17L12,19.74m2.24,2.66,0.06-.34h0L13.92,22l0.25-1.52h0l-0.41-.07h0l-0.3,1.86,0.83,0.14h0Zm0.06-.34h0ZM13.92,22h0Zm1.88-1.48,0,0.35-0.42,0,0,0.41,0.37,0,0,0.35-0.37,0,0,0.43,0.42,0,0,0.35-0.83,0L15,20.55m2.32-.42,0.1,0.34-0.31.09L17.52,22l-0.39.12-0.45-1.48-0.31.09-0.1-.34m1.85-.75L19,21.34l-0.36.2-0.92-1.65"/><path class="cls-2" d="M18.12,19.68l-0.36.2,0.92,1.66,0.36-.2-0.92-1.66h0m1.51-.74L19.5,19a0.53,0.53,0,0,0,0,.79,0.57,0.57,0,0,0,.8.13,0.58,0.58,0,0,0,.1-0.13l0.23,0.27a0.54,0.54,0,0,1-.12.15,1,1,0,0,1-1.3-1.44,0.66,0.66,0,0,1,.18-0.11m1.1-.8a0.49,0.49,0,0,0-.27.18,0.18,0.18,0,0,0,0,.28c0.26,0.18.63-.33,1,0a0.56,0.56,0,0,1,.15.83,0.69,0.69,0,0,1-.28.24l-0.29-.2a0.56,0.56,0,0,0,.26-0.2,0.22,0.22,0,0,0,0-.31,0.36,0.36,0,0,0-.37,0,0.62,0.62,0,0,1-.68,0,0.52,0.52,0,0,1-.15-0.76,0.76,0.76,0,0,1,.28-0.25m-10-8a0.76,0.76,0,1,1-.93,1.13A0.76,0.76,0,1,1,10.2,9.7h0Zm0,1C10.4,10.45,10,10.13,9.93,10s-0.5-.38-0.67-0.17,0.17,0.52.3,0.63,0.5,0.38.67,0.17h0ZM10.86,8l1.47,1.29L12,9.56l-0.24-.22-0.35.23,0.12,0.31-0.34.23L10.5,8.26,10.86,8h0Zm0.28,0.74-0.2-.21h0l0.12,0.26,0.21,0.47,0.24-.16-0.37-.36h0Zm1.51-1.59L12.9,8h0L13,7.08,13.38,7l-0.11.95L14,8.75l-0.41.13-0.64-.81h0L13.2,9l-0.39.12L12.26,7.3m2.64-.5,0,1.54h0.43V8.68l-0.84,0,0-1.89m2.68,0.27,0,2-0.43-.11V8.61l-0.4-.1-0.15.29-0.4-.1L16.75,7l0.42,0.11h0Zm-0.37.71,0-.29h0l-0.11.27-0.21.47L16.78,8.3l0-.52h0ZM19,7.86L18.83,9.1h0A1.06,1.06,0,0,1,19,8.84l0.45-.72,0.35,0.22-1,1.61-0.33-.21L18.6,8.49h0l-0.08.17,0,0.07L18,9.47l-0.35-.22,1-1.61m0.57,2.71,1.45-1.22,0.2,0.24a0.83,0.83,0,0,1-.14,1.33,0.81,0.81,0,0,1-1.28-.07l-0.24-.28h0Zm1.25,0a0.53,0.53,0,0,0,.21-0.72l-0.94.78a0.51,0.51,0,0,0,.73-0.06h0Z"/><path class="cls-3" d="M22.15,21.93H22v0.49H21.85V21.93H21.66V21.83h0.48v0.11h0ZM23,22.43H22.85V21.95h0l-0.17.48H22.55l-0.17-.48h0v0.48H22.26v-0.6h0.21l0.14,0.39h0l0.15-.39H23v0.6h0Z"/></svg>