<svg id="Layer_1" data-name="Layer 1" xmlns="http://www.w3.org/2000/svg" viewBox="0 0 30 30"><defs><style>.cls-1{fill:#e8e8e8;}.cls-2{fill:#fff;}.cls-3{fill:#e81828;}.cls-4{fill:#284898;}</style></defs><title>philadelphia-phillies</title><circle class="cls-1" cx="15" cy="15" r="15"/><path class="cls-2" d="M15.09,5.08A10.28,10.28,0,0,0,4.87,13.89h0L15.09,24.12,25.3,13.92A10.33,10.33,0,0,0,15.09,5.08"/><path class="cls-3" d="M15.09,5.57a9.65,9.65,0,0,1,9.53,8.22l-9.53,9.53L5.56,13.79a9.59,9.59,0,0,1,9.54-8.22"/><path class="cls-2" d="M15.09,6.46A8.69,8.69,0,0,0,6.55,13.6v0.06l8.55,8.52,8.51-8.52V13.6a8.64,8.64,0,0,0-8.5-7.15h0"/><path class="cls-4" d="M15.09,6.68a8.42,8.42,0,0,1,8.27,6.91l-8.27,8.28L6.78,13.58a8.47,8.47,0,0,1,8.31-6.91"/><path class="cls-2" d="M21.9,12.26H21.72v0.49H21.6V12.26H21.42V12.15H21.9v0.11h0Zm0.82,0.49H22.59V12.27h0l-0.17.47H22.3l-0.17-.47h0v0.47H22v-0.6h0.21l0.14,0.39h0l0.14-.39h0.21v0.6h0Zm-12.53-2H10.1v1.18l0.11,0a0.63,0.63,0,0,0,.59-0.68,0.5,0.5,0,0,0-.61-0.49m9,2.22s0,0,0,0l0-.06a0.23,0.23,0,0,0-.17,0,0.48,0.48,0,0,0-.3.22h0a0.64,0.64,0,0,0-.17.42,0.06,0.06,0,0,0,0,0l0.07,0a0.7,0.7,0,0,0,.42-0.24,0.61,0.61,0,0,0,.14-0.37"/><path class="cls-2" d="M20.79,12.44l-0.08-.06-0.15-.26-0.66.47v0.11s0,0.07,0,.11a1.12,1.12,0,0,1-.18.65A1,1,0,0,0,19.85,13a0.77,0.77,0,0,0,0-.27,0.88,0.88,0,0,0-1-.53,1.08,1.08,0,0,0-.76.57l-0.17-.7,0.36-.36h0.93V10.37H18.9V8.32L18.6,7.81h-1l-0.73.27H13.3l-0.71-.27h-1l-0.31.51s0,2,0,2.07h0a1.41,1.41,0,0,0-.44-0.31,2.34,2.34,0,0,0-2.43.36,1.38,1.38,0,0,0-.48,1.17,0.68,0.68,0,0,0,1,.51,0.7,0.7,0,0,0,.21-0.17v1.59a1.15,1.15,0,0,0-.32.7,0.61,0.61,0,0,0,0,.19,0.54,0.54,0,0,0,.44.36,0.87,0.87,0,0,0,.7-0.2,0.83,0.83,0,0,0,.3-0.64V12.7a2.45,2.45,0,0,0,1-.65v2.21a0.41,0.41,0,0,0,0,0,0.44,0.44,0,0,0,.19.37,0.57,0.57,0,0,0,.58,0,0.46,0.46,0,0,0,.24-0.42V13.21h0v1a0.56,0.56,0,0,0,.4.54V14.8H9.47a0.43,0.43,0,0,0-.4.43v0a0.43,0.43,0,0,0,.42.42h2.92a3.91,3.91,0,0,1-.77,1,1,1,0,0,0-.43.85s0,0.07,0,.11v0h3.39a1.53,1.53,0,0,0,0-.35l0-.25a0.29,0.29,0,0,0-.08-0.21,0.54,0.54,0,0,1-.11-0.23l-0.05-.07-0.07-.14a0.19,0.19,0,0,0-.05-0.13l-0.08-.16a0.45,0.45,0,0,1,0-.25,0.33,0.33,0,0,0,0-.19h0.12a0.42,0.42,0,0,1,0,.06,0.47,0.47,0,0,1,0,.17,0.38,0.38,0,0,0,0,.14,0.3,0.3,0,0,0,0,.05l0.06,0.12a0.32,0.32,0,0,1,.08.19v0l0,0,0.08,0.14a0.42,0.42,0,0,0,.09.18,0.41,0.41,0,0,1,.1.29l0,0.22a1.59,1.59,0,0,1,0,.37h0v0.16a0.62,0.62,0,0,0-.24.42v0a0.69,0.69,0,0,0,.25.49v0.4h0.76V18.76a0.64,0.64,0,0,0,.24-0.47s0,0,0,0a0.62,0.62,0,0,0-.24-0.42V17.67H19v0s0-.08,0-0.11a1,1,0,0,0-.43-0.85,3.89,3.89,0,0,1-.77-1h2a0.75,0.75,0,0,0,.64.32A0.65,0.65,0,0,0,21,15.61v0A0.61,0.61,0,0,0,20.88,15a0.72,0.72,0,0,0-.57-0.23h-1a1.18,1.18,0,0,0,.27-0.07A1.42,1.42,0,0,0,20,14.44,0.94,0.94,0,0,0,21.71,14a1.39,1.39,0,0,0,0-.19,1.7,1.7,0,0,0-.94-1.32h0ZM18,12.9a2,2,0,0,0-.14.49V13a0.73,0.73,0,0,0-.07-0.27L18,12.9h0Zm0-1.16S17.71,12,17.7,12l0.15,0.49h0s-0.36-.28-0.36-0.3l-0.38.3h0S17.2,12,17.21,12l-0.35-.31h0.4l0.18-.51h0s0.16,0.47.16,0.49H18a0,0,0,0,1,0,0h0Zm-1.85-1.4h1.12l0.1,0.48-0.26.65a1.14,1.14,0,0,0-1-.87V10.33h0Zm-1.8,1.37h0.08a0,0,0,0,1,0,0l-0.07.06L14.12,12l0.15,0.49h0s-0.36-.28-0.36-0.3l-0.38.3h0s0.15-.47.15-0.47l-0.35-.31h0.4l0.18-.51h0s0.16,0.47.16,0.5h0.34Zm-1.77,0,0.28-1.37H14v0.26a1.26,1.26,0,0,0-1,1.26v0.41l-0.11-.07a0.75,0.75,0,0,0-.54,0V11.7h0.3Zm-1.32,0a1.93,1.93,0,0,1-1.22.84v1.37a0.64,0.64,0,0,1-.24.5,0.72,0.72,0,0,1-.57.17A0.33,0.33,0,0,1,9,14.37a0.4,0.4,0,0,1,0-.13,1,1,0,0,1,.35-0.67V10.87a0.61,0.61,0,0,0-.37.42,0.13,0.13,0,0,0,0,0,0.14,0.14,0,0,0,.16.08h0v0a0.8,0.8,0,0,1-.32.53,0.48,0.48,0,0,1-.44,0,0.48,0.48,0,0,1-.27-0.37,1.21,1.21,0,0,1,.43-1,2.18,2.18,0,0,1,2.23-.33,1.37,1.37,0,0,1,.24.15,1,1,0,0,1,.37.53,1.07,1.07,0,0,1,0,.35,1.24,1.24,0,0,1-.12.47h0Zm6.2,3.06,0.14,0H17.51v0h0ZM20.31,15a0.41,0.41,0,0,1,.47.54,0.5,0.5,0,0,1-.91-0.05H9.5a0.24,0.24,0,0,1,0-.48H20.31Zm-2.57-.2a1.07,1.07,0,0,0,.47-0.13,0.73,0.73,0,0,0,.11-0.08,2,2,0,0,0,.64.21H17.74Zm3.79-.86a0.76,0.76,0,0,1-1.39.34,1,1,0,0,1,.34-0.38,0.37,0.37,0,0,0,.37.16A0.28,0.28,0,0,0,21,13.79a0.54,0.54,0,0,0,0-.06,0.59,0.59,0,0,0-.43-0.52,2.14,2.14,0,0,1-1,1.35,1.4,1.4,0,0,1-1.26-.19,0.36,0.36,0,0,1-.16.14,0.8,0.8,0,0,1-1-.14,1,1,0,0,1-1.34,0,1.11,1.11,0,0,1-.71.29,0.69,0.69,0,0,1-.48-0.23,0.81,0.81,0,0,1-.53.24,0.71,0.71,0,0,1-.51-0.23,0.76,0.76,0,0,1-.73.19,0.38,0.38,0,0,1-.31-0.39v-1A0.18,0.18,0,0,0,12.3,13a0.17,0.17,0,0,0-.16.16v1.08a0.29,0.29,0,0,1-.15.28,0.39,0.39,0,0,1-.39,0,0.27,0.27,0,0,1-.11-0.27v-3a0.33,0.33,0,0,1,.15-0.33,0.36,0.36,0,0,1,.37,0,0.32,0.32,0,0,1,.14.29,0.41,0.41,0,0,1,0,.06v1.2a0.75,0.75,0,0,1,.64-0.08,0.7,0.7,0,0,1,.33.6v0.86a0.22,0.22,0,0,0,.24.18,0.19,0.19,0,0,0,.21-0.18V13a0.35,0.35,0,0,1,.15-0.34,0.27,0.27,0,0,1,.28,0,0.36,0.36,0,0,1,.16.34v0.75a0.21,0.21,0,0,0,.09.2,0.22,0.22,0,0,0,.22,0,0.24,0.24,0,0,0,.11-0.22v-2a0.72,0.72,0,0,1,.14-0.54,0.46,0.46,0,0,1,.35-0.13,0.45,0.45,0,0,1,.41.2,0.94,0.94,0,0,1,.13.52,3.93,3.93,0,0,1-.4,1.5,1.58,1.58,0,0,0,0,.29,0.48,0.48,0,0,0,.06.26v0a0.32,0.32,0,0,0,.31.08,0.42,0.42,0,0,0,.23-0.37V11.71a0.64,0.64,0,0,1,.12-0.5,0.55,0.55,0,0,1,.42-0.13,0.43,0.43,0,0,1,.35.24,0.91,0.91,0,0,1,.08.2,1.45,1.45,0,0,1,0,.41,3.1,3.1,0,0,1-.39,1.37,0.61,0.61,0,0,0,.09.65,0.35,0.35,0,0,0,.35.06,0.39,0.39,0,0,0,.25-0.32V13a0.32,0.32,0,0,1,.29-0.34,0.3,0.3,0,0,1,.31.34v0.87a0.17,0.17,0,0,0,.19.12A0.26,0.26,0,0,0,18,13.67a1.17,1.17,0,0,1,.86-1.3,0.7,0.7,0,0,1,.76.41A1.08,1.08,0,0,1,19,14a0,0,0,0,0,0,0,0.64,0.64,0,0,0,.52-0.08,1.19,1.19,0,0,0,.6-1.22l0.41-.29v0l0.06,0.1,0.12,0.08a1.53,1.53,0,0,1,.86,1.18,1.32,1.32,0,0,1,0,.17h0Z"/><path class="cls-2" d="M15.08,11.53a0.07,0.07,0,0,0-.07,0h0v1.19h0A0.94,0.94,0,0,0,15.21,12a0.68,0.68,0,0,0-.13-0.43m1.21,0a0.07,0.07,0,0,0-.07,0h0v1.19h0A1,1,0,0,0,16.41,12a0.68,0.68,0,0,0-.13-0.43"/><path class="cls-3" d="M9.5,15.48H19.87a0.5,0.5,0,0,0,.91.05A0.41,0.41,0,0,0,20.31,15H9.49a0.24,0.24,0,0,0,0,.48M11,10.37a1.37,1.37,0,0,0-.24-0.15,2.18,2.18,0,0,0-2.23.33,1.21,1.21,0,0,0-.43,1,0.48,0.48,0,0,0,.27.37,0.48,0.48,0,0,0,.44,0,0.8,0.8,0,0,0,.32-0.53v0h0A0.14,0.14,0,0,1,9,11.31v0a0.61,0.61,0,0,1,.37-0.42v2.71a1,1,0,0,0-.35.67,0.41,0.41,0,0,0,0,.13,0.33,0.33,0,0,0,.28.22,0.72,0.72,0,0,0,.57-0.17,0.64,0.64,0,0,0,.24-0.5V12.56a1.93,1.93,0,0,0,1.22-.84,1.23,1.23,0,0,0,.12-0.47,1.07,1.07,0,0,0,0-.35A1,1,0,0,0,11,10.37h0Zm-0.8,1.52-0.11,0V10.73h0.08a0.51,0.51,0,0,1,.61.49,0.63,0.63,0,0,1-.59.68h0Zm10.47,0.7-0.12-.08-0.06-.1v0l-0.41.29a1.19,1.19,0,0,1-.6,1.22A0.64,0.64,0,0,1,19,14a0,0,0,0,1,0,0,1.08,1.08,0,0,0,.68-1.17,0.7,0.7,0,0,0-.76-0.41,1.17,1.17,0,0,0-.86,1.3,0.26,0.26,0,0,1-.13.31,0.17,0.17,0,0,1-.19-0.12V13a0.3,0.3,0,0,0-.31-0.34,0.32,0.32,0,0,0-.29.34v0.69a0.39,0.39,0,0,1-.25.32,0.35,0.35,0,0,1-.35-0.06,0.61,0.61,0,0,1-.09-0.65,3.1,3.1,0,0,0,.39-1.37,1.45,1.45,0,0,0,0-.41,0.92,0.92,0,0,0-.08-0.21,0.43,0.43,0,0,0-.35-0.24,0.54,0.54,0,0,0-.42.13,0.64,0.64,0,0,0-.12.5v1.89a0.42,0.42,0,0,1-.23.37,0.32,0.32,0,0,1-.31-0.08v0a0.48,0.48,0,0,1-.06-0.26,1.57,1.57,0,0,1,0-.29,3.93,3.93,0,0,0,.4-1.5,0.94,0.94,0,0,0-.13-0.52,0.45,0.45,0,0,0-.41-0.2,0.46,0.46,0,0,0-.35.13,0.72,0.72,0,0,0-.14.54v2a0.24,0.24,0,0,1-.11.22,0.22,0.22,0,0,1-.22,0,0.21,0.21,0,0,1-.09-0.2V13A0.36,0.36,0,0,0,14,12.67a0.27,0.27,0,0,0-.28,0,0.35,0.35,0,0,0-.15.34v0.8a0.19,0.19,0,0,1-.21.18,0.22,0.22,0,0,1-.24-0.18V13a0.7,0.7,0,0,0-.33-0.6,0.75,0.75,0,0,0-.64.08v-1.2a0.43,0.43,0,0,0,0-.06A0.32,0.32,0,0,0,12,10.89a0.36,0.36,0,0,0-.37,0,0.33,0.33,0,0,0-.15.33v3a0.27,0.27,0,0,0,.11.27,0.39,0.39,0,0,0,.39,0,0.29,0.29,0,0,0,.15-0.28V13.19A0.17,0.17,0,0,1,12.3,13a0.18,0.18,0,0,1,.22.16v1a0.38,0.38,0,0,0,.31.39,0.76,0.76,0,0,0,.73-0.19,0.71,0.71,0,0,0,.51.23,0.81,0.81,0,0,0,.53-0.24,0.69,0.69,0,0,0,.48.23,1.11,1.11,0,0,0,.71-0.29,1,1,0,0,0,1.34,0,0.8,0.8,0,0,0,1,.14,0.36,0.36,0,0,0,.16-0.14,1.4,1.4,0,0,0,1.26.19,2.14,2.14,0,0,0,1-1.35,0.59,0.59,0,0,1,.43.52,0.57,0.57,0,0,1,0,.06,0.28,0.28,0,0,1-.12.26,0.37,0.37,0,0,1-.37-0.16,1,1,0,0,0-.34.38,0.76,0.76,0,0,0,1.39-.34,1.27,1.27,0,0,0,0-.17,1.53,1.53,0,0,0-.86-1.18h0ZM15,12.72h0V11.53h0a0.07,0.07,0,0,1,.07,0,0.68,0.68,0,0,1,.13.43,0.94,0.94,0,0,1-.19.75h0Zm1.21,0h0V11.53h0a0.07,0.07,0,0,1,.07,0,0.68,0.68,0,0,1,.13.43,1,1,0,0,1-.19.75h0Zm2.34,0.81a0.06,0.06,0,0,1,0,0,0.64,0.64,0,0,1,.17-0.42h0a0.48,0.48,0,0,1,.3-0.22,0.23,0.23,0,0,1,.17,0l0,0.06s0,0,0,0a0.61,0.61,0,0,1-.14.37,0.7,0.7,0,0,1-.42.24l-0.07,0h0Z"/><path class="cls-4" d="M13.89,11.21h0l-0.18.51h-0.4L13.63,12s-0.15.47-.15,0.47h0l0.38-.3s0.36,0.3.36,0.3h0L14.12,12l0.27-.23,0.07-.06a0,0,0,0,0,0,0H14.05s-0.16-.49-0.16-0.49m3.74,0.5h0s-0.16-.49-0.16-0.49h0l-0.18.51h-0.4L17.21,12s-0.16.47-.16,0.47h0l0.38-.3s0.36,0.3.36,0.3h0L17.7,12s0.34-.29.34-0.29a0,0,0,0,0,0,0H17.63"/></svg>