<svg id="Layer_1" data-name="Layer 1" xmlns="http://www.w3.org/2000/svg" viewBox="0 0 30 30"><defs><style>.cls-1{fill:#e8e8e8;}.cls-2{fill:#fdb829;}</style></defs><title>pittsburgh-pirates</title><circle class="cls-1" cx="15" cy="15" r="15"/><path class="cls-1" d="M11.54,7.35h6.27a1.7,1.7,0,0,1,.93.32,1.36,1.36,0,0,1,.53,1.08v3.32a2.6,2.6,0,0,1-.08.88,1,1,0,0,1-.55.62,2.1,2.1,0,0,1-.86.18H11.54q0-2.59,0-5.18c0-.41,0-0.82,0-1.23h0Z"/><path class="cls-2" d="M20.73,12.11a6.21,6.21,0,0,1,0-1,5.23,5.23,0,0,1,.69-2.38,3.72,3.72,0,0,1-.86-0.34A4.89,4.89,0,0,1,18.48,6a0.68,0.68,0,0,1-.07-0.2,0.42,0.42,0,0,1-.07-0.21h0v0a2.22,2.22,0,0,0-.19.16,2.36,2.36,0,0,1-.67.39,3.63,3.63,0,0,1-1.23.19H9.93c-0.12,0-.25,0-0.37,0L8.68,8.58a1.47,1.47,0,0,1,.85,1,0.72,0.72,0,0,0,.05.2q0,5.22,0,10.43a0.15,0.15,0,0,0,0,.09,1.43,1.43,0,0,1-.57,1,2.51,2.51,0,0,1-.3.18c0.3,0.71.59,1.42,0.89,2.13h2.51c0.29-.71.59-1.43,0.88-2.14a1.44,1.44,0,0,1-.89-1.32q0-2,0-4h3.45a8.69,8.69,0,0,1,1.21,0,2.6,2.6,0,0,1,1,.34,3.88,3.88,0,0,1,.61.47,3.29,3.29,0,0,1,.7-1.19,4.91,4.91,0,0,1,2.45-1.39v0A5.47,5.47,0,0,1,20.73,12.11Zm-2.15.37a2.19,2.19,0,0,1-.07.74,0.86,0.86,0,0,1-.46.52,1.76,1.76,0,0,1-.72.15H12.08q0-2.17,0-4.35c0-.34,0-0.69,0-1h5.27a1.43,1.43,0,0,1,.78.27,1.14,1.14,0,0,1,.45.91v2.79Z"/><path class="cls-2" d="M13.48,22.84h0.24l0.14,0.4h0L14,22.85h0.24c0,0.22,0,.45,0,0.67H14.13q0-.22,0-0.43h0c-0.05.14-.1,0.29-0.16,0.43H13.8c-0.06-.16-0.11-0.33-0.18-0.49v0.49H13.48c0-.22,0-0.45,0-0.67h0Zm-0.67,0h0.55s0,0.08,0,.12h-0.2c0,0.18,0,.36,0,0.54H13c0-.18,0-0.36,0-0.54h-0.2s0-.08,0-0.13h0Z"/></svg>