<svg id="Layer_1" data-name="Layer 1" xmlns="http://www.w3.org/2000/svg" viewBox="0 0 30 30"><defs><style>.cls-1{fill:#e8e8e8;}.cls-2{fill:#002d62;}</style></defs><title>san-diego-padres</title><circle class="cls-1" cx="15" cy="15" r="15"/><path class="cls-2" d="M19,13c0,1.66,0,4.94,0,6.4a1.66,1.66,0,0,1-1.88,1.61H13.92V19.75h0.84a2.43,2.43,0,0,0,2.51-2.55h0c0.08-1.56,0-2.71,0-2.88a1.89,1.89,0,0,0-2-1.82H14V11.22h3.27A1.73,1.73,0,0,1,19,13h0Zm-2-3.21H11.52s0,0.07,0,.07a0.76,0.76,0,0,1,.75.71v1.88H10.83a0.37,0.37,0,0,1-.38-0.42s0-1.61,0-2.6a1.11,1.11,0,0,1,1.21-1.22l3.55,0a0.35,0.35,0,0,1,.4.36,0.42,0.42,0,0,1-.32.36s0,0,0,0h2.08l0-.68a1.71,1.71,0,0,0-1.87-1.67H11.29A2.46,2.46,0,0,0,8.72,9.17v0c0,0.87,0,2.08,0,2.86a2,2,0,0,0,2,2h4.63a0.41,0.41,0,0,1,.41.4s0,1.48,0,2.52h0a1.11,1.11,0,0,1-1.13,1.18H13.9V14.66H12.27v3.49H10.8a0.4,0.4,0,0,1-.42-0.42c0-.07,0-1.17,0-1.57A0.79,0.79,0,0,1,11,15.56v0H8.67s0,1.62,0,2.41a1.83,1.83,0,0,0,1.74,1.81h1.85v1.7a1.07,1.07,0,0,1-.78,1.08,0,0,0,0,0,0,0H17c2.29,0,3.58-1.12,3.58-3.39v-6c0-2.29-1.29-3.37-3.56-3.37h0Zm3.46,12.62V22h0.18v-0.1H20.24V22h0.18v0.48h0.12Zm1,0V21.86H21.3l-0.14.38h0L21,21.86H20.81v0.58h0.12V22h0l0.16,0.46h0.11L21.38,22h0v0.46H21.5Z"/></svg>