<svg id="Layer_1" data-name="Layer 1" xmlns="http://www.w3.org/2000/svg" viewBox="0 0 30 30"><defs><style>.cls-1{fill:#e8e8e8;}.cls-2{fill:#8b6f4e;}.cls-3{fill:#fff;}.cls-4{fill:#ffe1bb;}.cls-5{fill:#e6d8af;}.cls-6{fill:#fd5a1e;}</style></defs><title>san-francisco-giants</title><circle class="cls-1" cx="15" cy="15" r="15"/><path class="cls-2" d="M8,14.6a6.93,6.93,0,1,0,6.93-6.92A6.94,6.94,0,0,0,8,14.6H8Zm0.44,0a6.49,6.49,0,1,1,6.49,6.48A6.49,6.49,0,0,1,8.4,14.6h0Z"/><path class="cls-3" d="M14.89,21.3a6.7,6.7,0,1,0-6.71-6.7,6.71,6.71,0,0,0,6.71,6.7"/><path class="cls-4" d="M8.29,15.52H8.24c0-.06,0-0.13,0-0.19H8.29a0.09,0.09,0,0,1,.09.09,0.08,0.08,0,0,1-.09.09"/><path class="cls-5" d="M21.6,14.6a6.72,6.72,0,0,1-9.84,5.93v0a0,0,0,0,0,0,0,0,0,0,0,0,0,0A6.75,6.75,0,0,1,10.87,20h0a0,0,0,0,0,0,0h0l-0.14-.11a0,0,0,0,0,0-.08h0a0,0,0,0,0,0,0l-0.14-.11a0,0,0,1,0-.06,0l-0.14-.13h0a0.05,0.05,0,0,0,.05-0.05h0a0.05,0.05,0,0,0-.1,0h0L10.1,19.3h0a0.06,0.06,0,1,0,0-.11h0a0.06,0.06,0,0,0-.06.06h0l-0.12-.13A0.06,0.06,0,0,0,10,19.06,0.06,0.06,0,0,0,9.93,19a0.06,0.06,0,0,0-.06,0l-0.09-.11a0.06,0.06,0,0,0,0-.06,0.07,0.07,0,0,0-.12,0l-0.08-.1a0.06,0.06,0,0,0,0,0,0.06,0.06,0,0,0-.06-0.06h0A6.73,6.73,0,0,1,9,17.87a0.08,0.08,0,0,0,.08-0.08c0-.08,0-0.09.09-0.09a0.09,0.09,0,0,1,.08.09,0.08,0.08,0,0,1-.09.1,0.07,0.07,0,0,0-.09.09,0.09,0.09,0,1,0,.17,0,0.08,0.08,0,0,1,.1-0.08,0.09,0.09,0,0,1,.08.08,0.08,0.08,0,0,1-.08.09,0.07,0.07,0,0,0-.09.09,0.09,0.09,0,0,0,.09.09c0.09,0,.09,0,0.09-0.09a0.08,0.08,0,0,1,.09-0.08,0.09,0.09,0,0,1,.08.08,0.07,0.07,0,0,1-.08.08c-0.09,0-.09,0-0.09.1a0.09,0.09,0,0,0,.09.09c0.09,0,.09,0,0.09.09a0.08,0.08,0,0,0,.09.09c0.08,0,.09,0,0.09.09a0.09,0.09,0,0,0,.1.09c0.09,0,.09,0,0.09.09a0.09,0.09,0,0,0,.09.09c0.09,0,.09,0,0.09-0.09a0.08,0.08,0,0,1,.09-0.08,0.08,0.08,0,0,1,.08.08,0.08,0.08,0,0,1-.08.09c-0.09,0-.09,0-0.09.09a0.09,0.09,0,0,0,.09.09,0.09,0.09,0,0,0,.09-0.09A0.08,0.08,0,0,1,10.47,19a0.09,0.09,0,0,1,.08.08,0.07,0.07,0,0,1-.08.09c-0.07,0-.09,0-0.09.09a0.09,0.09,0,0,0,.09.09,0.09,0.09,0,0,0,.09-0.09,0.08,0.08,0,0,1,.09-0.08,0.08,0.08,0,0,1,.08.08c0,0.09,0,.1-0.09.1s-0.09,0-.09.09a0.09,0.09,0,0,0,.17,0c0-.08,0-0.09.1-0.09a0.1,0.1,0,0,1,.09.09c0,0.09,0,.09.09,0.09s0.09,0,.09.09,0,0.09.09,0.09,0.09,0,.09.09a0.08,0.08,0,0,0,.09.1,0.09,0.09,0,0,0,.09-0.1,0.08,0.08,0,0,1,.09-0.09,0.08,0.08,0,0,1,.09.09c0,0.08,0,.09-0.09.09a0.08,0.08,0,0,0-.08.09,0.08,0.08,0,0,0,.08.08A0.08,0.08,0,0,0,11.65,20c0-.09,0-0.09.09-0.09a0.08,0.08,0,0,1,.09.09c0,0.07,0,.09.09,0.09s0.1,0,.1-0.09a0.08,0.08,0,0,1,.17,0,0.07,0.07,0,0,1-.08.08c-0.08,0-.09,0-0.09.1a0.08,0.08,0,0,0,.09.08c0.06,0,.09,0,0.09-0.08a0.09,0.09,0,0,1,.09-0.09,0.09,0.09,0,0,1,.09.09c0,0.08,0,.09.09,0.09s0.09,0,.09.09a0.07,0.07,0,0,0,.09.08c0.07,0,.09,0,0.09-0.08a0.09,0.09,0,0,1,.09-0.09,0.09,0.09,0,0,1,.09.09c0,0.06,0,.1.09,0.1s0.09,0,.09-0.1a0.09,0.09,0,0,1,.09-0.09,0.08,0.08,0,0,1,.09.09c0,0.09,0,.09.09,0.09s0.09,0,.09.09a0.09,0.09,0,0,0,.18,0c0-.07,0-0.09.09-0.09s0.09,0,.09.09a0.07,0.07,0,0,0,.09.08c0.06,0,.09,0,0.09-0.08s0-.09.09-0.09,0.09,0,.09.09a0.07,0.07,0,0,0,.09.08c0.06,0,.09,0,0.09-0.08s0-.09.09-0.09,0.09,0,.09.09,0,0.08.09,0.08,0.1,0,.1-0.08,0-.09.09-0.09,0.09,0,.09.09a0.09,0.09,0,0,0,.18,0c0-.09,0-0.1-0.09-0.1s-0.09,0-.09-0.09a0.09,0.09,0,0,1,.17,0c0,0.09,0,.1.1,0.1s0.09,0,.09-0.1a0.08,0.08,0,0,1,.09-0.09,0.08,0.08,0,0,1,.09.09,0.08,0.08,0,0,0,.09.1,0.08,0.08,0,0,0,.09-0.1,0.09,0.09,0,0,1,.09-0.09c0.09,0,.09,0,0.09.09a0.08,0.08,0,0,0,.09.09A0.09,0.09,0,0,0,16,20.33c0-.09,0-0.1-0.09-0.1s-0.09,0-.09-0.09a0.08,0.08,0,0,1,.09-0.09,0.08,0.08,0,0,1,.09.09c0,0.08,0,.09.1,0.09s0.09,0,.09-0.09a0.08,0.08,0,0,1,.09-0.09,0.08,0.08,0,0,1,.09.09,0.09,0.09,0,0,0,.09.09,0.08,0.08,0,0,0,.09-0.09c0-.09,0-0.1-0.09-0.1A0.08,0.08,0,0,1,16.39,20a0.08,0.08,0,0,1,.08-0.08,0.08,0.08,0,0,1,.08.08c0,0.09,0,.09.1,0.09s0.09,0,.09-0.09a0.09,0.09,0,0,1,.09-0.09c0.08,0,.09,0,0.09.09a0.08,0.08,0,0,0,.09.08A0.09,0.09,0,0,0,17.11,20,0.08,0.08,0,0,0,17,19.87c-0.08,0-.09,0-0.09-0.09A0.08,0.08,0,0,1,17,19.7c0.07,0,.09,0,0.09.09a0.1,0.1,0,0,0,.09.09,0.09,0.09,0,0,0,.09-0.09c0-.08,0-0.09.09-0.09a0.08,0.08,0,0,0,.09-0.09c0-.06,0-0.09.09-0.09s0.09,0,.09-0.09a0.1,0.1,0,0,1,.09-0.09c0.09,0,.1,0,0.1.09a0.09,0.09,0,0,0,.17,0,0.08,0.08,0,0,0-.09-0.09c-0.08,0-.09,0-0.09-0.1a0.11,0.11,0,0,1,.09-0.09,0.08,0.08,0,0,1,.09.09,0.09,0.09,0,0,0,.09.09,0.08,0.08,0,0,0,.09-0.09,0.09,0.09,0,0,0-.09-0.09A0.08,0.08,0,0,1,18,19.06,0.08,0.08,0,0,1,18.11,19a0.07,0.07,0,0,1,.09.08,0.09,0.09,0,0,0,.09.09,0.09,0.09,0,0,0,.09-0.09A0.09,0.09,0,0,0,18.29,19a0.08,0.08,0,0,1-.09-0.09,0.08,0.08,0,0,1,.09-0.08,0.07,0.07,0,0,1,.09.08,0.09,0.09,0,0,0,.09.09,0.09,0.09,0,1,0,0-.19,0.09,0.09,0,0,1-.09-0.09,0.1,0.1,0,0,1,.09-0.08c0.07,0,.09,0,0.09.08a0.09,0.09,0,0,0,.1.09,0.1,0.1,0,0,0,0-.19,0.08,0.08,0,0,1-.08-0.09,0.09,0.09,0,0,1,.08-0.08c0.08,0,.09,0,0.09.08a0.08,0.08,0,0,0,.09.09,0.09,0.09,0,0,0,.09-0.09c0-.08,0-0.09-0.09-0.09a0.08,0.08,0,0,1-.07-0.09,0.07,0.07,0,0,1,.07-0.07c0.07,0,.09,0,0.09.07s0,0.09.09,0.09a0.09,0.09,0,0,0,.09-0.09c0-.07,0-0.09-0.09-0.09a0.09,0.09,0,0,1-.08-0.09A0.08,0.08,0,0,1,19,18.08c0.09,0,.09,0,0.09.08s0,0.09.09,0.09a0.09,0.09,0,1,0,0-.18c-0.06,0-.08,0-0.08-0.09a0.09,0.09,0,0,1,.08-0.09c0.1,0,.1.05,0.1,0.09a0.08,0.08,0,0,0,.09.09,0.09,0.09,0,1,0,0-.17,0.09,0.09,0,0,1,0-.19c0.1,0,.1,0,0.1-0.09a0.08,0.08,0,0,1,.09-0.09c0.09,0,.1,0,0.1-0.09s0-.09.08-0.09a0.09,0.09,0,0,0,.1-0.09,0.08,0.08,0,0,0-.1-0.09,0.09,0.09,0,0,1-.09-0.09A0.09,0.09,0,0,1,19.75,17c0.08,0,.09,0,0.09.09a0.07,0.07,0,0,0,.09.08A0.08,0.08,0,0,0,20,17.07,0.08,0.08,0,0,0,19.93,17c-0.08,0-.09,0-0.09-0.09a0.08,0.08,0,0,1,.09-0.09c0.09,0,.09,0,0.09-0.09s0-.09.09-0.09a0.09,0.09,0,0,0,.09-0.09,0.08,0.08,0,0,0-.09-0.09A0.08,0.08,0,0,1,20,16.34a0.08,0.08,0,0,1,.09-0.09c0.09,0,.1,0,0.1-0.09s0-.09.09-0.09A0.09,0.09,0,0,0,20.38,16a0.08,0.08,0,0,0-.09-0.09,0.08,0.08,0,0,1-.09-0.09,0.1,0.1,0,0,1,.09-0.09,0.09,0.09,0,0,0,.1-0.09,0.08,0.08,0,0,0-.1-0.1,0.08,0.08,0,0,1-.09-0.09,0.08,0.08,0,0,1,.09-0.09c0.09,0,.09,0,0.09.09a0.09,0.09,0,0,0,.1.09,0.09,0.09,0,0,0,.09-0.09,0.09,0.09,0,0,0-.09-0.09c-0.09,0-.08,0-0.08-0.09s0-.09.08-0.09a0.08,0.08,0,0,0,.09-0.09A0.08,0.08,0,0,0,20.47,15a0.08,0.08,0,0,1-.09-0.09,0.08,0.08,0,0,1,.09-0.09,0.08,0.08,0,0,0,.1-0.09,0.08,0.08,0,0,0-.1-0.09,0.09,0.09,0,1,1,0-.18,0.08,0.08,0,0,0,.1-0.09,0.08,0.08,0,0,0-.1-0.09,0.09,0.09,0,0,1-.09-0.09,0.09,0.09,0,0,1,.09-0.09c0.08,0,.1,0,0.1-0.09a0.08,0.08,0,0,0-.1-0.09,0.09,0.09,0,0,1,0-.18,0.09,0.09,0,0,0,.1-0.09,0.09,0.09,0,0,0-.1-0.09c-0.07,0-.09,0-0.09-0.09s0-.09.09-0.09a0.09,0.09,0,0,0,.09-0.09,0.08,0.08,0,0,0-.09-0.09,0.09,0.09,0,0,0-.09.09c0,0.08,0,.09-0.09.09a0.09,0.09,0,0,1-.09-0.09,0.08,0.08,0,0,1,.09-0.09c0.09,0,.1,0,0.1-0.09s0-.09-0.1-0.09a0.09,0.09,0,0,1-.09-0.09,0.09,0.09,0,0,1,.09-0.09,0.09,0.09,0,0,0,.09-0.09,0.08,0.08,0,0,0-.09-0.09c-0.08,0-.08,0-0.08-0.09s0-.09-0.1-0.09A0.09,0.09,0,0,1,20,12.35a0.08,0.08,0,0,1,.08-0.09,0.08,0.08,0,0,0,.1-0.09,0.11,0.11,0,0,0-.1-0.1A0.07,0.07,0,0,1,20,12c0-.1,0-0.09-0.1-0.09a0.09,0.09,0,0,1-.09-0.09,0.09,0.09,0,0,1,.09-0.1A0.08,0.08,0,0,0,20,11.62a0.08,0.08,0,0,0-.09-0.1,0.1,0.1,0,0,0-.11.1,0.07,0.07,0,0,1-.07.07,0.07,0.07,0,0,1-.07-0.07,0.07,0.07,0,0,1,.07-0.08,0.08,0.08,0,0,0,.1-0.1,0.09,0.09,0,0,0-.1-0.1,0.07,0.07,0,0,1-.09-0.08c0-.09,0-0.09-0.1-0.09a0.09,0.09,0,0,1-.09-0.09A0.09,0.09,0,0,1,19.56,11a0.08,0.08,0,0,0,.09-0.09,0.09,0.09,0,0,0-.09-0.09,0.09,0.09,0,0,0-.09.09,0.08,0.08,0,0,1-.09.09,0.08,0.08,0,0,1-.09-0.09,0.09,0.09,0,0,1,.09-0.09,0.09,0.09,0,0,0,.09-0.1,0.1,0.1,0,0,0-.09-0.1,0.1,0.1,0,0,0-.1.1,0.07,0.07,0,0,1-.09.08,0.08,0.08,0,0,1-.08-0.08,0.08,0.08,0,0,1,.08-0.09,0.09,0.09,0,0,0,.1-0.1,0.09,0.09,0,0,0-.1-0.09c-0.08,0-.08,0-0.08-0.09a0.09,0.09,0,0,0-.1-0.1c-0.08,0-.08,0-0.08-0.08a0.09,0.09,0,0,0-.1-0.1c-0.08,0-.08,0-0.08-0.08a0.09,0.09,0,0,0-.1-0.1c-0.08,0-.09,0-0.09-0.08a0.09,0.09,0,0,0-.1-0.09c-0.08,0-.09,0-0.09-0.09a0.09,0.09,0,0,0-.1-0.09c-0.1,0-.09-0.05-0.09-0.08a0.09,0.09,0,0,0-.09-0.09C18,9.35,18,9.35,18,9.26a0.08,0.08,0,0,0-.09-0.09,0.08,0.08,0,0,0-.09.09,0.08,0.08,0,0,1-.09.08,0.08,0.08,0,0,1-.09-0.08,0.1,0.1,0,0,1,.09-0.1,0.08,0.08,0,0,0,.09-0.09,0.09,0.09,0,1,0-.18,0,0.08,0.08,0,0,1-.09.09,0.08,0.08,0,0,1-.09-0.09c0-.09,0-0.1-0.1-0.1a0.07,0.07,0,0,1-.09-0.08,0.08,0.08,0,0,0-.09-0.1,0.07,0.07,0,0,1-.09-0.09A0.08,0.08,0,0,0,17,8.63a0.09,0.09,0,0,0-.09.09,0.08,0.08,0,0,1-.09.08,0.08,0.08,0,0,1-.09-0.08c0-.09,0-0.1.09-0.1a0.08,0.08,0,0,0,.08-0.08,0.08,0.08,0,0,0-.08-0.08,0.08,0.08,0,0,0-.08.08c0,0.08,0,.08-0.1.08a0.08,0.08,0,0,1-.09-0.08,0.09,0.09,0,0,0-.09-0.11,0.09,0.09,0,0,0-.1.11,0.08,0.08,0,0,1-.08.08,0.09,0.09,0,0,1-.08-0.08,0.09,0.09,0,0,1,.08-0.09,0.08,0.08,0,0,0,.09-0.09,0.09,0.09,0,0,0-.09-0.09,0.08,0.08,0,0,0-.09.09,0.08,0.08,0,0,1-.09.09A0.09,0.09,0,0,1,16,8.35a0.09,0.09,0,0,0-.09-0.1,0.09,0.09,0,0,0-.1.1,0.09,0.09,0,0,1-.08.09,0.09,0.09,0,0,1,0-.19,0.08,0.08,0,0,0,0-.16,0.09,0.09,0,0,0-.08.08c0,0.09,0,.09-0.1.09s-0.09,0-.09-0.09a0.09,0.09,0,1,0-.18,0,0.08,0.08,0,0,1-.09.08,0.07,0.07,0,0,1-.08-0.08,0.1,0.1,0,0,0-.1-0.1,0.1,0.1,0,0,0-.1.1c0,0.06,0,.07-0.08.07a0.07,0.07,0,0,1-.08-0.07,0.1,0.1,0,0,0-.1-0.1,0.11,0.11,0,0,0-.1.1,0.08,0.08,0,0,1-.16,0,0.1,0.1,0,0,0-.1-0.1,0.1,0.1,0,0,0-.1.1,0.07,0.07,0,0,1-.08.07A0.07,0.07,0,0,1,14,8.17a0.1,0.1,0,0,0-.2,0,0.07,0.07,0,0,1-.08.07,0.07,0.07,0,0,1-.08-0.07,0.1,0.1,0,0,0-.1-0.1,0.1,0.1,0,0,0-.1.1,0.07,0.07,0,0,1-.08.08,0.08,0.08,0,0,1-.09-0.08,0.09,0.09,0,0,0,0-.07L13.67,8a0.08,0.08,0,0,0,.07.05A0.08,0.08,0,0,0,13.82,8L14,8V8a0.08,0.08,0,1,0,.14,0l0.26,0a0.08,0.08,0,0,0,0,.07,0.08,0.08,0,0,0,.16,0h0a0.08,0.08,0,0,0,0-.07h0.39c0.22,0,.43,0,0.64,0a0.06,0.06,0,0,0,0,.05,0.06,0.06,0,0,0,.13,0,0.06,0.06,0,0,0,0,0l0.27,0h0a0.05,0.05,0,0,0,.05.05A0.05,0.05,0,0,0,16,8,6.71,6.71,0,0,1,21.6,14.6"/><path class="cls-4" d="M9.11,17.61c0,0.09,0,.09-0.09.09a0.08,0.08,0,0,0-.07,0l-0.05-.1v0a0.07,0.07,0,0,0,0-.07q-0.1-.19-0.18-0.39c0.06,0,.07,0,0.07-0.08a0.09,0.09,0,0,1,.18,0,0.08,0.08,0,0,1-.09.09c-0.08,0-.09,0-0.09.09a0.08,0.08,0,0,0,.1.09c0.08,0,.09,0,0.09.09s0,0.09.1,0.09a0.08,0.08,0,0,1,.09.09M8.3,15.88l0-.18h0a0.09,0.09,0,0,1,0,.18m0.17,0.54h0q-0.05-.18-0.09-0.37s0,0,0,.09,0,0.09.1,0.09a0.09,0.09,0,0,1,.09.09,0.08,0.08,0,0,1-.09.09M8.65,17h0q-0.07-.19-0.13-0.39c0.08,0,.08,0,0.08.1s0,0.09.09,0.09a0.09,0.09,0,0,1,.09.09,0.09,0.09,0,0,1-.09.09M8.2,14.52a0.09,0.09,0,0,0,0-.06s0,0.08,0,.12a0.09,0.09,0,0,0,0-.06m0.27-1.74a0.08,0.08,0,0,0,0-.16l0,0.15h0m-0.09.46a0.09,0.09,0,0,0,0-.08l0,0.17a0.09,0.09,0,0,0,.08-0.09m0.27-1a0.08,0.08,0,0,0,0-.16l-0.06.15h0m0.25-.63a0.07,0.07,0,0,0,0,0l-0.05.11a0.07,0.07,0,0,0,.06-0.07M9,11.5a0.07,0.07,0,1,0,0-.13H9L9,11.47a0.07,0.07,0,0,0,.06,0M8.29,13.7a0.08,0.08,0,1,0,0-.16h0l0,0.14,0.05,0m2.18-4a0.07,0.07,0,0,0,.07-0.07,0.07,0.07,0,0,0-.06-0.07l-0.08.07a0.07,0.07,0,0,0,.07.07m0.18-.18a0.08,0.08,0,0,0,0-.15l-0.12.09a0.08,0.08,0,0,0,.08.05m0.18-.19a0.07,0.07,0,0,0,.06-0.12l-0.12.09a0.07,0.07,0,0,0,.06,0M11,9.15a0.08,0.08,0,0,0,.08-0.08h0L11,9.15h0m-0.73.72a0.07,0.07,0,0,0,.07-0.08h0a0.07,0.07,0,0,0-.07-0.07h0l-0.06.06h0a0.08,0.08,0,0,0,.08.08m-0.18.18a0.07,0.07,0,1,0,0-.14h0L10,10h0a0.07,0.07,0,0,0,.07.07m-0.18.18a0.07,0.07,0,1,0,0-.14h0l-0.07.07a0.07,0.07,0,0,0,.07.07m-0.18.18a0.07,0.07,0,0,0,0-.14l-0.08.1a0.07,0.07,0,0,0,.07,0m-0.18.18a0.07,0.07,0,0,0,0-.12l-0.08.1,0,0m-0.18.18a0.07,0.07,0,0,0,.07-0.07v0l-0.07.09h0m2.36-2a0.09,0.09,0,0,0,.09-0.08,0.08,0.08,0,0,0,0-.06l-0.14.07a0.09,0.09,0,0,0,.08.07m8.55,5.61a0.07,0.07,0,1,0-.07-0.07,0.07,0.07,0,0,0,.07.07m-0.36,0a0,0,0,0,0,0,0,0,0,0,0,0,0,0h0a0,0,0,0,0,0,0h0a0,0,0,0,0,0,0m-0.18.16h0"/><path class="cls-4" d="M20.36,14.34a0.07,0.07,0,1,0-.07.07,0.07,0.07,0,0,0,.07-0.07m-0.2.18a0.05,0.05,0,1,0-.05.05,0.05,0.05,0,0,0,.05-0.05M20,14.7a0,0,0,0,0,0,0h0a0,0,0,0,0,0,0,0,0,0,0,0,.07,0m-0.2.18,0,0,0,0h0l0,0h0l0,0m0.6-.18a0.07,0.07,0,0,0-.07-0.07,0.07,0.07,0,1,0,0,.14,0.07,0.07,0,0,0,.07-0.07h0m-0.2.18a0.05,0.05,0,1,0-.05.05,0.05,0.05,0,0,0,.05-0.05m-0.2.18a0,0,0,0,0,0,0h0a0,0,0,0,0,0,0h0a0,0,0,0,0,0,0,0,0,0,0,0,0,0m-0.19.18a0,0,0,0,0-.05,0,0,0,0,0,0,.05,0,0,0,0,0,0,0,0m-0.19.54,0,0h0l0,0,0,0,0,0m-0.91,1.63h0"/><path class="cls-4" d="M20.29,14.27a0.07,0.07,0,1,1-.07.07,0.07,0.07,0,0,1,.07-0.07m-0.36,0a0,0,0,1,1,0,.07,0,0,0,0,1,0-.07,0,0,0,0,1,0,0m-0.18-.16h0"/><path class="cls-4" d="M20.36,14.34a0.07,0.07,0,1,1-.07-0.07,0.07,0.07,0,0,1,.07.07m-0.2-.18a0.05,0.05,0,1,1-.05-0.05,0.05,0.05,0,0,1,.05.05M20,14a0,0,0,1,1-.07,0A0,0,0,0,1,20,14a0,0,0,0,1,0,0m-0.2-.18,0,0,0,0h0l0,0,0,0M20.36,14a0.07,0.07,0,0,1-.07.07,0.07,0.07,0,1,1,0-.14,0.07,0.07,0,0,1,.07.07m-0.2-.18a0.05,0.05,0,1,1-.05-0.05,0.05,0.05,0,0,1,.05.05M20,13.61a0,0,0,0,1,0,0h0a0,0,0,0,1,0,0,0,0,0,0,1,0,0,0,0,0,0,1,0,0h0m0.15-1a0.08,0.08,0,0,1,.08.08h0a0.08,0.08,0,0,1-.16,0h0a0.08,0.08,0,0,1,.08-0.08m-1.25-1.55a0,0,0,0,1,0,0h0a0,0,0,0,1,0,0h0a0,0,0,0,1,0,0,0,0,0,0,1,0,0h0M17.93,9.52a0.08,0.08,0,0,1,0-.17c0.08,0,.08,0,0.08.08a0.08,0.08,0,0,1-.08.08h0m-3.24-.81a0,0,0,0,0-.06,0h0a0,0,0,0,0,.06,0h0m0.36,0a0,0,0,0,0,0,0,0,0,0,0,0,0,.06,0,0,0,0,0,0,0h0m-0.2.18h0m-0.52-.18a0,0,0,0,0,0,0,0,0,0,0,0,0,.06,0,0,0,0,0,0,0m0.16,0.18h0m0.86-.18a0,0,0,0,1,.08,0,0,0,0,0,1-.08,0,0,0,0,0,1,0,0m0.35,0a0.05,0.05,0,0,1,.05-0.05,0.05,0.05,0,0,1,.05.05,0.05,0.05,0,0,1-.05.05h0a0.05,0.05,0,0,1-.05-0.05m0.35,0a0.07,0.07,0,0,1,.07-0.07,0.06,0.06,0,0,1,.07.06h0a0.06,0.06,0,0,1-.07.06A0.07,0.07,0,0,1,16,8.71m0.35,0a0.08,0.08,0,1,1,.08.08,0.08,0.08,0,0,1-.08-0.08M17.77,10a0,0,0,0,1,0,0,0,0,0,0,1,0,0,0,0,0,0,1,0,0,0,0,0,0,1,0,0h0M17.59,9.8a0,0,0,0,1-.06,0,0,0,0,0,1,.06,0,0,0,0,0,1,0,0h0m-0.18-.18a0,0,0,0,1,0,0,0,0,0,0,1,0,0h0a0,0,0,0,1,0,0h0a0,0,0,0,1,0,0m-0.18-.18a0,0,0,0,1-.08,0,0,0,0,1,1,.08,0h0m-0.18-.18a0,0,0,0,1,0,0h0a0,0,0,1,1,0-.08,0,0,0,0,1,0,.08M15.2,8.92a0,0,0,0,0,0,0,0,0,0,0,0,0,0,0,0,0,0,0,0,0h0a0,0,0,0,0,0,0m0.36,0a0,0,0,0,0,0,0,0,0,0,0,0-.07,0,0,0,0,0,0,0,0m0.36,0a0,0,0,1,0,0-.09,0,0,0,0,0,0,0h0a0,0,0,0,0,0,0m0.36,0a0.06,0.06,0,0,0,.06-0.06h0a0.06,0.06,0,0,0-.06-0.06,0.06,0.06,0,0,0,0,.12m-0.18.15a0,0,0,0,0,0,0,0,0,0,0,0,0,0,0,0,0,0,0,0,0,0,0,0,0,0,0,0m0.36,0a0,0,0,0,0,0,0,0,0,0,0,0-.07,0,0,0,0,0,0,0,0m0.36,0a0,0,0,0,0,0-.09,0,0,0,0,0,0,.09,0,0,0,0,0,0,0m-0.18.16a0,0,0,0,0,0,0,0,0,0,0,0,0,0h0a0,0,0,0,0,0,0,0,0,0,0,0,0,0m0-.32a0.07,0.07,0,1,0-.07-0.07,0.07,0.07,0,0,0,.07.07M17,9a0.08,0.08,0,0,0,.08-0.08c0-.07,0-0.08-0.08-0.08A0.08,0.08,0,0,0,17,9M17.2,9.15a0.08,0.08,0,0,0,.08-0.08C17.28,9,17.27,9,17.2,9a0.08,0.08,0,1,0,0,.15m0.18,0.18a0.07,0.07,0,1,0-.07-0.07,0.07,0.07,0,0,0,.07.07h0m0.18,0.18a0.07,0.07,0,1,0,0-.13h0a0.07,0.07,0,0,0,0,.13m0.18,0.18a0.06,0.06,0,1,0-.06-0.06,0.06,0.06,0,0,0,.06.06m0.18,0.18a0.06,0.06,0,0,0,0-.12,0.06,0.06,0,1,0,0,.11M18.11,10A0.05,0.05,0,1,0,18.06,10a0.05,0.05,0,0,0,.05.05h0m0.18,0.18a0,0,0,1,0,0-.09h0a0,0,0,0,0,0,0h0a0,0,0,0,0,0,0m0.18,0.18a0,0,0,0,0,0,0,0,0,0,0,0,0,0h0a0,0,0,0,0,0,0,0,0,0,0,0,0,0M19,11.25a0,0,0,1,1-.06,0,0,0,0,0,1,.06,0,0,0,0,0,1,0,0m0.19,0.18a0,0,0,0,1,0,0h0a0,0,0,0,1,0-.08,0,0,0,0,1,0,0h0m0.19,0.18a0.05,0.05,0,1,1-.05-0.05,0.05,0.05,0,0,1,.05.05M19.82,12a0.07,0.07,0,1,1-.14,0,0.07,0.07,0,0,1,.07-0.07,0.07,0.07,0,0,1,.07.07m0.11,0.1a0.08,0.08,0,0,0,0,.17h0a0.08,0.08,0,1,0,0-.16h0m-0.36-.71a0.07,0.07,0,1,0,.07.07,0.07,0.07,0,0,0-.07-0.07m-0.18-.18a0.06,0.06,0,1,0,.06.06,0.06,0.06,0,0,0-.06-0.06M19.2,11a0.06,0.06,0,1,0,.06.06A0.06,0.06,0,0,0,19.2,11M19,10.84a0.05,0.05,0,0,0-.05.05h0A0.05,0.05,0,1,0,19,10.84m-0.18-.18a0,0,0,1,0,0,.09,0,0,0,0,0,0-.09,0,0,0,0,0,0,0m-0.18-.18a0,0,0,0,0,0,.08,0,0,0,0,0,0-.08,0,0,0,0,0,0,0m-0.36.05h0m0.18,0.18h0m1.09,2.18h0M19.41,12a0,0,0,1,1-.05,0,0,0,0,0,1,.05,0h0a0,0,0,0,1,0,0m-0.21.19h0m-0.36-.73h0m-0.91-1.26a0,0,0,0,0,0,0h0a0,0,0,0,0,0,0,0,0,0,0,0,0,0,0,0,0,0,0,0,0m0.18,0.18h0m0.55,0.55,0,0,0,0,0,0,0,0m1.45,2.23A0.07,0.07,0,1,0,20,13.07a0.07,0.07,0,0,0,.07.07m-0.18-.2a0.05,0.05,0,1,0,0-.1,0.05,0.05,0,0,0,0,.1,0.05,0.05,0,0,0,0,0m0,0.35a0,0,0,0,0,0,0h0a0,0,0,0,0,0,0,0,0,0,0,0,0,.08m0.18,0.2a0.06,0.06,0,1,0,0-.12,0.06,0.06,0,0,0,0,.12m0.18,0.21a0.08,0.08,0,1,0-.08-0.08,0.08,0.08,0,0,0,.08.08m-0.54-.6a0,0,0,0,0,0,0h0a0,0,0,0,0,0,0,0,0,0,0,0,0,0,0,0,0,0,0,0,0m0-.35a0,0,0,0,0,0-.06h0a0,0,0,0,0,0,0h0a0,0,0,0,0,0,0m0.18-.15a0.06,0.06,0,1,0-.06-0.06,0.06,0.06,0,0,0,.06.06m-0.18-.2a0,0,0,0,0,0,0,0,0,0,0,0,0,0h0a0,0,0,0,0,0,0h0a0,0,0,0,0,0,0m-0.18.16a0,0,0,0,0,0,0,0,0,0,0,0,0,0,0,0,0,0,0,0,0,0,0,0,0,0,0,0m0-.35a0,0,0,0,0,0-.07,0,0,0,1,0,0,.07m0.73,3a0.08,0.08,0,1,0,0-.17,0.08,0.08,0,0,0,0,.17m-0.51.46a0,0,0,1,0-.06,0,0,0,0,0,0,.06,0,0,0,0,0,0,0,0m0.2-.18a0,0,0,0,0-.1,0,0,0,0,0,0,.1,0,0,0,0,0,0,0,0m0.2-.18a0.06,0.06,0,0,0-.06-0.06,0.06,0.06,0,1,0,0,.13,0.06,0.06,0,0,0,.06-0.06h0m0,0.36a0.08,0.08,0,1,0-.08.08,0.08,0.08,0,0,0,.08-0.08h0m-0.08.45A0.09,0.09,0,0,0,20.2,16h0a0.09,0.09,0,1,0-.09.09m-0.88.82a0,0,0,0,0,0,0h0a0,0,0,0,0,0,0h0a0,0,0,0,0,0,0,0,0,0,0,0,0,0m0.2-.18a0,0,0,1,0-.08,0,0,0,0,0,0,.08,0,0,0,0,0,0,0,0m0.18-.54a0,0,0,0,0,0,0h0a0,0,0,0,0,0,0h0a0,0,0,0,0,.07,0m0,0.36a0.05,0.05,0,0,0-.05-0.05,0.05,0.05,0,1,0,.05.05m-0.05.81a0.09,0.09,0,1,0-.09-0.09,0.09,0.09,0,0,0,.09.09M20,15.79a0.06,0.06,0,1,0-.12,0h0a0.06,0.06,0,0,0,.12,0m0,0.36a0.07,0.07,0,0,0-.07-0.07h0a0.07,0.07,0,1,0,.07.07M19.79,16a0,0,0,0,0-.09,0h0a0,0,0,0,0,0,0h0a0,0,0,0,0,0,0h0m0,0.36a0.06,0.06,0,0,0-.06-0.06,0.06,0.06,0,1,0,.06.06M17,19.06h0m-1.64.54h0m1.44-.36a0,0,0,0,0,0,0,0,0,0,0,0,0,0,0,0,0,0,0,0,0,0,0,0,0,0,0,0h0m-0.2.18a0,0,0,1,0,.08,0,0,0,0,0,0-.08,0m-0.35,0a0,0,0,0,0,0,0,0,0,0,0,0,0,0,0,0,0,0,0,0,0,0,0,0,0,0,0,0h0m-0.55.18a0,0,0,0,0,0,0,0,0,0,0,0,0,0,0,0,0,0,0,0,0,0,0,0,0,0,0,0m0.35,0a0,0,0,0,0,.08,0,0,0,0,0,0-.08,0,0,0,0,0,0,0,0m0.35,0a0.05,0.05,0,0,0,.05.05,0.05,0.05,0,1,0,0-.1,0.05,0.05,0,0,0-.05.05M16,20a0.07,0.07,0,0,0,.07.07A0.07,0.07,0,1,0,16,20m0.19-.18a0.06,0.06,0,1,0,.06-0.06,0.06,0.06,0,0,0-.06.06M20,16.52a0.08,0.08,0,0,0-.08-0.08h0a0.08,0.08,0,0,0,0,.17c0.08,0,.08,0,0.08-0.08m-1.72,2a0.05,0.05,0,0,0,0-.1,0.05,0.05,0,0,0-.05.05,0.05,0.05,0,0,0,.05.05m1.09-1.06a0.08,0.08,0,1,0-.08-0.08h0a0.08,0.08,0,0,0,.08.08m-0.18.17a0.07,0.07,0,1,0-.07-0.07,0.07,0.07,0,0,0,.07.07M19,17.85A0.07,0.07,0,1,0,19,17.79a0.07,0.07,0,0,0,.07.07M18.84,18A0.06,0.06,0,0,0,18.9,18h0a0.06,0.06,0,1,0-.06.06m-0.18.17a0.05,0.05,0,1,0-.05-0.05,0.05,0.05,0,0,0,.05.05m-0.18.18a0.05,0.05,0,0,0,.05-0.05h0a0.05,0.05,0,1,0-.05.05h0M17.2,19.52a0.08,0.08,0,1,0,0,.16c0.09,0,.08,0,0.08-0.08a0.08,0.08,0,0,0-.08-0.08h0m0.18-.17a0.07,0.07,0,1,0,.07.07,0.07,0.07,0,0,0-.07-0.07m0.18-.17a0.06,0.06,0,0,0-.07.07,0.07,0.07,0,0,0,.07.07h0a0.07,0.07,0,0,0,.07-0.07h0a0.06,0.06,0,0,0-.07-0.07M17.75,19a0.06,0.06,0,1,0,.06.06A0.06,0.06,0,0,0,17.75,19m0.18-.17a0.05,0.05,0,1,0,.05.05,0.05,0.05,0,0,0-.05-0.05m0.18-.18a0.05,0.05,0,1,0,.05.05h0a0.05,0.05,0,0,0-.05-0.05m0-.29a0,0,0,0,0,0,0,0,0,0,0,0,0,0,0,0,0,0,0,0,0,0,0,0,0,0,0,0m0.18-.18a0,0,0,0,0,0,0,0,0,0,0,0,0,0l0,0a0,0,0,0,0,0,0M18.47,18a0,0,0,0,0,0,0,0,0,0,0,0,0,0,0,0,0,0,0,0,0,0,0,0,0,0,0,0m0.18-.17a0,0,0,0,0,0,0,0,0,0,0,0,0,0,0,0,0,0,0,0,0,0,0,0,0,0,0,0m0.18-.17a0,0,0,0,0,0-.07,0,0,0,0,0,0,.07,0,0,0,0,0,0,0h0M19,17.47a0,0,0,0,0,0-.08h0a0,0,0,1,0,0,.08m0.18-.17a0,0,0,1,0,0-.1,0,0,0,0,0,0,.1m0.18-.17a0.06,0.06,0,1,0-.06-0.06h0a0.06,0.06,0,0,0,.06.05m0.18-.17a0.06,0.06,0,1,0-.06-0.06h0a0.06,0.06,0,0,0,.06.06m0.18-.17a0.07,0.07,0,1,0-.07-0.07,0.07,0.07,0,0,0,.07.07M17.93,18.5a0,0,0,0,0,0,0,0,0,0,0,0,0,0,0,0,0,0,0,0,0,0,0,0,0,0,0,0m-0.18.17a0,0,0,1,0,0,.05,0,0,0,0,0,0-.05,0,0,0,0,0,0,0m-0.18.17a0,0,0,1,0,0,.07,0,0,0,0,0,0-.07,0,0,0,0,0,0,0h0M17.38,19a0,0,0,0,0,0,0h0a0,0,0,0,0,.08,0h0a0,0,0,0,0,0,0h0m-0.18.17a0,0,0,1,0,0,.1,0,0,0,0,0,0-.1,0,0,0,0,0,0,0h0M17,19.37a0.06,0.06,0,1,0,.06.06A0.06,0.06,0,0,0,17,19.37h0m-0.18.17a0.06,0.06,0,1,0,.06.06,0.06,0.06,0,0,0-.06-0.06m-0.18.17a0.07,0.07,0,1,0,.07.07,0.07,0.07,0,0,0-.07-0.07m-2.36.7a0.08,0.08,0,1,0-.08-0.08,0.08,0.08,0,0,0,.08.08m0.36,0a0.08,0.08,0,0,0,.08-0.08h0a0.08,0.08,0,0,0-.08-0.08h0a0.08,0.08,0,1,0,0,.17m0.91-.19a0.08,0.08,0,1,0-.08-0.08,0.08,0.08,0,0,0,.08.08h0m-0.36,0a0.07,0.07,0,1,0-.07-0.07,0.07,0.07,0,0,0,.07.07m-0.36,0a0.06,0.06,0,1,0,0-.13h0a0.06,0.06,0,0,0,0,.13h0m-0.36,0a0.06,0.06,0,0,0,.06-0.06,0.06,0.06,0,0,0-.06-0.05h0a0.05,0.05,0,0,0-.06.05,0.06,0.06,0,0,0,.06.06M14.29,20a0,0,0,0,0,0,0h0a0,0,0,0,0,0,0h0a0,0,0,0,0,0,0h0a0,0,0,0,0,0,0m1.46,0a0.06,0.06,0,0,0,0-.13h0a0.06,0.06,0,0,0-.06.06h0a0.06,0.06,0,0,0,.06.06h0m-0.36,0A0.05,0.05,0,1,0,15.33,20a0.05,0.05,0,0,0,.05.05h0M15,20a0,0,0,1,0,0-.09A0,0,0,0,0,15,20h0a0,0,0,0,0,0,0m-0.36,0a0,0,0,1,0,0-.07h0a0,0,0,1,0,0,.07m-0.18-.19a0,0,0,0,0,0,0,0,0,0,0,0,0,0,0,0,0,0,0,0,0,0,0,0,0,0,0,0m1.45,0A0.05,0.05,0,0,0,16,19.79a0.05,0.05,0,0,0,0-.05h0a0.05,0.05,0,0,0-.05.05,0.05,0.05,0,0,0,.05.05m-0.36,0a0,0,0,0,0,0-.08,0,0,0,0,0,0,.08,0,0,0,0,0,0,0m-0.36,0a0,0,0,0,0,0,0h0a0,0,0,0,0,0,0h0a0,0,0,0,0,0,0,0,0,0,0,0,0,0m-0.36,0a0,0,0,0,0,0,0h0a0,0,0,0,0,0,0h0l0,0h0a0,0,0,0,0,0,0m-6.55-5.4a0.07,0.07,0,0,1-.07-0.07h0a0.07,0.07,0,0,1,.07-0.07h0a0.07,0.07,0,1,1,0,.14m0.36,0a0,0,0,0,1,0,0,0,0,0,0,1,.07,0,0,0,0,0,1,0,0m0.18,0.16h0"/><path class="cls-4" d="M8.22,14.34a0.07,0.07,0,1,1,.15,0,0.07,0.07,0,1,1-.15,0m0.2,0.18a0.05,0.05,0,0,1,.05-0.05,0.05,0.05,0,1,1,0,.11,0.05,0.05,0,0,1-.05-0.05m0.2,0.18a0,0,0,1,1,.07,0,0,0,0,0,1-.07,0,0,0,0,0,1,0,0m0.2,0.18,0,0,0,0,0,0h0l0,0m-0.6-.18a0.07,0.07,0,1,1,.07.07,0.07,0.07,0,0,1-.07-0.07h0m0.2,0.18a0.05,0.05,0,0,1,.05-0.05,0.05,0.05,0,1,1,0,.11,0.05,0.05,0,0,1-.05-0.05m0.2,0.18a0,0,0,0,1,0,0h0a0,0,0,0,1,0,0,0,0,0,0,1,0,0,0,0,0,0,1,0,0h0m0.19,0.18a0,0,0,0,1,0,0,0,0,0,0,1,0,.05,0,0,0,0,1,0,0M9,15.43l0,0H9l0,0,0,0m0,0.36,0,0,0,0H9l0,0,0,0M9.19,16h0m0,0.36,0,0,0,0,0,0h0l0,0h0m0.19,0.18h0m0.18,0.54h0m0.18,0.18h0m0,1.17c-0.07,0-.08,0-0.08-0.08a0.08,0.08,0,1,1,.08.08h0m0.36,0.36c-0.07,0-.08,0-0.08-0.08a0.08,0.08,0,1,1,.08.08M9.93,18.6c-0.08,0-.08,0-0.08-0.08a0.08,0.08,0,1,1,.08.08"/><path class="cls-4" d="M8.29,14.27a0.07,0.07,0,1,0,.07.07,0.07,0.07,0,0,0-.07-0.07m0.36,0a0,0,0,1,0,0,.07,0,0,0,0,0,0-.07,0,0,0,0,0,0,0m0.18-.16h0"/><path class="cls-4" d="M8.21,14.34a0.06,0.06,0,0,0,.08.07,0.07,0.07,0,1,0,0-.14,0.08,0.08,0,0,0-.08.07m0.21-.18a0.05,0.05,0,0,0,.05.05,0.05,0.05,0,1,0,0-.11,0.05,0.05,0,0,0-.05.05h0M8.62,14a0,0,0,0,0,0,0,0,0,0,0,0,0,0,0,0,0,0,0,0,0h0a0,0,0,0,0,0,0h0m0.2-.18,0,0h0l0,0,0,0h0l0,0h0M8.21,14a0.08,0.08,0,0,0,.08.07,0.07,0.07,0,1,0,0-.14,0.08,0.08,0,0,0-.08.07m0.21-.18a0.05,0.05,0,1,0,.05-0.05,0.05,0.05,0,0,0-.05.05m0.2-.18a0,0,0,0,0,.07,0,0,0,0,0,0-.07,0h0a0,0,0,0,0,0,0m0.2-.18,0,0,0,0h0l0,0h0l0,0h0m0.91-2.36a0,0,0,0,0,0,0,0,0,0,0,0,0,0,0,0,0,0,0,0,0h0a0,0,0,0,0,0,0h0M13.9,8.71a0,0,0,1,1,.06,0,0,0,0,0,1-.06,0,0,0,0,0,1,0,0h0m-0.36,0a0,0,0,1,1,.06,0,0,0,0,0,1,0,0,0,0,0,0,1,0,0h0m0.2,0.18h0m0.36,0h0m-0.86-.18a0,0,0,0,0,0,0,0,0,0,1,0,0,.08,0,0,0,0,0,0,0m-0.35,0a0.05,0.05,0,1,0-.11,0,0.05,0.05,0,0,0,.11,0m-0.35,0a0.07,0.07,0,0,0-.07-0.07h0a0.07,0.07,0,0,0-.07.06h0a0.07,0.07,0,0,0,.13,0m-0.35,0a0.08,0.08,0,1,0-.08.08,0.08,0.08,0,0,0,.08-0.08M10.81,10a0,0,0,0,0,0,0,0,0,0,0,0,0,0,0,0,0,0,0,0,0h0a0,0,0,0,0,0,0h0M11,9.8a0,0,0,0,0,0,0h0a0,0,0,0,0,0,0h0a0,0,0,0,0,0,0,0,0,0,0,0,0,0m0.18-.18a0,0,0,0,0,0,0,0,0,0,0,0,0-.07h0a0,0,0,0,0,0,0m0.18-.18a0,0,0,0,0,0,0,0,0,0,0,0,0-.08h0a0,0,0,0,0,0,0m0.18-.18a0,0,0,0,0,0,0,0,0,0,0,0,0,0h0a0,0,0,0,0,0,0,0,0,0,0,0,0,0m1.86-.34a0,0,0,0,1,0,0,0,0,0,0,1,0,0,0,0,0,0,1,0,0,0,0,0,0,1,0,0h0M13,8.93a0,0,0,1,1,0-.07,0,0,0,0,1,0,.07,0,0,0,0,1,0,0m-0.36,0a0,0,0,0,1,0,0h0a0,0,0,0,1,0,0h0a0,0,0,0,1,0,0,0,0,0,0,1,0,0M12.29,9a0.06,0.06,0,1,1,.06-0.06,0.06,0.06,0,0,1-.06.06m0.53,0.12h0m-0.35,0a0,0,0,0,1,0,0,0,0,0,0,1,0,0,0,0,0,0,1,0,0,0,0,0,0,1,0,0m-0.36,0a0,0,0,0,1,0,0,0,0,0,0,1,.07,0,0,0,0,0,1,0,0m-0.36,0a0,0,0,0,1,0-.09,0,0,0,0,1,0,.09,0,0,0,0,1,0,0m0.53,0.13h0m-0.91.55h0m0.18-.18h0m0.18-.18a0,0,0,0,1,0,0,0,0,0,0,1,0,0,0,0,0,0,1,0,0,0,0,0,0,1,0,0m0.2-.16a0,0,0,0,1,0,0,0,0,0,0,1,0,0,0,0,0,0,1,0,0,0,0,0,0,1,0,0m0-.32A0.07,0.07,0,1,1,12,8.9a0.07,0.07,0,0,1-.07.07M11.56,9a0.08,0.08,0,0,1-.08-0.08h0a0.08,0.08,0,0,1,.08-0.08h0a0.08,0.08,0,1,1,0,.17h0m-0.18.18a0.08,0.08,0,0,1-.08-0.08h0a0.08,0.08,0,1,1,.08.08m-0.18.18a0.07,0.07,0,0,1-.07-0.07h0a0.07,0.07,0,1,1,.07.07M11,9.51a0.07,0.07,0,0,1-.07-0.07h0a0.07,0.07,0,1,1,.07.07h0m-0.18.18a0.06,0.06,0,0,1-.06-0.06h0a0.06,0.06,0,1,1,.06.06m-0.18.18a0.06,0.06,0,1,1,.06-0.06,0.06,0.06,0,0,1-.06.06M10.47,10A0.05,0.05,0,0,1,10.42,10h0a0.05,0.05,0,1,1,.1,0h0a0.05,0.05,0,0,1-.05.05h0m-0.18.18a0,0,0,0,1,0-.09,0,0,0,0,1,0,.09h0a0,0,0,0,1,0,0m-0.18.18a0,0,0,0,1,0,0,0,0,0,0,1,0,0,0,0,0,0,1,0,0,0,0,0,0,1,0,0m-0.58.87a0,0,0,0,0,0,0,0,0,0,0,0,0,0h0a0,0,0,0,0,0,0h0a0,0,0,0,0,0,0m-0.19.18a0,0,0,1,0,.08,0h0a0,0,0,0,0-.08,0m-0.19.18a0.05,0.05,0,1,0,.05-0.05,0.05,0.05,0,0,0-.05.05M9,11.8A0.06,0.06,0,1,0,9,11.74,0.06,0.06,0,0,0,9,11.8M8.76,12a0.07,0.07,0,1,0,.07-0.07,0.07,0.07,0,0,0-.07.07h0m0.44-.79a0.06,0.06,0,0,1,0,.12h0a0.06,0.06,0,0,1-.06-0.06h0a0.06,0.06,0,0,1,.06-0.06M9.38,11a0.06,0.06,0,1,1-.06.06A0.06,0.06,0,0,1,9.38,11m0.18-.18a0.05,0.05,0,1,1-.05.05h0a0.05,0.05,0,0,1,.05-0.05h0m0.18-.18a0,0,0,1,1,0,.09,0,0,0,0,1,0-.09h0a0,0,0,0,1,0,0m0.18-.18a0,0,0,0,1,0,.08,0,0,0,1,1,0-.08m0.36,0.05h0m-0.18.18h0M9.17,12a0,0,0,0,0,0,0,0,0,0,0,0,0,0h0a0,0,0,0,0,0,0h0a0,0,0,0,0,0,0m0.57-.53h0m-0.18.18h0m-0.18.19,0,0h0l0,0h0a0,0,0,0,1,0,0l0,0m-0.18.54h0m1.45-2.17a0,0,0,0,1,0,0h0a0,0,0,0,1,0,0,0,0,0,0,1,0,0,0,0,0,0,1,0,0m-0.18.18h0m-0.55.55,0,0h0l0,0,0,0,0,0M8.47,13.14a0.07,0.07,0,0,1,0-.13,0.07,0.07,0,1,1,0,.13m0.18-.2a0.05,0.05,0,1,1,.05,0,0.05,0.05,0,0,1-.05,0m0,0.35a0,0,0,0,1,0,0h0a0,0,0,0,1,0,0,0,0,0,1,1,0,.08m-0.18.2a0.06,0.06,0,1,1,.06-0.06h0a0.06,0.06,0,0,1-.06.06h0m0.37-.4a0,0,0,0,1,0,0,0,0,0,0,1,0,0,0,0,0,0,1,0,0,0,0,0,0,1,0,0m0-.7a0,0,0,0,1,0,0h0a0,0,0,0,1,.1,0,0,0,0,0,1-.1,0M9,12.55a0,0,0,0,1,0,0l0,0a0,0,0,0,1,0,0,0,0,0,0,1,0,0m0-.35a0,0,0,0,1,0,0H9a0,0,0,0,1,0,0,0,0,0,0,1,0,.07m-0.73,3a0.08,0.08,0,0,1-.08-0.08h0a0.08,0.08,0,1,1,.08.08M8.8,15.61a0,0,0,0,1,0,0,0,0,0,0,1,0,.07,0,0,0,0,1,0-.07m-0.2-.18a0,0,0,1,1,.1,0,0,0,0,0,1-.1,0,0,0,0,0,1,0,0m-0.2-.18a0.06,0.06,0,1,1,.06.06,0.06,0.06,0,0,1-.06-0.06m0,0.36a0.08,0.08,0,1,1,.08.08,0.08,0.08,0,0,1-.08-0.08m0.07,0.45a0.09,0.09,0,1,1,0-.17,0.09,0.09,0,1,1,0,.17m0.89,0.82a0,0,0,0,1,0,0,0,0,0,0,1,0,0h0a0,0,0,0,1,0,0,0,0,0,0,1,0,0m-0.2-.18a0,0,0,0,1,0,0h0a0,0,0,0,1,0,.08,0,0,0,0,1,0,0h0M9,16.16a0,0,0,0,1,0,0,0,0,0,0,1,0,0H9a0,0,0,0,1,0,0H9a0,0,0,0,1,0,0m0,0.36A0.05,0.05,0,0,1,9,16.47a0.05,0.05,0,1,1,0,.1A0.05,0.05,0,0,1,9,16.52M9,17.33a0.09,0.09,0,1,1,.09-0.09,0.09,0.09,0,0,1-.09.09M8.59,15.79a0.06,0.06,0,1,1,.06.06h0a0.06,0.06,0,0,1-.06-0.06m0,0.36a0.07,0.07,0,1,1,.07.07,0.07,0.07,0,0,1-.07-0.07h0M8.79,16a0,0,0,0,1,.09,0,0,0,0,0,1,0,0h0a0,0,0,0,1,0,0m0,0.36a0.06,0.06,0,0,1,.06-0.06h0a0.06,0.06,0,0,1,0,.12,0.06,0.06,0,0,1-.06-0.06m2.62,2.54h0m-0.18-.18h0m0.91,0.54h0m0.55,0.18h0m0.55,0.18h0m-0.56.46a0.09,0.09,0,0,1,0,.17c-0.07,0-.09,0-0.09-0.09a0.09,0.09,0,0,1,.09-0.09m-0.88-.82a0,0,0,0,1,0,0h0a0,0,0,0,1,0,0,0,0,0,0,1,0,0,0,0,0,0,1,0,0M12,19.42a0,0,0,0,1-.08,0,0,0,0,0,1,.08,0,0,0,0,0,1,0,0m0.35,0a0,0,0,0,1,0,0,0,0,0,0,1,0,0,0,0,0,0,1,0,0h0a0,0,0,0,1,0,0m0.55,0.18a0,0,0,0,1,0,0,0,0,0,0,1,0,0h0a0,0,0,0,1,0,0,0,0,0,0,1,0,0m-0.35,0a0,0,0,0,1-.08,0h0a0,0,0,0,1,.08,0m-0.35,0a0.05,0.05,0,0,1-.1,0h0a0.05,0.05,0,0,1,.1,0M12.54,20a0.07,0.07,0,0,1-.14,0,0.07,0.07,0,0,1,.14,0m-0.19-.18a0.06,0.06,0,1,1-.06-0.06,0.06,0.06,0,0,1,.06.06M8.57,16.52a0.08,0.08,0,1,1,.17,0h0a0.08,0.08,0,0,1-.17,0m1.72,2a0.05,0.05,0,0,1-.05-0.05,0.05,0.05,0,0,1,.05-0.05,0.05,0.05,0,0,1,.05.05,0.05,0.05,0,0,1-.05.05M9.2,17.51a0.08,0.08,0,1,1,.08-0.08,0.08,0.08,0,0,1-.08.08m0.18,0.17a0.07,0.07,0,1,1,.07-0.07,0.07,0.07,0,0,1-.07.07m0.18,0.17a0.07,0.07,0,1,1,.07-0.07,0.07,0.07,0,0,1-.07.07M9.92,18.2A0.05,0.05,0,1,1,10,18.15a0.05,0.05,0,0,1-.05.05m0.18,0.18a0.05,0.05,0,0,1-.05-0.05h0a0.05,0.05,0,0,1,.1,0,0.05,0.05,0,0,1-.05.05h0m1.27,1.14a0.08,0.08,0,1,1-.08.08h0a0.08,0.08,0,0,1,.08-0.08h0m-0.18-.17a0.07,0.07,0,1,1-.07.07,0.07,0.07,0,0,1,.07-0.07M11,19.18a0.07,0.07,0,0,1,.07.07A0.07,0.07,0,1,1,11,19.18M10.83,19a0.06,0.06,0,1,1-.06.06A0.06,0.06,0,0,1,10.83,19m-0.18-.17a0.05,0.05,0,0,1,0,.1h0a0.05,0.05,0,0,1,0-.1m-0.18-.18a0.05,0.05,0,1,1-.05.05,0.05,0.05,0,0,1,.05-0.05m0-.29a0,0,0,0,1,0,0h0l0,0a0,0,0,0,1,0,0,0,0,0,0,1,0,0m-0.18-.18a0,0,0,0,1,0,0,0,0,0,0,1,0,0,0,0,0,0,1,0,0,0,0,0,0,1,0,0M10.11,18a0,0,0,0,1,0,0h0l0,0a0,0,0,0,1,0,0,0,0,0,0,1,0,0h0m-0.18-.17a0,0,0,0,1,0,0,0,0,0,0,1,0,0,0,0,0,0,1,0,0,0,0,0,0,1,0,0m-0.36-.35a0,0,0,1,1,0-.08,0,0,0,1,1,0,.08m-0.18-.17a0,0,0,0,1,0-.1,0,0,0,0,1,0,.1h0a0,0,0,0,1,0,0M9.2,17.12a0.05,0.05,0,1,1,.06-0.05,0.06,0.06,0,0,1-.06.05M9,16.94A0.06,0.06,0,0,1,9,16.88H9a0.06,0.06,0,1,1,.06.06m-0.18-.17a0.07,0.07,0,0,1-.07-0.07h0a0.07,0.07,0,0,1,.07-0.07,0.07,0.07,0,0,1,.07.07h0a0.07,0.07,0,0,1-.07.07m1.82,1.73,0,0h0a0,0,0,0,1,0,0h0a0,0,0,0,1,0,0,0,0,0,0,1,0,0m0.18,0.17a0,0,0,1,1,0,.05,0,0,0,0,1,0-.05,0,0,0,0,1,0,0M11,18.84a0,0,0,0,1,0,.07,0,0,0,0,1,0-.07,0,0,0,0,1,0,0M11.2,19a0,0,0,0,1,0,0h0a0,0,0,0,1-.08,0,0,0,0,0,1,.08,0m0.18,0.17a0,0,0,0,1,0,.1,0,0,0,0,1,0-.1,0,0,0,0,1,0,0h0m0.18,0.17a0.06,0.06,0,1,1-.05.06,0.06,0.06,0,0,1,.05-0.06h0m0.18,0.17a0.06,0.06,0,1,1-.06.06,0.06,0.06,0,0,1,.06-0.06m0.18,0.17a0.07,0.07,0,0,1,0,.14,0.07,0.07,0,1,1,0-.14m2,0.7A0.08,0.08,0,1,1,14,20.33a0.08,0.08,0,0,1-.08.08m-0.36,0c-0.08,0-.09,0-0.09-0.09a0.09,0.09,0,0,1,.09-0.09,0.09,0.09,0,0,1,.09.09c0,0.08,0,.09-0.09.09M13,20.23a0.08,0.08,0,1,1,.08-0.08,0.08,0.08,0,0,1-.08.08m0.36,0a0.07,0.07,0,1,1,.07-0.07,0.07,0.07,0,0,1-.07.07m0.36,0a0.06,0.06,0,0,1-.06-0.06h0a0.06,0.06,0,1,1,.06.06m0.36,0a0.06,0.06,0,0,1-.06-0.06,0.06,0.06,0,0,1,.06-0.05,0.05,0.05,0,0,1,.05.05,0.06,0.06,0,0,1-.05.06M12.83,20A0.06,0.06,0,0,1,12.77,20h0a0.06,0.06,0,0,1,.06-0.06h0a0.06,0.06,0,0,1,.06.06h0a0.06,0.06,0,0,1-.06.06m0.36,0A0.05,0.05,0,0,1,13.14,20h0a0.05,0.05,0,0,1,.05-0.05,0.05,0.05,0,1,1,0,.11m0.36,0a0,0,0,0,1,0-.09,0,0,0,0,1,0,.09,0,0,0,0,1,0,0h0m0.36,0a0,0,0,0,1,0,0h0a0,0,0,0,1,0,0h0a0,0,0,0,1,0,0h0a0,0,0,0,1,0,0m0.18-.2a0,0,0,0,1,0,0,0,0,0,0,1,0,0,0,0,0,0,1,0,0,0,0,0,0,1,0,0m-1.46,0a0.05,0.05,0,0,1-.05-0.05,0.05,0.05,0,0,1,.1,0,0.05,0.05,0,0,1-.05.05m0.36,0a0,0,0,0,1,0,0h0a0,0,0,1,1,.08,0,0,0,0,0,1-.08,0m0.36,0a0,0,0,0,1,0,0h0a0,0,0,0,1,0,0h0a0,0,0,0,1,0,0h0a0,0,0,0,1,0,0h0m0.36,0a0,0,0,0,1,0,0h0a0,0,0,0,1,0,0h0a0,0,0,0,1,0,0,0,0,0,0,1,0,0M18,9.62a0.08,0.08,0,0,1,.08-0.08c0.08,0,.08,0,0.08.08a0.08,0.08,0,0,1-.17,0h0M18.21,9.8a0.08,0.08,0,0,1,.17,0h0a0.08,0.08,0,0,1-.08.08h0a0.08,0.08,0,0,1-.08-0.08h0M18.39,10a0.08,0.08,0,1,1,.08.08A0.08,0.08,0,0,1,18.39,10m0.18,0.18a0.08,0.08,0,1,1,.08.08,0.08,0.08,0,0,1-.08-0.08m0.18,0.18a0.08,0.08,0,0,1,.08-0.08c0.08,0,.08,0,0.08.08a0.08,0.08,0,1,1-.17,0m0.18,0.18A0.08,0.08,0,0,1,19,10.44c0.09,0,.08,0,0.08.09a0.08,0.08,0,0,1-.17,0m0.45,5.82h0"/><path class="cls-2" d="M10.27,18.22l-0.14.52-0.1.08a0.37,0.37,0,0,1,.21,0,0.22,0.22,0,0,1,.09.06l0.32,0.35a0.18,0.18,0,0,0,0,.15,0.49,0.49,0,0,0,.19,0l-0.08-.1,0.11-.1h0l-0.38-.43a0.24,0.24,0,0,0-.15,0l0.12-.47,0.07-.05-0.15-.11a0.08,0.08,0,0,1,0-.07l0.05,0a0.16,0.16,0,0,0-.17.05,0.3,0.3,0,0,0,0,.19M11.51,19a0.48,0.48,0,0,1-.19,0,0.17,0.17,0,0,1,0-.15L11,18.47a0.2,0.2,0,0,0-.08-0.07,0.38,0.38,0,0,0-.21,0l0.11-.08L11,17.85a0.29,0.29,0,0,1,0-.19,0.16,0.16,0,0,1,.17,0l-0.05,0a0.08,0.08,0,0,0,0,.07l0.14,0.11-0.07,0L11,18.35a0.23,0.23,0,0,1,.14,0l0.35,0.44h0l-0.11.09L11.51,19m0.66-.26a0.47,0.47,0,0,1-.18,0,0.17,0.17,0,0,1,0-.15l-0.27-.37a0.2,0.2,0,0,0-.08-0.07,0.36,0.36,0,0,0-.2,0l0.11-.07,0.18-.49a0.29,0.29,0,0,1,0-.19,0.16,0.16,0,0,1,.17,0l-0.05,0a0.08,0.08,0,0,0,0,.07L12,17.58l-0.08,0-0.16.45a0.23,0.23,0,0,1,.14,0l0.33,0.45h0l-0.11.09,0.06,0.1m0.66-.21a0.47,0.47,0,0,1-.18,0,0.17,0.17,0,0,1,0-.14L12.41,18a0.2,0.2,0,0,0-.07-0.07,0.37,0.37,0,0,0-.2,0l0.11-.06,0.21-.47a0.29,0.29,0,0,1,0-.19,0.16,0.16,0,0,1,.17,0l-0.06,0a0.08,0.08,0,0,0,0,.07l0.12,0.12-0.08,0-0.19.43a0.23,0.23,0,0,1,.14,0l0.3,0.46h0l-0.12.08,0.06,0.1m0.66-.15a0.46,0.46,0,0,1-.17-0.05,0.17,0.17,0,0,1,0-.14l-0.22-.39A0.2,0.2,0,0,0,13,17.72a0.36,0.36,0,0,0-.2,0L13,17.66l0.23-.46a0.28,0.28,0,0,1,0-.19,0.15,0.15,0,0,1,.17,0l-0.06,0a0.07,0.07,0,0,0,0,.07l0.11,0.13-0.08,0-0.21.42a0.23,0.23,0,0,1,.14,0l0.27,0.47h0l-0.12.07,0.05,0.11m0.66-.09A0.45,0.45,0,0,1,14,18.23a0.17,0.17,0,0,1,0-.14l-0.2-.4a0.2,0.2,0,0,0-.06-0.08,0.35,0.35,0,0,0-.2,0l0.11,0,0.26-.44a0.28,0.28,0,0,1,0-.18,0.15,0.15,0,0,1,.17,0l-0.06,0A0.07,0.07,0,0,0,14,17l0.11,0.14-0.08,0-0.23.4a0.23,0.23,0,0,1,.13,0l0.24,0.49,0,0-0.12.06,0,0.11m0.67,0a0.46,0.46,0,0,1-.17-0.07,0.17,0.17,0,0,1,0-.14l-0.18-.41a0.21,0.21,0,0,0-.06-0.08,0.35,0.35,0,0,0-.2,0l0.12,0,0.28-.43a0.28,0.28,0,0,1,0-.18,0.15,0.15,0,0,1,.17,0l-0.06,0a0.08,0.08,0,0,0,0,.07l0.1,0.14-0.08,0-0.25.39a0.23,0.23,0,0,1,.13.05l0.21,0.5,0,0-0.13.06,0,0.11m0.67,0a0.47,0.47,0,0,1-.16-0.08,0.17,0.17,0,0,1,0-.14l-0.15-.42a0.21,0.21,0,0,0-.06-0.09,0.36,0.36,0,0,0-.2,0l0.12,0,0.31-.41a0.28,0.28,0,0,1,0-.18,0.15,0.15,0,0,1,.17,0l-0.06,0a0.08,0.08,0,0,0,0,.07l0.09,0.15-0.08,0-0.27.37a0.23,0.23,0,0,1,.13.06l0.18,0.51,0,0-0.13,0,0,0.11m0.67,0.07A0.46,0.46,0,0,1,16,18.24a0.17,0.17,0,0,1,0-.13l-0.13-.43a0.2,0.2,0,0,0,0-.09,0.36,0.36,0,0,0-.19-0.05l0.12,0,0.33-.39a0.28,0.28,0,0,1,.06-0.18,0.15,0.15,0,0,1,.17,0l-0.06,0a0.07,0.07,0,0,0,0,.07l0.08,0.15-0.09,0-0.3.36a0.23,0.23,0,0,1,.12.06l0.16,0.52,0,0-0.13,0,0,0.11m0.67,0.12a0.45,0.45,0,0,1-.15-0.1,0.17,0.17,0,0,1,.06-0.13l-0.11-.44a0.21,0.21,0,0,0,0-.09,0.36,0.36,0,0,0-.19-0.06l0.12,0,0.35-.38A0.29,0.29,0,0,1,16.92,17a0.15,0.15,0,0,1,.17,0l-0.06,0a0.08,0.08,0,0,0,0,.07l0.07,0.16H17l-0.32.35a0.23,0.23,0,0,1,.12.07l0.13,0.53,0,0-0.14,0,0,0.12m0.67,0.18a0.46,0.46,0,0,1-.15-0.11,0.17,0.17,0,0,1,.06-0.13l-0.08-.45a0.2,0.2,0,0,0,0-.1,0.36,0.36,0,0,0-.19-0.07l0.13,0,0.38-.36a0.29,0.29,0,0,1,.08-0.18,0.16,0.16,0,0,1,.17,0H17.77a0.08,0.08,0,0,0,0,.07l0.07,0.16H17.72l-0.34.33a0.24,0.24,0,0,1,.12.08l0.1,0.55,0,0-0.14,0v0.12m0.67,0.24A0.47,0.47,0,0,1,18,18.75a0.17,0.17,0,0,1,.07-0.13L18,18.16a0.21,0.21,0,0,0,0-.1A0.36,0.36,0,0,0,17.8,18h0.13l0.4-.35a0.29,0.29,0,0,1,.09-0.17,0.16,0.16,0,0,1,.17,0H18.52a0.08,0.08,0,0,0,0,.06l0.06,0.17H18.45l-0.36.32a0.23,0.23,0,0,1,.12.09l0.07,0.56,0,0-0.14,0v0.12m0.91-1-0.43.33H18.52a0.36,0.36,0,0,1,.19.1,0.2,0.2,0,0,1,0,.1l0,0.47a0.18,0.18,0,0,0-.08.13,0.49,0.49,0,0,0,.14.13V19H19l0,0,0-.57a0.24,0.24,0,0,0-.11-0.09l0.38-.3h0.09l-0.05-.17a0.08,0.08,0,0,1,0-.06h0.07a0.16,0.16,0,0,0-.17-0.06,0.3,0.3,0,0,0-.1.17"/><path class="cls-2" d="M19.68,18.2l-0.43.33H19.12a0.37,0.37,0,0,1,.19.1,0.2,0.2,0,0,1,0,.1l0,0.47a0.18,0.18,0,0,0-.08.13,0.48,0.48,0,0,0,.14.13V19.34h0.15l0,0,0-.57a0.24,0.24,0,0,0-.11-0.09l0.38-.3h0.09l-0.05-.17a0.08,0.08,0,0,1,0-.06h0.07A0.16,0.16,0,0,0,19.78,18a0.3,0.3,0,0,0-.1.17m0-7.35,0.14-.52,0.1-.08a0.37,0.37,0,0,1-.21,0,0.22,0.22,0,0,1-.09-0.06l-0.32-.35a0.18,0.18,0,0,0,0-.15,0.49,0.49,0,0,0-.19,0l0.08,0.1L19,9.91h0l0.38,0.43a0.24,0.24,0,0,0,.15,0l-0.12.47-0.07.05L19.54,11a0.08,0.08,0,0,1,0,.07l-0.05,0a0.16,0.16,0,0,0,.17-0.05,0.3,0.3,0,0,0,0-.2m-1.24-.79a0.47,0.47,0,0,1,.19,0,0.17,0.17,0,0,1,0,.15l0.3,0.36a0.2,0.2,0,0,0,.08.07,0.37,0.37,0,0,0,.21,0l-0.11.08-0.16.51a0.29,0.29,0,0,1,0,.19,0.16,0.16,0,0,1-.17,0l0.05,0a0.08,0.08,0,0,0,0-.07l-0.14-.11,0.08,0,0.14-.46a0.24,0.24,0,0,1-.15,0l-0.35-.44h0l0.11-.09-0.07-.1m-0.66.26a0.47,0.47,0,0,1,.18,0,0.17,0.17,0,0,1,0,.15l0.27,0.37a0.21,0.21,0,0,0,.08.07,0.37,0.37,0,0,0,.2,0L18.36,11l-0.18.49a0.29,0.29,0,0,1,0,.19,0.16,0.16,0,0,1-.17,0l0.05,0a0.08,0.08,0,0,0,0-.07l-0.13-.12,0.08,0L18.18,11A0.23,0.23,0,0,1,18,11l-0.33-.45h0l0.11-.09-0.06-.1m-0.66.21a0.47,0.47,0,0,1,.18,0,0.17,0.17,0,0,1,0,.14l0.25,0.38a0.21,0.21,0,0,0,.07.07,0.36,0.36,0,0,0,.2,0l-0.11.06-0.21.47a0.28,0.28,0,0,1,0,.19,0.15,0.15,0,0,1-.17,0l0.06,0a0.08,0.08,0,0,0,0-.07l-0.12-.12,0.08,0,0.18-.43a0.23,0.23,0,0,1-.14,0L17,10.73h0l0.12-.08-0.06-.1m-0.66.15a0.46,0.46,0,0,1,.17.05,0.17,0.17,0,0,1,0,.14l0.22,0.39a0.2,0.2,0,0,0,.07.08,0.35,0.35,0,0,0,.2,0L17,11.42l-0.23.46a0.28,0.28,0,0,1,0,.19,0.15,0.15,0,0,1-.17,0l0.06,0a0.08,0.08,0,0,0,0-.07l-0.11-.13,0.08,0,0.21-.42a0.23,0.23,0,0,1-.14,0l-0.27-.47h0l0.12-.07-0.05-.11m-0.66.09a0.46,0.46,0,0,1,.17.06,0.17,0.17,0,0,1,0,.14l0.2,0.4a0.2,0.2,0,0,0,.06.08,0.36,0.36,0,0,0,.2,0l-0.11,0L16,12a0.28,0.28,0,0,1,0,.19,0.15,0.15,0,0,1-.17,0l0.06,0a0.08,0.08,0,0,0,0-.07l-0.11-.13,0.08,0,0.23-.4a0.23,0.23,0,0,1-.13,0L15.7,11l0,0,0.12-.06,0-.11m-0.67,0a0.46,0.46,0,0,1,.17.07,0.17,0.17,0,0,1,0,.14l0.18,0.41a0.2,0.2,0,0,0,.06.08,0.36,0.36,0,0,0,.2,0l-0.12,0L15.25,12a0.28,0.28,0,0,1,0,.18,0.15,0.15,0,0,1-.17,0l0.06,0a0.07,0.07,0,0,0,0-.07L15,12l0.08,0,0.25-.39a0.23,0.23,0,0,1-.13-0.05L15,11l0,0,0.13-.06,0-.11m-0.67,0a0.44,0.44,0,0,1,.16.08,0.16,0.16,0,0,1,0,.14l0.15,0.42a0.21,0.21,0,0,0,.06.09,0.35,0.35,0,0,0,.2,0l-0.12,0-0.3.41a0.28,0.28,0,0,1,0,.18,0.15,0.15,0,0,1-.17,0l0.06,0a0.08,0.08,0,0,0,0-.07L14.3,12l0.08,0,0.27-.37a0.23,0.23,0,0,1-.13-0.06L14.34,11l0,0,0.13,0,0-.11m-0.67-.07a0.45,0.45,0,0,1,.16.09,0.17,0.17,0,0,1,0,.13L14,11.4a0.21,0.21,0,0,0,.05.09,0.36,0.36,0,0,0,.19.05l-0.12,0L13.78,12a0.28,0.28,0,0,1-.06.18,0.15,0.15,0,0,1-.17,0l0.06,0a0.08,0.08,0,0,0,0-.07l-0.08-.15,0.09,0,0.3-.36a0.23,0.23,0,0,1-.12-0.06l-0.16-.52,0,0,0.13,0,0-.11m-0.67-.12a0.47,0.47,0,0,1,.15.1,0.17,0.17,0,0,1-.06.13l0.11,0.44a0.21,0.21,0,0,0,0,.09,0.35,0.35,0,0,0,.19.06l-0.12,0L13,11.85A0.29,0.29,0,0,1,13,12a0.15,0.15,0,0,1-.17,0l0.06,0a0.08,0.08,0,0,0,0-.07l-0.07-.16h0.09l0.32-.35a0.23,0.23,0,0,1-.12-0.07L13,10.8l0,0,0.14,0,0-.12m-0.67-.18a0.47,0.47,0,0,1,.15.11,0.17,0.17,0,0,1-.06.13l0.08,0.45a0.21,0.21,0,0,0,0,.1,0.36,0.36,0,0,0,.19.07l-0.13,0-0.38.36a0.29,0.29,0,0,1-.08.18,0.16,0.16,0,0,1-.17,0h0.07a0.08,0.08,0,0,0,0-.07l-0.08-.13,0.07,0,0.37-.35a0.23,0.23,0,0,1-.12-0.08l-0.1-.55,0,0,0.14,0V10.44m-0.67-.24a0.47,0.47,0,0,1,.15.12,0.17,0.17,0,0,1-.07.13l0.06,0.46a0.21,0.21,0,0,0,0,.1,0.37,0.37,0,0,0,.19.09H12l-0.4.35a0.29,0.29,0,0,1-.09.17,0.16,0.16,0,0,1-.17,0h0.07a0.08,0.08,0,0,0,0-.06l-0.06-.17h0.09L11.82,11a0.23,0.23,0,0,1-.12-0.09l-0.07-.56,0,0,0.14,0V10.21m-0.91,1,0.43-.33h0.13a0.37,0.37,0,0,1-.19-0.1,0.21,0.21,0,0,1,0-.1l0-.47A0.18,0.18,0,0,0,11.21,10a0.48,0.48,0,0,0-.14-0.13V10H10.93l0,0,0,0.57a0.24,0.24,0,0,0,.11.09l-0.39.3H10.63l0.05,0.17a0.08,0.08,0,0,1,0,.06H10.57a0.16,0.16,0,0,0,.17.06,0.3,0.3,0,0,0,.1-0.17"/><path class="cls-2" d="M10.22,10.87l0.43-.33h0.13a0.37,0.37,0,0,1-.19-0.1,0.22,0.22,0,0,1,0-.1l0-.47a0.18,0.18,0,0,0,.08-0.13,0.49,0.49,0,0,0-.14-0.13V9.74H10.32l0,0,0,0.57a0.24,0.24,0,0,0,.11.1l-0.38.3H10l0.05,0.17A0.08,0.08,0,0,1,10,11H10a0.16,0.16,0,0,0,.16.06,0.29,0.29,0,0,0,.1-0.17"/><path class="cls-6" d="M10.2,18.22l-0.14.52-0.1.08a0.37,0.37,0,0,1,.21,0,0.22,0.22,0,0,1,.09.06l0.32,0.35a0.18,0.18,0,0,0,0,.15,0.49,0.49,0,0,0,.19,0l-0.08-.1,0.11-.1h0l-0.38-.43a0.24,0.24,0,0,0-.15,0l0.12-.47,0.07-.05-0.15-.11a0.08,0.08,0,0,1,0-.07l0.05,0a0.16,0.16,0,0,0-.17.05,0.29,0.29,0,0,0,0,.19M11.44,19a0.48,0.48,0,0,1-.19,0,0.17,0.17,0,0,1,0-.15L11,18.47a0.21,0.21,0,0,0-.08-0.07,0.37,0.37,0,0,0-.21,0l0.1-.08,0.16-.51a0.29,0.29,0,0,1,0-.19,0.16,0.16,0,0,1,.17,0l-0.05,0a0.08,0.08,0,0,0,0,.07l0.14,0.11-0.08,0L11,18.35a0.23,0.23,0,0,1,.14,0l0.35,0.44h0l-0.11.09L11.45,19m0.66-.26a0.47,0.47,0,0,1-.18,0,0.17,0.17,0,0,1,0-.15l-0.27-.37a0.21,0.21,0,0,0-.08-0.07,0.35,0.35,0,0,0-.2,0l0.11-.07,0.18-.49a0.29,0.29,0,0,1,0-.19,0.15,0.15,0,0,1,.17,0l-0.05,0a0.08,0.08,0,0,0,0,.07l0.13,0.12-0.08,0-0.16.45a0.23,0.23,0,0,1,.14,0l0.33,0.45h0L12,18.64l0.06,0.1m0.66-.21a0.47,0.47,0,0,1-.18,0,0.17,0.17,0,0,1,0-.14L12.35,18a0.21,0.21,0,0,0-.07-0.07,0.36,0.36,0,0,0-.2,0l0.11-.06,0.21-.47a0.28,0.28,0,0,1,0-.19,0.16,0.16,0,0,1,.17,0l-0.06,0a0.08,0.08,0,0,0,0,.07l0.12,0.12-0.08,0-0.18.43a0.23,0.23,0,0,1,.14,0l0.3,0.46h0l-0.12.08,0.06,0.1m0.66-.15a0.47,0.47,0,0,1-.17-0.05,0.17,0.17,0,0,1,0-.14l-0.22-.39A0.2,0.2,0,0,0,13,17.72a0.36,0.36,0,0,0-.2,0l0.11-.06,0.23-.46a0.28,0.28,0,0,1,0-.19,0.15,0.15,0,0,1,.17,0l-0.06,0a0.08,0.08,0,0,0,0,.07l0.11,0.13-0.08,0-0.21.42a0.24,0.24,0,0,1,.14,0l0.27,0.47h0l-0.12.07,0.05,0.11m0.66-.09a0.45,0.45,0,0,1-.17-0.06,0.17,0.17,0,0,1,0-.14l-0.2-.4a0.2,0.2,0,0,0-.06-0.08,0.35,0.35,0,0,0-.2,0l0.11,0,0.26-.44a0.28,0.28,0,0,1,0-.18,0.15,0.15,0,0,1,.17,0l-0.06,0A0.08,0.08,0,0,0,14,17l0.11,0.14-0.08,0-0.23.4a0.23,0.23,0,0,1,.13,0l0.24,0.49,0,0-0.12.06,0,0.11m0.67,0a0.46,0.46,0,0,1-.17-0.07,0.17,0.17,0,0,1,0-.14l-0.18-.41a0.2,0.2,0,0,0-.06-0.08,0.35,0.35,0,0,0-.2,0l0.12,0,0.28-.43a0.28,0.28,0,0,1,0-.18,0.15,0.15,0,0,1,.17,0l-0.06,0a0.08,0.08,0,0,0,0,.07l0.1,0.14-0.08,0-0.25.39a0.23,0.23,0,0,1,.13.05l0.21,0.5,0,0-0.13.06,0,0.11m0.67,0a0.47,0.47,0,0,1-.16-0.08,0.17,0.17,0,0,1,0-.14l-0.15-.42a0.19,0.19,0,0,0-.05-0.09,0.36,0.36,0,0,0-.2,0l0.12,0,0.3-.41a0.28,0.28,0,0,1,0-.18,0.15,0.15,0,0,1,.17,0l-0.06,0a0.08,0.08,0,0,0,0,.07l0.09,0.15-0.08,0-0.27.37a0.23,0.23,0,0,1,.13.06l0.18,0.51,0,0-0.13,0,0,0.11m0.67,0.07a0.47,0.47,0,0,1-.16-0.09,0.17,0.17,0,0,1,0-.13l-0.13-.43a0.21,0.21,0,0,0,0-.09,0.36,0.36,0,0,0-.19-0.05l0.12,0,0.33-.39a0.28,0.28,0,0,1,.06-0.18,0.15,0.15,0,0,1,.17,0l-0.06,0a0.08,0.08,0,0,0,0,.07l0.08,0.15-0.09,0-0.3.36a0.23,0.23,0,0,1,.12.06l0.16,0.52,0,0-0.13,0,0,0.11m0.67,0.12a0.46,0.46,0,0,1-.15-0.1,0.17,0.17,0,0,1,.06-0.13l-0.11-.44a0.21,0.21,0,0,0,0-.09,0.36,0.36,0,0,0-.19-0.06l0.12,0,0.35-.38A0.29,0.29,0,0,1,16.86,17a0.15,0.15,0,0,1,.17,0l-0.06,0a0.08,0.08,0,0,0,0,.07L17,17.31H16.92l-0.32.35a0.23,0.23,0,0,1,.12.07l0.13,0.53,0,0-0.14,0,0,0.12m0.67,0.18a0.46,0.46,0,0,1-.15-0.11,0.17,0.17,0,0,1,.07-0.13l-0.08-.45a0.2,0.2,0,0,0,0-.1A0.36,0.36,0,0,0,17,17.77l0.13,0,0.38-.36a0.29,0.29,0,0,1,.08-0.18,0.16,0.16,0,0,1,.17,0H17.71a0.08,0.08,0,0,0,0,.07l0.07,0.16H17.66l-0.34.33a0.24,0.24,0,0,1,.12.08l0.1,0.55,0,0-0.14,0v0.12m0.67,0.24A0.48,0.48,0,0,1,18,18.75,0.17,0.17,0,0,1,18,18.62L18,18.16a0.21,0.21,0,0,0,0-.1A0.36,0.36,0,0,0,17.74,18h0.13l0.4-.35a0.3,0.3,0,0,1,.09-0.17,0.16,0.16,0,0,1,.17,0H18.46a0.08,0.08,0,0,0,0,.06l0.06,0.17H18.39L18,18.06a0.23,0.23,0,0,1,.12.09l0.07,0.56,0,0-0.14,0v0.12m0.91-1-0.43.33H18.45a0.37,0.37,0,0,1,.19.1,0.22,0.22,0,0,1,0,.1l0,0.47a0.18,0.18,0,0,0-.08.13,0.49,0.49,0,0,0,.14.13V19h0.15l0,0,0-.57a0.24,0.24,0,0,0-.11-0.09l0.38-.3h0.09l-0.05-.17a0.08,0.08,0,0,1,0-.06h0.07a0.16,0.16,0,0,0-.17-0.06,0.3,0.3,0,0,0-.1.17"/><path class="cls-6" d="M19.62,18.2l-0.43.33H19.06a0.37,0.37,0,0,1,.19.1,0.21,0.21,0,0,1,0,.1l0,0.47a0.18,0.18,0,0,0-.08.13,0.49,0.49,0,0,0,.14.13V19.34h0.15l0,0,0-.57a0.25,0.25,0,0,0-.11-0.09l0.38-.3h0.09l-0.05-.17a0.08,0.08,0,0,1,0-.06h0.07A0.16,0.16,0,0,0,19.72,18a0.3,0.3,0,0,0-.1.17m0-7.35,0.13-.52,0.1-.08a0.37,0.37,0,0,1-.21,0,0.21,0.21,0,0,1-.09-0.06L19.2,9.88a0.17,0.17,0,0,0,0-.15,0.49,0.49,0,0,0-.19,0l0.08,0.1L19,9.91h0l0.38,0.43a0.24,0.24,0,0,0,.15,0l-0.12.47-0.07.05L19.48,11a0.08,0.08,0,0,1,0,.07l-0.05,0a0.16,0.16,0,0,0,.17-0.05,0.3,0.3,0,0,0,0-.2m-1.24-.79a0.47,0.47,0,0,1,.19,0,0.17,0.17,0,0,1,0,.15l0.29,0.36a0.21,0.21,0,0,0,.08.07,0.37,0.37,0,0,0,.2,0l-0.1.08-0.16.51a0.29,0.29,0,0,1,0,.19,0.16,0.16,0,0,1-.17,0l0.05,0a0.08,0.08,0,0,0,0-.07l-0.14-.11,0.08,0,0.14-.46a0.23,0.23,0,0,1-.14,0l-0.35-.44h0l0.11-.09-0.07-.1m-0.66.26a0.47,0.47,0,0,1,.18,0,0.17,0.17,0,0,1,0,.15l0.27,0.37a0.21,0.21,0,0,0,.08.07,0.37,0.37,0,0,0,.2,0L18.3,11l-0.18.49a0.29,0.29,0,0,1,0,.19,0.16,0.16,0,0,1-.17,0l0.05,0a0.08,0.08,0,0,0,0-.07l-0.13-.12,0.08,0L18.12,11A0.23,0.23,0,0,1,18,11l-0.33-.45h0l0.11-.09-0.06-.1M17,10.54a0.47,0.47,0,0,1,.18,0,0.17,0.17,0,0,1,0,.14l0.25,0.38a0.2,0.2,0,0,0,.07.07,0.36,0.36,0,0,0,.2,0l-0.11.06-0.21.47a0.28,0.28,0,0,1,0,.19,0.15,0.15,0,0,1-.17,0l0.06,0a0.08,0.08,0,0,0,0-.07l-0.12-.12,0.08,0,0.18-.43a0.23,0.23,0,0,1-.14,0L17,10.73h0l0.12-.08L17,10.54m-0.66.15a0.47,0.47,0,0,1,.17.05,0.17,0.17,0,0,1,0,.14l0.22,0.39a0.2,0.2,0,0,0,.07.08,0.35,0.35,0,0,0,.2,0l-0.11.06-0.23.46a0.28,0.28,0,0,1,0,.19,0.15,0.15,0,0,1-.17,0l0.06,0a0.08,0.08,0,0,0,0-.07l-0.11-.13,0.08,0,0.21-.42a0.23,0.23,0,0,1-.14,0l-0.27-.47h0l0.12-.07-0.05-.11m-0.66.09a0.46,0.46,0,0,1,.17.06,0.17,0.17,0,0,1,0,.14l0.2,0.4a0.19,0.19,0,0,0,.06.08,0.35,0.35,0,0,0,.2,0l-0.11,0L15.93,12a0.28,0.28,0,0,1,0,.19,0.15,0.15,0,0,1-.17,0l0.06,0a0.08,0.08,0,0,0,0-.07l-0.11-.13,0.08,0L16,11.5a0.23,0.23,0,0,1-.13,0L15.63,11l0,0,0.12-.06,0-.11m-0.67,0a0.46,0.46,0,0,1,.17.07,0.16,0.16,0,0,1,0,.14l0.18,0.41a0.19,0.19,0,0,0,.06.08,0.35,0.35,0,0,0,.2,0l-0.12,0L15.19,12a0.28,0.28,0,0,1,0,.18,0.15,0.15,0,0,1-.17,0l0.06,0a0.08,0.08,0,0,0,0-.07L15,12l0.08,0,0.25-.39a0.22,0.22,0,0,1-.13-0.05L15,11l0,0,0.13-.06,0-.11m-0.67,0a0.45,0.45,0,0,1,.16.08,0.17,0.17,0,0,1,0,.14l0.15,0.42a0.2,0.2,0,0,0,.05.09,0.35,0.35,0,0,0,.2,0l-0.12,0-0.3.41a0.28,0.28,0,0,1,0,.18,0.15,0.15,0,0,1-.17,0l0.06,0a0.08,0.08,0,0,0,0-.07L14.24,12l0.08,0,0.27-.37a0.23,0.23,0,0,1-.13-0.06L14.28,11l0,0,0.13,0,0-.11m-0.67-.07a0.46,0.46,0,0,1,.16.09,0.17,0.17,0,0,1,0,.13l0.13,0.43a0.2,0.2,0,0,0,.05.09,0.36,0.36,0,0,0,.19.05l-0.12,0L13.72,12a0.28,0.28,0,0,1-.06.18,0.15,0.15,0,0,1-.17,0l0.06,0a0.08,0.08,0,0,0,0-.07l-0.08-.15,0.08,0,0.3-.36a0.23,0.23,0,0,1-.12-0.06l-0.16-.52,0,0,0.13,0,0-.11M13,10.62a0.47,0.47,0,0,1,.15.1,0.17,0.17,0,0,1-.06.13l0.11,0.44a0.2,0.2,0,0,0,0,.09,0.35,0.35,0,0,0,.19.06l-0.12,0L13,11.85a0.29,0.29,0,0,1-.07.18,0.15,0.15,0,0,1-.17,0l0.06,0a0.08,0.08,0,0,0,0-.07l-0.07-.16h0.09l0.32-.35a0.23,0.23,0,0,1-.12-0.07l-0.13-.53,0,0,0.14,0,0-.12m-0.67-.18a0.47,0.47,0,0,1,.15.11,0.17,0.17,0,0,1-.06.13l0.08,0.45a0.21,0.21,0,0,0,0,.1,0.36,0.36,0,0,0,.19.07l-0.13,0-0.38.36a0.29,0.29,0,0,1-.08.18,0.15,0.15,0,0,1-.17,0h0.07a0.08,0.08,0,0,0,0-.07L12,11.61l0.07,0,0.37-.35a0.23,0.23,0,0,1-.12-0.08l-0.1-.55,0,0,0.14,0V10.44m-0.67-.24a0.48,0.48,0,0,1,.15.12,0.18,0.18,0,0,1-.07.13l0.06,0.46a0.21,0.21,0,0,0,0,.1,0.37,0.37,0,0,0,.19.09H11.91l-0.4.35a0.29,0.29,0,0,1-.09.17,0.16,0.16,0,0,1-.17,0h0.07a0.08,0.08,0,0,0,0-.06l-0.06-.17h0.09L11.75,11a0.23,0.23,0,0,1-.12-0.09l-0.07-.56,0,0,0.14,0V10.21m-0.91,1,0.43-.33h0.13a0.37,0.37,0,0,1-.19-0.1,0.21,0.21,0,0,1,0-.1l0-.47A0.18,0.18,0,0,0,11.15,10,0.48,0.48,0,0,0,11,9.91V10H10.86l0,0,0,0.57a0.24,0.24,0,0,0,.11.09l-0.38.3H10.57l0.05,0.17a0.08,0.08,0,0,1,0,.06H10.51a0.16,0.16,0,0,0,.17.06,0.3,0.3,0,0,0,.1-0.17"/><path class="cls-6" d="M10.16,10.87l0.43-.33h0.13a0.37,0.37,0,0,1-.19-0.1,0.21,0.21,0,0,1,0-.1l0-.47a0.18,0.18,0,0,0,.08-0.13,0.49,0.49,0,0,0-.14-0.13V9.74H10.25l0,0,0,0.57a0.24,0.24,0,0,0,.11.1l-0.38.3H10L10,10.92A0.08,0.08,0,0,1,10,11H9.9a0.16,0.16,0,0,0,.17.06,0.29,0.29,0,0,0,.1-0.17"/><path class="cls-2" d="M2.67,13.92l2-.69a3,3,0,0,0,1.11.39,1.17,1.17,0,0,0,0,.51c0,0.12.43,1,.43,1l-1.26.46L4.47,14.52,4,14.41l-0.11.53,1.32,3.28,0.41,0.09,0.23-.41L5.6,17.13l-0.34.13L4.81,16.15l1.61-.59,0.67,1.67a2,2,0,0,0,.35.51,1.36,1.36,0,0,0-.47,1l-2,.77A1,1,0,0,0,4.05,19a2.35,2.35,0,0,0-.25-0.56L2.63,15.59a1.78,1.78,0,0,0-.42-0.66,1.1,1.1,0,0,0,.47-1m8.27-2.05,1.79-.17a1.63,1.63,0,0,0,.55.8,0.56,0.56,0,0,0-.08.56c0.16,0.48,1,2.81,1.06,2.94a1.62,1.62,0,0,0,.53.59,1.63,1.63,0,0,0-.3.91l-1.36.08a2.44,2.44,0,0,0-.49-0.86,0.41,0.41,0,0,0,.23-0.52l-0.1-.31L11.72,16q0,0.16,0,.32a0.47,0.47,0,0,0,.34.46,2,2,0,0,0-.22.94l-1.47.21a1.84,1.84,0,0,0-.4-0.85,1.34,1.34,0,0,0,.38-0.79c0-.22.17-1.18,0.27-2,0.08-.59.08-1,0.1-1.07a0.57,0.57,0,0,0-.13-0.52,1.52,1.52,0,0,0,.37-0.88h0Zm1.19,2.19c0-.15-0.14-0.54-0.14-0.54s0,0.43-.05.57l-0.11.76,0.57-.06s-0.22-.57-0.27-0.72h0Z"/><path class="cls-2" d="M17.9,11.75l1.41,0.13a2.57,2.57,0,0,0,.28.94,0.82,0.82,0,0,0-.43.66L19,16.29a0.61,0.61,0,0,0,.21.53,3.31,3.31,0,0,0-.49.93l-1.1-.13L16.66,15l-0.13-.54c0,0.1,0,.46,0,0.56l-0.07,1a0.79,0.79,0,0,0,.33.66,2.06,2.06,0,0,0-.46.87l-1.25,0a1.83,1.83,0,0,0-.35-0.9A1.15,1.15,0,0,0,15.16,16l0.18-2.83a0.69,0.69,0,0,0-.23-0.68,2,2,0,0,0,.32-0.83l1.41,0,0.87,2.46,0.08,0.57v-0.6l0.05-.82a0.73,0.73,0,0,0-.26-0.66,4.16,4.16,0,0,0,.32-0.85m-9.17,2c0.07,0.32.7,2.61,0.72,2.69a0.9,0.9,0,0,0,.54.58,1,1,0,0,0-.15,1l-1.36.34a1.07,1.07,0,0,0-.6-0.78,0.86,0.86,0,0,0,.19-0.81L7.41,14.17a1,1,0,0,0-.58-0.68A1.26,1.26,0,0,0,7,12.59l1.41-.32A1.14,1.14,0,0,0,9,13a0.93,0.93,0,0,0-.24.78"/><path class="cls-2" d="M20.67,16.49l0.69-3a1.75,1.75,0,0,0-1.07.48l-0.77-.73a3.06,3.06,0,0,0,1.14-1.14l3.29,0.69a3,3,0,0,0,.39,1.49l-1,.32a1.89,1.89,0,0,0-.66-0.92L22,16.79a0.91,0.91,0,0,0,.2.76,1.1,1.1,0,0,0-.57.79L20.31,18a1.13,1.13,0,0,0-.16-1,0.9,0.9,0,0,0,.52-0.58m2.77,0.84,0.25-.63L25,17.2l-0.34.89,0.19,0.38,0.4-.16,0.37-1-1.76-1.39a1.4,1.4,0,0,0,.27-0.44c0.06-.15.4-0.86,0.46-1.07a1.32,1.32,0,0,0,.08-0.7,1.18,1.18,0,0,0,1-.46l1.82,0.66A3.05,3.05,0,0,0,28.17,15a1.6,1.6,0,0,0-.34.49l-0.32.89-1.27-.5,0.37-1V14.71l-0.16-.26L26,14.62l-0.43,1L27.3,17a1.42,1.42,0,0,0-.24.41c-0.15.37-.47,1.22-0.47,1.22a1.77,1.77,0,0,0-.07.61,1.33,1.33,0,0,0-1.06.45L23.56,19a1.24,1.24,0,0,0-.35-1.1,1.16,1.16,0,0,0,.23-0.53"/><path class="cls-6" d="M2.47,13.82l2-.71a2.73,2.73,0,0,0,1.06.41,1.15,1.15,0,0,0,0,.51c0,0.12.42,1.06,0.42,1.06l-1.26.45L4.26,14.41,3.84,14.3l-0.14.5L5,18.08l0.43,0.13,0.24-.45L5.42,17,5,17.17,4.6,16.06l1.61-.59,0.67,1.67a2,2,0,0,0,.35.51,1.36,1.36,0,0,0-.47,1l-2,.77a1.14,1.14,0,0,0-1.08-.38,2.16,2.16,0,0,0-.11-0.74L2.42,15.49A1.51,1.51,0,0,0,2,14.82a1.11,1.11,0,0,0,.47-1m8.3-2.1,1.79-.17a1.62,1.62,0,0,0,.55.8,0.56,0.56,0,0,0-.08.56c0.16,0.48,1,2.81,1.06,2.94a1.44,1.44,0,0,0,.5.59,1.71,1.71,0,0,0-.27.91L13,17.43a2.43,2.43,0,0,0-.49-0.86,0.41,0.41,0,0,0,.23-0.52l-0.1-.31-1.06.13q0,0.16,0,.32a0.47,0.47,0,0,0,.33.46,2,2,0,0,0-.22.93l-1.47.21a1.66,1.66,0,0,0-.39-0.85,1.33,1.33,0,0,0,.37-0.79c0-.22.17-1.18,0.27-2,0.08-.59.09-1,0.1-1.07a0.57,0.57,0,0,0-.13-0.52,1.53,1.53,0,0,0,.37-0.88h0ZM12,13.91c0-.15-0.14-0.56-0.14-0.56s0,0.44,0,.58l-0.11.76,0.54-.06S12,14.06,12,13.91h0Zm5.8-2.33,1.41,0.13a2.55,2.55,0,0,0,.28.94,0.82,0.82,0,0,0-.43.66l-0.19,2.81a0.61,0.61,0,0,0,.21.53,3.31,3.31,0,0,0-.49.93l-1.1-.13-0.92-2.62-0.15-.72c0,0.1,0,.64,0,0.73l-0.07,1a0.79,0.79,0,0,0,.33.66,2.06,2.06,0,0,0-.46.87l-1.25,0a1.81,1.81,0,0,0-.32-0.9A1,1,0,0,0,15,15.81L15.19,13a0.7,0.7,0,0,0-.28-0.65,2.33,2.33,0,0,0,.37-0.86l1.35,0L17.5,14l0.18,0.72,0-.76,0.05-.82a0.76,0.76,0,0,0-.32-0.64,4.45,4.45,0,0,0,.38-0.87M8.53,13.66c0.07,0.32.69,2.62,0.72,2.7a0.85,0.85,0,0,0,.5.59,1,1,0,0,0-.11,1l-1.36.34a1.07,1.07,0,0,0-.6-0.78,0.86,0.86,0,0,0,.19-0.81C7.81,16.42,7.19,14.14,7.16,14a0.88,0.88,0,0,0-.55-0.6,1.31,1.31,0,0,0,.18-0.92l1.41-.32a1.14,1.14,0,0,0,.58.74,0.93,0.93,0,0,0-.24.78m12,2.63,0.69-3a1.66,1.66,0,0,0-1,.46L19.43,13a2.93,2.93,0,0,0,1.11-1.12l3.23,0.68A3.17,3.17,0,0,0,24.28,14l-1,.33a1.72,1.72,0,0,0-.69-0.84L21.86,16.6a0.91,0.91,0,0,0,.2.76,1.11,1.11,0,0,0-.57.79l-1.31-.3a1.13,1.13,0,0,0-.16-1,0.9,0.9,0,0,0,.52-0.58m2.8,0.82,0.25-.63L24.92,17l-0.34.89,0.19,0.38,0.4-.16,0.37-1-1.76-1.39a2.2,2.2,0,0,0,.32-0.56c0.06-.15.34-0.73,0.4-0.94a1.32,1.32,0,0,0,.08-0.71,1.18,1.18,0,0,0,1-.46l1.91,0.69a2.79,2.79,0,0,0,.57,1,1.6,1.6,0,0,0-.34.49l-0.32.89-1.27-.5,0.37-1-0.21-.34-0.37.12-0.43,1,1.71,1.36a1.4,1.4,0,0,0-.24.41c-0.15.37-.47,1.22-0.47,1.22a1.73,1.73,0,0,0-.07.61,1.33,1.33,0,0,0-1.06.45l-1.9-.74A1.27,1.27,0,0,0,23,17.68a1.69,1.69,0,0,0,.4-0.57"/><path d="M4.83,19.25a1.24,1.24,0,0,0-1-.36,1.19,1.19,0,0,0-.08-0.53c-0.1-.25-1.1-2.66-1.21-2.93a1.69,1.69,0,0,0-.33-0.6,1.27,1.27,0,0,0,.4-0.89l1.79-.63a2.88,2.88,0,0,0,.91.33,1,1,0,0,0,0,.45C5.45,14.24,5.74,15,5.74,15l-0.91.34-0.43-1-0.65-.18-0.26.7,1.38,3.43,0.67,0.22,0.33-.63-0.39-1-0.34.13-0.3-.76,1.26-.48,0.61,1.51a1.31,1.31,0,0,0,.3.43,1.42,1.42,0,0,0-.43.93l-1.76.68m8.06-6.86a0.65,0.65,0,0,0,0,.59c0.14,0.42,1,2.82,1.07,3a1.32,1.32,0,0,0,.45.55,1.76,1.76,0,0,0-.22.71l-1.06.06a3,3,0,0,0-.39-0.65A0.48,0.48,0,0,0,12.86,16c0-.07-0.14-0.45-0.14-0.45l-1.37.17s0,0.36,0,.45a0.52,0.52,0,0,0,.3.55,1.72,1.72,0,0,0-.18.71l-1.15.17A1.67,1.67,0,0,0,10,16.94a1.26,1.26,0,0,0,.35-0.75c0.08-.38.33-2.81,0.38-3a0.63,0.63,0,0,0-.1-0.56,1.38,1.38,0,0,0,.32-0.71l1.51-.14a1.37,1.37,0,0,0,.45.64h0Zm-0.93,1c0-.12-0.2-0.55-0.2-0.55s-0.05.48-.07,0.57-0.21,1.49-.21,1.49l1-.11S12,13.5,12,13.38h0Zm6.46,4-0.85-.1s-0.92-2.63-1-2.89-0.26-.83-0.26-0.83c0,0.22,0,.58-0.05.85q-0.05.71-.1,1.42a0.86,0.86,0,0,0,.29.69,1.81,1.81,0,0,0-.38.66l-1,0a1.64,1.64,0,0,0-.29-0.69,0.94,0.94,0,0,0,.37-0.65L15.37,13a0.75,0.75,0,0,0-.25-0.69,2.19,2.19,0,0,0,.31-0.65l1.07,0,1,2.81c0.08,0.22.24,0.72,0.24,0.72,0-.19,0-0.42,0-0.65l0.09-1.45a0.74,0.74,0,0,0-.3-0.67,2.7,2.7,0,0,0,.3-0.66L19,11.88a2.47,2.47,0,0,0,.22.72,0.91,0.91,0,0,0-.4.7L18.64,16.1a0.66,0.66,0,0,0,.17.56,3,3,0,0,0-.4.73m-9,.39a1,1,0,0,1,0-.38A1.33,1.33,0,0,1,9.56,17a0.84,0.84,0,0,1-.26-0.21,1.15,1.15,0,0,1-.22-0.4L8.35,13.7a1.24,1.24,0,0,1,0-.42A1.15,1.15,0,0,1,8.53,13a0.77,0.77,0,0,1-.24-0.24,1,1,0,0,1-.21-0.36L7,12.6a1,1,0,0,1,0,.42,0.74,0.74,0,0,1-.11.31,1.19,1.19,0,0,1,.3.22,1.23,1.23,0,0,1,.19.37l0.73,2.73a1.16,1.16,0,0,1,0,.46,0.86,0.86,0,0,1-.13.31,1.38,1.38,0,0,1,.3.26,1.08,1.08,0,0,1,.18.34l1-.26M23.7,13.28a2.79,2.79,0,0,1-.12-0.58l-2.94-.62a5.32,5.32,0,0,1-.4.48,3.86,3.86,0,0,1-.52.45l0.49,0.46a1.44,1.44,0,0,1,1.26-.39l-0.74,3.24a1.15,1.15,0,0,1-.22.41,0.85,0.85,0,0,1-.26.22,1.33,1.33,0,0,1,.15.37,1,1,0,0,1,0,.38l1,0.22a1,1,0,0,1,.17-0.34,1.33,1.33,0,0,1,.3-0.27A0.85,0.85,0,0,1,21.7,17a1.16,1.16,0,0,1,0-.46l0.76-3.27a1.46,1.46,0,0,1,.92.87L24,13.94a3.06,3.06,0,0,1-.31-0.65m0.45,2.18a1.08,1.08,0,0,1-.14.23l1.73,1.36L25.3,18.23l-0.63.25-0.3-.6,0.3-.8-1-.38c-0.1.27-.2,0.51-0.21,0.53a2.29,2.29,0,0,1-.3.44,1.29,1.29,0,0,1,.45.93l1.67,0.65a1.41,1.41,0,0,1,.94-0.39,1.72,1.72,0,0,1,.07-0.51l0.39-1s0.11-.28.17-0.39A0.57,0.57,0,0,1,27,16.83L25.29,15.5l0.5-1.23,0.59-.2,0.34,0.53-0.34.94,0.93,0.37,0.28-.78a1.28,1.28,0,0,1,.26-0.37,3,3,0,0,1-.49-0.88l-1.69-.61a1.34,1.34,0,0,1-.91.4,1.82,1.82,0,0,1-.12.67,3.92,3.92,0,0,0-.22.54s-0.21.48-.26,0.57"/></svg>