<svg id="Layer_1" data-name="Layer 1" xmlns="http://www.w3.org/2000/svg" xmlns:xlink="http://www.w3.org/1999/xlink" viewBox="0 0 30 30"><defs><style>.cls-1{fill:#fff;}.cls-2{fill:#e8e8e8;}.cls-3{fill:#0c2c56;}.cls-4{fill:#bcccd3;}.cls-5{mask:url(#mask);}.cls-6{mask:url(#mask-2);}.cls-7{mask:url(#mask-3);}.cls-8{mask:url(#mask-4);}.cls-9{mask:url(#mask-5);}.cls-10{mask:url(#mask-6);}.cls-11{mask:url(#mask-7);}.cls-12{mask:url(#mask-8);}.cls-13{mask:url(#mask-9);}.cls-14{mask:url(#mask-10);}.cls-15{mask:url(#mask-11);}.cls-16{mask:url(#mask-12);}.cls-17{mask:url(#mask-13);}.cls-18{mask:url(#mask-14);}.cls-19{mask:url(#mask-15);}.cls-20{fill:#006f61;}.cls-21{mask:url(#mask-16);}.cls-22{fill:#c4ced4;}.cls-23{mask:url(#mask-17);}.cls-24{fill:#005c5c;}.cls-25{mask:url(#mask-18);}.cls-26{mask:url(#mask-19);}.cls-27{mask:url(#mask-20);}.cls-28{mask:url(#mask-21);}.cls-29{mask:url(#mask-22);}.cls-30{mask:url(#mask-23);}.cls-31{mask:url(#mask-24);}.cls-32{fill:#d70b3b;}.cls-33{fill:#e63047;}.cls-34{mask:url(#mask-25);}.cls-35{mask:url(#mask-26);}.cls-36{mask:url(#mask-27);}.cls-37{mask:url(#mask-28);}.cls-38{mask:url(#mask-29);}.cls-39{mask:url(#mask-30);}.cls-40{mask:url(#mask-31);}.cls-41{mask:url(#mask-32);}.cls-42{mask:url(#mask-33);}.cls-43{mask:url(#mask-34);}.cls-44{mask:url(#mask-35);}.cls-45{mask:url(#mask-36);}.cls-46{mask:url(#mask-37);}.cls-47{mask:url(#mask-38);}.cls-48{mask:url(#mask-39);}.cls-49{mask:url(#mask-40);}.cls-50{mask:url(#mask-41);}.cls-51{mask:url(#mask-42);}.cls-52{mask:url(#mask-43);}.cls-53{mask:url(#mask-44);}.cls-54{mask:url(#mask-45);}.cls-55{mask:url(#mask-46);}.cls-56{mask:url(#mask-47);}.cls-57{mask:url(#mask-48);}.cls-58{mask:url(#mask-49);}.cls-59{mask:url(#mask-50);}.cls-60{mask:url(#mask-51);}.cls-61{mask:url(#mask-52);}.cls-62{mask:url(#mask-53);}.cls-63{mask:url(#mask-54);}.cls-64{mask:url(#mask-55);}.cls-65{mask:url(#mask-56);}.cls-66{mask:url(#mask-57);}.cls-67{mask:url(#mask-58);}.cls-68{mask:url(#mask-59);}.cls-69{mask:url(#mask-60);}.cls-70{mask:url(#mask-61);}.cls-71{mask:url(#mask-62);}.cls-72{mask:url(#mask-63);}.cls-73{mask:url(#mask-64);}.cls-74{mask:url(#mask-65);}.cls-75{mask:url(#mask-66);}.cls-76{mask:url(#mask-67);}.cls-77{mask:url(#mask-68);}.cls-78{mask:url(#mask-69);}.cls-79{mask:url(#mask-70);}.cls-80{mask:url(#mask-71);}.cls-81{mask:url(#mask-72);}.cls-82{mask:url(#mask-73);}.cls-83{mask:url(#mask-74);}.cls-84{mask:url(#mask-75);}.cls-85{mask:url(#mask-76);}.cls-86{mask:url(#mask-77);}.cls-87{mask:url(#mask-78);}.cls-88{mask:url(#mask-79);}.cls-89{mask:url(#mask-80);}.cls-90{mask:url(#mask-81);}.cls-91{mask:url(#mask-82);}.cls-92{mask:url(#mask-83);}.cls-93{mask:url(#mask-84);}.cls-94{mask:url(#mask-85);}.cls-95{mask:url(#mask-86);}.cls-96{mask:url(#mask-87);}.cls-97{mask:url(#mask-88);}.cls-98{mask:url(#mask-89);}.cls-99{mask:url(#mask-90);}.cls-100{mask:url(#mask-91);}.cls-101{mask:url(#mask-92);}.cls-102{mask:url(#mask-93);}.cls-103{mask:url(#mask-94);}.cls-104{mask:url(#mask-95);}.cls-105{mask:url(#mask-96);}</style><mask id="mask" x="17.75" y="19.71" width="1.59" height="2.09" maskUnits="userSpaceOnUse"><g id="b"><path id="a" class="cls-1" d="M18.36,19.71l0.13,0.23-0.31.2,0.25,0.43,0.31-.18,0.13,0.22-0.34.18L18.9,21.4l0.31-.18,0.13,0.23-0.61.36-1-1.73Z"/></g></mask><mask id="mask-2" x="9.15" y="18.83" width="1.93" height="2" maskUnits="userSpaceOnUse"><g id="d"><path id="c" class="cls-1" d="M9.89,19.87L10.07,20l0.56-.72,0,0-0.7.56h0Zm1.19-.63-1.21,1.6-0.22-.25,0.25-.34L9.69,20l-0.31.27-0.22-.25,1.53-1.24,0.4,0.41h0Z"/></g></mask><mask id="mask-3" x="20.36" y="16.47" width="2.13" height="1.6" maskUnits="userSpaceOnUse"><g id="f"><path id="e" class="cls-1" d="M21.25,16.67L21.14,17l-0.27-.11a0.07,0.07,0,0,0-.09,0,2.12,2.12,0,0,0-.07.2,0.1,0.1,0,0,0,.07.07l0.27,0.11a0.14,0.14,0,0,0,.16,0L21.43,17a0.33,0.33,0,0,1,.34-0.09L22.15,17c0.29,0.14.34,0.18,0.22,0.5a2.13,2.13,0,0,0-.07.2c-0.13.31-.2,0.34-0.49,0.2l-0.29-.11,0.13-.31L22,17.64s0.09,0,.09,0a0.54,0.54,0,0,0,.07-0.2s0,0-.07,0l-0.38-.16a0.56,0.56,0,0,0-.2.2l-0.18.16a0.31,0.31,0,0,1-.34,0l-0.27-.11c-0.29-.13-0.34-0.2-0.2-0.52,0,0,.07-0.18.07-0.2,0.11-.29.2-0.29,0.49-0.18l0.2,0.09h0Z"/></g></mask><mask id="mask-4" x="13.91" y="20.7" width="0.56" height="2.03" maskUnits="userSpaceOnUse"><g id="h"><path id="g" class="cls-1" d="M14.47,20.74l-0.22,2-0.34,0,0.22-2Z"/></g></mask><mask id="mask-5" x="7.6" y="16.65" width="2.29" height="2.03" maskUnits="userSpaceOnUse"><g id="j"><path id="i" class="cls-1" d="M9.53,17l-0.74.63v0l0.92-.23,0.18,0.41-1.75.83L8,18.4l1.06-.49,0,0-1.12.29L7.83,18l0.94-.72v0l-1,.49L7.6,17.48l1.75-.83L9.53,17h0Z"/></g></mask><mask id="mask-6" x="11.31" y="20.02" width="1.64" height="2.23" maskUnits="userSpaceOnUse"><g id="l"><path id="k" class="cls-1" d="M12.07,20.94a1,1,0,0,0,.22.11A0.09,0.09,0,0,0,12.38,21l0.16-.36c0-.07,0-0.09,0-0.11a1,1,0,0,0-.22-0.11l-0.25.54h0Zm0.58-.68c0.29,0.14.29,0.25,0.18,0.54L12.72,21a0.3,0.3,0,0,1-.27.25,0.27,0.27,0,0,1,0,.34l-0.27.63-0.31-.16,0.31-.65a0.07,0.07,0,0,0,0-.09A2,2,0,0,0,12,21.21L11.62,22l-0.31-.16L12.14,20l0.52,0.25h0Z"/></g></mask><mask id="mask-7" x="15.73" y="20.54" width="1.26" height="2.14" maskUnits="userSpaceOnUse"><g id="n"><path id="m" class="cls-1" d="M16,20.65l0.49,0.92-0.18-1,0.27,0,0.38,2-0.29,0-0.49-.92,0.2,1-0.29.07-0.38-2Z"/></g></mask><mask id="mask-8" x="19.17" y="18.34" width="2.09" height="1.98" maskUnits="userSpaceOnUse"><g id="p"><path id="o" class="cls-1" d="M20,19.33l0.16-.18s0-.07,0-0.11l-0.27-.25c-0.07,0-.09-0.07-0.13,0a1.14,1.14,0,0,1-.16.18Zm-0.49-.72c0.2-.25.34-0.27,0.56,0l0.18,0.16a0.3,0.3,0,0,1,.16.34,0.26,0.26,0,0,1,.34.09l0.49,0.45L21,19.84l-0.54-.47a0.06,0.06,0,0,0-.07,0l-0.18.18L20.85,20l-0.2.27L19.17,19l0.36-.41h0Z"/></g></mask><mask id="mask-9" x="14.63" y="6.63" width="0.85" height="2" maskUnits="userSpaceOnUse"><g id="r"><path id="q" class="cls-1" d="M15.48,6.63V6.9H15.21V8.64H14.88l0-1.73H14.63V6.63h0.85Z"/></g></mask><mask id="mask-10" x="7.67" y="10.93" width="2.16" height="1.64" maskUnits="userSpaceOnUse"><g id="t"><path id="s" class="cls-1" d="M8.61,11.16l-0.13.32-0.27-.11a0.17,0.17,0,0,0-.09,0,1.55,1.55,0,0,1-.07.18s0,0.07,0,.09l0.29,0.14a0.19,0.19,0,0,0,.16-0.07l0.22-.27a0.31,0.31,0,0,1,.34,0l0.38,0.18c0.29,0.14.34,0.2,0.2,0.5a0.67,0.67,0,0,1-.09.18c-0.13.32-.2,0.34-0.49,0.2l-0.34-.14L8.93,12l0.36,0.16s0.07,0,.09,0l0.07-.18a0.06,0.06,0,0,0-.07,0L9,11.72a0.36,0.36,0,0,0-.2.13L8.61,12a0.35,0.35,0,0,1-.36.07L8,11.95c-0.29-.14-0.34-0.23-0.2-0.54a0.67,0.67,0,0,0,.09-0.18c0.13-.29.2-0.29,0.49-0.16l0.22,0.09h0Z"/></g></mask><mask id="mask-11" x="9.38" y="8.57" width="1.86" height="1.94" maskUnits="userSpaceOnUse"><g id="v"><path id="u" class="cls-1" d="M9.89,8.57l0.18,0.18L9.8,9l0.34,0.36,0.27-.25,0.18,0.18-0.27.27,0.47,0.5,0.27-.27L11.24,10l-0.52.49L9.38,9.06l0.52-.49h0Z"/></g></mask><mask id="mask-12" x="11.94" y="7.06" width="1.46" height="2.16" maskUnits="userSpaceOnUse"><g id="x"><path id="w" class="cls-1" d="M12.56,8.43l0.2-.09-0.4-.81,0,0,0.25,0.88h0ZM12.45,7.06l0.94,1.76L13.1,9l-0.2-.38-0.27.11,0.11,0.41-0.31.13-0.49-2,0.52-.2h0Z"/></g></mask><mask id="mask-13" x="17.03" y="7.04" width="1.26" height="2.07" maskUnits="userSpaceOnUse"><g id="z"><path id="y" class="cls-1" d="M18.29,7.35L18.2,7.6,18,7.51l-0.63,1.6L17,9l0.63-1.62-0.25-.09L17.5,7l0.79,0.31h0Z"/></g></mask><mask id="mask-14" x="18.85" y="8.57" width="1.55" height="1.98" maskUnits="userSpaceOnUse"><g id="B-2" data-name="B"><path id="A-2" data-name="A" class="cls-1" d="M20.4,8.79l-1.15,1.3,0.27,0.25-0.16.2-0.52-.49,1.3-1.48L20.4,8.79h0Z"/></g></mask><mask id="mask-15" x="20.2" y="10.86" width="2.07" height="1.53" maskUnits="userSpaceOnUse"><g id="D-2" data-name="D"><path id="C-2" data-name="C" class="cls-1" d="M22.26,11.49L22,11.61l-0.18-.34-0.45.23,0.18,0.34L21.37,12l-0.18-.34-0.61.31,0.18,0.34-0.25.11-0.31-.65,1.75-.88,0.31,0.63h0Z"/></g></mask><mask id="mask-16" x="11.67" y="10.77" width="2.07" height="2.2" maskUnits="userSpaceOnUse"><g id="F-2" data-name="F"><path id="E-2" data-name="E" class="cls-1" d="M12.54,13c-0.2-.47-0.88-2.18-0.85-2.2s1.71,0.92,2,1.15A2.77,2.77,0,0,0,12.54,13h0Z"/></g></mask><mask id="mask-17" x="11.67" y="10.77" width="1.37" height="2.2" maskUnits="userSpaceOnUse"><g id="H-2" data-name="H"><path id="G-2" data-name="G" class="cls-1" d="M13,12.37a3.62,3.62,0,0,0-.49.61c-0.2-.47-0.88-2.18-0.85-2.2L13,12.37h0Z"/></g></mask><mask id="mask-18" x="16.27" y="10.8" width="2.07" height="2.21" maskUnits="userSpaceOnUse"><g id="J-2" data-name="J"><path id="I-2" data-name="I" class="cls-1" d="M17.46,13c0.2-.5.88-2.21,0.85-2.21s-1.71.92-2,1.15A2.52,2.52,0,0,1,17.46,13Z"/></g></mask><mask id="mask-19" x="16.29" y="10.77" width="2.02" height="1.58" maskUnits="userSpaceOnUse"><g id="L-2" data-name="L"><path id="K-2" data-name="K" class="cls-1" d="M16.94,12.35a2,2,0,0,0-.65-0.4c0.43-.27,2-1.17,2-1.17l-1.37,1.58h0Z"/></g></mask><mask id="mask-20" x="11.67" y="16.33" width="2.07" height="2.23" maskUnits="userSpaceOnUse"><g id="N-2" data-name="N"><path id="M-2" data-name="M" class="cls-1" d="M12.54,16.33c-0.2.47-.88,2.2-0.85,2.23s1.71-.95,2-1.17a2.77,2.77,0,0,1-1.19-1.06h0Z"/></g></mask><mask id="mask-21" x="11.67" y="16.96" width="2.07" height="1.6" maskUnits="userSpaceOnUse"><g id="P-2" data-name="P"><path id="O-2" data-name="O" class="cls-1" d="M13.06,17a2.07,2.07,0,0,0,.67.43c-0.45.27-2,1.17-2.07,1.15L13.06,17h0Z"/></g></mask><mask id="mask-22" x="16.31" y="16.33" width="2" height="2.25" maskUnits="userSpaceOnUse"><g id="R-2" data-name="R"><path id="Q-2" data-name="Q" class="cls-1" d="M17.48,16.33c0.2,0.47.83,2.23,0.81,2.25s-1.64-1-2-1.19a2.84,2.84,0,0,0,1.17-1.06h0Z"/></g></mask><mask id="mask-23" x="16.99" y="16.33" width="1.32" height="2.25" maskUnits="userSpaceOnUse"><g id="T-2" data-name="T"><path id="S-2" data-name="S" class="cls-1" d="M17,16.94a2,2,0,0,0,.49-0.61c0.2,0.47.83,2.23,0.81,2.25Z"/></g></mask><mask id="mask-24" x="12.79" y="12.55" width="0.27" height="0.11" maskUnits="userSpaceOnUse"><g id="V-2" data-name="V"><path id="U-2" data-name="U" class="cls-1" d="M13.06,12.57l0,0-0.22.07,0,0,0.22-.09h0Z"/></g></mask><mask id="mask-25" x="13.06" y="12.39" width="0.11" height="0.22" maskUnits="userSpaceOnUse"><g id="X-2" data-name="X"><path id="W-2" data-name="W" class="cls-1" d="M13.13,12.39l0,0-0.07.2,0,0,0.07-.18h0Z"/></g></mask><mask id="mask-26" x="12.97" y="12.69" width="0.29" height="0.11" maskUnits="userSpaceOnUse"><g id="Z-2" data-name="Z"><path id="Y-2" data-name="Y" class="cls-1" d="M13.26,12.73l-0.07,0L13,12.75l0,0Z"/></g></mask><mask id="mask-27" x="13.26" y="12.53" width="0.11" height="0.23" maskUnits="userSpaceOnUse"><g id="ab"><path id="aa" class="cls-1" d="M13.3,12.53l0.07,0-0.07.2,0,0Z"/></g></mask><mask id="mask-28" x="13.19" y="12.82" width="0.29" height="0.11" maskUnits="userSpaceOnUse"><g id="ad"><path id="ac" class="cls-1" d="M13.48,12.87l-0.07,0-0.22.09,0.07,0Z"/></g></mask><mask id="mask-29" x="13.48" y="12.66" width="0.11" height="0.23" maskUnits="userSpaceOnUse"><g id="af"><path id="ae" class="cls-1" d="M13.53,12.66l0.07,0,0,0.2-0.07,0Z"/></g></mask><mask id="mask-30" x="13.46" y="12.96" width="0.29" height="0.13" maskUnits="userSpaceOnUse"><g id="ah"><path id="ag" class="cls-1" d="M13.75,13l-0.07,0L13.46,13l0.07,0L13.75,13h0Z"/></g></mask><mask id="mask-31" x="13.75" y="12.78" width="0.09" height="0.25" maskUnits="userSpaceOnUse"><g id="aj"><path id="ai" class="cls-1" d="M13.78,12.78l0.07,0,0,0.23-0.07,0,0-.2h0Z"/></g></mask><mask id="mask-32" x="13.73" y="13.07" width="0.29" height="0.14" maskUnits="userSpaceOnUse"><g id="al"><path id="ak" class="cls-1" d="M14,13.09l-0.09,0-0.2.11,0.09,0Z"/></g></mask><mask id="mask-33" x="14" y="12.87" width="0.09" height="0.25" maskUnits="userSpaceOnUse"><g id="an"><path id="am" class="cls-1" d="M14,12.87l0.07,0,0,0.22-0.07,0,0-.22h0Z"/></g></mask><mask id="mask-34" x="14.07" y="13.16" width="0.27" height="0.14" maskUnits="userSpaceOnUse"><g id="ap"><path id="ao" class="cls-1" d="M14.34,13.16H14.27l-0.2.11,0.09,0,0.18-.14h0Z"/></g></mask><mask id="mask-35" x="14.29" y="12.96" width="0.13" height="0.22" maskUnits="userSpaceOnUse"><g id="ar"><path id="aq" class="cls-1" d="M14.29,13l0.09,0,0,0.2-0.07,0Z"/></g></mask><mask id="mask-36" x="14.4" y="13.2" width="0.25" height="0.16" maskUnits="userSpaceOnUse"><g id="at"><path id="as" class="cls-1" d="M14.65,13.2H14.56l-0.16.16h0.09Z"/></g></mask><mask id="mask-37" x="14.54" y="13" width="0.18" height="0.2" maskUnits="userSpaceOnUse"><g id="av"><path id="au" class="cls-1" d="M14.54,13l0.09,0,0.09,0.18H14.65L14.54,13h0Z"/></g></mask><mask id="mask-38" x="14.72" y="13.23" width="0.22" height="0.16" maskUnits="userSpaceOnUse"><g id="ax"><path id="aw" class="cls-1" d="M14.94,13.23H14.85l-0.13.16h0.09Z"/></g></mask><mask id="mask-39" x="14.83" y="13.05" width="0.2" height="0.18" maskUnits="userSpaceOnUse"><g id="az"><path id="ay" class="cls-1" d="M14.83,13h0.09L15,13.23H14.94Z"/></g></mask><mask id="mask-40" x="15.08" y="13.23" width="0.18" height="0.18" maskUnits="userSpaceOnUse"><g id="aB-2" data-name="aB"><path id="aA-2" data-name="aA" class="cls-1" d="M15.26,13.23H15.17l-0.09.18,0.09,0Z"/></g></mask><mask id="mask-41" x="15.12" y="13.05" width="0.22" height="0.18" maskUnits="userSpaceOnUse"><g id="aD-2" data-name="aD"><path id="aC-2" data-name="aC" class="cls-1" d="M15.12,13h0.07l0.16,0.18H15.26Z"/></g></mask><mask id="mask-42" x="15.46" y="13.18" width="0.16" height="0.18" maskUnits="userSpaceOnUse"><g id="aF-2" data-name="aF"><path id="aE-2" data-name="aE" class="cls-1" d="M15.62,13.18H15.53l-0.07.18h0.07Z"/></g></mask><mask id="mask-43" x="15.46" y="13" width="0.22" height="0.18" maskUnits="userSpaceOnUse"><g id="aH-2" data-name="aH"><path id="aG-2" data-name="aG" class="cls-1" d="M15.46,13h0.07l0.16,0.16-0.07,0Z"/></g></mask><mask id="mask-44" x="15.8" y="13.11" width="0.11" height="0.2" maskUnits="userSpaceOnUse"><g id="aJ-2" data-name="aJ"><path id="aI-2" data-name="aI" class="cls-1" d="M15.91,13.11l-0.09,0,0,0.18,0.09,0,0-.18h0Z"/></g></mask><mask id="mask-45" x="15.73" y="12.93" width="0.27" height="0.18" maskUnits="userSpaceOnUse"><g id="aL-2" data-name="aL"><path id="aK-2" data-name="aK" class="cls-1" d="M15.73,13l0.07,0L16,13.09l-0.09,0Z"/></g></mask><mask id="mask-46" x="16.11" y="13" width="0.11" height="0.2" maskUnits="userSpaceOnUse"><g id="aN-2" data-name="aN"><path id="aM-2" data-name="aM" class="cls-1" d="M16.22,13l-0.07,0,0,0.18,0.09,0,0-.18h0Z"/></g></mask><mask id="mask-47" x="16.02" y="12.84" width="0.27" height="0.16" maskUnits="userSpaceOnUse"><g id="aP-2" data-name="aP"><path id="aO-2" data-name="aO" class="cls-1" d="M16,12.87l0.07,0L16.29,13l-0.07,0L16,12.87h0Z"/></g></mask><mask id="mask-48" x="16.38" y="12.89" width="0.07" height="0.23" maskUnits="userSpaceOnUse"><g id="aR-2" data-name="aR"><path id="aQ-2" data-name="aQ" class="cls-1" d="M16.45,12.89l-0.07,0v0.18l0.07,0V12.89h0Z"/></g></mask><mask id="mask-49" x="16.25" y="12.73" width="0.27" height="0.16" maskUnits="userSpaceOnUse"><g id="aT-2" data-name="aT"><path id="aS-2" data-name="aS" class="cls-1" d="M16.25,12.78l0,0,0.22,0.14-0.07,0-0.2-.11h0Z"/></g></mask><mask id="mask-50" x="16.61" y="12.78" width="0.07" height="0.23" maskUnits="userSpaceOnUse"><g id="aV-2" data-name="aV"><path id="aU-2" data-name="aU" class="cls-1" d="M16.67,12.78l-0.07,0,0,0.18,0,0V12.78Z"/></g></mask><mask id="mask-51" x="16.45" y="12.64" width="0.27" height="0.14" maskUnits="userSpaceOnUse"><g id="aX-2" data-name="aX"><path id="aW-2" data-name="aW" class="cls-1" d="M16.45,12.66l0.07,0,0.2,0.11,0,0Z"/></g></mask><mask id="mask-52" x="16.81" y="12.64" width="0.11" height="0.2" maskUnits="userSpaceOnUse"><g id="aZ-2" data-name="aZ"><path id="aY-2" data-name="aY" class="cls-1" d="M16.85,12.64l0,0,0.07,0.16,0,0Z"/></g></mask><mask id="mask-53" x="16.65" y="12.51" width="0.27" height="0.13" maskUnits="userSpaceOnUse"><g id="bb"><path id="ba" class="cls-1" d="M16.65,12.55l0,0,0.22,0.09,0,0-0.22-.09h0Z"/></g></mask><mask id="mask-54" x="16.99" y="12.48" width="0.11" height="0.2" maskUnits="userSpaceOnUse"><g id="bd"><path id="bc" class="cls-1" d="M17.05,12.48l-0.07,0,0.07,0.16,0,0Z"/></g></mask><mask id="mask-55" x="16.83" y="12.35" width="0.22" height="0.14" maskUnits="userSpaceOnUse"><g id="bf"><path id="be" class="cls-1" d="M16.83,12.39l0,0,0.09,0L17,12.46l0,0Z"/></g></mask><mask id="mask-56" x="16.96" y="16.69" width="0.27" height="0.11" maskUnits="userSpaceOnUse"><g id="bh"><path id="bg" class="cls-1" d="M17,16.76l0,0,0.22-.07,0,0L17,16.76h0Z"/></g></mask><mask id="mask-57" x="16.85" y="16.71" width="0.11" height="0.25" maskUnits="userSpaceOnUse"><g id="bj"><path id="bi" class="cls-1" d="M16.9,17l0,0,0.07-.2,0,0Z"/></g></mask><mask id="mask-58" x="16.76" y="16.56" width="0.29" height="0.09" maskUnits="userSpaceOnUse"><g id="bl"><path id="bk" class="cls-1" d="M16.76,16.63l0.07,0,0.22-.07,0,0-0.25.07h0Z"/></g></mask><mask id="mask-59" x="16.65" y="16.58" width="0.11" height="0.25" maskUnits="userSpaceOnUse"><g id="bn"><path id="bm" class="cls-1" d="M16.72,16.83l-0.07,0,0.07-.2,0,0Z"/></g></mask><mask id="mask-60" x="16.54" y="16.4" width="0.29" height="0.11" maskUnits="userSpaceOnUse"><g id="bp"><path id="bo" class="cls-1" d="M16.54,16.49l0.07,0,0.22-.09-0.07,0Z"/></g></mask><mask id="mask-61" x="16.43" y="16.44" width="0.11" height="0.25" maskUnits="userSpaceOnUse"><g id="br"><path id="bq" class="cls-1" d="M16.49,16.69l-0.07,0,0-.23,0.07,0,0,0.2h0Z"/></g></mask><mask id="mask-62" x="16.27" y="16.26" width="0.29" height="0.11" maskUnits="userSpaceOnUse"><g id="bt"><path id="bs" class="cls-1" d="M16.27,16.35l0.07,0,0.22-.09-0.07,0Z"/></g></mask><mask id="mask-63" x="16.18" y="16.33" width="0.09" height="0.23" maskUnits="userSpaceOnUse"><g id="bv"><path id="bu" class="cls-1" d="M16.25,16.56l-0.07,0,0-.2,0.07,0,0,0.2h0Z"/></g></mask><mask id="mask-64" x="16" y="16.13" width="0.29" height="0.16" maskUnits="userSpaceOnUse"><g id="bx"><path id="bw" class="cls-1" d="M16,16.26l0.09,0,0.2-.13-0.09,0Z"/></g></mask><mask id="mask-65" x="15.93" y="16.24" width="0.09" height="0.22" maskUnits="userSpaceOnUse"><g id="bz"><path id="by" class="cls-1" d="M16,16.47l-0.07,0,0-.2,0.07,0Z"/></g></mask><mask id="mask-66" x="15.68" y="16.04" width="0.27" height="0.16" maskUnits="userSpaceOnUse"><g id="bB-2" data-name="bB"><path id="bA-2" data-name="bA" class="cls-1" d="M15.68,16.18l0.07,0,0.2-.13-0.09,0-0.18.14h0Z"/></g></mask><mask id="mask-67" x="15.6" y="16.15" width="0.13" height="0.23" maskUnits="userSpaceOnUse"><g id="bD-2" data-name="bD"><path id="bC-2" data-name="bC" class="cls-1" d="M15.73,16.38H15.64l0-.22,0.07,0Z"/></g></mask><mask id="mask-68" x="15.37" y="15.97" width="0.22" height="0.16" maskUnits="userSpaceOnUse"><g id="bF-2" data-name="bF"><path id="bE-2" data-name="bE" class="cls-1" d="M15.37,16.13h0.09L15.6,16H15.53Z"/></g></mask><mask id="mask-69" x="15.3" y="16.13" width="0.18" height="0.2" maskUnits="userSpaceOnUse"><g id="bH-2" data-name="bH"><path id="bG-2" data-name="bG" class="cls-1" d="M15.48,16.33H15.39l-0.09-.2h0.07l0.11,0.2h0Z"/></g></mask><mask id="mask-70" x="15.08" y="15.95" width="0.22" height="0.16" maskUnits="userSpaceOnUse"><g id="bJ-2" data-name="bJ"><path id="bI-2" data-name="bI" class="cls-1" d="M15.08,16.11h0.09L15.3,16H15.21l-0.13.16h0Z"/></g></mask><mask id="mask-71" x="14.99" y="16.11" width="0.2" height="0.2" maskUnits="userSpaceOnUse"><g id="bL-2" data-name="bL"><path id="bK-2" data-name="bK" class="cls-1" d="M15.19,16.31H15.1L15,16.11h0.09Z"/></g></mask><mask id="mask-72" x="14.76" y="15.95" width="0.18" height="0.18" maskUnits="userSpaceOnUse"><g id="bN-2" data-name="bN"><path id="bM-2" data-name="bM" class="cls-1" d="M14.76,16.13l0.09,0L14.94,16H14.85l-0.09.18h0Z"/></g></mask><mask id="mask-73" x="14.67" y="16.11" width="0.22" height="0.2" maskUnits="userSpaceOnUse"><g id="bP-2" data-name="bP"><path id="bO-2" data-name="bO" class="cls-1" d="M14.9,16.29l-0.07,0-0.16-.18,0.09,0,0.13,0.18h0Z"/></g></mask><mask id="mask-74" x="14.4" y="15.97" width="0.16" height="0.2" maskUnits="userSpaceOnUse"><g id="bR-2" data-name="bR"><path id="bQ-2" data-name="bQ" class="cls-1" d="M14.4,16.18l0.09,0L14.56,16l-0.07,0-0.09.18h0Z"/></g></mask><mask id="mask-75" x="14.34" y="16.18" width="0.22" height="0.18" maskUnits="userSpaceOnUse"><g id="bT-2" data-name="bT"><path id="bS-2" data-name="bS" class="cls-1" d="M14.56,16.33l-0.07,0-0.16-.18H14.4Z"/></g></mask><mask id="mask-76" x="14.11" y="16.04" width="0.11" height="0.2" maskUnits="userSpaceOnUse"><g id="bV-2" data-name="bV"><path id="bU-2" data-name="bU" class="cls-1" d="M14.11,16.24l0.09,0,0-.18-0.09,0Z"/></g></mask><mask id="mask-77" x="14.02" y="16.24" width="0.27" height="0.16" maskUnits="userSpaceOnUse"><g id="bX-2" data-name="bX"><path id="bW-2" data-name="bW" class="cls-1" d="M14.29,16.38l-0.07,0L14,16.26l0.09,0,0.18,0.13h0Z"/></g></mask><mask id="mask-78" x="13.8" y="16.13" width="0.11" height="0.2" maskUnits="userSpaceOnUse"><g id="bZ-2" data-name="bZ"><path id="bY-2" data-name="bY" class="cls-1" d="M13.8,16.33l0.07,0,0-.18-0.09,0,0,0.18h0Z"/></g></mask><mask id="mask-79" x="13.73" y="16.33" width="0.27" height="0.18" maskUnits="userSpaceOnUse"><g id="cb"><path id="ca" class="cls-1" d="M14,16.47l-0.07,0-0.2-.14,0.07,0L14,16.47h0Z"/></g></mask><mask id="mask-80" x="13.57" y="16.24" width="0.07" height="0.2" maskUnits="userSpaceOnUse"><g id="cd"><path id="cc" class="cls-1" d="M13.57,16.44l0.07,0V16.24l-0.07,0v0.18Z"/></g></mask><mask id="mask-81" x="13.51" y="16.44" width="0.27" height="0.16" maskUnits="userSpaceOnUse"><g id="cf"><path id="ce" class="cls-1" d="M13.78,16.58l0,0-0.22-.14,0.07,0,0.2,0.13h0Z"/></g></mask><mask id="mask-82" x="13.35" y="16.35" width="0.07" height="0.2" maskUnits="userSpaceOnUse"><g id="ch"><path id="cg" class="cls-1" d="M13.35,16.56l0.07,0,0-.18,0,0v0.18h0Z"/></g></mask><mask id="mask-83" x="13.3" y="16.56" width="0.27" height="0.16" maskUnits="userSpaceOnUse"><g id="cj"><path id="ci" class="cls-1" d="M13.57,16.67l-0.07,0-0.2-.11,0,0Z"/></g></mask><mask id="mask-84" x="13.1" y="16.49" width="0.11" height="0.2" maskUnits="userSpaceOnUse"><g id="cl"><path id="ck" class="cls-1" d="M13.17,16.69l0,0-0.07-.18,0,0Z"/></g></mask><mask id="mask-85" x="13.1" y="16.71" width="0.27" height="0.11" maskUnits="userSpaceOnUse"><g id="cn"><path id="cm" class="cls-1" d="M13.37,16.78l0,0-0.22-.09,0,0,0.22,0.07h0Z"/></g></mask><mask id="mask-86" x="12.92" y="16.65" width="0.11" height="0.2" maskUnits="userSpaceOnUse"><g id="cp"><path id="co" class="cls-1" d="M13,16.85l0.07,0L13,16.65l0,0Z"/></g></mask><mask id="mask-87" x="12.97" y="16.85" width="0.22" height="0.13" maskUnits="userSpaceOnUse"><g id="cr"><path id="cq" class="cls-1" d="M13.19,16.94l0,0-0.09,0-0.07,0,0,0,0.22,0.09h0Z"/></g></mask><mask id="mask-88" x="14" y="8.7" width="2" height="5.96" maskUnits="userSpaceOnUse"><g id="ct"><path id="cs" class="cls-1" d="M15,14.67c-0.11-.07-0.76-0.74-1-1,0-.52,1-5,1-5s0.94,4.45,1,5C15.77,13.92,15.1,14.6,15,14.67Z"/></g></mask><mask id="mask-89" x="14" y="8.7" width="1.01" height="5.96" maskUnits="userSpaceOnUse"><g id="cv"><path id="cu" class="cls-1" d="M15,14.67c-0.11-.07-0.76-0.74-1-1,0-.52,1-5,1-5v6h0Z"/></g></mask><mask id="mask-90" x="14" y="14.67" width="2" height="5.99" maskUnits="userSpaceOnUse"><g id="cx"><path id="cw" class="cls-1" d="M15,14.67c-0.11.09-.76,0.74-1,1,0,0.52,1,5,1,5s0.94-4.45,1-5c-0.22-.25-0.9-0.9-1-1h0Z"/></g></mask><mask id="mask-91" x="15.01" y="14.67" width="0.99" height="5.96" maskUnits="userSpaceOnUse"><g id="cz"><path id="cy" class="cls-1" d="M15,14.67c0.09,0.09.76,0.74,1,1,0,0.52-1,5-1,5v-6h0Z"/></g></mask><mask id="mask-92" x="6.41" y="13.65" width="8.6" height="2.03" maskUnits="userSpaceOnUse"><g id="cB-2" data-name="cB"><path id="cA-2" data-name="cA" class="cls-1" d="M15,14.67c-0.09.09-.74,0.79-1,1-0.49,0-7.59-1-7.59-1s7.1-1,7.59-1c0.25,0.23.9,0.92,1,1h0Z"/></g></mask><mask id="mask-93" x="6.43" y="14.67" width="8.58" height="1.01" maskUnits="userSpaceOnUse"><g id="cD-2" data-name="cD"><path id="cC-2" data-name="cC" class="cls-1" d="M15,14.67c-0.09.09-.74,0.79-1,1-0.49,0-7.59-1-7.59-1H15Z"/></g></mask><mask id="mask-94" x="15.01" y="13.65" width="8.62" height="2.03" maskUnits="userSpaceOnUse"><g id="cF-2" data-name="cF"><path id="cE-2" data-name="cE" class="cls-1" d="M15,14.67c0.07,0.09.72,0.79,1,1,0.49,0,7.63-1,7.63-1s-7.14-1-7.63-1c-0.25.23-.9,0.92-1,1h0Z"/></g></mask><mask id="mask-95" x="15.01" y="13.65" width="8.6" height="1.01" maskUnits="userSpaceOnUse"><g id="cH-2" data-name="cH"><path id="cG-2" data-name="cG" class="cls-1" d="M15,14.67c0.07-.09.72-0.79,1-1,0.49,0,7.63,1,7.63,1l-8.6,0h0Z"/></g></mask><mask id="mask-96" x="21.93" y="22.97" width="1.39" height="0.68" maskUnits="userSpaceOnUse"><g id="cJ-2" data-name="cJ"><path id="cI-2" data-name="cI" class="cls-1" d="M23.32,23.64H23.21V23.11h0L23,23.64H22.87l-0.18-.54v0.54H22.56V23h0.22l0.16,0.45L23.09,23h0.22v0.67h0Zm-0.88-.54h-0.2v0.54H22.11V23.11H21.93V23h0.52v0.14Z"/></g></mask></defs><title>seattle-mariners</title><circle class="cls-2" cx="15" cy="15" r="15"/><path class="cls-3" d="M15,23.58a8.81,8.81,0,0,0,8.69-8.91A8.81,8.81,0,0,0,15,5.76,8.81,8.81,0,0,0,6.3,14.67,8.81,8.81,0,0,0,15,23.58h0Z"/><path class="cls-4" d="M15.19,23.76H15a9,9,0,0,1-8.89-9.09A9,9,0,0,1,15,5.58a9,9,0,0,1,8.87,9.09,9,9,0,0,1-8.69,9.09h0ZM15,5.94a8.64,8.64,0,0,0-8.53,8.73A8.65,8.65,0,0,0,15,23.4H15a8.63,8.63,0,0,0,8.51-8.73A8.63,8.63,0,0,0,15,5.94Z"/><path class="cls-1" d="M18.36,19.71l0.13,0.23-0.31.2,0.25,0.43,0.31-.18,0.13,0.22-0.34.18L18.9,21.4l0.31-.18,0.13,0.23-0.61.36-1-1.73,0.61-.36h0Z"/><g class="cls-5"><path class="cls-1" d="M17.75,19.71h1.59V21.8H17.75V19.71Z"/></g><path class="cls-1" d="M9.89,19.87L10.07,20l0.56-.72,0,0-0.7.56h0Zm1.19-.63-1.21,1.6-0.22-.25,0.25-.34L9.69,20l-0.31.27-0.22-.25,1.53-1.24,0.4,0.41h0Z"/><g class="cls-6"><path class="cls-1" d="M9.15,18.83h1.93v2H9.15v-2h0Z"/></g><path class="cls-1" d="M21.25,16.67L21.14,17l-0.27-.11a0.07,0.07,0,0,0-.09,0,2.12,2.12,0,0,0-.07.2,0.1,0.1,0,0,0,.07.07l0.27,0.11a0.14,0.14,0,0,0,.16,0L21.43,17a0.33,0.33,0,0,1,.34-0.09L22.15,17c0.29,0.14.34,0.18,0.22,0.5a2.13,2.13,0,0,0-.07.2c-0.13.31-.2,0.34-0.49,0.2l-0.29-.11,0.13-.31L22,17.64s0.09,0,.09,0a0.54,0.54,0,0,0,.07-0.2s0,0-.07,0l-0.38-.16a0.56,0.56,0,0,0-.2.2l-0.18.16a0.31,0.31,0,0,1-.34,0l-0.27-.11c-0.29-.13-0.34-0.2-0.2-0.52,0,0,.07-0.18.07-0.2,0.11-.29.2-0.29,0.49-0.18l0.2,0.09h0Z"/><g class="cls-7"><path class="cls-1" d="M20.36,16.47h2.13v1.6H20.36v-1.6Z"/></g><path class="cls-1" d="M14.47,20.74l-0.22,2-0.34,0,0.22-2,0.34,0h0Z"/><g class="cls-8"><path class="cls-1" d="M13.91,20.7h0.56v2H13.91v-2h0Z"/></g><path class="cls-1" d="M9.53,17l-0.74.63v0l0.92-.23,0.18,0.41-1.75.83L8,18.4l1.06-.49,0,0-1.12.29L7.83,18l0.94-.72v0l-1,.49L7.6,17.48l1.75-.83L9.53,17h0Z"/><g class="cls-9"><path class="cls-1" d="M7.6,16.65H9.89v2H7.6v-2Z"/></g><path class="cls-1" d="M12.07,20.94a1,1,0,0,0,.22.11A0.09,0.09,0,0,0,12.38,21l0.16-.36c0-.07,0-0.09,0-0.11a1,1,0,0,0-.22-0.11l-0.25.54h0Zm0.58-.67c0.29,0.14.29,0.25,0.18,0.54L12.72,21a0.3,0.3,0,0,1-.27.25,0.27,0.27,0,0,1,0,.34l-0.27.63-0.31-.16,0.31-.65a0.07,0.07,0,0,0,0-.09A2,2,0,0,0,12,21.22L11.62,22l-0.31-.16L12.14,20l0.52,0.25h0Z"/><g class="cls-10"><path class="cls-1" d="M11.31,20h1.64v2.23H11.31V20h0Z"/></g><path class="cls-1" d="M16,20.65l0.49,0.92-0.18-1,0.27,0,0.38,2-0.29,0-0.49-.92,0.2,1-0.29.07-0.38-2L16,20.65h0Z"/><g class="cls-11"><path class="cls-1" d="M15.73,20.54H17v2.14H15.73V20.54Z"/></g><path class="cls-1" d="M20,19.33l0.16-.18s0-.07,0-0.11l-0.27-.25c-0.07,0-.09-0.07-0.13,0a1.14,1.14,0,0,1-.16.18L20,19.32h0Zm-0.49-.72c0.2-.25.34-0.27,0.56,0l0.18,0.16a0.3,0.3,0,0,1,.16.34,0.26,0.26,0,0,1,.34.09l0.49,0.45L21,19.84l-0.54-.47a0.06,0.06,0,0,0-.07,0l-0.18.18L20.85,20l-0.2.27L19.16,19l0.36-.41h0Z"/><g class="cls-12"><path class="cls-1" d="M19.17,18.34h2.09v2H19.17v-2h0Z"/></g><path class="cls-1" d="M15.48,6.63V6.9H15.21V8.64H14.88l0-1.73H14.63V6.63h0.85Z"/><g class="cls-13"><path class="cls-1" d="M14.63,6.63h0.85v2H14.63v-2h0Z"/></g><path class="cls-1" d="M8.61,11.16l-0.13.32-0.27-.11a0.17,0.17,0,0,0-.09,0,1.55,1.55,0,0,1-.07.18s0,0.07,0,.09l0.29,0.14a0.19,0.19,0,0,0,.16-0.07l0.22-.27a0.31,0.31,0,0,1,.34,0l0.38,0.18c0.29,0.14.34,0.2,0.2,0.5a0.67,0.67,0,0,1-.09.18c-0.13.32-.2,0.34-0.49,0.2l-0.34-.14L8.93,12l0.36,0.16s0.07,0,.09,0l0.07-.18a0.06,0.06,0,0,0-.07,0L9,11.72a0.36,0.36,0,0,0-.2.13L8.61,12a0.35,0.35,0,0,1-.36.07L8,11.95c-0.29-.14-0.34-0.23-0.2-0.54a0.67,0.67,0,0,0,.09-0.18c0.13-.29.2-0.29,0.49-0.16l0.22,0.09h0Z"/><g class="cls-14"><path class="cls-1" d="M7.67,10.93H9.82v1.64H7.67V10.93Z"/></g><path class="cls-1" d="M9.89,8.57l0.18,0.18L9.8,9l0.34,0.36,0.27-.25,0.18,0.18-0.27.27,0.47,0.5,0.27-.27L11.24,10l-0.52.49L9.38,9.06l0.52-.49h0Z"/><g class="cls-15"><path class="cls-1" d="M9.38,8.57h1.86V10.5H9.38V8.57Z"/></g><path class="cls-1" d="M12.56,8.43l0.2-.09-0.4-.81,0,0,0.25,0.88h0ZM12.45,7.06l0.94,1.76L13.1,9l-0.2-.38-0.27.11,0.11,0.41-0.31.13-0.49-2,0.52-.2h0Z"/><g class="cls-16"><path class="cls-1" d="M11.94,7.06h1.46V9.22H11.94V7.06Z"/></g><path class="cls-1" d="M18.29,7.35L18.2,7.6,18,7.51l-0.63,1.6L17,9l0.63-1.62-0.25-.09L17.5,7l0.79,0.31h0Z"/><g class="cls-17"><path class="cls-1" d="M17,7h1.26V9.11H17V7Z"/></g><path class="cls-1" d="M20.4,8.79l-1.15,1.3,0.27,0.25-0.16.2-0.52-.49,1.3-1.48L20.4,8.79h0Z"/><g class="cls-18"><path class="cls-1" d="M18.85,8.57H20.4v2H18.85v-2Z"/></g><path class="cls-1" d="M22.26,11.49L22,11.61l-0.18-.34-0.45.23,0.18,0.34L21.37,12l-0.18-.34-0.61.31,0.18,0.34-0.25.11-0.31-.65,1.75-.88,0.31,0.63h0Z"/><g class="cls-19"><path class="cls-1" d="M20.2,10.86h2.07v1.53H20.2V10.86Z"/></g><path class="cls-1" d="M15,20a5.23,5.23,0,0,0,5.16-5.31A5.18,5.18,0,1,0,15,20h0Z"/><path class="cls-20" d="M15.11,20.08H15a5.2,5.2,0,0,1-3.74-1.58,5.44,5.44,0,0,1-1.54-3.83,5.28,5.28,0,1,1,10.56,0,5.45,5.45,0,0,1-1.54,3.83,5.16,5.16,0,0,1-3.62,1.58h0ZM15,9.46a5.15,5.15,0,0,0-5.08,5.21,5.24,5.24,0,0,0,1.49,3.69A5,5,0,0,0,15,19.88h0a5,5,0,0,0,3.58-1.52,5.25,5.25,0,0,0,1.48-3.69A5.14,5.14,0,0,0,15,9.46Z"/><path class="cls-1" d="M12.54,13c-0.2-.47-0.88-2.18-0.85-2.2s1.71,0.92,2,1.15A2.77,2.77,0,0,0,12.54,13h0Z"/><g class="cls-21"><path class="cls-22" d="M11.67,10.77h2.07V13H11.67v-2.2h0Z"/></g><path class="cls-1" d="M13,12.37a3.62,3.62,0,0,0-.49.61c-0.2-.47-0.88-2.18-0.85-2.2L13,12.37h0Z"/><g class="cls-23"><path class="cls-24" d="M11.67,10.77H13V13H11.67v-2.2Z"/></g><path class="cls-1" d="M17.46,13c0.2-.5.88-2.21,0.85-2.21s-1.71.92-2,1.15A2.52,2.52,0,0,1,17.46,13h0Z"/><g class="cls-25"><path class="cls-22" d="M16.27,10.8h2.07V13H16.27V10.8Z"/></g><path class="cls-1" d="M16.94,12.35a2,2,0,0,0-.65-0.4c0.43-.27,2-1.17,2-1.17l-1.37,1.58h0Z"/><g class="cls-26"><path class="cls-24" d="M16.29,10.77h2v1.58h-2V10.77Z"/></g><path class="cls-1" d="M12.54,16.33c-0.2.47-.88,2.2-0.85,2.23s1.71-.95,2-1.17a2.77,2.77,0,0,1-1.19-1.06h0Z"/><g class="cls-27"><path class="cls-22" d="M11.67,16.33h2.07v2.23H11.67V16.33h0Z"/></g><path class="cls-1" d="M13.06,17a2.07,2.07,0,0,0,.67.43c-0.45.27-2,1.17-2.07,1.15Z"/><g class="cls-28"><path class="cls-24" d="M11.67,17h2.07v1.6H11.67V17h0Z"/></g><path class="cls-1" d="M17.48,16.33c0.2,0.47.83,2.23,0.81,2.25s-1.64-1-2-1.19a2.84,2.84,0,0,0,1.17-1.06h0Z"/><g class="cls-29"><path class="cls-22" d="M16.31,16.33h2v2.25h-2V16.33Z"/></g><path class="cls-1" d="M17,16.94a2,2,0,0,0,.49-0.61c0.2,0.47.83,2.23,0.81,2.25Z"/><g class="cls-30"><path class="cls-24" d="M17,16.33h1.32v2.25H17V16.33Z"/></g><path class="cls-1" d="M13.06,12.57l0,0-0.22.07,0,0,0.22-.09h0Z"/><g class="cls-31"><path class="cls-32" d="M12.79,12.55h0.27v0.11H12.79V12.55Z"/></g><path class="cls-33" d="M12.83,12.68l-0.07-.07L13,12.54l0.06,0v0Zm0-.06,0,0L13,12.57h0Z"/><path class="cls-1" d="M13.13,12.39l0,0-0.07.2,0,0,0.07-.18h0Z"/><g class="cls-34"><path class="cls-32" d="M13.06,12.39h0.11v0.22H13.06V12.39h0Z"/></g><path class="cls-33" d="M13.11,12.65L13,12.58l0.07-.19h0l0,0Zm0-.08,0,0,0.06-.17h0Z"/><path class="cls-1" d="M13.26,12.73l-0.07,0L13,12.75l0,0,0.25-.07h0Z"/><g class="cls-35"><path class="cls-32" d="M13,12.69h0.29V12.8H13V12.69Z"/></g><path class="cls-33" d="M13,12.82l-0.07-.07,0.25-.08,0.1,0.07h0Zm0-.05,0,0,0.21-.06,0,0Z"/><path class="cls-1" d="M13.3,12.53l0.07,0-0.07.2,0,0Z"/><g class="cls-36"><path class="cls-32" d="M13.26,12.53h0.11v0.23H13.26V12.53Z"/></g><path class="cls-33" d="M13.31,12.78l-0.07,0,0.05-.23,0.1,0Zm0-.05h0l0.06-.17h0Z"/><path class="cls-1" d="M13.48,12.87l-0.07,0-0.22.09,0.07,0,0.22-.07h0Z"/><g class="cls-37"><path class="cls-32" d="M13.19,12.82h0.29v0.11H13.19V12.82h0Z"/></g><path class="cls-33" d="M13.26,13l-0.11,0,0.27-.11,0.11,0.08h0Zm0,0h0l0.19-.06,0,0Z"/><path class="cls-1" d="M13.53,12.66l0.07,0,0,0.2-0.07,0Z"/><g class="cls-38"><path class="cls-32" d="M13.48,12.66H13.6v0.23H13.48V12.66Z"/></g><path class="cls-33" d="M13.56,12.91l-0.09,0,0.05-.23,0.09,0Zm-0.06-.05h0l0-.17h0Z"/><path class="cls-1" d="M13.75,13l-0.07,0L13.46,13l0.07,0L13.75,13h0Z"/><g class="cls-39"><path class="cls-32" d="M13.46,13h0.29v0.13H13.46V13h0Z"/></g><path class="cls-33" d="M13.53,13.11L13.43,13l0.25-.1,0.09,0v0Zm0-.06,0,0L13.72,13h0Z"/><path class="cls-1" d="M13.78,12.78l0.07,0,0,0.23-0.07,0,0-.2h0Z"/><g class="cls-40"><path class="cls-32" d="M13.75,12.78h0.09V13H13.75V12.78Z"/></g><path class="cls-33" d="M13.83,13.05L13.74,13l0-.21h0l0.07,0ZM13.77,13l0,0,0-.19h0Z"/><path class="cls-1" d="M14,13.09l-0.09,0-0.2.11,0.09,0,0.2-.11h0Z"/><g class="cls-41"><path class="cls-32" d="M13.73,13.07H14V13.2H13.73V13.07Z"/></g><path class="cls-33" d="M13.82,13.22l-0.13,0,0.24-.13,0.09,0h0Zm-0.05,0h0L14,13.1h0Z"/><path class="cls-1" d="M14,12.87l0.07,0,0,0.22-0.07,0,0-.22h0Z"/><g class="cls-42"><path class="cls-32" d="M14,12.87h0.09v0.25H14V12.87Z"/></g><path class="cls-33" d="M14.11,13.14l-0.1,0,0-.23h0l0.07,0ZM14,13.08h0l0-.19h0Z"/><path class="cls-1" d="M14.34,13.16H14.27l-0.2.11,0.09,0,0.18-.14h0Z"/><g class="cls-43"><path class="cls-32" d="M14.07,13.16h0.27v0.13H14.07V13.16h0Z"/></g><path class="cls-33" d="M14.16,13.31l-0.13,0,0.24-.13h0.11Zm-0.05,0h0l0.14-.1h0Z"/><path class="cls-1" d="M14.29,13l0.09,0,0,0.2-0.07,0L14.29,13h0Z"/><g class="cls-44"><path class="cls-32" d="M14.29,13h0.13v0.22H14.29V13Z"/></g><path class="cls-33" d="M14.45,13.2l-0.1,0-0.08-.23h0l0.1,0Zm-0.08-.06h0l0-.17H14.31Z"/><path class="cls-1" d="M14.65,13.2H14.56l-0.16.16h0.09l0.16-.16h0Z"/><g class="cls-45"><path class="cls-32" d="M14.4,13.2h0.25v0.16H14.4V13.2Z"/></g><path class="cls-33" d="M14.5,13.38H14.37l0.19-.19h0.13Zm-0.06,0h0l0.13-.13h0Z"/><path class="cls-1" d="M14.54,13l0.09,0,0.09,0.18H14.65L14.54,13h0Z"/><g class="cls-46"><path class="cls-32" d="M14.54,13h0.18v0.2H14.54V13Z"/></g><path class="cls-33" d="M14.74,13.22h-0.1L14.53,13h0v0h0l0.09,0Zm-0.08,0h0L14.62,13H14.57Z"/><path class="cls-1" d="M14.94,13.23H14.85l-0.13.16h0.09Z"/><g class="cls-47"><path class="cls-32" d="M14.72,13.23h0.22v0.16H14.72V13.23Z"/></g><path class="cls-33" d="M14.82,13.4H14.69l0.16-.19H15Zm-0.07,0H14.8l0.11-.13H14.86Z"/><path class="cls-1" d="M14.83,13h0.09L15,13.23H14.94L14.83,13h0Z"/><g class="cls-48"><path class="cls-32" d="M14.83,13H15v0.18h-0.2V13Z"/></g><path class="cls-33" d="M15.06,13.24H14.94L14.81,13h0.12Zm-0.11,0H15l-0.09-.15H14.86Z"/><path class="cls-1" d="M15.26,13.23H15.17l-0.09.18,0.09,0Z"/><g class="cls-49"><path class="cls-32" d="M15.08,13.23h0.18v0.18H15.08V13.23Z"/></g><path class="cls-33" d="M15.05,13.43l0.11-.22h0.12l-0.11.18Zm0.13-.19-0.07.14h0.05l0.07-.13H15.18Z"/><path class="cls-1" d="M15.12,13h0.07l0.16,0.18H15.26L15.12,13h0Z"/><g class="cls-50"><path class="cls-32" d="M15.12,13h0.22v0.18H15.12V13Z"/></g><path class="cls-33" d="M15.38,13.24H15.25L15.09,13h0.1Zm-0.11,0h0.05l-0.13-.15h0Z"/><path class="cls-1" d="M15.62,13.18H15.53l-0.07.18h0.07Z"/><g class="cls-51"><path class="cls-32" d="M15.46,13.18h0.16v0.18H15.46V13.18Z"/></g><path class="cls-33" d="M15.54,13.38h-0.1l0.08-.21h0.12Zm-0.06,0h0l0.08-.15H15.54Z"/><path class="cls-1" d="M15.46,13h0.07l0.16,0.16-0.07,0Z"/><g class="cls-52"><path class="cls-32" d="M15.46,13h0.22v0.18H15.46V13Z"/></g><path class="cls-33" d="M15.61,13.2L15.43,13h0.11l0.18,0.18ZM15.49,13l0.13,0.15h0L15.52,13h0Z"/><path class="cls-1" d="M15.91,13.11l-0.09,0,0,0.18,0.09,0,0-.18h0Z"/><g class="cls-53"><path class="cls-32" d="M15.8,13.11h0.11v0.2H15.8v-0.2Z"/></g><path class="cls-33" d="M15.78,13.34l0-.21,0.1,0h0l0,0.21Zm0.05-.19,0,0.15,0.06,0,0-.15Z"/><path class="cls-1" d="M15.73,13l0.07,0L16,13.09l-0.09,0Z"/><g class="cls-54"><path class="cls-32" d="M15.73,12.93H16v0.18H15.73V12.93Z"/></g><path class="cls-33" d="M15.91,13.13L15.7,13l0.1,0L16,13.1ZM15.76,13l0.15,0.14H16L15.79,13h0Z"/><path class="cls-1" d="M16.22,13l-0.07,0,0,0.18,0.09,0,0-.18h0Z"/><g class="cls-55"><path class="cls-32" d="M16.11,13h0.11v0.2H16.11V13Z"/></g><path class="cls-33" d="M16.09,13.22L16.14,13l0.1,0,0,0.21ZM16.17,13l0,0.15h0.06l0-.15h0Z"/><path class="cls-1" d="M16,12.87l0.07,0L16.29,13l-0.07,0L16,12.87h0Z"/><g class="cls-56"><path class="cls-32" d="M16,12.84h0.27V13H16V12.84Z"/></g><path class="cls-33" d="M16.22,13L16,12.86l0.1,0L16.32,13Zm-0.17-.15L16.23,13h0l-0.17-.11h0Z"/><path class="cls-1" d="M16.45,12.89l-0.07,0v0.18l0.07,0V12.89h0Z"/><g class="cls-57"><path class="cls-32" d="M16.38,12.89h0.07v0.22H16.38V12.89h0Z"/></g><path class="cls-33" d="M16.37,13.14V12.93l0.12-.08,0,0v0.18Zm0-.2v0.15l0,0V12.92Z"/><path class="cls-1" d="M16.25,12.78l0,0,0.22,0.14-0.07,0-0.2-.11h0Z"/><g class="cls-58"><path class="cls-32" d="M16.25,12.73h0.27v0.16H16.25V12.73Z"/></g><path class="cls-33" d="M16.45,12.91l-0.22-.13,0.07-.07,0.26,0.16Zm-0.18-.13,0.18,0.1h0l-0.19-.11Z"/><path class="cls-1" d="M16.67,12.78l-0.07,0,0,0.18,0,0V12.78h0Z"/><g class="cls-59"><path class="cls-32" d="M16.61,12.78h0.07V13H16.61V12.78Z"/></g><path class="cls-33" d="M16.62,13l0-.22,0.1-.07V13Zm0-.2,0,0.14,0,0V12.8Z"/><path class="cls-1" d="M16.45,12.66l0.07,0,0.2,0.11,0,0-0.22-.11h0Z"/><g class="cls-60"><path class="cls-32" d="M16.45,12.64h0.27v0.14H16.45V12.64Z"/></g><path class="cls-33" d="M16.67,12.79l-0.26-.13,0.11,0,0.23,0.13Zm-0.19-.13,0.19,0.09h0l-0.17-.1h0Z"/><path class="cls-1" d="M16.85,12.64l0,0,0.07,0.16,0,0-0.07-.16h0Z"/><g class="cls-61"><path class="cls-32" d="M16.81,12.64h0.11v0.2H16.81v-0.2Z"/></g><path class="cls-33" d="M16.87,12.87l-0.08-.19,0.06-.06h0l0.07,0.18Zm0-.18,0.06,0.13,0,0-0.06-.13Z"/><path class="cls-1" d="M16.65,12.55l0,0,0.22,0.09,0,0-0.22-.09h0Z"/><g class="cls-62"><path class="cls-32" d="M16.65,12.51h0.27v0.13H16.65V12.51Z"/></g><path class="cls-33" d="M16.88,12.66l-0.23-.09h0l0,0,0.05-.05,0.25,0.1Zm-0.2-.11,0.2,0.08,0,0-0.2-.08Z"/><path class="cls-1" d="M17.05,12.48l-0.07,0,0.07,0.16,0,0,0-.16h0Z"/><g class="cls-63"><path class="cls-32" d="M17,12.48H17.1v0.2H17v-0.2h0Z"/></g><path class="cls-33" d="M17,12.71L17,12.52l0.1-.07v0l0,0.16Zm0-.18,0.05,0.13,0,0,0-.13Z"/><path class="cls-1" d="M16.83,12.39l0,0,0.09,0L17,12.46l0,0-0.22-.09h0Z"/><g class="cls-64"><path class="cls-32" d="M16.83,12.35h0.22v0.14H16.83V12.35Z"/></g><path class="cls-33" d="M17,12.5l-0.22-.09h0l0.08-.08L17,12.38l0.09,0.09Zm-0.19-.11L17,12.45l0,0-0.08,0Z"/><path class="cls-1" d="M17,16.76l0,0,0.22-.07,0,0L17,16.76h0Z"/><g class="cls-65"><path class="cls-32" d="M17,16.69h0.27V16.8H17V16.69Z"/></g><path class="cls-33" d="M17,16.82L17,16.77h0v0l0.23-.07,0.07,0.07Zm0-.05,0,0,0.19-.06,0,0Z"/><path class="cls-1" d="M16.9,17l0,0,0.07-.2,0,0L16.9,17h0Z"/><g class="cls-66"><path class="cls-32" d="M16.85,16.71H17V17H16.85V16.71Z"/></g><path class="cls-33" d="M16.9,17l-0.07-.07,0.08-.23L17,16.76Zm0-.08,0,0,0.06-.17,0,0Z"/><path class="cls-1" d="M16.76,16.63l0.07,0,0.22-.07,0,0-0.25.07h0Z"/><g class="cls-67"><path class="cls-32" d="M16.76,16.56h0.29v0.09H16.76V16.56Z"/></g><path class="cls-33" d="M16.83,16.66l-0.08,0v0L17,16.54l0.08,0Zm0,0h0L17,16.58h0Z"/><path class="cls-1" d="M16.72,16.83l-0.07,0,0.07-.2,0,0Z"/><g class="cls-68"><path class="cls-32" d="M16.65,16.58h0.11v0.25H16.65V16.58Z"/></g><path class="cls-33" d="M16.73,16.85l-0.09-.06,0.08-.24,0.07,0.07Zm-0.06-.07,0,0,0-.17,0,0Z"/><path class="cls-1" d="M16.54,16.49l0.07,0,0.22-.09-0.07,0Z"/><g class="cls-69"><path class="cls-32" d="M16.54,16.4h0.29v0.11H16.54V16.4h0Z"/></g><path class="cls-33" d="M16.61,16.53l-0.07,0v0h0l0.23-.09,0.11,0Zm0,0h0l0.18-.07h0Z"/><path class="cls-1" d="M16.49,16.69l-0.07,0,0-.23,0.07,0,0,0.2h0Z"/><g class="cls-70"><path class="cls-32" d="M16.43,16.44h0.11v0.25H16.43V16.44h0Z"/></g><path class="cls-33" d="M16.5,16.71l-0.09,0,0.05-.26,0.09,0.06Zm-0.06-.05h0l0-.18,0,0Z"/><path class="cls-1" d="M16.27,16.35l0.07,0,0.22-.09-0.07,0Z"/><g class="cls-71"><path class="cls-32" d="M16.27,16.26h0.29v0.11H16.27V16.26Z"/></g><path class="cls-33" d="M16.34,16.39l-0.07,0h0v0l0.23-.09,0.11,0Zm0,0h0l0.18-.07h0Z"/><path class="cls-1" d="M16.25,16.56l-0.07,0,0-.2,0.07,0,0,0.2h0Z"/><g class="cls-72"><path class="cls-32" d="M16.18,16.33h0.09v0.23H16.18V16.33Z"/></g><path class="cls-33" d="M16.26,16.58l-0.1,0,0-.23,0.1,0Zm-0.06-.05h0l0-.17h0Z"/><path class="cls-1" d="M16,16.26l0.09,0,0.2-.13-0.09,0Z"/><g class="cls-73"><path class="cls-32" d="M16.29,16.13v0.16H16V16.13h0.29Z"/></g><path class="cls-33" d="M16.09,16.3l-0.13,0,0.23-.16,0.13,0Zm-0.06,0h0.05l0.17-.11H16.2Z"/><path class="cls-1" d="M16,16.47l-0.07,0,0-.2,0.07,0Z"/><g class="cls-74"><path class="cls-32" d="M15.93,16.24H16v0.22H15.93V16.24Z"/></g><path class="cls-33" d="M16,16.49l-0.1,0,0-.23,0.1,0ZM16,16.43h0l0-.17h0Z"/><path class="cls-1" d="M15.68,16.18l0.07,0,0.2-.13-0.09,0-0.18.14h0Z"/><g class="cls-75"><path class="cls-32" d="M15.68,16H16V16.2H15.68V16Z"/></g><path class="cls-33" d="M15.75,16.21l-0.1,0L15.86,16l0.13,0Zm0,0h0l0.17-.11H15.87Z"/><path class="cls-1" d="M15.73,16.38H15.64l0-.22,0.07,0,0.07,0.2h0Z"/><g class="cls-76"><path class="cls-32" d="M15.6,16.15h0.13v0.23H15.6V16.15Z"/></g><path class="cls-33" d="M15.75,16.39H15.63l-0.05-.26,0.1,0Zm-0.1,0h0.06l-0.06-.18h0Z"/><path class="cls-1" d="M15.37,16.13h0.09L15.6,16H15.53Z"/><g class="cls-77"><path class="cls-32" d="M15.37,16H15.6v0.16H15.37V16Z"/></g><path class="cls-33" d="M15.47,16.14H15.34L15.52,16h0.1Zm-0.06,0h0L15.56,16h0Z"/><path class="cls-1" d="M15.48,16.33H15.39l-0.09-.2h0.07l0.11,0.2h0Z"/><g class="cls-78"><path class="cls-32" d="M15.3,16.13h0.18v0.2H15.3v-0.2Z"/></g><path class="cls-33" d="M15.48,16.35h-0.1l-0.1-.23h0.1l0.12,0.21,0,0h0Zm-0.08,0h0.06l-0.1-.17h0Z"/><path class="cls-1" d="M15.08,16.11h0.09L15.3,16H15.21l-0.13.16h0Z"/><g class="cls-79"><path class="cls-32" d="M15.08,15.95H15.3v0.16H15.08V15.95Z"/></g><path class="cls-33" d="M15.18,16.12H15l0.16-.19h0.13Zm-0.07,0h0.05L15.27,16H15.22Z"/><path class="cls-1" d="M15.19,16.31H15.1L15,16.11h0.09l0.11,0.2h0Z"/><g class="cls-80"><path class="cls-32" d="M15,16.11h0.2v0.2H15v-0.2h0Z"/></g><path class="cls-33" d="M15.19,16.32h-0.1L15,16.09h0.12l0.13,0.23h0Zm-0.08,0h0.06l-0.1-.17H15Z"/><path class="cls-1" d="M14.76,16.13l0.09,0L14.94,16H14.85l-0.09.18h0Z"/><g class="cls-81"><path class="cls-32" d="M14.76,15.95h0.18v0.18H14.76V16h0Z"/></g><path class="cls-33" d="M14.74,16.15l0.11-.22H15l-0.11.18ZM14.86,16l-0.07.14h0.05L14.92,16H14.86Z"/><path class="cls-1" d="M14.9,16.29l-0.07,0-0.16-.18,0.09,0,0.13,0.18h0Z"/><g class="cls-82"><path class="cls-32" d="M14.67,16.11H14.9v0.2H14.67v-0.2h0Z"/></g><path class="cls-33" d="M14.83,16.33l-0.18-.21,0.12,0,0.15,0.2h0Zm-0.13-.19,0.14,0.15h0l-0.12-.16H14.7Z"/><path class="cls-1" d="M14.4,16.18l0.09,0L14.56,16l-0.07,0-0.09.18h0Z"/><g class="cls-83"><path class="cls-32" d="M14.4,16h0.16v0.2H14.4V16h0Z"/></g><path class="cls-33" d="M14.39,16.19v0L14.48,16l0.1,0-0.08.22ZM14.51,16l-0.07.15h0.05L14.54,16h0Z"/><path class="cls-1" d="M14.56,16.33l-0.07,0-0.16-.18H14.4l0.16,0.16h0Z"/><g class="cls-84"><path class="cls-32" d="M14.34,16.18h0.22v0.18H14.34V16.18Z"/></g><path class="cls-33" d="M14.49,16.37l-0.18-.21h0.11l0.18,0.18Zm-0.12-.18,0.13,0.15h0l-0.14-.14h0Z"/><path class="cls-1" d="M14.11,16.24l0.09,0,0-.18-0.09,0,0,0.18h0Z"/><g class="cls-85"><path class="cls-32" d="M14.11,16h0.11v0.2H14.11V16Z"/></g><path class="cls-33" d="M14.1,16.26l0-.21,0.12,0,0,0.21Zm0.05-.19,0,0.15,0.06,0,0-.15Z"/><path class="cls-1" d="M14.29,16.38l-0.07,0L14,16.26l0.09,0,0.18,0.13h0Z"/><g class="cls-86"><path class="cls-32" d="M14,16.24h0.27V16.4H14V16.24h0Z"/></g><path class="cls-33" d="M14.22,16.42L14,16.26l0.13,0,0.21,0.16Zm-0.16-.14,0.17,0.11h0l-0.15-.11H14.06Z"/><path class="cls-1" d="M13.8,16.33l0.07,0,0-.18-0.09,0,0,0.18h0Z"/><g class="cls-87"><path class="cls-32" d="M13.8,16.13h0.11v0.2H13.8v-0.2Z"/></g><path class="cls-33" d="M13.78,16.35l0-.21,0.12,0-0.05.21Zm0.05-.19,0,0.15h0l0-.15H13.83Z"/><path class="cls-1" d="M14,16.47l-0.07,0-0.2-.14,0.07,0L14,16.47h0Z"/><g class="cls-88"><path class="cls-32" d="M13.73,16.33H14v0.18H13.73V16.33Z"/></g><path class="cls-33" d="M13.93,16.53l-0.23-.15,0.09-.06L14,16.48h0Zm-0.18-.15,0.18,0.12,0,0-0.18-.12Z"/><path class="cls-1" d="M13.57,16.44l0.07,0V16.24l-0.07,0v0.18Z"/><g class="cls-89"><path class="cls-32" d="M13.57,16.24h0.07v0.2H13.57v-0.2Z"/></g><path class="cls-33" d="M13.56,16.47V16.25l0.1,0v0.19Zm0-.2v0.14l0,0V16.26h0Z"/><path class="cls-1" d="M13.78,16.58l0,0-0.22-.14,0.07,0,0.2,0.13h0Z"/><g class="cls-90"><path class="cls-32" d="M13.51,16.44h0.27V16.6H13.51V16.44Z"/></g><path class="cls-33" d="M13.73,16.62l-0.26-.16,0.1,0,0.25,0.17h0Zm-0.19-.15,0.19,0.11h0l-0.18-.12h0Z"/><path class="cls-1" d="M13.35,16.56l0.07,0,0-.18,0,0v0.18h0Z"/><g class="cls-91"><path class="cls-32" d="M13.35,16.35h0.07v0.2H13.35v-0.2h0Z"/></g><path class="cls-33" d="M13.35,16.57h0v-0.2l0.07,0,0,0.21Zm0-.19v0.15h0l0-.15h0Z"/><path class="cls-1" d="M13.57,16.67l-0.07,0-0.2-.11,0,0,0.22,0.11h0Z"/><g class="cls-92"><path class="cls-32" d="M13.3,16.56h0.27v0.16H13.3V16.56Z"/></g><path class="cls-33" d="M13.51,16.73l-0.23-.13,0.07-.07,0.25,0.13,0,0Zm-0.18-.13,0.18,0.1,0,0-0.19-.1Z"/><path class="cls-1" d="M13.17,16.69l0,0-0.07-.18,0,0,0.07,0.16h0Z"/><g class="cls-93"><path class="cls-32" d="M13.1,16.49h0.11v0.2H13.1v-0.2h0Z"/></g><path class="cls-33" d="M13.18,16.71h0l-0.07-.17,0.07-.07,0.08,0.21Zm-0.06-.17,0.06,0.13h0l-0.05-.15Z"/><path class="cls-1" d="M13.37,16.78l0,0-0.22-.09,0,0,0.22,0.07h0Z"/><g class="cls-94"><path class="cls-32" d="M13.1,16.71h0.27v0.11H13.1V16.71Z"/></g><path class="cls-33" d="M13.33,16.84l-0.26-.11,0.08,0,0.25,0.08Zm-0.19-.11,0.19,0.07,0,0-0.2-.06h0Z"/><path class="cls-1" d="M13,16.85l0.07,0L13,16.65l0,0Z"/><g class="cls-95"><path class="cls-32" d="M12.92,16.65H13v0.2H12.92v-0.2Z"/></g><path class="cls-33" d="M13,16.87l-0.05-.18L13,16.62l0.08,0.19Zm0-.18,0,0.13,0,0L13,16.67Z"/><path class="cls-1" d="M13.19,16.94l0,0-0.09,0-0.07,0,0,0,0.22,0.09h0Z"/><g class="cls-96"><path class="cls-32" d="M13,16.85h0.22V17H13V16.85h0Z"/></g><path class="cls-33" d="M13.15,17l-0.1,0L13,16.9l0-.08,0.26,0.1h0ZM13,16.89l0.06,0,0.08,0,0,0L13,16.88h0Z"/><path class="cls-20" d="M15,17.74a3.08,3.08,0,0,1,0-6.15h0A3.08,3.08,0,0,1,15,17.74Zm0-6.08h0a3,3,0,1,0,2.92,3,3,3,0,0,0-2.92-3Z"/><path class="cls-1" d="M15,14.67c-0.11-.07-0.76-0.74-1-1,0-.52,1-5,1-5s0.94,4.45,1,5c-0.22.25-.9,0.92-1,1h0Z"/><g class="cls-97"><path class="cls-22" d="M14,8.7h2v6H14v-6Z"/></g><path class="cls-1" d="M15,14.67c-0.11-.07-0.76-0.74-1-1,0-.52,1-5,1-5v6h0Z"/><g class="cls-98"><path class="cls-24" d="M14,8.7h1v6H14v-6Z"/></g><path class="cls-1" d="M15,14.67c-0.11.09-.76,0.74-1,1,0,0.52,1,5,1,5s0.94-4.45,1-5c-0.22-.25-0.9-0.9-1-1h0Z"/><g class="cls-99"><path class="cls-22" d="M14,14.67h2v6H14v-6Z"/></g><path class="cls-1" d="M15,14.67c0.09,0.09.76,0.74,1,1,0,0.52-1,5-1,5v-6h0Z"/><g class="cls-100"><path class="cls-24" d="M15,14.67h1v6H15v-6Z"/></g><path class="cls-1" d="M15,14.67c-0.09.09-.74,0.79-1,1-0.49,0-7.59-1-7.59-1s7.1-1,7.59-1c0.25,0.23.9,0.92,1,1h0Z"/><g class="cls-101"><path class="cls-22" d="M6.41,13.65H15v2H6.41v-2Z"/></g><path class="cls-1" d="M15,14.67c-0.09.09-.74,0.79-1,1-0.49,0-7.59-1-7.59-1H15Z"/><g class="cls-102"><path class="cls-24" d="M6.43,14.67H15v1H6.43v-1Z"/></g><path class="cls-1" d="M15,14.67c0.07,0.09.72,0.79,1,1,0.49,0,7.63-1,7.63-1s-7.14-1-7.63-1c-0.25.23-.9,0.92-1,1h0Z"/><g class="cls-103"><path class="cls-22" d="M15,13.65h8.62v2H15v-2Z"/></g><path class="cls-1" d="M15,14.67c0.07-.09.72-0.79,1-1,0.49,0,7.63,1,7.63,1l-8.6,0h0Z"/><g class="cls-104"><path class="cls-24" d="M15,13.65h8.6v1H15v-1h0Z"/></g><path class="cls-1" d="M23.32,23.64H23.21V23.11h0L23,23.64H22.87l-0.18-.54v0.54H22.56V23h0.22l0.16,0.45L23.09,23h0.22v0.67h0Zm-0.88-.54h-0.2v0.54H22.11V23.11H21.93V23h0.52V23.1h0Z"/><g class="cls-105"><path class="cls-3" d="M21.93,23h1.39v0.67H21.93V23Z"/></g><path class="cls-4" d="M15,24.68H14.83a9.92,9.92,0,0,1-9.61-10A9.9,9.9,0,0,1,15,4.68a9.89,9.89,0,0,1,9.77,10A9.9,9.9,0,0,1,15,24.68ZM15,5a9.54,9.54,0,0,0-9.43,9.63A9.56,9.56,0,0,0,15,24.32h0.06a9.55,9.55,0,0,0,9.34-9.65A9.53,9.53,0,0,0,15,5Z"/></svg>