<svg id="Layer_1" data-name="Layer 1" xmlns="http://www.w3.org/2000/svg" viewBox="0 0 30 30"><defs><style>.cls-1{fill:#e8e8e8;}.cls-2{fill:#fff;}.cls-3{fill:#006;}.cls-4{fill:#fedb00;}.cls-5{fill:#c41e3a;}</style></defs><title>st-louis-cardinals</title><circle class="cls-1" cx="15" cy="15" r="15"/><path class="cls-2" d="M24.24,21.23a1.15,1.15,0,0,0-.45-0.12,2.27,2.27,0,0,0-.14-0.57l-0.06-.2a0.79,0.79,0,0,1,0-.55c0.14-.37-0.34-0.58-0.52-0.67L23,19.1a0.19,0.19,0,0,0-.17,0,0.84,0.84,0,0,0-.25.17,1.14,1.14,0,0,0,.15-0.5,0.51,0.51,0,0,0,.15-0.19,1.1,1.1,0,0,0-.26-1.21c-0.16-.19-1.32-1.18-2.33-2.05h0l0.9-.29a0.3,0.3,0,0,1,.31,0,0.37,0.37,0,0,0,.47,0A0.72,0.72,0,0,0,22,14.26a0.68,0.68,0,0,0-.36-0.45,0.36,0.36,0,0,0-.31,0,0.38,0.38,0,0,0-.2.31,0.66,0.66,0,0,1-.51.22l-1.16.32h0l-0.26-.22a1.35,1.35,0,0,0-.27-0.33,1.44,1.44,0,0,0-.5-0.91,1,1,0,0,0-.4-0.7,9.33,9.33,0,0,0-2.48-3.13l0,0c-0.14-.09-0.15-0.1-0.15-0.17a3.57,3.57,0,0,0-.43-1.55,2.62,2.62,0,0,0,.3-0.71l0.1-.36-0.11.07c0-.09.06-0.2,0.08-0.33v0a0.15,0.15,0,0,0-.09-0.16h0a1,1,0,0,0-.07-0.42l-0.08-.22-0.16.17a3.07,3.07,0,0,1-1.23.7l-0.28.11A2.51,2.51,0,0,0,11.86,7.9l0,0A2.39,2.39,0,0,0,11,9l0,0.11L11.1,9.2a3.61,3.61,0,0,0,.77.35c-1.15,2.55,1,4.07,2.86,5a1.55,1.55,0,0,0-.21.59L13.71,16a0.7,0.7,0,0,0-.31.16,0.5,0.5,0,0,0-.08.13H13.25c-0.51.1-1.33,0.29-3.5,0.89a2.08,2.08,0,0,0-1.35-.47,2.36,2.36,0,0,0-1.88,1.09c-0.78.94-1.66,3.53-.49,4.9a2.66,2.66,0,0,0,2.23.89,5.56,5.56,0,0,0,.83-0.13,1.12,1.12,0,0,1,1.1.16l0.18,0.12,0.17-.13a1.3,1.3,0,0,1,1-.05l0.67,0.16-0.35-.59a1.71,1.71,0,0,0-1.81-.84,1.39,1.39,0,0,0,.81-0.84,0.74,0.74,0,0,0,.27.72,1.15,1.15,0,0,0,1.27-.07,0.94,0.94,0,0,0,.63.23,1.17,1.17,0,0,0,.5-0.11,0.69,0.69,0,0,0,.34.12,1,1,0,0,0,.65-0.19,0.63,0.63,0,0,0,.45.18,1,1,0,0,0,.25,0v0h1.22l0.16-.6a0.73,0.73,0,0,0,.12.33,0.64,0.64,0,0,0,.5.27A1.49,1.49,0,0,0,18.17,22a1,1,0,0,0,1.15.14,0.59,0.59,0,0,0,.48.14,0.93,0.93,0,0,0,.49-0.21,0.71,0.71,0,0,0,.52.21,1.29,1.29,0,0,0,.83-0.41,1.26,1.26,0,0,0,1.17.4l0.25-.06a0.28,0.28,0,0,1,.36.07l0.44,0.37,0-.56a0.82,0.82,0,0,1,.37-0.39l0.43-.28-0.46-.23h0ZM9.35,22.38a2.92,2.92,0,0,1-1.81,0,1.46,1.46,0,0,1-.72-1.21A4.05,4.05,0,0,1,7,19.76a0.38,0.38,0,0,0,.15.09,0.73,0.73,0,0,0,.45,0l0.67-.22,0,0a2,2,0,0,0-.54,1.69l-0.26.14-0.27.13-0.07,0v0.08c0,0.08,0,.08.31,0.27a0.63,0.63,0,0,1,.2.23l0.08,0.17H7.91a0.64,0.64,0,0,0,.4-0.17,0.89,0.89,0,0,0,.88-0.09,1.26,1.26,0,0,0,.6.17l-0.44.07h0Zm10.87-3.2H19.44v0a1,1,0,0,0-.33,0,1.38,1.38,0,0,0-1,.78A0.71,0.71,0,0,0,18,19.45a0.66,0.66,0,0,0-.51-0.26,0.89,0.89,0,0,0-.24,0v0H15.95a0.63,0.63,0,1,0-.86-0.8l0.18-.68-1.36.53-0.22,1a1,1,0,0,0-1,.43l0.09-.16,0.14-.22H11.57l0-.14H10.52s-0.2.81-.29,1.1l0.24-1H9.54c2-.69,3.39-1.21,4.18-1.55,0.37-.16,2.22-0.83,2.84-1.06L18.24,16c0.43,0.65,1.52,2.3,2.18,3.18H20.22ZM15.81,15l0.08,0-0.61.59a0.37,0.37,0,0,0-.33.24L14.52,16a0.37,0.37,0,0,0-.13,0l0.55-.47A3,3,0,0,0,15.82,15h0Zm0.53,0.2,0.53,0.18-0.73.18a0.33,0.33,0,0,0-.14,0l0.34-.32h0Z"/><path class="cls-3" d="M24.18,21.36a1,1,0,0,0-.53-0.1,1.71,1.71,0,0,0-.13-0.66c0-.07,0-0.14-0.07-0.21a0.92,0.92,0,0,1,0-.64c0.09-.25-0.28-0.41-0.44-0.48l-0.07,0-0.06,0a7,7,0,0,0-1.39,1.54l-0.25.32,0.27-1.23a0.52,0.52,0,0,0,.57-0.44,0.63,0.63,0,0,0,.51-0.75c0.13,0,.49-0.56-0.08-1.22-0.17-.2-1.56-1.39-2.51-2.2h0l1.15-.37a1,1,0,0,1,.27,0,0.39,0.39,0,0,1,.17.11,0.22,0.22,0,0,0,.29,0,0.6,0.6,0,0,0,0-.66,0.6,0.6,0,0,0-.28-0.38,0.25,0.25,0,0,0-.21,0,0.82,0.82,0,0,0-.18.33,0.94,0.94,0,0,1-.54.2l-1.18.33-0.07,0h0l-0.34-.29a1,1,0,0,0-.3-0.35,1.23,1.23,0,0,0-.51-0.91,0.81,0.81,0,0,0-.36-0.67,9.74,9.74,0,0,0-2.45-3.12,0.37,0.37,0,0,1-.24-0.3,3.12,3.12,0,0,0-.46-1.56,2.37,2.37,0,0,0,.34-0.75A1.06,1.06,0,0,1,14.9,7a1.42,1.42,0,0,0,.28-0.72c0-.06,0,0.06-0.18.13a0.94,0.94,0,0,0,0-.66,4,4,0,0,1-1.56.84A2.38,2.38,0,0,0,12,8a2.33,2.33,0,0,0-.8,1.1,3.73,3.73,0,0,0,.83.37s0,0.11,0,.13c-1.08,2.35.7,3.81,2.91,4.91a1.63,1.63,0,0,0-.27.71l-0.88.93a0.67,0.67,0,0,0-.28.13,0.5,0.5,0,0,0-.08.15l-0.13,0c-0.54.11-1.4,0.31-3.57,0.91l0,0a1.9,1.9,0,0,0-1.29-.46,2.24,2.24,0,0,0-1.77,1c-0.75.91-1.61,3.41-.49,4.72a2.51,2.51,0,0,0,2.11.84,5.42,5.42,0,0,0,.81-0.13,1.25,1.25,0,0,1,1.21.18l0.09,0.06,0.09-.07a1.41,1.41,0,0,1,1.15-.08l0.35,0.08-0.18-.31c-0.59-1-1.51-.83-2.39-0.67a3,3,0,0,1-1.9-.06,1.6,1.6,0,0,1-.8-1.33A4.69,4.69,0,0,1,7,19.5a0.51,0.51,0,0,0,.5.24l0.06,0h0c3-1,5-1.75,6.07-2.19,0.37-.16,2.23-0.84,2.85-1.06l1.79-.62c0.37,0.56,1.82,2.75,2.44,3.54A3.13,3.13,0,0,1,20,21.2l-0.05,0c0.08-.42.34-1.55,0.38-1.72l0-.19H19.55v0.06a0.73,0.73,0,0,0-.41,0c-0.67.13-1.07,0.74-1.2,1.82v0.06a0.35,0.35,0,0,1-.26.17,0,0,0,0,1,0,0,3.36,3.36,0,0,1,.14-0.6,1.58,1.58,0,0,0,.11-1.21,0.52,0.52,0,0,0-.4-0.2,0.9,0.9,0,0,0-.43.1l0-.1H16.19l0,0.12a6.53,6.53,0,0,1-.6,1.77,0.31,0.31,0,0,1-.17.08c0.06-.27.31-1.2,0.47-1.79l0.05-.19H15l0,0.12a10.11,10.11,0,0,1-.53,1.72,0.21,0.21,0,0,1-.15.14,0.06,0.06,0,0,1,0-.06c0-.31.52-2.29,0.71-3l0.07-.29-1,.4-0.24,1-0.1,0a1.09,1.09,0,0,0-1.11.72,3,3,0,0,0-.33,1.15,0.54,0.54,0,0,1-.25.19,0.05,0.05,0,0,1,0,0,3.59,3.59,0,0,1,.59-1.76l0.12-.22H11.38l0-.14H10.64l0,0.12a7,7,0,0,1-.7,1.93,0.28,0.28,0,0,1-.07.08c0-.16.22-1.06,0.4-1.86l0-.19H9.39l0,0.14a0.87,0.87,0,0,0-1,.27,1.79,1.79,0,0,0-.48,1.66,2.53,2.53,0,0,1-.36.2l-0.26.12,0.24,0.15a0.76,0.76,0,0,1,.25.29l0,0.09h0.1a0.57,0.57,0,0,0,.37-0.2A0.77,0.77,0,0,0,9.18,22a1.11,1.11,0,0,0,.63.2c0.77,0,1.06-1,1.27-1.75l0.08-.28h0.29l-0.06.14c-0.09.2-.18,0.44-0.26,0.66a1,1,0,0,0,.09,1.1,1.06,1.06,0,0,0,1.21-.13,0.8,0.8,0,0,0,.61.27A1,1,0,0,0,13.58,22a0.56,0.56,0,0,0,.33.15,1,1,0,0,0,.66-0.24,0.49,0.49,0,0,0,.42.23A1,1,0,0,0,15.46,22l0,0.12h0.93l0.3-1.1A1,1,0,0,1,17,20.28h0a1.48,1.48,0,0,1-.07.27q-0.06.18-.11,0.35v0a1.31,1.31,0,0,0,0,1,0.5,0.5,0,0,0,.39.21,1.38,1.38,0,0,0,.93-0.33,0.86,0.86,0,0,0,1.17.16,0.47,0.47,0,0,0,.45.17,0.91,0.91,0,0,0,.52-0.26,0.58,0.58,0,0,0,.5.26,1.29,1.29,0,0,0,.84-0.47,1.15,1.15,0,0,0,1.14.47L23,22.11a0.41,0.41,0,0,1,.49.1l0.23,0.19,0-.29a0.86,0.86,0,0,1,.43-0.49l0.22-.14-0.24-.12h0Zm-8.79-5.61a0.38,0.38,0,0,0-.23.1,0.43,0.43,0,0,0-.1.16l-0.6.15a0.46,0.46,0,0,0-.27-0.05,0,0,0,0,1,0,0s0.74-.7.74-0.7a7,7,0,0,0,1-.48L16.08,15l0,0,0,0.06-0.6.63a0.1,0.1,0,0,1,0,0h0Zm0.69,0a0.27,0.27,0,0,0-.16-0.06c-0.19,0-.13-0.07-0.08-0.12l0.51-.48s0.41,0.17.89,0.34l-1.16.32h0ZM8.18,22h0Zm0.6-.64h0a0.73,0.73,0,0,1,0-.57,0.94,0.94,0,0,1,.33-0.6,0.22,0.22,0,0,1,.11,0,1.63,1.63,0,0,1-.45,1.2h0Zm4.73-.58c0,0.15-.08.31-0.11,0.47a0.19,0.19,0,0,1-.15.08,0.1,0.1,0,0,1-.1,0,1.39,1.39,0,0,1,.28-1,0.31,0.31,0,0,1,.22-0.13,3.8,3.8,0,0,1-.13.65h0Zm5.38,0.58h0a0.73,0.73,0,0,1,0-.57,0.9,0.9,0,0,1,.32-0.59,0.26,0.26,0,0,1,.15,0,1.56,1.56,0,0,1-.48,1.19h0Zm3.91,0a0.27,0.27,0,0,1-.17.06,0.32,0.32,0,0,1-.23-0.08c-0.28-.26-0.28-0.26-0.14-0.43l0.23-.32,0.19-.25a2.63,2.63,0,0,0,.11.43,0.6,0.6,0,0,1,0,.58h0Z"/><path class="cls-3" d="M16.16,18.63a0.49,0.49,0,1,0-.49.49,0.49,0.49,0,0,0,.49-0.49h0Z"/><path class="cls-4" d="M14.57,17L16,16.51l0.07,0A0.47,0.47,0,0,0,16,16a0.35,0.35,0,0,0-.12-0.06l-0.11,0-1.22.32a0.54,0.54,0,0,1,0,.8h0Zm1.63-.59,0.26-.09,1.77-.61h0l0,0c-0.24-.05-0.51-0.14-0.78-0.22l-1.23.34h0a0.46,0.46,0,0,1,0,.62h0ZM12.1,9.3A0.33,0.33,0,0,0,12.54,9c0.05-.23-0.12-0.57-0.35-0.48A0.32,0.32,0,0,0,12,8.19a1.9,1.9,0,0,0-.69.83,2.44,2.44,0,0,1,.8-0.18,0.46,0.46,0,0,1,.26.13,1.69,1.69,0,0,0-.36,0c-0.16,0-.48.11-0.64,0.12a5.37,5.37,0,0,0,.69.25h0Z"/><path class="cls-5" d="M15.83,12.37a1.09,1.09,0,0,1-.6-0.07,0.49,0.49,0,0,1-.3.21,14.2,14.2,0,0,0,3.65,1.58,0.66,0.66,0,0,0-.34-0.65,13,13,0,0,1-2.41-1.06h0Zm0.18,0a9.8,9.8,0,0,0,2.11.9,0.61,0.61,0,0,0-.37-0.56,5.94,5.94,0,0,1-1.11-.49,0.55,0.55,0,0,1-.49,0,0.2,0.2,0,0,1-.13.17h0Z"/><path class="cls-2" d="M13.18,8.59a0.25,0.25,0,0,1-.46-0.15h0a0.25,0.25,0,0,1,.47-0.09,0.19,0.19,0,0,0-.21.15,0.13,0.13,0,0,1,0-.21,0.18,0.18,0,0,0-.19.17,0.2,0.2,0,0,0,.18.21,0.19,0.19,0,0,0,.18-0.07h0Z"/><path class="cls-3" d="M24.2,20.62H24.09v0.3H24v-0.3H23.91V20.56H24.2v0.06h0Zm0.49,0.29H24.62V20.63h0l-0.1.29H24.44l-0.1-.29h0v0.29H24.27V20.56h0.13l0.08,0.24h0l0.09-.24h0.13v0.36h0Z"/><path class="cls-5" d="M11.93,10.44a1.93,1.93,0,0,1,1.25-1,1.59,1.59,0,0,1,.5-1.23,0.66,0.66,0,0,1-.37-0.06A1.72,1.72,0,0,0,13.14,8a0.39,0.39,0,0,0-.38,0A0.75,0.75,0,0,1,12.18,8a2.26,2.26,0,0,1,1.28-1.22A4,4,0,0,0,14.9,6,1.43,1.43,0,0,1,14,7a2.11,2.11,0,0,0,.89-0.47,2,2,0,0,1-.79.91,2.06,2.06,0,0,0,.67-0.3,1.62,1.62,0,0,1-.56.74,1.22,1.22,0,0,0,.38-0.16,2.74,2.74,0,0,1,.45,1.56,0.81,0.81,0,0,0,.13.45c0.1,0,0-.15,0-0.24a8.64,8.64,0,0,1,2.47,3,7.63,7.63,0,0,1-1-.42,0.14,0.14,0,0,0,0-.1,0.45,0.45,0,0,0-.28-0.41,0,0,0,0,0-.05,0,0,0,0,0,0,0,0,0.42,0.42,0,0,1,.23.34,0.18,0.18,0,0,1-.17.13,1.78,1.78,0,0,1-1.16-.7,0.06,0.06,0,0,0-.08,0,0,0,0,0,0,0,.06,2,2,0,0,0,.79.67,0.33,0.33,0,0,1-.39.15,1.69,1.69,0,0,1-1.17-.89,0.05,0.05,0,0,0-.07,0,0,0,0,0,0,0,.06,2,2,0,0,0,.72.83c0.06,0-.17.18-0.31,0.17a1.31,1.31,0,0,1-1.09-1.15,0,0,0,0,0,0,0,0,0,0,0,0,0,.06,1.31,1.31,0,0,0,1.13,1.25,12.18,12.18,0,0,0,3.84,1.71c0.32,0.09.65,1,.4,0.9L18.65,15a32.15,32.15,0,0,1-3.53-1.47c-1-.46-2.59-1.51-1.8-3a1.17,1.17,0,0,1,.23-0.34,0.05,0.05,0,0,0,0,0c0-.1-0.13-0.09-0.37.32-0.84,1.6.84,2.65,1.86,3.15,0.66,0.32,1.81.82,2.63,1.14l0.45,0.73A18.18,18.18,0,0,1,16,14.77a0.26,0.26,0,0,0,.09-0.25,0.48,0.48,0,0,0-.17-0.23c-0.12-.07-0.15,0-0.1,0a0.27,0.27,0,0,1,.05.33,4.09,4.09,0,0,1-.87.53c-0.11,0-.17,0-0.18-0.08a1.91,1.91,0,0,1,.36-0.7c-0.35-.16-3.85-1.68-3.23-4h0ZM22,19.23c0.26,0.12.45-.4,0.35-0.55s-0.23-.26-0.5-0.55l-0.16.75a2.78,2.78,0,0,0,.31.34h0Z"/><path class="cls-5" d="M20.86,18.49l0-.13L21,18.3l-2-2.57H19.2s1.15,1.48,2,2.51L21.76,18c-0.84-.89-2.25-2.33-2.25-2.33h0.18s2.72,2.8,2.72,2.8c0.15,0.17.4-.4,0-0.85-0.23-.36-3.21-2.84-3.21-2.84a0.91,0.91,0,0,1,.05.21c0.12,0.55-.3.25-1.37-0.11,0.86,1.35,2.16,3.34,2.9,4.27,0-.28.07-0.52,0.09-0.67h0Zm0.67,1.23c0.22,0,.44-0.2.33-0.36l-0.2-.25-0.13.61h0Z"/><path class="cls-5" d="M23.44,21.44a1.5,1.5,0,0,0-.13-1,1.07,1.07,0,0,1,0-.73,0.58,0.58,0,0,0-.37-0.3,18.75,18.75,0,0,0-1.73,2c-0.06.05-.21,0.14-0.12-0.25,0,0,.65-2.94.65-2.95L21,18.46c-0.08.65-.28,2.48-0.91,2.87-0.06,0-.25.17-0.3,0.06s0.4-1.9.41-1.92H19.67l0,0.17a0.43,0.43,0,0,0-.47-0.14c-1,.2-1.06,1.74-1.1,1.8-0.3.37-.58,0.28-0.57,0,0-.4.49-1.45,0.28-1.72a0.67,0.67,0,0,0-1,.17l0.07-.32H16.31a6.56,6.56,0,0,1-.64,1.84c-0.13.15-.47,0.2-0.45,0s0.49-1.88.49-1.88H15.13a10.14,10.14,0,0,1-.55,1.77c-0.21.36-.48,0.2-0.46,0,0-.39.71-3.05,0.71-3.05l-0.68.27-0.27,1.2s0-.11-0.22-0.15a0.92,0.92,0,0,0-.95.64,2.81,2.81,0,0,0-.31,1.13,0.7,0.7,0,0,1-.42.29c-0.63-.08.42-2,0.42-2H11.18l0-.14H10.76a7.28,7.28,0,0,1-.72,2c-0.16.23-.35,0.16-0.35,0s0.41-1.91.41-1.91H9.51l-0.06.21a0.72,0.72,0,0,0-1,.15,1.62,1.62,0,0,0-.43,1.59,1.28,1.28,0,0,1-.46.31,0.9,0.9,0,0,1,.31.35,0.77,0.77,0,0,0,.36-0.24,0.65,0.65,0,0,0,.92-0.1,0.9,0.9,0,0,0,.64.25c0.79,0,1-1.38,1.25-2h0.63c-0.09.25-.27,0.63-0.39,1a0.84,0.84,0,0,0,0,.93,1,1,0,0,0,1.15-.23,0.63,0.63,0,0,0,.57.33,0.85,0.85,0,0,0,.55-0.19c0.31,0.42.77,0.1,1-.14A0.38,0.38,0,0,0,15,22a1.1,1.1,0,0,0,.72-0.33L15.63,22h0.61l0.27-1c0.3-1.19.67-.88,0.69-0.83a1.53,1.53,0,0,1-.17.75c-0.09.31-.31,1,0.23,1.07a1.26,1.26,0,0,0,.94-0.41,0.75,0.75,0,0,0,1.18.2,0.38,0.38,0,0,0,.39.21,1,1,0,0,0,.58-0.37,0.48,0.48,0,0,0,.46.37,1.39,1.39,0,0,0,.85-0.54,1.08,1.08,0,0,0,1.1.54,0.74,0.74,0,0,1,.84.08,0.94,0.94,0,0,1,.5-0.6,0.92,0.92,0,0,0-.67-0.05h0ZM8.78,21.5c-0.15,0-.28-0.2-0.14-0.77,0.1-.4.32-0.87,0.76-0.71,0,0-.13,1.47-0.61,1.47h0Zm4.77-.22a0.32,0.32,0,0,1-.54.08c-0.15-.35.2-1.5,0.71-1.38a2.17,2.17,0,0,1-.18,1.29h0Zm5.34,0.23c-0.15,0-.29-0.2-0.14-0.77,0.1-.4.31-0.88,0.79-0.69,0,0-.15,1.46-0.65,1.46h0Zm4,0a0.48,0.48,0,0,1-.62,0c-0.36-.34-0.35-0.38-0.16-0.63A6.8,6.8,0,0,1,22.85,20c-0.16.63,0.4,1.13,0.07,1.53h0Z"/><path class="cls-5" d="M15.33,18.63a0.34,0.34,0,1,1,.34.34A0.34,0.34,0,0,1,15.33,18.63Z"/><path class="cls-4" d="M19.54,14.9l0.36,0.3,1.21-.39a0.61,0.61,0,0,0,.45-0.32c0-.32.17,0.29,0.1,0.41a0.12,0.12,0,0,0,.15,0,0.52,0.52,0,0,0,0-.54c-0.1-.28-0.2-0.34-0.29-0.32a0.15,0.15,0,0,0-.11.15,0.23,0.23,0,0,1-.11.2,1.62,1.62,0,0,1-.56.19l-1.18.33h0Z"/><path class="cls-5" d="M7.41,22.6a1.74,1.74,0,0,1-.88-1.46,4.9,4.9,0,0,1,.34-1.79,1.31,1.31,0,0,1-.11-0.29,0.81,0.81,0,0,1,.28-1l0,0,0.74-.2a1.63,1.63,0,0,1,.25-0.18,1.23,1.23,0,0,1,1.19.06,0.43,0.43,0,0,0-.07.63,0.37,0.37,0,0,0,.56-0.1,0.71,0.71,0,0,0-.18-0.85A1.75,1.75,0,0,0,8.4,17a2.09,2.09,0,0,0-1.65,1c-0.78.94-1.52,3.31-.5,4.52a2.37,2.37,0,0,0,2,.79c1-.08,1.31-0.46,2.11.07a1.56,1.56,0,0,1,1.28-.11c-0.94-1.58-2.75.06-4.23-.67h0Z"/><path class="cls-4" d="M14.37,16.41a0.51,0.51,0,0,0-.17-0.07h0l-0.17,0-0.72.17c-0.71.14-1.79,0.42-3.5,0.89a0.82,0.82,0,0,1,.1.92,0.54,0.54,0,0,1-.39.26,0.49,0.49,0,0,1-.4-0.13A0.5,0.5,0,0,1,9,17.8a1,1,0,0,0-.28-0.07L7.1,18.2h0a0.69,0.69,0,0,0-.21.81,0.64,0.64,0,0,0,.57.59,0.64,0.64,0,0,0,.22-0.8,1,1,0,0,0-.14-0.34,0.84,0.84,0,0,1,.23.44,0.94,0.94,0,0,1,0,.63c2.91-1,4.88-1.69,5.88-2.13l0.79-.31,0.07,0a0.6,0.6,0,0,0-.08-0.68h0Z"/></svg>