<svg id="Layer_1" data-name="Layer 1" xmlns="http://www.w3.org/2000/svg" viewBox="0 0 30 30"><defs><style>.cls-1{fill:#e8e8e8;}.cls-2{fill:#fff;}.cls-3{fill:#002d62;}.cls-4{fill:#79bce7;}.cls-5{fill:#ffd200;}.cls-6{fill:#092c5c;}.cls-7{fill:#8fbce6;}.cls-8{fill:#f5d130;}</style></defs><title>tampa-bay-rays</title><circle class="cls-1" cx="15" cy="15" r="15"/><path class="cls-2" d="M25.1,14.6l-1.21-1.21L23.83,12h0v0l-0.32-.11h0a4,4,0,0,0-1.35-.27l-7-7L9.69,10H6.11v0.61l0.11,0v0.32l0.84,0.16v1.53l-2,2,1.55,1.55-0.51.09v0.62H6.22v0.28h1.4l7.46,7.46,7.37-7.37a1.67,1.67,0,0,0,1.71-1.68v0l0.93-.93h0ZM15.08,5l6.66,6.66a2.67,2.67,0,0,0-.5.1H20.49L15.08,6.34l-3.89,3.89A3.7,3.7,0,0,0,10.07,10l5-5h0Zm4.07,7.37-0.06.1-0.28-.05V12.28l0.34,0.07h0Zm-1.67,0L18,12.24V12h0.15v0.33l-0.48.12,0.67,1.31-0.08.13-0.8-1.53h0Zm-1.71,0,0.08,0.13-0.53-.1V12.28l0.45,0.09h0ZM14.67,12h0.15l1.69,4.31-0.16,0L14.67,12h0Zm1.1-4.4-0.68.68L14.4,7.58l-2.84,2.84-0.26-.15,3.78-3.78,5.25,5.25h-0.4L15.76,7.58h0ZM6.35,10.82V10.63l0.16,0,0.55,0.1V11l-0.71-.14h0ZM5.46,14.6L7.06,13v3.08L7,16.1,5.46,14.6h0Zm1.72,1.58V10.66l-0.95-.18V10.1h3.3c1.72,0,2.53.48,2.53,1.69a2,2,0,0,1-.21.9l0.13,0a2,2,0,0,0,.2-0.74q0-.09,0-0.18A1.81,1.81,0,0,0,12,10.86,1.6,1.6,0,0,1,12.34,12a2.08,2.08,0,0,1-.14.76l0.35,0.06-0.39,0a1.92,1.92,0,0,1-.81.88l0,0.05-0.06,0-0.09,0-0.16.07,0.4,0.59L11.9,15l-0.1-.14,0,0-0.44-.65L11,13.71l0,0,0.12-.05,0.07,0L11,13.49h0l-0.21.09,0,0,0.9,1.32,0.46,0.6,1.51-3.67h0.86l1.76,4.48,0.42,0.12,0.63-.12V14.71l-1.45-2.44-0.64-.13V11.86h2.69v0.28l-0.59.13,1,1.87,1.07-1.87-0.65-.13V11.86h2.56a2.77,2.77,0,0,1,.84-0.12,4,4,0,0,1,1.33.26l0.05,1.32H23.27a1.21,1.21,0,0,0-1.19-1.18,0.73,0.73,0,0,0-.83.62,1.09,1.09,0,0,0,.92.88,4.23,4.23,0,0,1,1.2.68,1.34,1.34,0,0,1,.42,1.06c0,0.9-.66,1.49-1.89,1.49a3.54,3.54,0,0,1-1.6-.35l0-1.31h0.26a1.28,1.28,0,0,0,1.31,1.27,0.71,0.71,0,0,0,.83-0.65,0.62,0.62,0,0,0-.24-0.49,5.61,5.61,0,0,0-1-.52,1.69,1.69,0,0,1-1.23-1.53,1.39,1.39,0,0,1,.47-1.09l-0.57.08-1.46,2.44v1.63l0.86,0.13v0.27H14.14V16.47l0.67-.13-0.32-.93H12.9l-0.27.73,0,0c1.29,1.42,3,2.55,6.48.81l0.16,0.19c-0.42.42-5.67,3.86-8.84-1.49C10.1,15.14,9.82,14.54,9.53,14l-0.05-.1,0-.07L9,13.7V13.44H9.19a1.38,1.38,0,0,0,1-.31h0l0.1-.1,0.11,0.86L10.53,13l0.31,0.22-0.2-.32,0.8-.08-0.8-.18,0.12-.3-0.25.17,0-.16v0h0q0-.1,0-0.19a1.36,1.36,0,0,0-1.47-1.58l-0.32,0v5.67l1,0.17v0.4H6.23v-0.4l0.95-.17h0Zm3-5-0.74.74L9.58,12l0.69-.69a1.58,1.58,0,0,1,.09.31l-0.54.54,0.49,0.31-0.13-.6,0.25,0.46h0a0.89,0.89,0,0,0-.29.66l-0.71.06,0.71-.31L9.7,12.28,9,13v0.36H8.86V10.62H9.07a1.33,1.33,0,0,1,1,.34,1,1,0,0,1,.17.24h0ZM8.86,16.08V13.79L9,13.84V16.1l-0.15,0h0ZM9.36,14l0,0,0,0.07-0.34-.11V13.86L9.36,14h0ZM16,18.7a7.46,7.46,0,0,0,1.7-.48,6.72,6.72,0,0,0,1.61-.91l0,0,0.07-.07,0.13,0.15-0.05.05a6.31,6.31,0,0,1-1.65,1,6.49,6.49,0,0,1-3.24.52,4.77,4.77,0,0,1-2.38-1,4.84,4.84,0,0,0,2.2.85,5.67,5.67,0,0,0,1.57,0h0ZM14.4,15.53l0.05,0.16H13.13l-0.21.58-0.14-.15L13,15.53H14.4ZM17,17H14.25V16.87h4.83l-0.3.15H17Zm2.36,0-0.13-.15h0.42V16.57l0.15,0V17H19.33Zm-0.42-2.19v1.42l-0.15,0v-1.5l1.41-2.36,0.18,0a1.44,1.44,0,0,0-.21.44l-1.22,2h0Zm3.64,1a0.6,0.6,0,0,1-.71.53l-0.23,0,0.83-.83a0.49,0.49,0,0,1,.11.31h0Zm-1.19-.9,0.35,0.16a2.77,2.77,0,0,1,.64.35l0.05,0-0.06,0-0.87.87a1,1,0,0,1-.28-0.12l0.87-.87,0,0-0.12-.05-0.35-.16a3.65,3.65,0,0,1-.71-0.44,4.47,4.47,0,0,0,.5.29h0Zm-0.57.4v0.07a1.86,1.86,0,0,0,.22.67,1.44,1.44,0,0,1-.35-0.74H20.8Zm1.37,1.82-7.09,7.09L7.88,17H6.35V16.87H9.83V16.45l0.15,0V17H9.8l4.48,4.48V20.95h1.61V21.5l4.68-4.68-0.1,0,0,0V16.69a3.69,3.69,0,0,0,1.48.29,2.32,2.32,0,0,0,1.48-.44,1.46,1.46,0,0,0,.53-1.18,1.68,1.68,0,0,0-.14-0.72,1.33,1.33,0,0,0-.31-0.43,3.51,3.51,0,0,0-1-.6l-0.21-.09,0,0a2.63,2.63,0,0,1-.65-0.37,0.49,0.49,0,0,1-.16-0.38,0.62,0.62,0,0,1,.71-0.5,0.93,0.93,0,0,1,.81.41,1.77,1.77,0,0,1,.26.67l0,0.1h0.44l-0.05-1.35,0.1,0,0.05,0,0.06,1.46H23.7l1,1L24,15.29a2,2,0,0,1,0,.27c0,1-.69,1.54-1.86,1.57h0Z"/><path class="cls-3" d="M11.19,10.22l3.89-3.89,5.41,5.41h0.76a2.67,2.67,0,0,1,.5-0.1L15.08,5l-5,5a3.7,3.7,0,0,1,1.13.23M7.06,13l-1.6,1.6L7,16.1l0.11,0c0-.11,0-1.67,0-3.08m14.56,3.34,0.23,0a0.6,0.6,0,0,0,.71-0.53,0.49,0.49,0,0,0-.11-0.31M21,17l-5.89,5.89L9.24,17H7.88l7.2,7.2,7.09-7.09H22.07A3.59,3.59,0,0,1,21,17m3-1.69,0.69-.69-1-1H23.24V13.53l0-.09h0l0-.1a1.77,1.77,0,0,0-.26-0.67,0.78,0.78,0,0,0-.64-0.28,0.66,0.66,0,0,0-.75.54,0.57,0.57,0,0,0,0,.21,2.63,2.63,0,0,0,.65.37l0,0,0.21,0.09a3.51,3.51,0,0,1,1,.6,1.33,1.33,0,0,1,.31.43,1.39,1.39,0,0,1,.24.64"/><path class="cls-4" d="M10.37,11.61a1.58,1.58,0,0,0-.09-0.31L9.58,12l0.25,0.16m5.25-5.65L11.3,10.27l0.26,0.15L14.4,7.58l0.68,0.68,0.68-.68,4.16,4.16h0.4L15.08,6.49h0Zm0,1.44-0.52-.52,0.52-.52L15.6,7.41l-0.52.52h0Z"/><path class="cls-2" d="M15.08,22.87L21,17l-0.12,0-5.77,5.77L9.4,17H9.24m0.19-5L9,12.4v0.16l0.48-.48M15.08,6.9l-0.52.52,0.52,0.52,0.52-.52"/><path class="cls-2" d="M15.65,21.74V21.18H14.52v0.56l0.56,0.56"/><path class="cls-3" d="M9.25,10.77H9V12.4L9.43,12l-0.25-.26,0.31,0.2,0.74-.74A1,1,0,0,0,10.05,11a1.57,1.57,0,0,0-.8-0.19"/><path class="cls-4" d="M15.32,12.28V12.4l0.53,0.1-0.08-.13-0.45-.09m5,0.07-0.18,0-1.41,2.36v1.5l0.15,0V14.84l1.22-2a1.44,1.44,0,0,1,.21-0.44m-2,1.39-0.67-1.31,0.48-.12V12H18v0.26l-0.53.11,0.8,1.53,0.08-.13m1.43,2.86-0.15,0v0.29H19.2L19.33,17h0.45m-1-4.74V12.4l0.28,0.05,0.06-.1-0.34-.07m0.27,4.59H14.25V17h4.54l0.3-.15"/><path class="cls-4" d="M24,15.29a1.39,1.39,0,0,0-.24-0.64,1.68,1.68,0,0,1,.14.72,1.46,1.46,0,0,1-.53,1.18,2.32,2.32,0,0,1-1.48.44,3.7,3.7,0,0,1-1.48-.29v0.06l0,0,0.1,0L15.89,21.5V20.95H14.29v0.56L9.8,17H10V16.48l-0.15,0v0.42H6.35V17H9.4l5.69,5.68,5.77-5.77L21,17a3.6,3.6,0,0,0,1.1.16h0.11c1.17,0,1.86-.62,1.86-1.57a2,2,0,0,0,0-.27h0Zm-9.5,6.46V21.18h1.13v0.55l-0.57.57-0.56-.56h0Zm8.71-8.22V13.6h0.52l-0.06-1.46-0.05,0-0.1,0,0.05,1.35h-0.4l0,0.09"/><path class="cls-4" d="M21.93,15.23l0.12,0.05,0,0-0.87.87a1,1,0,0,0,.28.12l0.87-.87,0.06,0-0.05,0a2.78,2.78,0,0,0-.64-0.35l-0.35-.16a4.49,4.49,0,0,1-.5-0.29,3.65,3.65,0,0,0,.71.44l0.35,0.16m0.32-2.84a0.78,0.78,0,0,1,.64.28,0.93,0.93,0,0,0-.81-0.41,0.62,0.62,0,0,0-.71.5,0.49,0.49,0,0,0,.16.39,0.57,0.57,0,0,1,0-.21,0.66,0.66,0,0,1,.75-0.54M21,16.05a1.87,1.87,0,0,1-.22-0.67V15.31H20.68a1.44,1.44,0,0,0,.35.74m-8.27.06,0.14,0.15,0.21-.58h1.33l-0.05-.16H13l-0.22.58m1-2.62-0.48,1.29,0,0.12h0.23l0,0h0l0.4-1.08-0.09-.28m2.77,2.8L14.81,12H14.67l1.67,4.26,0.16,0m-9.45-5.5v0l-0.55-.1v0l0.55,0.1M12.18,12h0a2,2,0,0,1-.2.74H12A1.91,1.91,0,0,0,12.18,12m-0.2.87H11.9a2,2,0,0,1-.68.67l0,0.05A1.78,1.78,0,0,0,12,12.85m-0.78.76-0.05,0-0.07,0L11,13.66l0,0,0.19-.08h0m8.14,3.69a6.72,6.72,0,0,1-1.61.91,7.45,7.45,0,0,1-1.7.48,7.48,7.48,0,0,0,3.33-1.37l0,0M9.07,10.62h0M9,13.84l-0.15-.05v2.29L9,16.1V13.84m0.4,0.22,0-.07,0,0-0.28-.09v0.09l0.34,0.11"/><path class="cls-4" d="M12.26,17.88a4.77,4.77,0,0,0,2.38,1,6.49,6.49,0,0,0,3.24-.52,6.31,6.31,0,0,0,1.65-1l0.05-.05-0.13-.15-0.07.07,0,0,0,0A7.48,7.48,0,0,1,16,18.7a5.66,5.66,0,0,1-1.57,0,4.84,4.84,0,0,1-2.2-.85M9.07,10.62H8.86v2.68H9V13l0.68-.68-0.2-.2L9,12.56V10.78H9.25a1.57,1.57,0,0,1,.8.19,1.33,1.33,0,0,0-1-.34m-2,.17-0.55-.1v0l-0.16,0v0.19L7.06,11V10.79m5,1.93,0.16,0A2.08,2.08,0,0,0,12.34,12,1.6,1.6,0,0,0,12,10.86a1.81,1.81,0,0,1,.22.93c0,0.06,0,.12,0,0.18h0a1.91,1.91,0,0,1-.14.73M12,12.85a1.77,1.77,0,0,1-.72.73l0.1,0.13a1.92,1.92,0,0,0,.81-0.88m-1,.78h0L11,13.71l0.35,0.51,0.44,0.64,0,0L11.9,15l-0.42-.61-0.4-.59,0.16-.07,0.09,0"/><path class="cls-2" d="M13.74,13.12l-0.6,1.61L13,15h1.33l-0.62-1.9h0Zm0.09,0.65-0.4,1.08h0l0,0H13.21l0-.12,0.48-1.29,0.09,0.28h0Zm-1.93-.92H11.74a1.87,1.87,0,0,1-.59.56l0.07,0.1a2,2,0,0,0,.68-0.67"/><path class="cls-3" d="M10.61,13.15l-0.26,1.66-0.19-1.68h0a1.37,1.37,0,0,1-1,.31H9v0.26l0.47,0.16,0,0.07L9.53,14c0.29,0.51.57,1.11,0.93,1.65,3.17,5.36,8.42,1.92,8.84,1.49L19.14,17c-3.44,1.74-5.19.61-6.48-.81l0,0,0.27-.73h1.59l0.32,0.93-0.67.13v0.27h5.37V16.47l-0.86-.13V14.71l1.46-2.44,0.57-.08a1.39,1.39,0,0,0-.47,1.09,1.69,1.69,0,0,0,1.23,1.53,5.61,5.61,0,0,1,1,.52,0.62,0.62,0,0,1,.24.49,0.71,0.71,0,0,1-.83.65,1.28,1.28,0,0,1-1.31-1.27H20.28l0,1.31a3.54,3.54,0,0,0,1.6.35c1.22,0,1.89-.59,1.89-1.49a1.34,1.34,0,0,0-.42-1.06,4.23,4.23,0,0,0-1.2-.68,1.09,1.09,0,0,1-.92-0.88,0.73,0.73,0,0,1,.83-0.62,1.21,1.21,0,0,1,1.19,1.18h0.21L23.43,12a4,4,0,0,0-1.33-.26,2.78,2.78,0,0,0-.84.12H18.7v0.28l0.65,0.13-1.07,1.87-1-1.87,0.59-.13V11.86H15.2v0.28l0.64,0.13,1.45,2.44v1.63l-0.63.12-0.42-.12-1.76-4.48H13.63l-1.51,3.67-0.46-.6-0.9-1.32,0,0L11,13.5h0l-0.43-.34h0ZM14.37,15H13l0.11-.29,0.6-1.61L14.37,15h0Z"/><path class="cls-3" d="M6.23,16.75H9.71v-0.4l-1-.17V10.51l0.32,0a1.36,1.36,0,0,1,1.47,1.58q0,0.1,0,.19h0v0l0.61-.64-0.3.86,1,0.16a2,2,0,0,0,.21-0.9c0-1.21-.81-1.69-2.53-1.69H6.23v0.39l0.95,0.18v5.51l-0.95.17"/><path class="cls-3" d="M11.74,12.87L10.81,13l0.34,0.47a1.87,1.87,0,0,0,.59-0.56"/><path class="cls-5" d="M9.43,12L9.5,12.07l0.2,0.21,0.45,0.47-0.71.31L10.16,13a0.89,0.89,0,0,1,.29-0.66h0l-0.25-.46,0.13,0.6-0.49-.31L9.58,12l-0.1-.06-0.31-.2m1.65,0.79,0.3-.86-0.61.64,0,0.16,0.25-.17-0.12.3,0.8,0.18-0.8.08,0.2,0.32L10.53,13l-0.15.94L10.26,13l-0.1.1,0.19,1.68,0.26-1.66L11,13.49l0.1,0.08,0.05,0,0.14,0.11,0.06,0,0-.05-0.1-.13,0-.05-0.07-.1L10.81,13l0.93-.09H12l0.19,0,0.39,0-0.35-.06-0.16,0H12l-0.13,0"/><path class="cls-3" d="M22.67,17.49h0.11v0.3h0.07v-0.3H23V17.42H22.67m0.58,0.24h0l-0.08-.24H23v0.36H23.1V17.5h0l0.1,0.29h0.07l0.11-.29h0v0.29h0.07V17.42H23.33"/><path class="cls-6" d="M6.22,15.3L5.5,14.58l0.77-.77L7,13v1.49A10.12,10.12,0,0,1,7,16a7.65,7.65,0,0,1-.77-0.72h0Z"/><path class="cls-6" d="M6.26,16.56c0-.18,0-0.19.66-0.3l0.27,0V10.64L7,10.61l-0.45-.09c-0.22,0-.29-0.09-0.31-0.21l0-.16h2c2.15,0,2.61.06,3.16,0.38A1.3,1.3,0,0,1,12,11.77a2.57,2.57,0,0,1-.08.66c-0.07.2-.11,0.22-0.27,0.19l-0.46-.08c-0.31-.05-0.31-0.05-0.16-0.46s0.13-.49-0.18-0.18l-0.29.28V11.93a1.42,1.42,0,0,0-.81-1.35,2.76,2.76,0,0,0-.89-0.09H8.69v5.72l0.34,0c0.61,0.09.66,0.11,0.66,0.3v0.17H6.26V16.56h0Z"/><path class="cls-6" d="M14.32,18.55c-2-.44-3.14-1.49-4.62-4.3a0.78,0.78,0,0,0-.46-0.5A0.36,0.36,0,0,1,9,13.56c0-.1,0-0.12.34-0.12a1.53,1.53,0,0,0,.57-0.11c0.26-.13.26-0.12,0.33,0.74a2.72,2.72,0,0,0,.1.69,1.22,1.22,0,0,0,.14-0.52c0.17-1.11.15-1,.3-0.9s0.12,0.14.05,0.22,0.18,0.57.91,1.53l0.39,0.52,0.12-.28L13,13.51,13.63,12l0.42,0,0.42,0,0.85,2.2c0.79,2,.87,2.21,1.07,2.29a0.9,0.9,0,0,0,.59,0l0.38-.07v-1.6L16.63,13.5,15.9,12.25l-0.32-.08A0.65,0.65,0,0,1,15.23,12a3,3,0,0,1,1.31-.08,2.73,2.73,0,0,1,1.31.09,0.49,0.49,0,0,1-.29.15,0.42,0.42,0,0,0-.26.13,11.53,11.53,0,0,0,1,1.82,17.44,17.44,0,0,0,1.06-1.87,1.46,1.46,0,0,0-.3-0.08,0.52,0.52,0,0,1-.3-0.14,3.74,3.74,0,0,1,1.36-.12c0.76,0,1.57-.06,1.8-0.09a3,3,0,0,1,1,.08L23.39,12v0.26c0,0.15,0,.44,0,0.65,0.06,0.5-.07.48-0.29-0.06a1.47,1.47,0,0,0-.34-0.52c-0.61-.45-1.57-0.18-1.57.45,0,0.36.23,0.55,1.16,1a2.91,2.91,0,0,1,1,.66A1.4,1.4,0,0,1,23,16.61a2,2,0,0,1-1.12.16,2.94,2.94,0,0,1-1.15-.15l-0.36-.14,0-.63c0-.5,0-0.63.08-0.63a0.45,0.45,0,0,1,.19.33,1.27,1.27,0,0,0,1.45.92,0.66,0.66,0,0,0,.62-0.66c0-.38-0.15-0.53-0.89-0.9a2.68,2.68,0,0,1-1.4-1.08,1.43,1.43,0,0,1,.2-1.5c0.16-.17.1-0.21-0.24-0.16s-0.29.07-1,1.29l-0.74,1.25v1.64l0.34,0c0.46,0.06.52,0.08,0.52,0.21s-0.32.11-2.65,0.11-2.65,0-2.65-.1,0.07-.14.49-0.22c0.26-.05.26,0,0-0.68l-0.13-.32-0.82,0-0.82,0-0.15.38-0.15.38,0.37,0.38a5.33,5.33,0,0,0,1.75,1.17,5.15,5.15,0,0,0,2.19.13,9.58,9.58,0,0,0,2-.65c0.34-.17.42-0.06,0.11,0.17a7.1,7.1,0,0,1-3.89,1.26,7.27,7.27,0,0,1-.79,0h0Zm0-3.59a8.64,8.64,0,0,0-.3-1,1.24,1.24,0,0,0-.36-0.78C13.64,13.28,13,15,13,15.06a3.65,3.65,0,0,0,.68,0c0.6,0,.68,0,0.68-0.13h0Z"/><path class="cls-6" d="M17.87,9c-1.48-1.48-2.72-2.69-2.76-2.69s-0.93.86-2,1.91l-1.91,1.91-0.42-.08L10.25,10A19,19,0,0,1,12.6,7.49L15.08,5l3.3,3.3c3.63,3.62,3.44,3.38,2.58,3.4H20.56L17.87,9h0ZM9.05,11.55c0-.62,0-0.77.1-0.77a2,2,0,0,1,.93.28c0.1,0.12.09,0.15-.24,0.47s-0.37.33-.5,0.26-0.27-.09-0.12.07,0.13,0.15,0,.3l-0.16.16V11.55h0Zm2.44,9L7.94,17H9.16l3,3,3,3,3-3,3-3,0.28,0.08a2.42,2.42,0,0,0,.53.08c0.24,0,.13.12-3.23,3.48-1.91,1.91-3.49,3.48-3.51,3.48s-1.63-1.6-3.59-3.55h0ZM23.9,14.83a2.38,2.38,0,0,0-1.4-1.22c-0.43-.21-0.83-0.42-0.88-0.47s-0.11-.27.12-0.5a0.59,0.59,0,0,1,.5-0.21,0.88,0.88,0,0,1,.84.79c0.12,0.42.12,0.43,0.38,0.43a1,1,0,0,1,.72.47l0.46,0.47-0.3.3-0.3.3-0.15-.35h0ZM22.06,16c0.35-.36.47-0.41,0.47-0.16a0.57,0.57,0,0,1-.54.48l-0.29,0L22.06,16h0Zm1,1.65V17.43h0.12l0,0.12,0,0.12,0-.12,0-.12h0.12v0.36H23.39V17.64c0-.17,0-0.17-0.06,0l0,0.13H23.21l0-.14-0.05-.15a1.41,1.41,0,0,0,0,.14v0.15H23V17.61h0Zm-0.25,0V17.49H22.67V17.43H23v0.06H22.85v0.3H22.78V17.63h0Z"/><path class="cls-6" d="M20.16,19.07a17.8,17.8,0,0,0,1.72-1.82s0-.06,0-0.07l-0.08,0A2.78,2.78,0,0,1,21.12,17L21,17l-0.86.86-0.86.86V18.67l0.85-.85L21,17,21,17a3.58,3.58,0,0,0,1,.14h0.14l-1.22,1.22-1.22,1.22H19.65l0.51-.51h0Zm1.54-2.22a4,4,0,0,1-.52-0.06,3.36,3.36,0,0,1-.77-0.24l-0.09,0s0-.19,0-0.55,0-.59,0-0.65V15.2h0.26v0.07a1.63,1.63,0,0,0,.39.86l0,0.05L20.84,16a1.27,1.27,0,0,1-.17-0.29l-0.07-.19a0.58,0.58,0,0,0-.17-0.32,0,0,0,0,0-.06,0,0.7,0.7,0,0,0-.05.45c0,0.22,0,.79,0,0.79l0.46,0.18a2.14,2.14,0,0,0,.44.09,9.47,9.47,0,0,0,1.25,0A1.3,1.3,0,0,0,23,16.61a1.4,1.4,0,0,0,.77-1.07,1.84,1.84,0,0,0,0-.34,1.41,1.41,0,0,0-.65-1l-0.06,0h0a0.09,0.09,0,0,1,.08,0,2,2,0,0,1,.38.36,1.36,1.36,0,0,1,.24.66,2.28,2.28,0,0,1,0,.44,1.29,1.29,0,0,1-.38.77,1.93,1.93,0,0,1-1.26.48H21.7Z"/><path class="cls-6" d="M21.68,16.34H21.63l0.15-.15,0.41-.41,0.26-.26,0,0a0.51,0.51,0,0,1,.05.46,0.59,0.59,0,0,1-.47.33,2,2,0,0,1-.37,0h0Zm0.22,0a1,1,0,0,0,.31-0.08,0.48,0.48,0,0,0,.32-0.47c0-.08,0-0.1-0.07-0.1a0.54,0.54,0,0,0-.25.17l-0.5.51h0l0.17,0h0Zm-3.82.44a6,6,0,0,0,1.34-.06,0.05,0.05,0,0,0,0-.07c0-.11-0.07-0.13-0.63-0.2l-0.22,0V14.72l0.18-.3a0.9,0.9,0,0,1,.19-0.3h0l-0.17.29-0.17.29v1.64h0l0.84,0.13a0.64,0.64,0,0,1,0,.13v0.13H18.07Zm-3.13,1.91H14.89V18.59h0.23A5.44,5.44,0,0,0,16,18.53a7.23,7.23,0,0,0,2.93-1.13,0.71,0.71,0,0,0,.28-0.26,0,0,0,0,0,0-.06,0.55,0.55,0,0,0-.31.1,9.92,9.92,0,0,1-1.85.61,3.27,3.27,0,0,1-.52.07h0A7.61,7.61,0,0,0,19,17.07L19.14,17l0.07,0.07c0.1,0.12.09,0.1,0.06,0.13l-0.33.24a7.94,7.94,0,0,1-1.65.81,6.73,6.73,0,0,1-1.77.38H14.94Zm7.34-3.43A4.13,4.13,0,0,0,21.79,15c-0.25-.11-0.5-0.23-0.64-0.31a1.58,1.58,0,0,1-.95-1.19,2.08,2.08,0,0,1,0-.43,1.36,1.36,0,0,1,.39-0.79s0,0,0,0a0.34,0.34,0,0,1-.09.14,1.29,1.29,0,0,0-.29.62,1.49,1.49,0,0,0,.05.76,1.43,1.43,0,0,0,.65.74,8.13,8.13,0,0,0,.78.44c0.31,0.16.42,0.22,0.53,0.29l0.06,0-0.07,0h0ZM23,14.1a7.66,7.66,0,0,0-.71-0.37l-0.5-.26-0.16-.1,0.07,0c0.13,0.07.37,0.19,0.74,0.35a5.72,5.72,0,0,1,.59.3l0.1,0.06h0a0.11,0.11,0,0,1-.09,0h0Z"/><path class="cls-6" d="M24,15.23a1.42,1.42,0,0,0-.19-0.52l-0.07-.12a1.31,1.31,0,0,0-.23-0.32l-0.06-.07,0.17,0.17A2.25,2.25,0,0,1,24,15L24,15.17l0.59-.59s-0.67-.68-0.75-0.74a0.58,0.58,0,0,0-.45-0.19,0.28,0.28,0,0,1-.23-0.06,1,1,0,0,1-.12-0.33,1.78,1.78,0,0,0-.17-0.43,0.76,0.76,0,0,0-.49-0.38,0.83,0.83,0,0,0-.5,0,1.11,1.11,0,0,0-.35.35,0.21,0.21,0,0,0,.07.31l0.57,0.31,0.71,0.37L23,13.88l-0.09,0-0.46-.22-0.55-.26a1.69,1.69,0,0,1-.36-0.22,0.48,0.48,0,0,1,.12-0.55,1,1,0,0,1,1-.11,0.76,0.76,0,0,1,.25.21,1.93,1.93,0,0,1,.25.69v0.06h0s0,0,0,.11v0H23.7l0.5,0.5,0.5,0.5-0.34.34L24,15.28v0h0Z"/><path class="cls-6" d="M23.27,13.3a1.66,1.66,0,0,0-.41-0.86,1,1,0,0,0-.49-0.27,1.2,1.2,0,0,0-.33,0h0.21a1.2,1.2,0,0,1,.52.18,0.76,0.76,0,0,1,.23.25,2.05,2.05,0,0,1,.17.34,1.23,1.23,0,0,0,.2.37c0.08,0.07.11-.05,0.07-0.4a5.94,5.94,0,0,1,0-.7c0-.09,0-0.16,0-0.16l-0.3-.07-0.57-.11a2.8,2.8,0,0,0-.64,0l-0.52,0h0a2.77,2.77,0,0,1,.51-0.09h0.49a4.09,4.09,0,0,1,1,.21,0.21,0.21,0,0,1,.12.05s0,0.29,0,.63,0,0.63,0,.64v0h-0.1c-0.1,0-.1,0-0.11,0h0Z"/><path class="cls-6" d="M21.61,16.84a3.94,3.94,0,0,1-.52-0.07,3.43,3.43,0,0,1-.71-0.24,0.09,0.09,0,0,1-.07,0s0-.28,0-0.77c0-.2,0-0.39,0-0.44V15.2h0.13c0.13,0,.13,0,0.13,0l0,0.11a1.7,1.7,0,0,0,.28.67l0,0L20.82,16a1.24,1.24,0,0,1-.19-0.37l0-.12a1.7,1.7,0,0,0,.1.28,1.25,1.25,0,0,0,1.14.72,1,1,0,0,0,.61-0.17A0.59,0.59,0,0,0,22.65,16a0.52,0.52,0,0,0,0-.18,0.58,0.58,0,0,0,0-.26,1,1,0,0,0-.5-0.45l-0.61-.32,0.27,0.14,0.43,0.23-0.12-.06L21.76,15c-0.26-.12-0.54-0.26-0.66-0.33a1.57,1.57,0,0,1-.88-1.11,1.91,1.91,0,0,1,0-.53,1.38,1.38,0,0,1,.27-0.61,0.62,0.62,0,0,1,.15-0.14,0.31,0.31,0,0,1-.08.13l-0.07.09v0l0.08-.09,0.07-.1c0-.08,0-0.1-0.21-0.08a0.5,0.5,0,0,0-.44.22A18.51,18.51,0,0,0,19,14l-0.44.75v0.83c0,0.45,0,.83,0,0.83l0.17,0,0.18,0-0.28,0H18.6V14.72l0.06-.11A2.3,2.3,0,0,1,19,14.12s0,0,0,0l-0.17.29-0.17.28v1.64l0.43,0.07,0.43,0.07s0,0.06,0,.13v0.13H14.89V14.86c0-1,0-1.86,0-1.86l0.18,0.45c0.78,2,1,2.47,1.1,2.72a0.46,0.46,0,0,0,.3.28,0.86,0.86,0,0,0,.41,0l0.49-.09a5.24,5.24,0,0,0,0-.81v-0.8l-0.74-1.25L15.9,12.25l-0.14,0a1.87,1.87,0,0,1-.45-0.14A0.17,0.17,0,0,1,15.24,12a0.81,0.81,0,0,1,.43-0.06c0.22,0,1.56,0,1.77,0a0.6,0.6,0,0,1,.41.07,0.15,0.15,0,0,1-.06.06,0.93,0.93,0,0,1-.23.09,0.64,0.64,0,0,0-.25.1,0,0,0,0,0,0,0A12.7,12.7,0,0,0,18,13.74a1.63,1.63,0,0,0,.25.38,2.19,2.19,0,0,0,.3-0.45c0.33-.55.75-1.33,0.77-1.4s0,0,0,0l-0.26-.07A0.68,0.68,0,0,1,18.76,12s0,0,.1-0.06a14.1,14.1,0,0,1,1.58-.09l1,0,0.48,0H21.37a2.78,2.78,0,0,1,.42-0.07,4.68,4.68,0,0,1,.6,0,4,4,0,0,1,.72.14L23.42,12s0,0.15,0,.63,0,0.64,0,.65v0h-0.2l0-.1L23.19,13a0.69,0.69,0,0,1,0-.11,1.17,1.17,0,0,0-.11-0.24,0.93,0.93,0,0,0-.3-0.35,1.18,1.18,0,0,0-.68-0.19,0.81,0.81,0,0,0-.82.54,0.76,0.76,0,0,0,0,.29,1.17,1.17,0,0,0,.69.62l0.27,0.14,0.43,0.2-0.31-.16a5.31,5.31,0,0,1-.61-0.33l0,0,0.57,0.27a6,6,0,0,1,.73.37s0,0,0,0,0,0,0,0a1.68,1.68,0,0,1,.41.36l0.07,0.1a1.51,1.51,0,0,1,.19.91,1.33,1.33,0,0,1-.28.76,1.77,1.77,0,0,1-.2.21,1.84,1.84,0,0,1-.83.35,2.64,2.64,0,0,1-.54,0H21.61Zm0.45-.07h0Zm-0.39,0h0Zm0.83,0h0Zm-1.09,0h0a0.12,0.12,0,1,0,0,0h0Zm1.23,0h0s0,0,0,0h0.05Zm-1.51,0h0s0,0,0,0h0Zm-2.38,0h0Zm0.45,0a0.38,0.38,0,0,0,.24-0.06,0.08,0.08,0,0,0,0,0v0a0.07,0.07,0,0,1-.06.06,2.84,2.84,0,0,1-.48,0h0.3Zm1.86,0h0Zm1.62,0h0Zm-1.7,0H20.92l0.1,0h0Zm1.76,0h0Zm-1.86,0-0.14,0,0.16,0.05h0Zm2,0A1.43,1.43,0,0,0,23.61,16c0-.06,0,0,0,0a1.42,1.42,0,0,1-.73.66l-0.06,0,0.07,0h0Zm-2.2,0h0Zm0,0h0Zm0,0-0.05,0,0.07,0h0Zm-1.16,0a0.15,0.15,0,0,0-.08-0.06s0,0,0,0a0.12,0.12,0,0,1,.08.06v0h0Zm1.1,0-0.09,0-0.09,0v0l0.09,0,0.1,0h0Zm-1.24-.08h0Zm-0.13,0H19.1l0.08,0h0Zm-0.08,0h0Zm0,0h0Zm0,0h0Zm1.35-.34c0-.22,0-0.22,0-0.07a3,3,0,0,0,0,.36s0-.16,0-0.29h0Zm3.32-.21,0-.05,0,0.12,0-.06h0Zm-3.33-.35a2.62,2.62,0,0,0,0,.2Q20.32,15.62,20.32,15.52Zm3.37,0.27h0s0,0,0,0v0Zm0,0h0v0h0v0h0Zm0-.07v0.06A0.14,0.14,0,0,0,23.72,15.66Zm0-.14a0.69,0.69,0,0,0,0-.08s0,0,0,0,0,0.07,0,.11v0.06a0.5,0.5,0,0,0,0-.12h0Zm-3.2-.12s0,0,0,0h0Zm-0.21-.08,0-.06s0,0,0,0a0.19,0.19,0,0,0,0,.1s0,0,0,0V15.33h0Zm0.17,0c0-.08-0.11-0.11-0.13-0.08s0,0,0,0,0.08,0,.13.09l0,0v0h0Zm3.24-.17a1.38,1.38,0,0,0-.47-0.86L23,14.14l0.05,0a1.39,1.39,0,0,1,.65,1.08v0a0.65,0.65,0,0,0,0-.1h0Zm-2.25-.38,0,0h0l0,0h0Zm-0.07,0-0.08,0a4,4,0,0,1-.59-0.38,1.75,1.75,0,0,1-.24-0.24l0-.06a1.28,1.28,0,0,0,.18.22,3.36,3.36,0,0,0,.73.5l0.05,0h0Zm1.64-.62h0l-0.1,0-0.28-.15,0.06,0L23,14.1s0.07,0,.08,0h0Zm-2.67-.24,0-.08a1,1,0,0,0,.08.17l0-.08h0Zm-0.05-.11s0,0,0,0h0Zm0-.05v0a0.21,0.21,0,0,0,0,.06v0h0Zm0-.13,0-.1v0a1,1,0,0,0,0,.17,0.39,0.39,0,0,0,0-.07h0Zm0-.2a0.12,0.12,0,0,0,0-.05,0.54,0.54,0,0,0,0,.12,0.4,0.4,0,0,0,0-.07h0Zm0-.19s0,0,0,0a0.08,0.08,0,1,0,0,0s0-.06,0-0.08h0Zm3.18,0.07s0,0,0,0-0.06,0-.1-0.05l0,0a0.22,0.22,0,0,0,.06.08s0.06,0,.07,0h0Zm0-.07s0,0,0,0,0,0,0,0A0,0,0,0,0,23.45,13.2Zm-0.16-.06,0,0v0l0,0v0h0Zm0.17-.05s0,0,0,0,0,0,0,0a0.37,0.37,0,0,0,0-.05h0Zm-3.2,0s0-.05,0,0a0.32,0.32,0,0,0,0,.09,0.5,0.5,0,0,0,0-.06h0Zm3.18-.26c0-.27,0-0.33,0-0.59V12h0l-0.23,0-0.21,0L23.15,12,23.39,12v0.11c0,0.25,0,.55,0,0.79V13s0-.1,0-0.19h0ZM23.22,13v0l0,0v0h0Zm-2.95,0s0,0,0,0,0,0,0,0a0,0,0,0,0,0,0h0Zm0,0s0,0,0,0,0,0,0,0A0,0,0,0,0,20.28,13Zm2.91,0,0,0v0l0,0v0h0Zm-2.89-.08a0.42,0.42,0,0,0,0,.09V12.86h0Zm0.08-.21,0-.09s0,0,0,0a1.29,1.29,0,0,0-.12.28l0,0,0.05-.13h0Zm0.08-.15v0l0,0.06,0,0h0Zm2.44-.6h0s0,0,0,0h0s0,0,0,0h0Zm0,0h0Zm0,0-0.36-.06h0.06l0.27,0h0Zm-0.39-.07h0Zm-0.07,0h0Zm-0.15,0h0Z"/><path class="cls-6" d="M20.16,12.25a1.1,1.1,0,0,1,.42-0.08c0.1,0,.07,0-0.17,0l-0.24,0h0ZM19,14.11L19.62,13l0.3-.49L20,12.36l-0.52.88a6,6,0,0,1-.54.88s0,0,0,0h0Zm-0.66,0,0.53-.92,0.52-.9s-0.17.35-.37,0.7-0.58,1-.65,1.11,0,0,0,0h0Zm1-1.83-0.64-.13a0.55,0.55,0,0,1,0-.14V11.86h1.18a5.74,5.74,0,1,1,.63,0l-1.17,0a2.7,2.7,0,0,0-.56.06c-0.06,0,0,.07.12,0.12l0.26,0.07,0.19,0.06s0,0,0,0h0Zm0-1.71L18.12,9.36H18.2l1.18,1.18,1.18,1.18h0.8l-0.05,0-0.05,0H20.48L19.3,10.55h0Zm2.13,1.13a0.08,0.08,0,0,0,0-.08,0.19,0.19,0,0,0,0-.1,12.16,12.16,0,0,0-1.62-1.76,2,2,0,0,1-.38-0.4s0.15,0.13,1.16,1.14l1.14,1.14H21.67l-0.16,0H21.43Zm-4.12,3.08V14.71l-0.73-1.22-0.73-1.22-0.13,0-0.32-.06-0.19,0V11.86h2.68v0.27l-0.26.06-0.26.05,0.2-.07A0.37,0.37,0,0,0,17.86,12a0.87,0.87,0,0,0-.47-0.07H15.73a1.16,1.16,0,0,0-.49.06s0,0.07.15,0.12l0.33,0.1,0.17,0,0.75,1.25a12.92,12.92,0,0,1,.73,1.28v0H17.31V14.77h0Z"/><path class="cls-6" d="M18.11,13.84c-0.23-.38-0.47-0.82-0.65-1.19a1,1,0,0,1-.15-0.36s0.86,1.63.86,1.64l-0.06-.09h0Zm-5.68,1,1.21-2.94h0.85v0l1.15,2.92s0,0,0,0h0l0-.13-1.08-2.77-0.8,0H13.63l-0.31.76-0.59,1.43-0.27.67h0Zm-1.1-2.22-0.49-.08,0.14-.4a3.8,3.8,0,0,1,.14-0.38,1.86,1.86,0,0,1-.12.42,0.35,0.35,0,0,0,0,.3,0.19,0.19,0,0,0,.1,0l0.67,0.12a0.15,0.15,0,0,0,.11,0,0.63,0.63,0,0,0,.11-0.25A3.15,3.15,0,0,0,12,11.63a1.25,1.25,0,0,0-.62-1.1,2.62,2.62,0,0,0-1.28-.34c-0.43,0-.7,0-2.34,0H6.25a1.13,1.13,0,0,0,0,.2,0.23,0.23,0,0,0,.16.12l0.35,0.08,0.4,0.09h0L6.7,10.57l-0.47-.09V10.09H8c1.82,0,1.87,0,2.13,0,1.12,0.1,1.71.49,1.86,1.24a2.19,2.19,0,0,1,0,.86,2.09,2.09,0,0,1-.14.42s0,0,0,0l-0.51-.08h0Z"/><path class="cls-6" d="M10.53,12.08a2.75,2.75,0,0,0,0-.31,1.26,1.26,0,0,0-1-1.23c-0.08,0-.06,0,0,0L9.8,10.6a1.42,1.42,0,0,1,.74,1.16s0,0.13,0,.2,0,0.16,0,.18v0L10.74,12a1.51,1.51,0,0,1,.34-0.3L10.82,12l-0.28.29h0V12.08h0ZM11,13.2L10.82,13l0.9-.09,0,0a1.93,1.93,0,0,1-.47.45l-0.07,0L11,13.2h0Z"/><path class="cls-6" d="M11.08,13.32A2.5,2.5,0,0,1,10.84,13l0.26,0,0.57-.05h0.05l0,0a2.05,2.05,0,0,1-.34.36l-0.2.14-0.08-.1h0Zm-0.69,1.35c0-.1.23-1.49,0.23-1.5a0.59,0.59,0,0,1,.2.14L11,13.48s0,0,0,0l-0.15.06,0,0a0.1,0.1,0,0,0,0-.11,0.78,0.78,0,0,0-.13-0.14c-0.08-.07-0.1,0-0.2.62-0.06.41-.08,0.52-0.11,0.65s0,0.15,0,.1h0Zm0,0.08a0.43,0.43,0,0,1,0-.12c0-.15,0-0.33-0.08-0.68a1.38,1.38,0,0,0-.11-0.66,0.05,0.05,0,0,0-.06,0l-0.12,0-0.15.06-0.25,0h0a1.21,1.21,0,0,0,.55-0.24l0,0,0.18,1.62h0Zm-1.15-1L9,13.69V13.44H9.11l-0.1,0a0.1,0.1,0,0,0,0,.09l0,0.06a0.5,0.5,0,0,0,.22.13,0.44,0.44,0,0,1,.16.09l-0.22-.07h0Zm3.17,4a6.52,6.52,0,0,1-1.81-2l-0.16-.25c-0.16-.24-0.28-0.46-0.54-1L9.5,14l0-.06L9.55,14a3.91,3.91,0,0,1,.22.38c0.33,0.61.58,1,.85,1.46a6.61,6.61,0,0,0,1.83,2l0.11,0.07h-0.1l-0.11-.07h0Zm-0.44-2.47c-0.52-.7-0.71-1-0.89-1.25a1.69,1.69,0,0,1-.16-0.29l0.26,0.38c0.53,0.78.51,0.75,0.84,1.19l0.15,0.18,0.14-.33,0.14-.35s0,0,0,0h0L12.39,15l-0.26.61a0.55,0.55,0,0,1-.21-0.26h0Zm1.48-.25a1.53,1.53,0,0,1-.41,0s0.59-1.62.69-1.84c0,0,0-.08,0,0L13,15a3.19,3.19,0,0,0,.65,0,2,2,0,0,1,.64,0,1.27,1.27,0,0,1-.49,0H13.41ZM13.54,17a5.72,5.72,0,0,1-.77-0.7l-0.18-.19,0.14-.37,0.15-.38h0l-0.13.36-0.13.37a6.33,6.33,0,0,0,.56.58L13.55,17l0.07,0.05-0.07,0h0Zm0.61-.48c0-.06,0-0.06,0-0.06l0.64-.13h0a0.33,0.33,0,0,1-.16.06,2.17,2.17,0,0,0-.41.11,0.14,0.14,0,0,0-.08.06v0h0Zm0,0.16v0h0a6.57,6.57,0,0,0,1.47.07h-1.5v0h0Zm0.66-.4-0.29-.83c0-.05,0-0.06,0-0.06a4.51,4.51,0,0,1,.23.56,0.84,0.84,0,0,1,.09.35s0,0,0,0h0Z"/><path class="cls-6" d="M9.7,16.61a0.35,0.35,0,0,0,0-.16A1,1,0,0,0,9,16.26l-0.27,0V12.41h0v3.77h0l0.48,0.08L9.7,16.35s0,0.09,0,.2v0.06h0ZM6.21,15.35L5.46,14.6l0.8-.8,0.8-.8v3.07H7a9.4,9.4,0,0,1-.76-0.74h0ZM7,15.94c0-.08,0-0.25,0-0.48S7.05,13,7,13l-0.77.77-0.77.77L5.9,15c0.54,0.54.94,0.93,1.05,1S7,16,7,15.94H7Zm-0.77.6v-0.2l0.45-.08,0.47-.09s0,0,0,0v0l-0.24,0c-0.61.11-.67,0.13-0.69,0.23a1.23,1.23,0,0,0,0,.14,0.39,0.39,0,0,1,0,.11,1.14,1.14,0,0,1,0-.2h0Zm2.89,1.67L7.95,17H9.16l1.19,1.19,1.19,1.19H10.32L9.13,18.21h0Zm1.22,0L9.17,17H9.24l1.19,1.19,1.19,1.19H11.54l-1.19-1.19h0Zm-1.28,0L7.89,17h0a12.59,12.59,0,0,1,1.21,1.19l1.19,1.19h0a12.59,12.59,0,0,1-1.21-1.19h0Z"/><path class="cls-6" d="M11.71,20.85L10.27,19.4h0s0.27,0.25,1.47,1.45l1.45,1.45H13.17l-1.46-1.46h0Zm1.29,0-1.45-1.45h0.07l1.45,1.45,1.45,1.45H14.45L13,20.86h0Z"/><path class="cls-6" d="M14.13,23.26l-1-1h0.06l0.45,0.45L15,24.06l0.07,0.06,0,0c0.06-.05.93-0.9,1.78-1.76l0.52-.52v0.07l-1.16,1.16-1.16,1.16-1-1h0Z"/><path class="cls-6" d="M14.76,22.62l-0.31-.31h0.07l0.28,0.28,0.28,0.28,1.74-1.74c1.74-1.74,1.74-1.74,1.77-1.74h0l-1.77,1.77-1.77,1.77-0.31-.31h0Zm2.65-.76v0l1.12-1.12,1.12-1.12h0.07l-1.15,1.15-1.15,1.15v0h0Z"/><path class="cls-6" d="M18.91,19l0.37-.37v0.05L19,19.06a1.77,1.77,0,0,1-.35.33h0A1.25,1.25,0,0,1,18.91,19h0ZM11.15,10.2a3.79,3.79,0,0,0-1-.21H10.08l1.41-1.41L12.9,7.17l-0.65.66a16.78,16.78,0,0,0-2,2.14l0.07,0,0.6,0.11,0.3,0.06,1.36-1.36c1.36-1.36,1.64-1.64,1.65-1.63L12.72,8.7l-1.52,1.52,0,0h0ZM9,11.59v-0.8h0.4a1.5,1.5,0,0,1,.56.14,0.58,0.58,0,0,1,.23.27l-0.36.37-0.36.36-0.16-.1-0.16-.1L9.3,11.86,9.42,12l-0.2.2-0.2.2s0-.36,0-0.8H9ZM9.3,12.07c0-.06,0-0.09,0-0.18a0.44,0.44,0,0,1-.11-0.15,0.21,0.21,0,0,1,.18.05,0.19,0.19,0,0,0,.16,0,0.57,0.57,0,0,0,.17-0.11L10,11.37c0.15-.16.16-0.21,0.07-0.3a0.76,0.76,0,0,0-.31-0.16,1.92,1.92,0,0,0-.65-0.12,0.32,0.32,0,0,0-.07.24s0,0.34,0,.69v0.61l0.11-.11,0.14-.14h0Zm7.17-4.36L15.11,6.35a5.55,5.55,0,0,1,.63.58l1.72,1.69,0.46,0.45H17.83L16.46,7.71h0Z"/><path class="cls-6" d="M17.11,7l-2-2L14,6.1l-1.1,1.09L14,6.08,15.08,5l2,2,2,2h0l-2-2h0ZM18,9.22l-0.14-.14h0.09l0.14,0.14L18.2,9.36H18.11L18,9.22h0Z"/><path class="cls-6" d="M19.46,9.37s0,0,0,0l-0.2-.2L19,9,19.09,9c0.05,0.05.07,0.06,0.07,0.05l0.16,0.15,0.15,0.15h0ZM16.14,16.1c-0.09-.17-0.2-0.43-0.41-1l-0.11-.29h0s0.53,1.33.53,1.33l0-.06h0Zm0.44,0.37-0.15,0-0.1-.06,0.17,0,0.17,0.05L17,16.41l0.32-.06h0V15.52c0-.45,0-0.79,0-0.76v0.06h0.06v0.76c0,0.5,0,.77,0,0.77l-0.49.1h-0.3Z"/><path class="cls-7" d="M14.78,18.64a4.74,4.74,0,0,1-2.23-.72l-0.07,0h0a0.1,0.1,0,0,1,.08,0,5.41,5.41,0,0,0,.56.29,6.08,6.08,0,0,0,1.07.35,2.17,2.17,0,0,0,.47,0h0.18v0H14.78Zm-1.55-3.77,0.49-1.32v0l0,0.13,0,0.13-0.2.53a3.56,3.56,0,0,0-.19.56v0H13.22v0h0Zm3.17,1.39-0.06,0-0.83-2.11L14.68,12s0,0,.06,0h0.07l0.84,2.13,0.84,2.13s0,0-.08,0h0Zm-0.82-3.81-0.25,0V12.34s0-.05,0,0l0.2,0,0.2,0a0.28,0.28,0,0,1,.09.12l-0.25,0h0ZM18.2,13.7c-0.55-1-.7-1.34-0.69-1.35l0.26-.06L18,12.24V12h0.14v0.33l-0.22.05-0.24.06a1.85,1.85,0,0,0,.31.66l0.34,0.66,0,0,0,0.06a0.63,0.63,0,0,1-.09-0.15h0Zm0.73-1.28-0.11,0V12.34c0-.05,0-0.05,0,0l0.15,0,0.14,0a0.07,0.07,0,0,1,0,0s0,0-.19,0h0Zm-0.06,3.83H18.77V14.73l0.7-1.18,0.7-1.18h0.15l0,0.07a1.42,1.42,0,0,0-.13.28s-0.27.49-.63,1.08l-0.61,1v0.71a2.31,2.31,0,0,1,0,.71h0Zm-1-6.59L15.76,7.57l-0.34.34-0.34.34-0.34-.34L14.4,7.57,13,9l-1.42,1.42-0.07,0-0.12-.07-0.05,0L12.68,8.9,14,7.54h0.64l0.2,0.2,0.2,0.2,0.2-.2,0.2-.2h0.64l2.1,2.1,2.1,2.1H19.93L17.84,9.65h0ZM8.87,12V10.64H9a1.59,1.59,0,0,1,.77.14,0.77,0.77,0,0,1,.21.14l-0.08,0a1.86,1.86,0,0,0-.78-0.11H9v0.89c0,0.49,0,.89,0,0.89l0.25-.24,0.24-.24,0.09,0.1,0.09,0.1-0.34.34L9,13V13.3H8.87V12h0Z"/><path class="cls-7" d="M9.71,12.07L9.6,12l0.33-.35,0.34-.34,0,0.06,0,0.15,0,0.09-0.26.26-0.27.26-0.11-.07h0Zm-0.79,4H8.87V14.94c0-.9,0-1.14,0-1.13l0.07,0,0.06,0V15c0,0.9,0,1.13,0,1.13H8.93ZM9.23,14l-0.15,0v0a0,0,0,0,1,0,0l0.14,0a0.2,0.2,0,0,1,.15.09s0,0,0,0L9.23,14h0Zm2.91-1.27H12l0-.1a1.72,1.72,0,0,0,.09-0.43,0.54,0.54,0,0,1,0-.1s0-.12,0-0.26a1.88,1.88,0,0,0-.12-0.76l0-.1L12.08,11a1.48,1.48,0,0,1,.16.34,2.22,2.22,0,0,1,0,1.3c0,0.06,0,.07-0.05.07h0Zm-0.89.83s0,0,.06-0.07a2,2,0,0,0,.59-0.6l0,0h0l0,0.07a1.86,1.86,0,0,1-.61.62c-0.05,0-.06,0-0.07,0h0Z"/><path class="cls-7" d="M12,12.69a0.23,0.23,0,0,1,0-.09,2.74,2.74,0,0,0,.11-0.35s0,0,0,0a0.21,0.21,0,0,1,0,.07,0.19,0.19,0,0,0,0,.07l0,0.13a0.19,0.19,0,0,0,0,.07s0,0,0,0l0,0s0,0,0,0h0ZM6.68,10.88l-0.33-.07a0.74,0.74,0,0,1,0-.09V10.64H6.42l0.08,0H6.63s0,0,.07,0H6.85s0,0,0,0,0,0,.08,0l0.11,0v0.08c0,0.07,0,.08,0,0.07l-0.35-.07h0ZM14.56,7l0.52-.52L15.61,7l0.52,0.52H15.48l0.07-.07,0.07-.07-0.26-.26-0.26-.26-0.26.26-0.26.27,0.06,0.07,0.06,0.06H14L14.56,7h0Zm4.71,9.92-0.06-.07h0.42V16.58h0.05c0.1,0,.09,0,0.09.22V17H19.33l-0.06-.07h0Zm-5,0V16.87h4.83l-0.15.07L18.8,17H14.26V16.94h0Z"/><path class="cls-7" d="M12.24,19.86L9.4,17H7.07V16.87H9.83V16.45H9.88l0.08,0h0V17H9.8s4.47,4.49,4.49,4.49a2.32,2.32,0,0,0,0-.28V21h1.59v0.27a2.21,2.21,0,0,0,0,.27l2.35-2.34,2.34-2.34-0.07,0a0.1,0.1,0,0,1-.07-0.06,0,0,0,0,1,0,0l0.1,0a3.81,3.81,0,0,0,.85.21,4.83,4.83,0,0,0,.7,0,1.65,1.65,0,0,0,1.84-1.61,1.87,1.87,0,0,0-.06-0.49,0.53,0.53,0,0,1,0-.11A1.2,1.2,0,0,1,24,15a1.62,1.62,0,0,1,.07.47A1.53,1.53,0,0,1,24,16a1.74,1.74,0,0,1-.21.43,2,2,0,0,1-1.7.67A3.52,3.52,0,0,1,21,17l-0.18-.05L18,19.82,15.08,22.7l-2.84-2.84h0Zm3.42,1.6V21.18H14.51v0.57L14.8,22l0.28,0.28L15.37,22l0.29-.29V21.45h0Z"/><path class="cls-7" d="M21.44,16.29l-0.19-.08,0,0,0.44-.44a2.84,2.84,0,0,0,.42-0.45l-0.17-.08-0.6-.3-0.2-.13,0.2,0.09,0.4,0.19a3.93,3.93,0,0,1,.56.29l0.1,0.06-0.44.44-0.45.44h0Zm-0.5-.36a1.66,1.66,0,0,1-.23-0.51l0-.1H20.8l0,0.14a2,2,0,0,0,.13.44L21,16l0-.06h0Z"/><path class="cls-7" d="M21.36,16.25l-0.11-.05,0,0,0.43-.43,0.43-.45-0.25-.13a3.13,3.13,0,0,1-.6-0.32l0.18,0.08,0.45,0.21a2.7,2.7,0,0,1,.5.28l-0.43.43a3.09,3.09,0,0,1-.46.43l-0.1,0h0Zm0.12-3.2a0.5,0.5,0,0,1-.09-0.34,0.54,0.54,0,0,1,.44-0.42,0.86,0.86,0,0,1,.26,0,0.83,0.83,0,0,1,.44.09,0.71,0.71,0,0,1,.22.16l-0.06,0a0.94,0.94,0,0,0-.54-0.1,0.7,0.7,0,0,0-.62.35,0.34,0.34,0,0,0,0,.21c0,0.07,0,.14,0,0.14l0,0h0Zm1.76,0.47V13.46h0.39V13.37s0-.34,0-0.67,0-.6,0-0.6l0.12,0s0.06,1.13.06,1.35v0.1h-0.5V13.53h0Zm-4.33-1.12-0.09,0v0s0,0,0,0a1.35,1.35,0,0,1,.29.07l0,0a0.21,0.21,0,0,1-.2,0h0Zm-0.08,3.82H18.77V14.74l0.7-1.18,0.7-1.18h0.14l-0.05.1-0.09.18c-0.05.12-.41,0.74-1,1.77l-0.24.39v0.71c0,0.39,0,.71,0,0.71H18.83Zm-0.62-2.51c-0.07-.13-0.52-1-0.63-1.22a0.66,0.66,0,0,1-.06-0.15l0.42-.1,0.09,0V12h0.14v0.33l-0.23.06-0.24.07s0.23,0.48.51,1l0.14,0.28,0,0,0,0.05-0.07-.11h0Zm-2.43-1.24-0.23,0-0.22,0v0s0,0,0,0l0.21,0,0.19,0,0,0c0.05,0.06.05,0.08,0,.06h0Zm0.61,3.77-0.05,0-0.83-2.11L14.68,12s0,0,.09,0h0l0.33,0.84,1.34,3.42s0,0-.08,0h0Zm-3.16-1.38,0.25-.68,0.25-.65,0,0.12,0,0.13-0.13.34c-0.18.48-.25,0.69-0.26,0.74v0H13.22v0h0Zm-0.39,1.32-0.06-.07,0.09-.23L13,15.59l0-.06H14.4l0,0.06,0,0.07a4.17,4.17,0,0,1-.66,0,2.24,2.24,0,0,0-.67,0L13,16l-0.1.27s0,0-.07-0.06h0Zm-3.94-.1h0V14.95c0-.62,0-1.13,0-1.13H8.95l0.05,0v2.24H8.9Zm1.82,2.27L9.4,17H7.07V16.87H9.83v-0.2a0.4,0.4,0,0,1,0-.2H10V17H9.8l1.32,1.33,1.32,1.32H12.06l-1.33-1.33h0ZM7,10.93l-0.34-.07-0.3-.06V10.64h0l0.11,0,0.26,0.06,0.18,0,0.1,0v0.07a0.19,0.19,0,0,1,0,.07H7Zm4.32,2.72,0-.06,0.1-.07A1.69,1.69,0,0,0,11.91,13c0.06-.1.06-0.1,0.11-0.11h0.13l0,0.09a2,2,0,0,1-.66.72l-0.09.06,0-.05h0Z"/><path class="cls-6" d="M8.69,12.27V11.76h0v0.52c0,0.34,0,.52,0,0.52s0-.06,0-0.19V12.41h0V12.6c0,0.1,0,0,0-.33h0Zm6,6.35a4.86,4.86,0,0,1-2-.65c-0.12-.07-0.14-0.09-0.12-0.09a0.58,0.58,0,0,1,.19.09,5.35,5.35,0,0,0,1.3.52,2.21,2.21,0,0,0,.57.1,0.53,0.53,0,0,1,.3,0,0.32,0.32,0,0,1-.23,0h0Z"/><path class="cls-6" d="M14.84,18.64l-0.46,0a4.74,4.74,0,0,1-1.15-.32,4.92,4.92,0,0,1-.72-0.38l0,0h0a0.13,0.13,0,0,1,.11,0l0,0,0,0-0.11,0s0,0,0,0l0.26,0.15a4.88,4.88,0,0,0,1.78.55,1,1,0,0,0,.29,0h0Z"/><path class="cls-6" d="M14.88,18.61h0l-0.19,0h0.21Z"/><path class="cls-6" d="M14.6,18.55h0l0,0H14.59s0,0,0,0h0s0,0,0,0h0.16l0,0H14.74l0,0h0l0,0h0l0,0H14.68l0,0h0.12l0,0H14.64s0,0,0,0,0,0,0,0H14.59s0,0,0,0h0s0,0,0,0,0,0,0,0h0l0,0h0Z"/><path class="cls-6" d="M14.88,18.62v0h0l0,0h0s0,0,0,0h0.36l0,0H14.87l0,0H15s0,0,0,0H14.8l0,0H14.9v0h0Z"/><path class="cls-6" d="M14.87,18.59h0Zm-0.34,0h0.09s0,0,0,0H14.51l0,0h0l0,0h0Zm-1.11-.28h0.06l0,0h0.32s0,0,0,0H13.4a0,0,0,0,1,0,0h0.13l0,0,0,0h0.07l0,0H13.62l0,0,0,0h0.29s0,0,0,0H13.4l0,0h0Z"/><path class="cls-6" d="M13.85,18.42h0l0,0h0a0,0,0,0,1,0,0H14l0,0H13.86l0,0h0.18l0,0H13.91l0,0h0l0,0H13.86l0,0H14s0,0,0,0H13.87l0,0h0l0,0h0Z"/><path class="cls-6" d="M14.51,18.59h0s0,0,0,0h0.08l0,0h0l0,0H14.38l0,0H14.28l0,0h0.07s0,0,0,0H14s0,0,0,0h0.29l0,0h0s0,0,0,0H14.33l0,0h0.09l0,0h0l0,0H14.39l0,0h0.08s0,0,0,0h0s0,0,0,0h0.09l0,0h0Zm0.37,0h0l0,0h0s0,0,0,0h0l0,0h0Zm-2.39-.78h0.05l0,0h0.15s0,0,0,0h0l0,0,0,0h0a0,0,0,0,1,0,0h0l0,0,0,0H12.8l0,0h0l0,0H13s0,0,0,0H12.89s0,0,0,0h0.36l0.06,0h0.13s0,0,0,0H13l-0.05,0,0,0H12.8l0,0H12.65s0,0,0,0h0l0.06,0,0.06,0h0l0,0,0,0h0l0,0,0,0,0,0,0.06,0h0.09l0.06,0h0l0,0h0l0,0h0l0,0h0l0,0,0,0H13.12l-0.06,0,0,0,0,0,0,0h0l0,0-0.05,0-0.06,0-0.06,0H13l0,0h0.3l0,0h-0.4l0,0h0l0,0H12.61l0,0h0l0.07,0H12.48s0,0,0,0h0s0,0,0,0H12.48l0,0h0Z"/><path class="cls-6" d="M12.44,17.76l0,0,0,0,0,0h0l0,0h0l0,0h0.05l0,0H12.62l0,0h0l0,0h0l0,0,0,0,0,0,0,0h0Z"/><path class="cls-8" d="M10.35,14.61s0-.39-0.09-0.77a1.69,1.69,0,0,1,0-.73s0,0,.1.46a1,1,0,0,0,.06.31s0-.22.08-0.45A2.22,2.22,0,0,1,10.55,13l0.13,0.08c0.17,0.12.18,0.13,0.12,0l-0.1-.16a0.16,0.16,0,0,1,0-.07l0.39,0,0.39,0A1.12,1.12,0,0,0,11,12.67l-0.35-.08a0.51,0.51,0,0,1,0-.14,0.37,0.37,0,0,0,0-.15,0.27,0.27,0,0,0-.12.06l-0.11.07V12.38A1.09,1.09,0,0,1,10.8,12a1.23,1.23,0,0,1,.27-0.25l-0.14.39a1,1,0,0,0-.09.35l0.77,0.13a7.4,7.4,0,0,1,.73.13l-0.74.08L10.84,13s0,0.06.19,0.35a4,4,0,0,1,.23.34l-0.32-.24-0.33-.25s-0.06.34-.13,0.76-0.12.77-.12,0.77a0.18,0.18,0,0,1,0-.07h0Z"/><path class="cls-8" d="M10.35,14.61s0-.39-0.09-0.77a2.33,2.33,0,0,1,0-.73l0,0s0.1,0.71.1,0.77,0,0,0,0a3.4,3.4,0,0,0,.09-0.44A2.23,2.23,0,0,1,10.55,13l0.14,0.09a0.35,0.35,0,0,0,.13.07A0.47,0.47,0,0,0,10.74,13l-0.08-.14,0.11,0,0.4,0c0.19,0,.27,0,0.24,0L11,12.67l-0.35-.08a0.56,0.56,0,0,1,0-.14,0.54,0.54,0,0,0,0-.14l-0.12.06c-0.11.07-.11,0.07-0.11,0A1.19,1.19,0,0,1,10.78,12a2.21,2.21,0,0,1,.27-0.27,2.59,2.59,0,0,1-.11.37,2.53,2.53,0,0,0-.11.37l0.77,0.13c0.42,0.07.75,0.13,0.74,0.14l-0.74.08L10.85,13a1.17,1.17,0,0,0,.31.51,0.88,0.88,0,0,1,.11.17l-0.33-.25a2.34,2.34,0,0,0-.33-0.23s-0.07.35-.13,0.77a2,2,0,0,1-.13.68h0ZM9.76,12.32l-0.41-.45,0.48,0.29,0.47,0.3,0,0.1-0.06.14a0.87,0.87,0,0,1-.43-0.39h0ZM9.57,13a4.74,4.74,0,0,1,.58-0.24,0.26,0.26,0,0,1,0,.1c0,0.09,0,.09-0.11.11a2.61,2.61,0,0,1-.46,0h0Zm0.75-.63A2.77,2.77,0,0,1,10.24,12a0.83,0.83,0,0,1,.1.16l0.09,0.17,0,0s-0.05,0-.06,0h0Z"/><path class="cls-8" d="M10.34,14.68l-0.09-.77-0.09-.77,0,0,0,0,0.05,0.41,0.05,0.41s0,0,0,0l0.07-.45L10.53,13l0.14,0.1,0.14,0.1h0L10.73,13l-0.09-.15h0l0.38,0,0.38,0L11,12.68l-0.38-.08h0l0.06-.15,0.05-.14H10.9l0,0.07,0,0.08a0.12,0.12,0,0,0,0,.06l1.07,0.17,0.32,0.05,0.24,0h0.06l-0.46,0-1.2.11h0a0.1,0.1,0,0,0,0,.08l0.46,0.65,0,0.06-0.29-.23-0.25-.2-0.17-.13,0,0a0.11,0.11,0,0,0,0,.05l-0.11.74-0.11.72h0Z"/></svg>