<svg id="Layer_1" data-name="Layer 1" xmlns="http://www.w3.org/2000/svg" viewBox="0 0 30 30"><defs><style>.cls-1{fill:#e8e8e8;}.cls-2{fill:#fff;}.cls-3{fill:#c0111f;}.cls-4{fill:#003278;}</style></defs><title>texas-rangers</title><circle class="cls-1" cx="15" cy="15" r="15"/><path class="cls-2" d="M15.08,5.27a9.33,9.33,0,1,0,9.33,9.33,9.34,9.34,0,0,0-9.33-9.33"/><path class="cls-2" d="M23.68,14.6c0-.05,0-0.11,0-0.16H21a5.89,5.89,0,0,0-11.78,0H6.48v0.19s0,0.08,0,.12H9.22a5.89,5.89,0,0,0,11.78,0h2.68s0-.08,0-0.12v0"/><path class="cls-3" d="M15.08,6a8.61,8.61,0,0,0-8.6,8.45H9.22a5.89,5.89,0,0,1,11.78,0h2.68c0,0.05,0,.11,0,0.16h0A8.61,8.61,0,0,0,15.08,6"/><path class="cls-4" d="M15.08,5.59a9,9,0,1,0,9,9,9,9,0,0,0-9-9h0ZM12.77,20h0.16a0.7,0.7,0,0,0,.18.14L12.77,20h0Zm10.91-5.39s0,0.08,0,.12H21a5.89,5.89,0,0,1-7.69,5.48l0-.07A1,1,0,0,1,13,19.93a0.74,0.74,0,0,1-.48-0.09v0a5.7,5.7,0,0,1-2.12-1.79l0.18,0.09-0.05-.09s-0.15-.1-0.27-0.2S10,17.6,9.94,17.45a1.3,1.3,0,0,0,.43.25l0-.19a1.36,1.36,0,0,1-.5-0.29,5.91,5.91,0,0,1-.6-2.45H6.48s0-.08,0-0.12v0h0s0-.1,0-0.15a8.6,8.6,0,0,1,17.2.15h0v0h0Z"/><path class="cls-2" d="M8.86,17.28a0.35,0.35,0,0,0,.21-0.22,0.82,0.82,0,0,0,0-.55L8.83,16l0,0-0.11.11-0.14,0-0.28.1-0.17-.08h0L8,16.36l-0.46.17H7.33L7.52,17l0.15-.15,0.48-.17,0,0.1-0.53.58,0.15,0.42,0.13-.21,0.46-.48a0.44,0.44,0,0,0,.47.16h0Zm0-.52a0.22,0.22,0,0,1-.14.13,0.26,0.26,0,0,1-.21,0h0a0.21,0.21,0,0,1-.1-0.12l0-.13,0.46-.15,0,0.12a0.3,0.3,0,0,1,0,.1,0.2,0.2,0,0,1,0,.07h0Zm1.36,2L9.6,19l-0.18,0h0l-0.08.17-0.51.17h0l-0.16,0H8.58l0.31,0.36L9,19.46l0.22-.09,0.33,0.38L9.41,20,9.22,20l0.41,0.46,0.05-.24,0.1-.17L10,19.79l0.16-.06h0l0-.22s0.28-.57.28-0.57v0l-0.16-.18h0Zm-0.34.39-0.23.4-0.21-.24,0.44-.16h0Zm2.82,1.62-0.21.41-0.1.2-0.2-1.08-0.4-.2v0.24l-0.11.21-0.08.15-0.19.07L11.48,21s-0.14.28-.14,0.28l-0.08.16-0.13.09,0,0,0.45,0.23,0-.23,0.39-.78L12.13,22l0.19,0.1,0.3-.62,0.16-.07h0l0-.19s0.12-.24.12-0.24L13,20.86l0.12-.09,0,0-0.44-.22,0,0.23M15.51,22v0.42a0.39,0.39,0,0,1-.18,0,0.53,0.53,0,0,1-.48-0.5L15,21.85l0,0-0.13-.15v0a0.5,0.5,0,0,1,.47-0.4,0.53,0.53,0,0,1,.4.13l0,0,0,0.06v-0.3h0A0.73,0.73,0,0,0,15.34,21a0.92,0.92,0,0,0-.88.59l0,0.08-0.11.12,0,0L14.43,22a1,1,0,0,0,1.39.61l0.06,0V22L16,21.86l0,0H15.41L15.51,22m3.18-.43-0.24.1-0.13.06-0.2-.48,0.26-.11h0.2l-0.14-.34-0.15.14L18,21.05h0l-0.17-.39,0.39-.17,0.28,0-0.14-.33,0,0-1,.44,0.18,0.13,0.18,0.43-0.09.19,0.2,0.07L18,21.92v0.2l1-.46-0.14-.32-0.19.22m2.07-2.43a0.57,0.57,0,0,0,0-.19,0.39,0.39,0,0,0-.13-0.3,0.35,0.35,0,0,0-.29-0.08,0.82,0.82,0,0,0-.47.3l-0.39.46,0.2,0.06,0.33,0.29h0s0,0.17,0,.17v0l0.22,0,0.37,0.32,0.06,0.14,0,0L21.11,20l-0.2-.05-0.39-.33,0.07-.08,0.77,0.18,0.29-.34-0.24,0-0.64-.17h0Zm-0.27,0a0.21,0.21,0,0,1-.05.14l-0.09.11L20,19.1,20.07,19a0.24,0.24,0,0,1,.15-0.09,0.22,0.22,0,0,1,.18.06,0.27,0.27,0,0,1,.1.19h0Zm2.25-2.52a0.49,0.49,0,0,0-.32-0.27,0.38,0.38,0,0,0-.19,0h0a0.51,0.51,0,0,0-.18.1l-0.1.1,0,0.06H21.76l0,0.19,0,0a0.23,0.23,0,0,1-.22.11,0.24,0.24,0,0,1-.14-0.3,0.41,0.41,0,0,1,.19-0.25h0v0l-0.06-.14,0,0a0.66,0.66,0,0,0-.27.39,0.54,0.54,0,0,0,.23.7,0.33,0.33,0,0,0,.17,0,0.52,0.52,0,0,0,.22-0.11l0,0,0,0H22L22.07,17l0.14-.16a0.23,0.23,0,0,1,.18-0.07,0.27,0.27,0,0,1,.17.14,0.41,0.41,0,0,1,0,.3,0.38,0.38,0,0,1-.31.27h0v0l0.06,0.15h0a0.6,0.6,0,0,0,.42-0.43,0.78,0.78,0,0,0,0-.55m-12.52-6.4L9.84,9.92h0s0-.17,0-0.17v0l-0.19,0L9.3,9.48l0.16-.19,0.2-.09,0,0L9.43,9l0,0L8.58,10l0.26,0.22L8.91,10l0.16-.19L9.39,10l0,0.19H9.6L10,10.53l0.06,0.14,0,0,0.36-.43-0.21,0m1.19-2-0.07.19,0.2,0.06,0.22,0.45V9.13l1-.52L12.6,8.3l-0.16.22-0.38.2-0.24-.47,0.27-.14,0.14,0h0L12.12,7.8,12,7.94l-0.27.14-0.2-.38,0.4-.21h0.26L12,7.17h0L11,7.7l0.18,0.11,0.22,0.43m6.15,0.25,0.18-.18,0.48,0.23,0,0.25-0.14.12,0.52,0.24,0-.22s0.07-.5.07-0.51l0.15-.12,0,0L18.63,8.1s0-.66,0-0.66v0l-0.2-.1h0l-0.5.46-0.19,0h0s0,0.17,0,.19l-0.39.36-0.14.08,0,0,0.4,0.19V8.49h0Zm0.35-.35,0.39-.36-0.06.52-0.33-.16h0Zm2.38,2.55a0.49,0.49,0,0,0,.38,0,0.36,0.36,0,0,0,.13-0.13,0.45,0.45,0,0,0,.06-0.2V10.11L21,10l-0.1-.17h0v0A0.24,0.24,0,0,1,21,9.56a0.25,0.25,0,0,1,.32.13,0.44,0.44,0,0,1,0,.33v0l0.14,0.06v0a0.7,0.7,0,0,0-.08-0.46,0.53,0.53,0,0,0-.65-0.33,0.29,0.29,0,0,0-.13.1,0.5,0.5,0,0,0-.08.23V9.7l-0.09.08,0,0L20.53,10h0s0,0.21,0,.21a0.24,0.24,0,0,1-.08.19,0.27,0.27,0,0,1-.21,0A0.41,0.41,0,0,1,20,10.2a0.4,0.4,0,0,1,0-.43l0,0-0.15-.07v0a0.59,0.59,0,0,0,0,.59,0.74,0.74,0,0,0,.41.4M14.7,8.07L15,7.66,15.3,8.08h0s0,0.12,0,.12v0h0.55L15.67,8,15.31,7.5l0.07-.11-0.09-.1,0.37-.5,0.16-.18H15.32l0,0,0,0.11-0.3.4-0.27-.41h0s0-.12,0-0.12v0H14.3l0.16,0.19L14.79,7.3l-0.07.11,0.11,0.1L14.43,8l-0.14.13-0.05.05h0.49l0-.15M22,11.73l0.21,0.65h0.68l-0.55.4,0.21,0.65L22,13l-0.55.4,0.21-.65-0.55-.4h0.68M8.12,11.73l0.21,0.65H9l-0.55.4,0.21,0.65L8.12,13l-0.55.4,0.21-.65-0.55-.4H7.9"/><path class="cls-4" d="M20.5,22.76H20.32v0.51H20.19V22.76H20V22.65h0.5v0.11h0Zm0.84,0.51H21.22V22.78h0L21,23.27H20.92l-0.17-.49h0v0.49H20.62V22.65h0.22L21,23.05h0l0.15-.4h0.22v0.62h0ZM14.69,8.86l-0.14-.11H14.42a0.68,0.68,0,0,1,.21.11m-0.2.07a1.4,1.4,0,0,0-.22-0.15L14,8.82a1.62,1.62,0,0,1,.28.13m-0.42.13,0.16,0a1.19,1.19,0,0,0-.28-0.1l-0.09,0-0.21.06a0.34,0.34,0,0,1,.17.06,0.36,0.36,0,0,1,.24.07m-0.4.18,0.16-.06a0.71,0.71,0,0,0-.34-0.12A0.27,0.27,0,0,0,13.2,9L13,9.1a0.51,0.51,0,0,1,.18.08,0.44,0.44,0,0,1,.3.09m-0.73.07a0.56,0.56,0,0,1,.32.11l0.17,0a0.6,0.6,0,0,0-.35-0.14,0.21,0.21,0,0,0-.18,0l-0.21.09a0.41,0.41,0,0,1,.25,0m-0.08.37,0.15-.11a0.9,0.9,0,0,0-.39-0.09,0.28,0.28,0,0,0-.09,0l-0.2.11a0.37,0.37,0,0,1,.22.06,0.57,0.57,0,0,1,.32.08M11.83,10a1.32,1.32,0,0,1,.54,0l0.15-.13a1.55,1.55,0,0,0-.58,0,0.43,0.43,0,0,0-.1-0.09l-0.14.12a0.27,0.27,0,0,1,.13.13m-0.39.44a1.23,1.23,0,0,1,.62-0.06l0.13-.17a1.2,1.2,0,0,0-.66.08,0.38,0.38,0,0,0-.1-0.11l-0.12.11a0.32,0.32,0,0,1,.13.15m-0.26.33a0.77,0.77,0,0,0-.11-0.14L11,10.8a0.31,0.31,0,0,1,.12.16,1.06,1.06,0,0,1,.6-0.13l0.13-.17a0.82,0.82,0,0,0-.64.14m-0.28.5a0.92,0.92,0,0,0-.15-0.21l-0.07.16a1,1,0,0,1,.14.22,0.74,0.74,0,0,1,.51-0.13l0.12-.2a0.63,0.63,0,0,0-.56.16m-0.24.49a0.79,0.79,0,0,0-.17-0.24l-0.07.18a0.54,0.54,0,0,1,.14.22,0.86,0.86,0,0,1,.54-0.13l0.11-.19a0.63,0.63,0,0,0-.55.16m-0.23.58a1.53,1.53,0,0,0-.18-0.26l-0.06.19a0.62,0.62,0,0,1,.16.22,0.74,0.74,0,0,1,.51-0.12l0.08-.18c-0.39,0-.49.06-0.51,0.15m-0.23.53c0-.07-0.18-0.24-0.18-0.24l0,0.19a0.62,0.62,0,0,1,.17.22,0.91,0.91,0,0,1,.56-0.13l0.06-.19a0.65,0.65,0,0,0-.56.15m-0.14.63c0-.07-0.22-0.31-0.22-0.31l0,0.2a1.5,1.5,0,0,1,.19.28,0.83,0.83,0,0,1,.54-0.18l0-.17a0.57,0.57,0,0,0-.52.18m-0.15.82a0.51,0.51,0,0,1,.49-0.17l0-.18a0.54,0.54,0,0,0-.48.15c0-.07-0.27-0.3-0.27-0.3l0,0.2a1.55,1.55,0,0,1,.25.31M9.82,15l0-.08a0.56,0.56,0,0,1,.46-0.12l0-.17a0.62,0.62,0,0,0-.45.11,0.2,0.2,0,0,0,0,.09,1.47,1.47,0,0,0-.26-0.35V14.7a1.39,1.39,0,0,1,.25.32m0.46,1.08V15.92a0.47,0.47,0,0,0-.46,0,0.85,0.85,0,0,0-.29-0.16v0.19a0.52,0.52,0,0,1,.26.14,0.51,0.51,0,0,1,.48.05m-0.49-.55c0.05-.09.11-0.13,0.49-0.05V15.32c-0.45,0-.44,0-0.45.08a2.33,2.33,0,0,0-.29-0.29v0.21a1.08,1.08,0,0,1,.25.24m0.06,1c0-.06.09,0,0.18,0l0.24,0.13V16.53c-0.2-.13-0.41-0.23-0.43-0.14a0.84,0.84,0,0,0-.25-0.17l0,0.21a0.39,0.39,0,0,1,.22.14M9.9,17a0.57,0.57,0,0,1,.39.17l0-.18a0.51,0.51,0,0,0-.39-0.17,0.7,0.7,0,0,0-.21-0.17l0,0.19a0.43,0.43,0,0,1,.2.15m8.68-1.6a1.84,1.84,0,0,1-.39-0.34L18,15.19a1.07,1.07,0,0,0,.53.36,4.89,4.89,0,0,0-.05.69l0.17-.11a5.48,5.48,0,0,1,0-.76,0.19,0.19,0,0,1-.14.07M19,15.12a1.45,1.45,0,0,0-.36-0.4l-0.11.08a1.28,1.28,0,0,1,.36.41L19,15.13a3.62,3.62,0,0,1,0,.72l0.13-.1a2.92,2.92,0,0,0,0-.71m-6,4.59a1,1,0,0,1-.56-0.08l0,0.12a0.8,0.8,0,0,0,.56.06,0.61,0.61,0,0,0,.34.25l0.07-.1a0.46,0.46,0,0,1-.36-0.25m0.15-.34a1.13,1.13,0,0,1-.59-0.07l-0.06.14a1.14,1.14,0,0,0,.58.06,0.65,0.65,0,0,0,.34.32l0.07-.12a0.5,0.5,0,0,1-.34-0.33m0.24-.45,0,0a1.27,1.27,0,0,1-.62,0L12.78,19a1.4,1.4,0,0,0,.61,0v0a0.69,0.69,0,0,0,.32.37l0.1-.12a0.72,0.72,0,0,1-.33-0.41"/><path class="cls-4" d="M13.71,18.57v0a1.35,1.35,0,0,1-.59-0.11L13,18.6a1.2,1.2,0,0,0,.59.12v0a0.67,0.67,0,0,0,.33.41l0.1-.12a0.77,0.77,0,0,1-.34-0.42m-0.39-.39,0.06,0V18.11m3.46-.92a1.1,1.1,0,0,1-.1-0.64l-0.05,0a1,1,0,0,1-.53-0.38h0V15.12a0.71,0.71,0,0,1,.54-0.54,1.39,1.39,0,0,1-.29-0.16l-0.22.06a0.64,0.64,0,0,0-.48.46v1.91c0,0.13.05,0.22,0.31,0.22h0.13s0,0,0,0V16.45a0.86,0.86,0,0,0,.38.23l0,0a1.63,1.63,0,0,0,0,.53l-0.11-.11v1.16H13.39l0.49,0.46h0.21a0.21,0.21,0,0,0,.11.1l0.1-.1h2.58V17.42l-0.19-.17"/><path class="cls-4" d="M17.46,16.2l-0.05,0a1,1,0,0,1-.53-0.38l-0.19.08a1.3,1.3,0,0,0,.56.4l0,0a1.22,1.22,0,0,0,.07.62l0.19-.08a1.09,1.09,0,0,1-.1-0.64m0.72-.36h0a0.24,0.24,0,0,1-.23-0.06c-0.08-.07-0.33-0.37-0.33-0.37l-0.21.12A2.48,2.48,0,0,0,18,16h0a1.19,1.19,0,0,0,.07.61l0.19-.08a1.1,1.1,0,0,1-.09-0.64m1.21-1a1.46,1.46,0,0,0-.36-0.4l-0.11.1a1.22,1.22,0,0,1,.4.44l0.07-.08a2.91,2.91,0,0,1,0,.69l0.14-.11a2.55,2.55,0,0,0,0-.71m0.24-.2a1.74,1.74,0,0,1,0,.72l0.13-.12a2.56,2.56,0,0,0-.06-0.71m0.22-.24a2,2,0,0,1,.06.74l0.12-.16a2.6,2.6,0,0,0-.09-0.7m0.16-.24,0,0.08a1,1,0,0,1,.19.6l0.09-.14a0.6,0.6,0,0,0-.24-0.54m0.16-.27,0,0,0,0a1,1,0,0,0-.29-0.38l-0.07.1a0.9,0.9,0,0,1,.29.39l0-.06a0.74,0.74,0,0,1,.24.54L20.72,14c-0.06-.39-0.24-0.53-0.25-0.45m0.15-.3v0A1,1,0,0,0,20.33,13L20.28,13a0.8,0.8,0,0,1,.28.39l0-.07h0a0.71,0.71,0,0,1,.23.47l0-.17c0-.21-0.21-0.45-0.24-0.38m-1.27.83-0.11.1a1.22,1.22,0,0,1,.4.44l0.09-.1a1.44,1.44,0,0,0-.38-0.44m0.33-.31-0.1.08a1.4,1.4,0,0,1,.41.44l0.08-.11a1.28,1.28,0,0,0-.38-0.41M20.21,14l0.07-.1A1.13,1.13,0,0,0,20,13.5l-0.09.1a1,1,0,0,1,.34.41m0.46-.89,0-.08a1,1,0,0,0-.26-0.33l0,0.09a0.78,0.78,0,0,1,.25.33m0,0a0.54,0.54,0,0,1,.15.16l0-.19L20.74,13m-0.09-.41-0.1-.11,0,0.08a1.12,1.12,0,0,1,.22.32l-0.1-.29m-3.45,1,0.47,0.44h0.77V11.53L18,11.13v2.49m-2.3.22a0.76,0.76,0,0,0,.49.49l0.2,0.08A0.53,0.53,0,0,1,16.15,14V12.4h0.08a1.25,1.25,0,0,1,.66.22,1.64,1.64,0,0,0-1.19-.38v1.6m-1.54-1.6c-1,0-1.39.34-1.39,1.19v0.19h-1L12.24,14h0.93V13.88c0-.87.08-1.42,1-1.51V12.23h0"/><path class="cls-3" d="M15.55,16.85V14.94A0.64,0.64,0,0,1,16,14.4a0.72,0.72,0,0,1-.43-0.56V12.07H15.7c1,0,1.64.47,1.64,1.29v0.09h0.51V11.28h-5.9v2.18h0.68v0c0-.93.48-1.34,1.55-1.34h0.17v1.76a0.66,0.66,0,0,1-.38.56,0.61,0.61,0,0,1,.38.54v1.89a0.39,0.39,0,0,1-.45.39H13.54v0.85h2.81V17.22H16a0.38,0.38,0,0,1-.47-0.37"/></svg>