<svg id="Layer_1" data-name="Layer 1" xmlns="http://www.w3.org/2000/svg" viewBox="0 0 30 30"><defs><style>.cls-1{fill:#e8e8e8;}.cls-2{fill:#fff;}.cls-3{fill:#134a8e;}.cls-4{fill:#e8291c;}.cls-5,.cls-6{fill:#1d2d5c;}.cls-5{stroke:#1d2d5c;stroke-width:0.21px;}</style></defs><title>toronto-blue-jays</title><circle class="cls-1" cx="15" cy="15" r="15"/><path class="cls-2" d="M15.08,5.41a9.2,9.2,0,1,0,9.2,9.2A9.2,9.2,0,0,0,15.08,5.41Z"/><path class="cls-3" d="M15.08,5.41a9.2,9.2,0,1,0,9.2,9.2,9.2,9.2,0,0,0-9.2-9.2h0Zm0,0.33A8.87,8.87,0,1,1,6.21,14.6a8.87,8.87,0,0,1,8.87-8.87h0Z"/><path class="cls-4" d="M15.91,10.13l-0.2.26h0.23l0.13-.19-0.16-.05h0ZM15.42,10l-0.23.29,0.11,0.19h0.17l-0.08-.17L15.57,10l-0.15,0h0Zm-0.51-.15-0.06.11L14.75,10l-0.09.09,0.06,0.07,0.05,0.1a0.62,0.62,0,0,1,0,.11s0,0.09,0,.09H15a0.73,0.73,0,0,0,0-.09,0.87,0.87,0,0,0,0-.13l-0.05-.09,0,0,0.06,0L15,10,15,10l0-.09-0.16,0h0Zm-0.49-.1,0.17,0-0.09.12-0.09.1-0.1.08,0.06,0.08a0.45,0.45,0,0,1,0,.11,0.76,0.76,0,0,1,0,.13,0.79,0.79,0,0,1,0,.12H14.25a1.1,1.1,0,0,0,0-.12,0.83,0.83,0,0,0,0-.13,0.52,0.52,0,0,0,0-.11L14.13,10,14.21,10l0.08-.08,0.07-.08,0.06-.08h0Zm-0.58-.08,0.2,0L14,9.79l-0.05.08-0.06.07L13.8,10l0.06,0.06,0,0.08a0.52,0.52,0,0,1,0,.12s0,0.19,0,.19h-0.2s0-.11,0-0.15a0.79,0.79,0,0,0,0-.11,0.54,0.54,0,0,0,0-.1L13.6,10l0.07-.07,0.07-.09,0.06-.1a0.93,0.93,0,0,0,0-.1h0Z"/><path class="cls-4" d="M11.69,10.94a0.78,0.78,0,0,0,.13-0.08l-0.15-.21,0.18-.14L12,10.78l0.11-.09L12,10.41l0.21-.15a0.79,0.79,0,0,1,.12.15,0.34,0.34,0,0,1,0,.12s0,0.09,0,.09l0.17,0a0.56,0.56,0,0,0,0-.09,0.47,0.47,0,0,0,0-.13l-0.07-.1-0.07-.09L12.58,10,12.7,10a0.83,0.83,0,0,1,0,.11,0.35,0.35,0,0,1,0,.07,0.52,0.52,0,0,1,.09.09,0.49,0.49,0,0,1,.06.15,0.58,0.58,0,0,1,0,.12l0.16,0a0.91,0.91,0,0,0,0-.12,0.36,0.36,0,0,0,0-.1l0-.09L12.8,10.1l0-.07,0-.09,0-.07,0.31-.13a0.62,0.62,0,0,1,0,.1,0.42,0.42,0,0,1,0,.11L13.09,10l0.06,0.07a0.78,0.78,0,0,1,.07.12,0.58,0.58,0,0,1,0,.12,0.69,0.69,0,0,1,0,.1h0.18s0-.08,0-0.13a0.43,0.43,0,0,0,0-.12,0.58,0.58,0,0,0-.07-0.12L13.27,10a1.81,1.81,0,0,0,.19-0.35,4.56,4.56,0,0,1,1.3-.24,5.29,5.29,0,0,1,1.78.2,4.55,4.55,0,0,1,1,.39l0.38-.12a5.9,5.9,0,0,0-1.12-.51,5.59,5.59,0,0,0-4.24.35,5.86,5.86,0,0,0-1.81,1.52,5,5,0,0,0-.8,1.43l0.34,0A5.76,5.76,0,0,1,11,11.33l0,0,0.11-.11-0.06-.07L11.27,11l0.07,0.12,0.12-.09-0.1-.13,0.2-.19,0.13,0.18h0Zm6.52,6.57,0.1-.08,0.13,0.09-0.13.37H18.13l0.12-.33-0.05-.06m0.33-.32,0.14-.12a0.75,0.75,0,0,0,0,.11,0.4,0.4,0,0,0,.06.11l0.08,0.07,0.07,0-0.18.34H18.56l0.15-.31a0.42,0.42,0,0,1-.18-0.26M19,17l0.14,0a1,1,0,0,0,.08.24l0,0.08,0.05,0-0.18.36H19L19,17.55l0.11-.19,0-.06-0.05-.09,0-.1L19,17"/><path class="cls-4" d="M19.42,17.24a0.34,0.34,0,0,1,0-.09,0.46,0.46,0,0,1,0-.08,0.78,0.78,0,0,1,0-.09h0.13a0.39,0.39,0,0,0,0,.09,0.24,0.24,0,0,0,0,.07l0.05,0.05a8.38,8.38,0,0,0,.41-0.9h0.3q-0.07.22-.16,0.44a5.27,5.27,0,0,1-.35.67,5.81,5.81,0,0,1-.73,1,5.48,5.48,0,0,1-.74.66,5.29,5.29,0,0,1-1.85.88l0.22-.36a5,5,0,0,0,.59-0.24,5.75,5.75,0,0,0,.79-0.47,5.35,5.35,0,0,0,.78-0.66,4.45,4.45,0,0,0,.64-0.85l-0.07-.08m-9.81-1.9L9.9,15.4,10,16l0.1,0.34,0.2,0.5h0.07l0.08,0.1-0.06.1,0.07,0.13L10.57,17l0.1,0.11-0.07.19,0.11,0.18,0.11-.23,0.1,0.09-0.1.31L11,17.92V17.71l0.09-.23,0.13,0.1-0.07.12v0.38l0.19,0.21,0.08-.13a0.44,0.44,0,0,1,0-.11,0.52,0.52,0,0,1,0-.15,0.63,0.63,0,0,1,0-.19l0.15,0.09a0.58,0.58,0,0,0,0,.13,0.66,0.66,0,0,0,0,.13,0.72,0.72,0,0,0,0,.19l-0.1.16,0.25,0.23,0.12-.24a0.85,0.85,0,0,1-.06-0.18,0.63,0.63,0,0,1,0-.18,0.55,0.55,0,0,1,0-.13L11.91,18l0,0.14v0.16L12,18.42l-0.12.31L12.26,19a5.43,5.43,0,0,0,1.85.74L14.23,20a5.54,5.54,0,0,1-3.79-2.45,5.39,5.39,0,0,1-.61-1.29,5.31,5.31,0,0,1-.21-0.94"/><path class="cls-4" d="M12.18,18.07l0.16,0a2.24,2.24,0,0,0,0,.28,0.3,0.3,0,0,0,0,.12,0.54,0.54,0,0,0,.09.1l-0.06.07a0.23,0.23,0,0,0,0,.09,1,1,0,0,0,0,.17H12.24a1.24,1.24,0,0,1,0-.14,0.51,0.51,0,0,1,0-.12,0.75,0.75,0,0,1,0-.09l-0.08-.1a0.23,0.23,0,0,1,0-.11,2.27,2.27,0,0,1,0-.32h0Zm0.46,0.13,0.16,0a1.19,1.19,0,0,0,0,.22,0.44,0.44,0,0,0,.07.15,0.77,0.77,0,0,0,.1.1,0.7,0.7,0,0,0-.05.15,1.33,1.33,0,0,0,0,.21H12.75a1.11,1.11,0,0,1,0-.22,0.65,0.65,0,0,1,.07-0.15l-0.08-.06-0.05-.08a0.38,0.38,0,0,1,0-.13,1.87,1.87,0,0,1,0-.24h0Zm0.51,0.08,0.18,0a0.94,0.94,0,0,0,0,.17,0.4,0.4,0,0,0,.07.14,0.82,0.82,0,0,0,.12.1,0.78,0.78,0,0,0,0,.1,1.17,1.17,0,0,0,0,.13s0,0.16,0,.16H13.35s0-.08,0-0.12a0.47,0.47,0,0,1,0-.1,0.45,0.45,0,0,1,0-.12l-0.08-.05a0.42,0.42,0,0,1-.1-0.11,0.35,0.35,0,0,1-.06-0.11,1.15,1.15,0,0,1,0-.19h0Z"/><path class="cls-3" d="M15.09,5.92a8.67,8.67,0,1,0,8.67,8.67A8.67,8.67,0,0,0,15.09,5.92Zm0,0.33a8.34,8.34,0,1,1-8.34,8.34A8.34,8.34,0,0,1,15.09,6.25Z"/><path class="cls-3" d="M16.2,10.7l0.51-.12,0.49-.13,0.55-.16A7.69,7.69,0,0,0,18.49,10a6.3,6.3,0,0,0,.6-0.3,2.62,2.62,0,0,0,.45-0.32A1.87,1.87,0,0,0,19.83,9a1.24,1.24,0,0,1,0,.27,1.79,1.79,0,0,1,0,.21q0,0.12-.06.23l0.44-.19a1.66,1.66,0,0,1,.6-0.16l-0.09.08-0.19.23-0.18.25q-0.13.2-.24,0.41l-0.16.36L20,10.61l0.2-.11,0.2-.1,0.18,0h0.16l-0.09.09a0.71,0.71,0,0,0-.12.22,2.87,2.87,0,0,0-.12.31c0,0.15-.08.3-0.12,0.44l-0.11.43-0.58-1L18.95,12l-0.66-.26,0.15,1.49-0.74-.71-0.22.54-0.93-.15V13.1l-0.42,0c-0.18,0-.37,0-0.54-0.09l-0.46-.12-0.48-.15-0.47-.16-0.33-.1,0.37,0h0.32a2.6,2.6,0,0,1,.38,0,4.64,4.64,0,0,0-.51-0.15l-0.52-.09-0.44,0H13a2.53,2.53,0,0,0-.38,0,1.73,1.73,0,0,0-.33.1l-0.18.09a0.58,0.58,0,0,0-.29.76A0.55,0.55,0,0,1,11.54,13a0.72,0.72,0,0,1-.18-0.17,0.83,0.83,0,0,1-.11-0.2,0.55,0.55,0,0,1,0-.36,0.61,0.61,0,0,1,.11-0.2l0.16-.17a4,4,0,0,1,.35-0.31,2.27,2.27,0,0,1,.51-0.29,3.19,3.19,0,0,1,.75-0.21l1-.14,1-.11q0.57-.07,1.13-0.18"/><path class="cls-5" d="M11,12.4a1.73,1.73,0,0,0-.22.1,1,1,0,0,0-.18.15,1,1,0,0,0-.12.16,0.47,0.47,0,0,1-.12.15,3.35,3.35,0,0,1-.51.1l-0.62.12-0.49.11-0.47.12-0.42.14-0.28.11-0.17.09-0.11.09a0.31,0.31,0,0,0-.05.09h4l0.06-.08a0.33,0.33,0,0,1,.1-0.07l0.18-.07,0.2,0a0.79,0.79,0,0,1,.21,0,1,1,0,0,1,.22.09l0.16,0.11L12.47,14l0.14,0.11a1.16,1.16,0,0,0,.18.11L13,14.32l0.2,0a0.89,0.89,0,0,0,.24,0,0.94,0.94,0,0,0,.2-0.1l0.16-.12L13.89,14A1.31,1.31,0,0,1,14,13.85l0.17-.08,0.17,0h2.19V13.4H14.38l-0.15,0-0.11-.05L14,13.21l-0.17-.15-0.16-.13-0.17-.09-0.19-.05h-0.2a0.8,0.8,0,0,0-.2,0l-0.15.07L12.55,13l-0.18.14-0.2.14a0.66,0.66,0,0,1-.2.08H11.8l-0.17,0-0.19-.09a1,1,0,0,1-.18-0.15,1.1,1.1,0,0,1-.16-0.21A1.13,1.13,0,0,1,11,12.66a1.28,1.28,0,0,1,0-.26h0ZM12.9,13v0.42H12.68a1.18,1.18,0,0,1,0-.17,0.46,0.46,0,0,1,.05-0.11l0.08-.09,0.07,0h0Z"/><path class="cls-4" d="M17.77,12.91l0.65,0.61a0.2,0.2,0,0,0,.18.06,0.13,0.13,0,0,0,.06-0.13c0-.42-0.13-1.38-0.13-1.38L19,12.27l0.63-1,0.6,1,0.48-.19s-0.08.93-.11,1.36a0.12,0.12,0,0,0,.06.11,0.17,0.17,0,0,0,.17,0,6.12,6.12,0,0,0,.65-0.63l0.16,0.44,0.84-.13-0.06.92,0.29,0.12L21,15.79l0.28,0.37L19.8,16l-0.15.24L19.5,16l-1.49.1,0.3-.34L16.5,14.22l0.31-.09-0.06-.95,0.85,0.13,0.16-.4h0Z"/><path class="cls-6" d="M7.23,14l1.22,0,1,0.07,0.88,0.1,0.6,0.09a0.66,0.66,0,0,0,0,.14,0.81,0.81,0,0,0,.07.2,0.85,0.85,0,0,0,.14.18,1.14,1.14,0,0,0,.17.14l0.28,0.18,0.32,0.15,0.35,0.16,0.29,0.13L13,15.87l0.36,0.23,0.33,0.25,0.41,0.36c0.14,0.13.29,0.27,0.44,0.43a6.35,6.35,0,0,1,.43.54q0.19,0.27.35,0.55c0.09,0.16.17,0.31,0.22,0.43l0.1,0.24,0.19-.28c0.07-.11.18-0.25,0.26-0.39a4.14,4.14,0,0,1,.3-0.43l0.33-.4,0.25-.3,0.22-.23H16.5l0.18-.38c0.07-.14.15-0.33,0.23-0.46s0.15-.24.22-0.37l0.24-.39L18,15.84l-0.46.56,0.42,0,0.62,0,0.44,0-0.46.41a6.57,6.57,0,0,0-.54.53c-0.14.17-.23,0.25-0.39,0.43s-0.38.44-.55,0.66-0.32.43-.48,0.65-0.31.45-.46,0.68-0.29.46-.46,0.74-0.51.92-.51,0.92l-0.25-.67c-0.09-.23-0.16-0.46-0.26-0.69s-0.23-.46-0.34-0.68S14.11,18.8,14,18.59s-0.2-.35-0.34-0.57-0.35-.54-0.52-0.77-0.35-.45-0.49-0.61-0.23-.26-0.36-0.39S12,16,11.86,15.87a4.58,4.58,0,0,0-.43-0.31A3.32,3.32,0,0,0,11,15.34a3.1,3.1,0,0,0-.34-0.11l-0.28-.07L10,15.07l-0.51-.12-0.83-.23L8.1,14.54l-0.41-.17-0.23-.11a1.36,1.36,0,0,1-.17-0.12A0.29,0.29,0,0,1,7.23,14h0Z"/><path class="cls-3" d="M21.67,21.67V21.35H21.55V21.28h0.31v0.07H21.75v0.32H21.67Zm0.24,0V21.28H22l0.07,0.26,0.07-.26h0.12v0.39H22.21V21.37l-0.08.31H22.06L22,21.37v0.31H21.91ZM14.08,8.31a0.24,0.24,0,0,1,0,.18l0.43,0A0.25,0.25,0,0,1,14.4,8.3h0l0-.63,1,0.76L15.25,7a0.27,0.27,0,0,1,0-.16l-0.41,0a0.26,0.26,0,0,1,0,.15L15,7.7l-1-.76,0.08,1.37h0ZM9.14,10.18a0.48,0.48,0,1,1,.1.67,0.48,0.48,0,0,1-.1-0.67M9,11.11A0.8,0.8,0,1,0,8.88,10,0.8,0.8,0,0,0,9,11.11m7.08-3.85,0.23,0L16.14,8.36a0.22,0.22,0,0,1-.1.16l0.46,0.09a0.25,0.25,0,0,1,0-.19l0.21-1.05,0.25,0.05a0.4,0.4,0,0,1,.2.11V7.16L16,6.94l-0.14.34a0.36,0.36,0,0,1,.23,0m-8.05,4.9,0.09-.21,1,0.41a0.22,0.22,0,0,1,.14.13L9.48,12a0.25,0.25,0,0,1-.19,0l-1-.41,0.1-.24a0.4,0.4,0,0,1,.14-0.17l-0.36-.08-0.43,1L8,12.38a0.36,0.36,0,0,1,0-.23m2.56-3.44a0.22,0.22,0,0,1,.26,0,0.19,0.19,0,0,1,.08.12,0.24,0.24,0,0,1-.12.22l-0.11.08-0.22-.3,0.11-.08h0Zm-0.46.15,0.73,1a0.24,0.24,0,0,1,0,.14l0.37-.27a0.23,0.23,0,0,1-.16-0.11l-0.32-.44L11.65,9.5,12,9.24l-0.21,0L11.25,9V9a0.44,0.44,0,0,0-.05-0.47A0.48,0.48,0,0,0,11,8.38h0l-0.15,0a0.56,0.56,0,0,0-.26,0,0.92,0.92,0,0,0-.17.1h0L10,8.77a0.25,0.25,0,0,1,.16.09h0Zm2.1-1a0.48,0.48,0,1,1,.1.67,0.48,0.48,0,0,1-.1-0.67m-0.1.93A0.8,0.8,0,1,0,12,7.63a0.8,0.8,0,0,0,.16,1.12m5.56-.65a0.48,0.48,0,1,1,.1.67,0.48,0.48,0,0,1-.1-0.67M17.64,9a0.8,0.8,0,1,0-.16-1.12A0.8,0.8,0,0,0,17.64,9M11.53,19.63v0a0.26,0.26,0,0,1,.25-0.13l-0.29-.18L10.73,20.5a0.48,0.48,0,0,0,.8.51L12.3,19.8,12,19.62a0.24,0.24,0,0,1,0,.28l-0.62,1a0.26,0.26,0,0,1-.35,0,0.26,0.26,0,0,1-.11-0.33l0.61-1"/><path class="cls-3" d="M12.38,19.85L11.62,21l0,0a0.51,0.51,0,0,1-.71.08,0.67,0.67,0,0,1-.21-0.21h0a0.44,0.44,0,0,1,0-.46l0,0,0.76-1.19-0.29-.18a0.24,0.24,0,0,1,0,.28l-0.64,1a0.66,0.66,0,0,0,.28,1,0.68,0.68,0,0,0,1-.14l0.64-1A0.25,0.25,0,0,1,12.66,20l-0.29-.18h0ZM20.59,20l-0.36-.37-0.39-1.17a0.45,0.45,0,0,1,0-.31l-0.25.24,0.44,1.33,0.55,0.58h0L20.87,20a0.26,0.26,0,0,1-.28,0m-1.84-.78h0l1.2,0.45-0.41-1.22-0.32.3a0.22,0.22,0,0,1,.15,0,0.18,0.18,0,0,1,.08.13l0.18,0.49-0.48-.2A0.28,0.28,0,0,1,19,19.06a0.18,0.18,0,0,1,0-.16l-0.31.3h0Zm-0.08.08-0.25.24a0.4,0.4,0,0,1,.3,0l1.15,0.44,0.33,0.34a0.28,0.28,0,0,1,.06.31l0.27-.26L20,19.77l-1.32-.49h0Zm-1.51,2.39L16.87,20.5A0.35,0.35,0,0,1,17,20.23l-0.33.08L17,21.68a0.46,0.46,0,0,1,0,.36,0.57,0.57,0,0,1-.35.24,0.6,0.6,0,0,1-.46-0.07L16,22.1l-0.12.19a0.8,0.8,0,0,0,.78.19,0.82,0.82,0,0,0,.4-0.22,0.59,0.59,0,0,0,.16-0.51l0-.08"/><path class="cls-3" d="M16.52,22a0.32,0.32,0,0,1-.19,0,0.38,0.38,0,0,1-.18-0.23L16,22a1,1,0,0,0,.17.14,0.49,0.49,0,0,0,.38,0,0.4,0.4,0,0,0,.33-0.46l-0.35-1.41-0.33.08a0.28,0.28,0,0,1,.2.21l0.29,1.16a0.21,0.21,0,0,1-.17.24M9.26,17.17l0.06,0.13a0.16,0.16,0,0,1,0,.24,0.17,0.17,0,0,1-.21-0.11L9,17.3l0.26-.12h0Zm0.11,0.57a0.37,0.37,0,0,0,.13-0.52l-0.15-.31-0.59.28L8.91,17.5a0.35,0.35,0,0,0,.46.24h0Zm-0.7.18a0.19,0.19,0,0,1-.09,0c-0.09,0-.17,0-0.26-0.19l-0.06-.13,0.36-.17L8.68,17.6a0.26,0.26,0,0,1,0,.32m0.15-.39-0.14-.3L8,17.55l0.14,0.3a0.42,0.42,0,0,0,.55.3,0.43,0.43,0,0,0,.14-0.63"/><path class="cls-3" d="M8.06,17.9l-0.18-.39,1.52-.72,0.19,0.4a0.46,0.46,0,0,1-.18.64A0.37,0.37,0,0,1,9,17.76H9v0a0.45,0.45,0,0,1-.26.48,0.49,0.49,0,0,1-.67-0.34h0Zm0.76,0.54A0.54,0.54,0,0,0,9.13,18a0.45,0.45,0,0,0,.37,0h0a0.66,0.66,0,0,0,.26-0.91l-0.33-.7a0.25,0.25,0,0,1-.16.23l-1.4.66a0.26,0.26,0,0,1-.32,0L7.89,18a0.71,0.71,0,0,0,.94.46h0Zm0.21,1,1.4-1.25L10.21,18a0.25,0.25,0,0,1-.09.27h0L9,19.29a0.29,0.29,0,0,1-.31,0l0.87,1,0.17-.1h0L9,19.48H9Z"/><path class="cls-3" d="M9.7,19.81l-0.26-.29,1-.89h0a0.31,0.31,0,0,1,.28-0.06L10.5,18.3h0L9.16,19.49l0.6,0.67L10,20a0.53,0.53,0,0,1-.33-0.17h0Zm4,2.16-0.5-.12,0.09-.37,0.35,0.08h0a0.27,0.27,0,0,1,.2.17L14,21.45l-0.78-.19L13,22l1,0.23,0.13-.31a0.42,0.42,0,0,1-.35.06m-0.55-.79L14,21.36,14,21.08a0.27,0.27,0,0,1-.26.06l-0.37-.09,0.07-.29,0.44,0.1a0.41,0.41,0,0,1,.3.19l0-.31-0.91-.22-0.15.64h0Z"/><path class="cls-3" d="M13.07,20.43l-0.36,1.52a0.27,0.27,0,0,1-.23.21l1.37,0.33,0.08-.18-1-.24,0.39-1.64,1,0.23v-0.2L13,20.15a0.28,0.28,0,0,1,.09.28m5,0.82,0,0.7h0l0.34-.18a0.22,0.22,0,0,1-.17-0.19l0-.25,0.47-.25L19,21.23a0.17,0.17,0,0,1,0,.24l0.34-.18h0l-0.55-.44-0.73.38h0Zm3.72-3.69a0.69,0.69,0,0,0-.88.18h0c-0.14.13-.21,0.17-0.28,0.14l0,0a0.17,0.17,0,0,1,0-.24A0.27,0.27,0,0,1,21,17.52h0l-0.09-.25h0a0.51,0.51,0,0,0-.45.26,0.35,0.35,0,0,0,.13.53A0.37,0.37,0,0,0,21,17.93h0l0.06,0,0,0a0.56,0.56,0,0,1,.38-0.19,0.49,0.49,0,0,1,.22.07,0.42,0.42,0,0,1,.2.25,0.56,0.56,0,0,1-.06.42,0.57,0.57,0,0,1-.37.28l-0.19,0h0l0.06,0.21h0a0.78,0.78,0,0,0,.64-0.4v0a0.8,0.8,0,0,0,.11-0.44,0.61,0.61,0,0,0-.31-0.5"/><path class="cls-3" d="M21.49,18.6a0.46,0.46,0,0,0,.31-0.24h0a0.38,0.38,0,0,0-.11-0.53,0.33,0.33,0,0,0-.37,0,2.68,2.68,0,0,0-.21.16,0.48,0.48,0,0,1-.59.17,0.43,0.43,0,0,1-.22-0.26,0.51,0.51,0,0,1,.07-0.4,0.57,0.57,0,0,1,.49-0.3h0L20.81,17h0a0.82,0.82,0,0,0-.65.82,0.6,0.6,0,0,0,.25.46l0.07,0a0.61,0.61,0,0,0,.79-0.17h0A0.33,0.33,0,0,1,21.6,18a0.2,0.2,0,0,1,0,.26,0.28,0.28,0,0,1-.13.13,0.39,0.39,0,0,1-.28,0h0l0.07,0.26h0a0.71,0.71,0,0,0,.19,0m-3.25,2,0.22,0.17-0.2.1ZM18,20.22l0.06,0.92,0.66-.35L18,20.22h0Z"/><path class="cls-3" d="M17.74,19.65l0.12,2.11a0.68,0.68,0,0,1-.09.39l0.3-.16-0.13-2,1.54,1.21,0.29-.15a0.72,0.72,0,0,1-.35-0.15l-1.68-1.29h0Z"/></svg>