<svg id="Layer_1" data-name="Layer 1" xmlns="http://www.w3.org/2000/svg" viewBox="0 0 30 30"><defs><style>.cls-1{fill:#e8e8e8;}.cls-2{fill:#fff;}.cls-3{fill:#ab0003;}.cls-4{fill:#11225b;}.cls-5{fill:none;stroke:#ba122f;stroke-width:8.65px;}</style></defs><title>washington-nationals</title><circle class="cls-1" cx="15" cy="15" r="15"/><path class="cls-2" d="M24.48,14.6a9.4,9.4,0,1,1-9.4-9.4A9.4,9.4,0,0,1,24.48,14.6Z"/><path class="cls-3" d="M24.09,14.6a9,9,0,1,1-9-9,9,9,0,0,1,9,9h0Z"/><path class="cls-4" d="M21.11,21.94h0.15v0.42h0.1V21.94h0.15V21.85H21.11v0.09h0Zm2.46-7.32a8.52,8.52,0,1,1-8.52-8.52,8.52,8.52,0,0,1,8.52,8.52h0Z"/><path class="cls-5" d="M21,14.6a6,6,0,1,1-6-6,6,6,0,0,1,6,6h0Z"/><path class="cls-2" d="M20.57,14.6a5.48,5.48,0,1,1-5.48-5.48,5.48,5.48,0,0,1,5.48,5.48h0Z"/><path class="cls-3" d="M8.25,16l-0.44-.31L7.37,16l0.17-.51-0.44-.31H7.64l0.17-.51L8,15.18H8.52l-0.44.32L8.25,16h0Zm14.88,0-0.44-.31L22.25,16l0.17-.51L22,15.19h0.54l0.17-.51,0.17,0.51h0.54L23,15.5,23.12,16h0Z"/><path class="cls-2" d="M8.87,12.42l-0.71-.74h1l0-.06L8,10.53l-0.12.28L8.56,11.4h-1l0,0.06,0.66,0.69-0.89-.07-0.12.29,1.62,0.1,0-.06h0Zm1.65-3.57,0.22,0,0.11,0,0.15,0a0.15,0.15,0,0,1,.13.07,0.13,0.13,0,0,1,0,.1,0.25,0.25,0,0,1-.11.15,0.31,0.31,0,0,1-.34,0l0,0-0.13.26,0,0a0.6,0.6,0,0,0,.27.06,0.62,0.62,0,0,0,.37-0.13,0.44,0.44,0,0,0,.16-0.65A0.42,0.42,0,0,0,11,8.47l-0.23,0-0.11,0-0.16,0a0.13,0.13,0,0,1-.12-0.06,0.13,0.13,0,0,1,0-.19,0.21,0.21,0,0,1,.23,0l0,0L10.81,8h0a0.48,0.48,0,0,0-.5.06,0.45,0.45,0,0,0-.19.28,0.4,0.4,0,0,0,.08.31,0.41,0.41,0,0,0,.36.18m1.9-.26-0.16-.41L12.83,8,13,8.37l0.28-.11L12.73,6.85,12.45,7,12.73,7.7l-0.57.22-0.28-.74-0.28.11,0.54,1.41,0.28-.11h0Zm1.85-.5L14,6.6l-0.3,0L14,8.13l0.3,0h0Zm1.06-.93,0.79,1h0.07l0.12-1.52L16,6.58,16,7.47l-0.79-1H15.09L15,8l0.29,0,0.07-.88h0Zm2.18,1.37a1,1,0,0,0,.35.07,0.83,0.83,0,0,0,.26,0h0L18.35,8l-0.62-.24L17.63,8,18,8.16l-0.06.15a0.59,0.59,0,0,1-.32,0,0.47,0.47,0,0,1-.29-0.64,0.46,0.46,0,0,1,.61-0.3,0.44,0.44,0,0,1,.29.28v0l0.27-.11v0A0.71,0.71,0,0,0,18,7.07,0.8,0.8,0,0,0,17.75,7a0.75,0.75,0,0,0-.71.5,0.77,0.77,0,0,0,.47,1m1.55,0.86,0.73-1,0.34,0.25,0.16-.22-0.93-.68L19.2,8l0.34,0.25-0.73,1,0.24,0.18h0ZM20,10a0.79,0.79,0,1,0,.29-0.52A0.77,0.77,0,0,0,20,10m0.48-.28a0.52,0.52,0,0,1,.32-0.12,0.45,0.45,0,0,1,.36.18,0.46,0.46,0,0,1-.09.67,0.52,0.52,0,0,1-.32.12,0.45,0.45,0,0,1-.36-0.18,0.46,0.46,0,0,1,.09-0.67m0.57,2.22,0.82-.33-0.52,1.12h0l0,0.07,1.42-.56-0.11-.27-0.82.32,0.52-1.14,0-.07L21,11.63l0.11,0.27h0ZM9.71,18.44L9,18.92l0.29-1.22,0-.06-1.28.83,0.16,0.24,0.74-.48L8.55,19.45l0,0.06,1.28-.83-0.16-.24h0Zm1.64,1.95,0.38,0.2-0.58,1.09,0.27,0.14L12,20.73l0.38,0.2,0.13-.24-1-.54-0.13.24h0Zm1.31,1.93L13,22.41,13.38,21l-0.29-.08-0.42,1.45h0Zm2.1-1.17a0.77,0.77,0,1,0-.07,1.54h0a0.77,0.77,0,0,0,0-1.54m-0.06,1.26a0.49,0.49,0,0,1,0-1h0a0.46,0.46,0,0,1,.33.15,0.51,0.51,0,0,1,.11.36,0.46,0.46,0,0,1-.49.47M17,20.89l0.22,0.86-1-.65h0l-0.07,0,0.38,1.48,0.28-.07-0.22-.86,1,0.65h0l0.07,0L17.3,20.82,17,20.89h0Zm3.47-.67-0.87-.87-0.21.21,1.06,1.07L21.13,20l-0.19-.19Zm1.38-2a0.44,0.44,0,0,0-.23-0.07,0.67,0.67,0,0,0-.37.15l-0.09.06a0.41,0.41,0,0,1-.2.09l-0.07,0a0.13,0.13,0,0,1,0-.19,0.21,0.21,0,0,1,.2-0.11h0V17.82h0a0.48,0.48,0,0,0-.43.25,0.46,0.46,0,0,0-.07.33,0.4,0.4,0,0,0,.19.26,0.41,0.41,0,0,0,.22.07,0.65,0.65,0,0,0,.37-0.15l0.09-.06a0.41,0.41,0,0,1,.2-0.09l0.08,0a0.13,0.13,0,0,1,.06.08,0.25,0.25,0,0,1,0,.18,0.31,0.31,0,0,1-.3.16h0l0,0.29h0.08a0.6,0.6,0,0,0,.52-0.3,0.55,0.55,0,0,0,.09-0.41,0.41,0.41,0,0,0-.19-0.25m-12.66,2,0.23,0.2,0.24-.12,0.42,0.36L10,20.93l0.24,0.21,0.51-1.59,0,0-1.51.72h0Zm1,0.12,0,0L10,20.18l0,0L10.33,20l-0.12.35h0Zm8.13-.08,0.21,1.66,0.26-.16,0-.27,0.48-.28,0.22,0.16,0.27-.16-1.35-1-0.05,0h0ZM19,21l0,0-0.28.17V21.17l-0.05-.37L19,21h0ZM9.73,10.74L9.61,10.5,10,10.07l0.26,0.08,0.2-.25L8.81,9.44l0,0L9.54,11l0.19-.24h0ZM9.27,9.87L9.63,10h0l-0.21.25-0.2-.38h0Z"/><path class="cls-4" d="M18.12,10.74a0.89,0.89,0,0,0-1.47.6c0.77,0.16,1.46.94,1.15,2.95C17.55,15.92,16.58,16.95,16,17a6.36,6.36,0,0,0,1-2.23c0.55-2.28-.33-3-1-3-0.85,0-1.7,1.12-1.94,2.49a3.68,3.68,0,0,0,.5,3c-0.58.74-2,1-1.74-.81a13.85,13.85,0,0,1,1.35-3.93v0c0.22-.45.39-0.77,0.47-0.9H14.45c-1.59,0-2.86.4-3.45,1.2a1.55,1.55,0,0,0-.11,2L11,14.81a0.69,0.69,0,0,0,.48.2,0.62,0.62,0,0,0,.62-0.62,0.69,0.69,0,0,0-.2-0.48,0.75,0.75,0,0,0-.24-0.16h0l0-.08a1.27,1.27,0,0,1,.54-0.48A1.91,1.91,0,0,1,12.85,13l0,0.08a14.07,14.07,0,0,0-1,2.45c-0.49,1.95.3,3.09,1.15,3.25a2.12,2.12,0,0,0,2.22-.95c0.49,0.31,1.8.5,2.79-1.26,1.13-2,1.17-5,.13-5.83m-2.89,5.77a4.21,4.21,0,0,1-.28-1.56,3.17,3.17,0,0,1,.35-1.58A0.57,0.57,0,0,1,15.81,13a0.22,0.22,0,0,1,.2.16,1.12,1.12,0,0,1,.06.42,7.81,7.81,0,0,1-.85,2.89"/><path class="cls-3" d="M18,10.88a0.67,0.67,0,0,0-.74-0.13,0.84,0.84,0,0,0-.41.45c0.48,0.16,1.2.65,1.2,2.17a6.08,6.08,0,0,1-.08.93,3.42,3.42,0,0,1-1.79,2.8,0.69,0.69,0,0,1-.54,0,6.08,6.08,0,0,0,1.17-2.39A5.34,5.34,0,0,0,17,13.44a1.92,1.92,0,0,0-.31-1.18,1,1,0,0,0-.72-0.4c-0.72,0-1.52,1-1.75,2.34a6.15,6.15,0,0,0-.1,1,2.73,2.73,0,0,0,.65,1.92,1.54,1.54,0,0,1-1.48.73,1,1,0,0,1-.7-1.14,3,3,0,0,1,0-.41,13.73,13.73,0,0,1,1.23-3.72v0c0.19-.39.35-0.71,0.46-0.9h0c-1.55.05-2.63,0.44-3.13,1.12a2,2,0,0,0-.4,1.08,1,1,0,0,0,.36.79l0,0a0.46,0.46,0,0,0,.61,0,0.47,0.47,0,0,0,0-.66,0.5,0.5,0,0,0-.34-0.15h0a1.62,1.62,0,0,1,1.69-1.1h0.11l0,0L13,13.17a13.65,13.65,0,0,0-1,2.4,3.14,3.14,0,0,0,.2,2.43,1.26,1.26,0,0,0,.8.59,1.93,1.93,0,0,0,1.48-.29,2.43,2.43,0,0,0,.66-0.72,1.68,1.68,0,0,0,.84.27,2.19,2.19,0,0,0,1.83-1.37,7.17,7.17,0,0,0,.86-3.27A3,3,0,0,0,18,10.88m-2.19,2c1.09,0.07-.14,3.48-0.61,4-0.78-1.41-.49-4.1.61-4"/></svg>